<svg width="753" height="367" viewBox="0 0 753 367" fill="none" xmlns="http://www.w3.org/2000/svg">
<rect width="753" height="367" fill="white"/>
<path d="M262.5 184L252.5 178.226V189.774L262.5 184ZM221 184V185H253.5V184V183H221V184Z" fill="#0B0755"/>
<path d="M531.5 184L521.5 178.226V189.774L531.5 184ZM490 184V185H522.5V184V183H490V184Z" fill="#0B0755"/>
<path d="M459.493 125.533C472.384 141.085 480.586 159.982 483.143 180.019C485.7 200.056 482.506 220.408 473.933 238.698C465.361 256.989 451.763 272.464 434.727 283.318C417.692 294.172 397.92 299.958 377.72 300C357.521 300.042 337.726 294.338 320.645 283.554C303.564 272.771 289.903 257.352 281.255 239.097C272.606 220.842 269.328 200.504 271.802 180.456C274.276 160.409 282.4 141.478 295.227 125.873L307.568 136.017C296.665 149.281 289.759 165.372 287.657 182.413C285.554 199.454 288.34 216.741 295.691 232.257C303.042 247.774 314.655 260.88 329.173 270.046C343.692 279.212 360.518 284.06 377.687 284.025C394.857 283.989 411.663 279.072 426.143 269.845C440.624 260.619 452.182 247.465 459.468 231.918C466.755 216.371 469.47 199.073 467.297 182.041C465.123 165.009 458.151 148.947 447.194 135.728L459.493 125.533Z" fill="#A8D8E8"/>
<path d="M295.193 125.914C299.443 120.739 304.171 115.976 309.315 111.689L319.543 123.961C315.17 127.605 311.151 131.653 307.539 136.052L295.193 125.914Z" fill="#F38300"/>
<path d="M445.298 111.368C450.462 115.631 455.213 120.371 459.487 125.527L447.189 135.723C443.556 131.341 439.518 127.311 435.128 123.688L445.298 111.368Z" fill="#3A035D"/>
<path d="M347.473 194H344.38V185.273H347.499C348.377 185.273 349.132 185.447 349.766 185.797C350.4 186.143 350.887 186.642 351.228 187.293C351.571 187.943 351.743 188.722 351.743 189.628C351.743 190.537 351.571 191.318 351.228 191.972C350.887 192.625 350.397 193.126 349.757 193.476C349.121 193.825 348.36 194 347.473 194ZM346.225 192.419H347.397C347.942 192.419 348.401 192.322 348.773 192.129C349.148 191.933 349.429 191.631 349.617 191.222C349.807 190.81 349.902 190.278 349.902 189.628C349.902 188.983 349.807 188.456 349.617 188.047C349.429 187.638 349.15 187.337 348.777 187.143C348.405 186.95 347.946 186.854 347.401 186.854H346.225V192.419ZM356.059 194.128C355.386 194.128 354.806 193.991 354.32 193.719C353.837 193.443 353.465 193.054 353.204 192.551C352.942 192.045 352.812 191.447 352.812 190.757C352.812 190.084 352.942 189.493 353.204 188.984C353.465 188.476 353.833 188.08 354.308 187.795C354.785 187.511 355.344 187.369 355.987 187.369C356.418 187.369 356.82 187.439 357.192 187.578C357.567 187.714 357.894 187.92 358.173 188.196C358.454 188.472 358.673 188.818 358.829 189.236C358.985 189.651 359.063 190.136 359.063 190.693V191.192H353.536V190.067H357.354C357.354 189.805 357.298 189.574 357.184 189.372C357.07 189.17 356.913 189.013 356.711 188.899C356.512 188.783 356.281 188.724 356.016 188.724C355.741 188.724 355.496 188.788 355.283 188.916C355.073 189.041 354.908 189.21 354.789 189.423C354.67 189.634 354.609 189.868 354.606 190.126V191.196C354.606 191.52 354.665 191.8 354.785 192.036C354.907 192.271 355.079 192.453 355.3 192.581C355.522 192.709 355.785 192.773 356.089 192.773C356.29 192.773 356.475 192.744 356.643 192.688C356.81 192.631 356.954 192.545 357.073 192.432C357.192 192.318 357.283 192.179 357.346 192.014L359.025 192.125C358.94 192.528 358.765 192.881 358.501 193.182C358.239 193.48 357.901 193.713 357.487 193.881C357.075 194.045 356.599 194.128 356.059 194.128ZM365.694 189.321L364.032 189.423C364.004 189.281 363.942 189.153 363.849 189.04C363.755 188.923 363.631 188.831 363.478 188.763C363.327 188.692 363.147 188.656 362.937 188.656C362.656 188.656 362.418 188.716 362.225 188.835C362.032 188.952 361.935 189.108 361.935 189.304C361.935 189.46 361.998 189.592 362.123 189.7C362.248 189.808 362.462 189.895 362.766 189.96L363.951 190.199C364.587 190.33 365.062 190.54 365.374 190.83C365.687 191.119 365.843 191.5 365.843 191.972C365.843 192.401 365.717 192.777 365.464 193.101C365.214 193.425 364.87 193.678 364.433 193.859C363.998 194.038 363.496 194.128 362.928 194.128C362.062 194.128 361.371 193.947 360.857 193.587C360.346 193.223 360.046 192.729 359.958 192.104L361.744 192.01C361.798 192.274 361.928 192.476 362.136 192.615C362.343 192.751 362.609 192.82 362.933 192.82C363.251 192.82 363.506 192.759 363.7 192.636C363.896 192.511 363.995 192.351 363.998 192.155C363.995 191.99 363.925 191.855 363.789 191.75C363.653 191.642 363.442 191.56 363.158 191.503L362.025 191.277C361.386 191.149 360.91 190.928 360.597 190.612C360.288 190.297 360.133 189.895 360.133 189.406C360.133 188.986 360.246 188.624 360.474 188.32C360.704 188.016 361.026 187.781 361.441 187.616C361.859 187.452 362.347 187.369 362.907 187.369C363.734 187.369 364.384 187.544 364.859 187.893C365.336 188.243 365.614 188.719 365.694 189.321ZM370.468 187.455V188.818H366.526V187.455H370.468ZM367.421 185.886H369.236V191.989C369.236 192.156 369.262 192.287 369.313 192.381C369.364 192.472 369.435 192.536 369.526 192.572C369.62 192.609 369.728 192.628 369.85 192.628C369.935 192.628 370.02 192.621 370.105 192.607C370.191 192.589 370.256 192.577 370.301 192.568L370.587 193.919C370.496 193.947 370.368 193.98 370.203 194.017C370.039 194.057 369.838 194.081 369.603 194.089C369.165 194.107 368.782 194.048 368.452 193.915C368.125 193.781 367.871 193.574 367.689 193.293C367.507 193.011 367.418 192.656 367.421 192.227V185.886ZM371.65 194V187.455H373.466V194H371.65ZM372.562 186.611C372.292 186.611 372.061 186.521 371.868 186.342C371.677 186.161 371.582 185.943 371.582 185.69C371.582 185.44 371.677 185.226 371.868 185.047C372.061 184.865 372.292 184.774 372.562 184.774C372.832 184.774 373.062 184.865 373.252 185.047C373.446 185.226 373.542 185.44 373.542 185.69C373.542 185.943 373.446 186.161 373.252 186.342C373.062 186.521 372.832 186.611 372.562 186.611ZM376.735 190.216V194H374.92V187.455H376.65V188.609H376.727C376.871 188.229 377.114 187.928 377.455 187.706C377.796 187.482 378.21 187.369 378.695 187.369C379.15 187.369 379.546 187.469 379.884 187.668C380.222 187.866 380.485 188.151 380.673 188.52C380.86 188.886 380.954 189.324 380.954 189.832V194H379.138V190.156C379.141 189.756 379.039 189.443 378.832 189.219C378.624 188.991 378.339 188.878 377.975 188.878C377.731 188.878 377.515 188.93 377.327 189.036C377.143 189.141 376.998 189.294 376.893 189.496C376.79 189.695 376.738 189.935 376.735 190.216ZM384.251 194.124C383.833 194.124 383.461 194.051 383.135 193.906C382.808 193.759 382.549 193.541 382.359 193.254C382.172 192.964 382.078 192.604 382.078 192.172C382.078 191.808 382.145 191.503 382.278 191.256C382.412 191.009 382.593 190.81 382.824 190.659C383.054 190.509 383.315 190.395 383.608 190.318C383.903 190.241 384.213 190.188 384.537 190.156C384.917 190.116 385.224 190.08 385.457 190.045C385.69 190.009 385.859 189.955 385.964 189.884C386.069 189.812 386.122 189.707 386.122 189.568V189.543C386.122 189.273 386.037 189.064 385.866 188.916C385.699 188.768 385.46 188.695 385.15 188.695C384.824 188.695 384.564 188.767 384.37 188.912C384.177 189.054 384.049 189.233 383.987 189.449L382.308 189.312C382.393 188.915 382.561 188.571 382.811 188.281C383.061 187.989 383.383 187.764 383.778 187.608C384.176 187.449 384.636 187.369 385.159 187.369C385.522 187.369 385.87 187.412 386.203 187.497C386.538 187.582 386.835 187.714 387.093 187.893C387.355 188.072 387.561 188.303 387.711 188.584C387.862 188.862 387.937 189.196 387.937 189.585V194H386.216V193.092H386.164C386.059 193.297 385.919 193.477 385.743 193.634C385.566 193.787 385.355 193.908 385.108 193.996C384.86 194.081 384.575 194.124 384.251 194.124ZM384.771 192.871C385.038 192.871 385.274 192.818 385.478 192.713C385.683 192.605 385.843 192.46 385.96 192.278C386.076 192.097 386.135 191.891 386.135 191.661V190.966C386.078 191.003 386 191.037 385.9 191.068C385.804 191.097 385.694 191.124 385.572 191.149C385.45 191.172 385.328 191.193 385.206 191.213C385.083 191.23 384.973 191.246 384.873 191.26C384.66 191.291 384.474 191.341 384.315 191.409C384.156 191.477 384.032 191.57 383.944 191.686C383.856 191.8 383.812 191.942 383.812 192.112C383.812 192.359 383.902 192.548 384.081 192.679C384.262 192.807 384.493 192.871 384.771 192.871ZM392.827 187.455V188.818H388.885V187.455H392.827ZM389.78 185.886H391.596V191.989C391.596 192.156 391.621 192.287 391.672 192.381C391.723 192.472 391.794 192.536 391.885 192.572C391.979 192.609 392.087 192.628 392.209 192.628C392.294 192.628 392.38 192.621 392.465 192.607C392.55 192.589 392.615 192.577 392.661 192.568L392.946 193.919C392.855 193.947 392.728 193.98 392.563 194.017C392.398 194.057 392.198 194.081 391.962 194.089C391.525 194.107 391.141 194.048 390.811 193.915C390.485 193.781 390.23 193.574 390.049 193.293C389.867 193.011 389.777 192.656 389.78 192.227V185.886ZM394.01 194V187.455H395.825V194H394.01ZM394.922 186.611C394.652 186.611 394.42 186.521 394.227 186.342C394.037 186.161 393.941 185.943 393.941 185.69C393.941 185.44 394.037 185.226 394.227 185.047C394.42 184.865 394.652 184.774 394.922 184.774C395.191 184.774 395.422 184.865 395.612 185.047C395.805 185.226 395.902 185.44 395.902 185.69C395.902 185.943 395.805 186.161 395.612 186.342C395.422 186.521 395.191 186.611 394.922 186.611ZM400.237 194.128C399.575 194.128 399.002 193.987 398.519 193.706C398.039 193.422 397.668 193.027 397.407 192.521C397.146 192.013 397.015 191.423 397.015 190.753C397.015 190.077 397.146 189.486 397.407 188.98C397.668 188.472 398.039 188.077 398.519 187.795C399.002 187.511 399.575 187.369 400.237 187.369C400.898 187.369 401.469 187.511 401.95 187.795C402.433 188.077 402.805 188.472 403.066 188.98C403.327 189.486 403.458 190.077 403.458 190.753C403.458 191.423 403.327 192.013 403.066 192.521C402.805 193.027 402.433 193.422 401.95 193.706C401.469 193.987 400.898 194.128 400.237 194.128ZM400.245 192.722C400.546 192.722 400.798 192.636 400.999 192.466C401.201 192.293 401.353 192.057 401.455 191.759C401.56 191.46 401.613 191.121 401.613 190.74C401.613 190.359 401.56 190.02 401.455 189.722C401.353 189.423 401.201 189.187 400.999 189.014C400.798 188.841 400.546 188.754 400.245 188.754C399.941 188.754 399.685 188.841 399.478 189.014C399.273 189.187 399.119 189.423 399.013 189.722C398.911 190.02 398.86 190.359 398.86 190.74C398.86 191.121 398.911 191.46 399.013 191.759C399.119 192.057 399.273 192.293 399.478 192.466C399.685 192.636 399.941 192.722 400.245 192.722ZM406.454 190.216V194H404.638V187.455H406.369V188.609H406.445C406.59 188.229 406.833 187.928 407.174 187.706C407.515 187.482 407.928 187.369 408.414 187.369C408.869 187.369 409.265 187.469 409.603 187.668C409.941 187.866 410.204 188.151 410.391 188.52C410.579 188.886 410.673 189.324 410.673 189.832V194H408.857V190.156C408.86 189.756 408.758 189.443 408.55 189.219C408.343 188.991 408.058 188.878 407.694 188.878C407.45 188.878 407.234 188.93 407.046 189.036C406.862 189.141 406.717 189.294 406.612 189.496C406.509 189.695 406.457 189.935 406.454 190.216ZM360.177 200.273L362.286 206.903H362.367L364.481 200.273H366.526L363.518 209H361.14L358.127 200.273H360.177ZM369.787 209.128C369.114 209.128 368.535 208.991 368.049 208.719C367.566 208.443 367.194 208.054 366.932 207.551C366.671 207.045 366.54 206.447 366.54 205.757C366.54 205.084 366.671 204.493 366.932 203.984C367.194 203.476 367.562 203.08 368.036 202.795C368.513 202.511 369.073 202.369 369.715 202.369C370.147 202.369 370.549 202.439 370.921 202.578C371.296 202.714 371.623 202.92 371.901 203.196C372.182 203.472 372.401 203.818 372.557 204.236C372.714 204.651 372.792 205.136 372.792 205.693V206.192H367.265V205.067H371.083C371.083 204.805 371.026 204.574 370.912 204.372C370.799 204.17 370.641 204.013 370.439 203.899C370.241 203.783 370.009 203.724 369.745 203.724C369.469 203.724 369.225 203.788 369.012 203.916C368.802 204.041 368.637 204.21 368.518 204.423C368.398 204.634 368.337 204.868 368.334 205.126V206.196C368.334 206.52 368.394 206.8 368.513 207.036C368.635 207.271 368.807 207.453 369.029 207.581C369.251 207.709 369.513 207.773 369.817 207.773C370.019 207.773 370.204 207.744 370.371 207.688C370.539 207.631 370.682 207.545 370.802 207.432C370.921 207.318 371.012 207.179 371.074 207.014L372.753 207.125C372.668 207.528 372.493 207.881 372.229 208.182C371.968 208.48 371.63 208.713 371.215 208.881C370.803 209.045 370.327 209.128 369.787 209.128ZM376.934 209.128C376.263 209.128 375.687 208.986 375.204 208.702C374.724 208.415 374.354 208.017 374.096 207.509C373.84 207 373.712 206.415 373.712 205.753C373.712 205.082 373.841 204.494 374.1 203.989C374.361 203.48 374.732 203.084 375.212 202.8C375.692 202.513 376.263 202.369 376.925 202.369C377.496 202.369 377.996 202.473 378.425 202.68C378.854 202.888 379.194 203.179 379.444 203.554C379.694 203.929 379.831 204.369 379.857 204.875H378.144C378.096 204.548 377.968 204.286 377.76 204.087C377.556 203.885 377.287 203.784 376.955 203.784C376.674 203.784 376.428 203.861 376.218 204.014C376.01 204.165 375.849 204.385 375.732 204.675C375.616 204.964 375.557 205.315 375.557 205.727C375.557 206.145 375.614 206.5 375.728 206.793C375.844 207.085 376.008 207.308 376.218 207.462C376.428 207.615 376.674 207.692 376.955 207.692C377.162 207.692 377.349 207.649 377.513 207.564C377.681 207.479 377.819 207.355 377.927 207.193C378.037 207.028 378.11 206.831 378.144 206.601H379.857C379.829 207.101 379.692 207.541 379.448 207.922C379.206 208.3 378.873 208.595 378.447 208.808C378.02 209.021 377.516 209.128 376.934 209.128ZM384.501 202.455V203.818H380.559V202.455H384.501ZM381.454 200.886H383.269V206.989C383.269 207.156 383.295 207.287 383.346 207.381C383.397 207.472 383.468 207.536 383.559 207.572C383.653 207.609 383.761 207.628 383.883 207.628C383.968 207.628 384.053 207.621 384.139 207.607C384.224 207.589 384.289 207.577 384.335 207.568L384.62 208.919C384.529 208.947 384.401 208.98 384.237 209.017C384.072 209.057 383.872 209.081 383.636 209.089C383.198 209.107 382.815 209.048 382.485 208.915C382.159 208.781 381.904 208.574 381.722 208.293C381.541 208.011 381.451 207.656 381.454 207.227V200.886ZM388.57 209.128C387.909 209.128 387.336 208.987 386.853 208.706C386.373 208.422 386.002 208.027 385.741 207.521C385.48 207.013 385.349 206.423 385.349 205.753C385.349 205.077 385.48 204.486 385.741 203.98C386.002 203.472 386.373 203.077 386.853 202.795C387.336 202.511 387.909 202.369 388.57 202.369C389.232 202.369 389.803 202.511 390.284 202.795C390.767 203.077 391.139 203.472 391.4 203.98C391.661 204.486 391.792 205.077 391.792 205.753C391.792 206.423 391.661 207.013 391.4 207.521C391.139 208.027 390.767 208.422 390.284 208.706C389.803 208.987 389.232 209.128 388.57 209.128ZM388.579 207.722C388.88 207.722 389.132 207.636 389.333 207.466C389.535 207.293 389.687 207.057 389.789 206.759C389.894 206.46 389.947 206.121 389.947 205.74C389.947 205.359 389.894 205.02 389.789 204.722C389.687 204.423 389.535 204.187 389.333 204.014C389.132 203.841 388.88 203.754 388.579 203.754C388.275 203.754 388.019 203.841 387.812 204.014C387.607 204.187 387.453 204.423 387.347 204.722C387.245 205.02 387.194 205.359 387.194 205.74C387.194 206.121 387.245 206.46 387.347 206.759C387.453 207.057 387.607 207.293 387.812 207.466C388.019 207.636 388.275 207.722 388.579 207.722ZM392.972 209V202.455H394.732V203.597H394.801C394.92 203.19 395.12 202.884 395.401 202.676C395.683 202.466 396.007 202.361 396.373 202.361C396.464 202.361 396.562 202.366 396.667 202.378C396.772 202.389 396.865 202.405 396.944 202.425V204.036C396.859 204.01 396.741 203.987 396.59 203.967C396.44 203.947 396.302 203.938 396.177 203.938C395.91 203.938 395.671 203.996 395.461 204.112C395.254 204.226 395.089 204.385 394.967 204.589C394.847 204.794 394.788 205.03 394.788 205.297V209H392.972Z" fill="#0B0755"/>
<path d="M289.858 87.1599C302.883 76.1138 317.878 67.6295 334.055 62.1537L339.703 78.8388C325.629 83.6026 312.583 90.984 301.252 100.594L289.858 87.1599Z" fill="#1B76B3"/>
<path d="M354.643 24.5668C370.077 22.4409 385.731 22.4785 401.154 24.6787L398.553 42.919C384.826 40.9609 370.893 40.9274 357.157 42.8195L354.643 24.5668Z" fill="#1B76B3"/>
<path d="M272.071 105.383C277.423 98.7536 283.388 92.6439 289.888 87.135L301.277 100.572C295.623 105.365 290.433 110.681 285.777 116.448L272.071 105.383Z" fill="#F38300"/>
<path d="M334.056 62.1533C342.126 59.4216 350.436 57.4572 358.875 56.2861L361.297 73.7339C353.954 74.7528 346.725 76.4618 339.704 78.8384L334.056 62.1533Z" fill="#E75A46"/>
<path d="M421.452 62.3265C437.607 67.8661 452.569 76.4097 465.55 87.5072L454.103 100.896C442.81 91.2415 429.793 83.8085 415.739 78.9891L421.452 62.3265Z" fill="#1B76B3"/>
<path d="M396.679 56.3641C405.113 57.5701 413.415 59.5688 421.473 62.3338L415.757 78.9954C408.746 76.5898 401.523 74.8509 394.185 73.8018L396.679 56.3641Z" fill="#5FA65F"/>
<path d="M465.456 87.4269C471.937 92.9574 477.882 99.0869 483.212 105.734L469.469 116.753C464.832 110.971 459.66 105.638 454.021 100.826L465.456 87.4269Z" fill="#3A035D"/>
<path d="M401.134 24.6758C411.561 26.1619 421.824 28.6281 431.788 32.0416L425.816 49.4721C416.949 46.434 407.814 44.2391 398.535 42.9165L401.134 24.6758Z" fill="#5FA65F"/>
<path d="M324.124 31.732C334.107 28.3758 344.385 25.9687 354.82 24.5426L357.315 42.7979C348.027 44.0672 338.88 46.2095 329.995 49.1965L324.124 31.732Z" fill="#E75A46"/>
<path d="M286.697 72.012L291.061 79.57L289.463 80.4926L285.099 72.9346L286.697 72.012ZM292.026 74.6432L293.918 77.9203L292.346 78.828L289.073 73.1595L290.572 72.2944L291.149 73.2945L291.215 73.2562C291.151 72.8541 291.21 72.4718 291.395 72.1095C291.578 71.7446 291.88 71.4408 292.3 71.1979C292.694 70.9706 293.087 70.8586 293.479 70.8618C293.871 70.8649 294.241 70.9796 294.588 71.2057C294.934 71.4293 295.234 71.7613 295.488 72.2017L297.572 75.811L295.999 76.7186L294.078 73.3898C293.88 73.0415 293.635 72.822 293.343 72.7314C293.05 72.6382 292.746 72.6826 292.431 72.8644C292.219 72.9865 292.059 73.14 291.949 73.3248C291.841 73.5082 291.793 73.7135 291.802 73.9407C291.813 74.1641 291.888 74.3982 292.026 74.6432ZM301.188 68.3205L299.799 69.24C299.704 69.1312 299.587 69.051 299.449 68.9995C299.31 68.9455 299.156 68.9273 298.989 68.945C298.824 68.9587 298.65 69.0182 298.467 69.1233C298.224 69.2639 298.048 69.4342 297.941 69.6341C297.832 69.8316 297.826 70.0152 297.924 70.185C298.002 70.3203 298.122 70.4034 298.285 70.4344C298.447 70.4654 298.676 70.4332 298.972 70.3378L300.117 69.9521C300.734 69.7471 301.25 69.692 301.665 69.7867C302.081 69.8814 302.406 70.1329 302.642 70.5413C302.857 70.9129 302.935 71.3021 302.878 71.7089C302.824 72.1144 302.652 72.5053 302.364 72.8815C302.077 73.2538 301.688 73.582 301.196 73.8661C300.446 74.2993 299.757 74.4883 299.132 74.4329C298.507 74.3737 298 74.0955 297.612 73.5982L299.111 72.6243C299.29 72.8261 299.504 72.9354 299.753 72.9523C300.001 72.9667 300.265 72.8929 300.545 72.731C300.821 72.5719 301.012 72.3912 301.118 72.1888C301.225 71.9825 301.231 71.7938 301.136 71.6226C301.051 71.4813 300.923 71.3993 300.752 71.3764C300.58 71.3511 300.357 71.3849 300.083 71.4777L298.988 71.8489C298.371 72.0578 297.848 72.1038 297.419 71.987C296.994 71.8687 296.658 71.598 296.414 71.1748C296.204 70.8107 296.121 70.4402 296.166 70.0633C296.213 69.685 296.375 69.3208 296.652 68.9707C296.932 68.6192 297.314 68.3035 297.798 68.0237C298.514 67.6104 299.165 67.4364 299.75 67.5018C300.339 67.5658 300.818 67.8387 301.188 68.3205ZM307.293 70.3457C306.71 70.6823 306.14 70.854 305.583 70.8607C305.027 70.8635 304.51 70.7126 304.032 70.4078C303.553 70.1005 303.141 69.648 302.796 69.0501C302.459 68.467 302.277 67.8899 302.249 67.3189C302.221 66.7478 302.342 66.2206 302.61 65.7374C302.882 65.2527 303.295 64.8499 303.851 64.5289C304.225 64.3129 304.608 64.1722 305 64.1067C305.393 64.0373 305.779 64.0523 306.158 64.1518C306.539 64.2498 306.902 64.4406 307.246 64.7241C307.589 65.0052 307.899 65.3868 308.178 65.869L308.427 66.3008L303.641 69.0643L303.078 68.09L306.385 66.181C306.254 65.9546 306.089 65.7825 305.89 65.6646C305.691 65.5468 305.475 65.4891 305.244 65.4915C305.013 65.4901 304.784 65.5554 304.555 65.6875C304.316 65.8253 304.137 66.0028 304.016 66.22C303.896 66.4334 303.838 66.6622 303.841 66.9064C303.843 67.1481 303.907 67.3816 304.034 67.6069L304.569 68.5332C304.731 68.8137 304.923 69.0262 305.144 69.1707C305.368 69.3139 305.607 69.3854 305.863 69.3853C306.119 69.3852 306.378 69.3092 306.642 69.1572C306.816 69.0564 306.962 68.9394 307.079 68.8064C307.196 68.6734 307.277 68.5279 307.324 68.3698C307.37 68.2117 307.379 68.0457 307.351 67.8718L308.861 67.1282C308.988 67.5202 309.013 67.9126 308.935 68.3055C308.858 68.6945 308.682 69.0653 308.406 69.4179C308.132 69.7665 307.761 70.0758 307.293 70.3457ZM310.857 68.1405L307.585 62.472L309.109 61.592L309.68 62.581L309.739 62.547C309.639 62.1355 309.659 61.7696 309.799 61.4494C309.937 61.1267 310.165 60.8737 310.483 60.6905C310.561 60.6451 310.649 60.601 310.746 60.5582C310.842 60.5155 310.93 60.4829 311.009 60.4604L311.814 61.8553C311.728 61.8758 311.614 61.9151 311.474 61.9731C311.334 62.0312 311.209 62.0915 311.101 62.154C310.87 62.2875 310.692 62.4573 310.569 62.6632C310.446 62.8654 310.383 63.0855 310.379 63.3237C310.378 63.5605 310.444 63.7946 310.578 64.0258L312.429 67.2328L310.857 68.1405ZM315.136 58.1121L315.818 59.293L312.404 61.2639L311.722 60.083L315.136 58.1121ZM311.713 58.2774L313.285 57.3698L316.337 62.6545C316.42 62.7996 316.508 62.9 316.599 62.9556C316.689 63.0088 316.782 63.0287 316.879 63.0152C316.979 63.0003 317.082 62.9623 317.188 62.9012C317.261 62.8586 317.332 62.8098 317.398 62.7549C317.464 62.6976 317.514 62.6538 317.549 62.6237L318.472 63.6508C318.407 63.7209 318.313 63.8131 318.189 63.9275C318.066 64.0443 317.904 64.1654 317.704 64.2906C317.334 64.5241 316.973 64.6655 316.621 64.7146C316.271 64.7623 315.947 64.7099 315.649 64.5572C315.351 64.4045 315.096 64.1417 314.884 63.7688L311.713 58.2774ZM320.748 52.3527L325.112 59.9108L323.514 60.8333L320.026 54.7921L319.981 54.8176L318.877 56.9019L318.059 55.4848L319.246 53.2199L320.748 52.3527Z" fill="#0B0755"/>
<path d="M437.198 54.6019L432.835 62.1599L431.237 61.2373L435.6 53.6793L437.198 54.6019ZM437.584 60.5325L435.692 63.8096L434.12 62.9019L437.392 57.2334L438.891 58.0984L438.313 59.0986L438.38 59.1369C438.696 58.8797 439.057 58.7403 439.463 58.7189C439.87 58.695 440.284 58.8045 440.705 59.0474C441.098 59.2746 441.392 59.5589 441.585 59.9001C441.779 60.2414 441.864 60.6188 441.842 61.0324C441.821 61.4435 441.683 61.8693 441.429 62.3097L439.345 65.919L437.773 65.0113L439.695 61.6825C439.898 61.337 439.966 61.0153 439.898 60.7172C439.832 60.4167 439.642 60.1755 439.327 59.9937C439.115 59.8715 438.902 59.8091 438.687 59.8064C438.475 59.8051 438.272 59.8655 438.081 59.9876C437.893 60.1087 437.727 60.2903 437.584 60.5325ZM447.64 65.3052L446.15 64.5628C446.196 64.4256 446.207 64.2844 446.183 64.1391C446.16 63.9913 446.099 63.8496 446 63.7138C445.906 63.577 445.767 63.4561 445.585 63.351C445.341 63.2103 445.106 63.1434 444.879 63.1501C444.654 63.1544 444.492 63.2414 444.394 63.4112C444.316 63.5465 444.304 63.6922 444.358 63.8482C444.412 64.0042 444.555 64.1864 444.785 64.395L445.692 65.194C446.178 65.6254 446.484 66.0447 446.609 66.4519C446.735 66.8591 446.68 67.2669 446.444 67.6753C446.23 68.0468 445.932 68.3096 445.551 68.4636C445.173 68.6191 444.749 68.6662 444.279 68.6049C443.813 68.5425 443.334 68.3693 442.842 68.0852C442.091 67.652 441.584 67.1506 441.319 66.581C441.058 66.0104 441.045 65.4325 441.282 64.8472L442.875 65.6588C442.79 65.9146 442.802 66.1546 442.912 66.3788C443.023 66.6006 443.219 66.7925 443.5 66.9544C443.775 67.1135 444.027 67.1884 444.256 67.1792C444.488 67.169 444.654 67.0797 444.755 66.9114C444.835 66.7673 444.842 66.6156 444.776 66.4564C444.712 66.2947 444.571 66.1182 444.354 65.927L443.485 65.1646C442.995 64.7343 442.694 64.3045 442.581 63.8751C442.47 63.4472 442.537 63.0217 442.782 62.5985C442.992 62.2344 443.271 61.9775 443.62 61.8279C443.972 61.6797 444.368 61.6379 444.81 61.7026C445.254 61.7687 445.718 61.9417 446.203 62.2215C446.919 62.6349 447.395 63.1115 447.631 63.6513C447.869 64.1926 447.873 64.7439 447.64 65.3052ZM448.939 71.6057C448.356 71.269 447.923 70.8612 447.638 70.3821C447.358 69.9019 447.23 69.3788 447.255 68.8126C447.282 68.244 447.467 67.6608 447.813 67.0629C448.149 66.4799 448.558 66.0334 449.039 65.7237C449.519 65.414 450.036 65.2548 450.589 65.2459C451.144 65.2386 451.7 65.3954 452.256 65.7164C452.63 65.9323 452.943 66.1936 453.196 66.5002C453.452 66.8058 453.632 67.1475 453.736 67.5254C453.842 67.9047 453.858 68.3142 453.784 68.754C453.712 69.1913 453.537 69.6511 453.258 70.1333L453.009 70.5651L448.223 67.8016L448.785 66.8273L452.092 68.7364C452.223 68.51 452.289 68.2811 452.292 68.0496C452.294 67.8181 452.236 67.6027 452.118 67.4035C452.004 67.2032 451.833 67.037 451.604 66.9049C451.366 66.7671 451.122 66.7003 450.874 66.7045C450.629 66.7076 450.402 66.7716 450.192 66.8965C449.983 67.0189 449.813 67.1913 449.682 67.4138L449.147 68.3401C448.985 68.6205 448.897 68.8927 448.882 69.1566C448.87 69.4219 448.928 69.6653 449.056 69.8868C449.184 70.1083 449.38 70.295 449.643 70.447C449.817 70.5479 449.992 70.6156 450.165 70.6502C450.339 70.6848 450.506 70.6827 450.666 70.644C450.826 70.6052 450.974 70.5301 451.111 70.4187L452.509 71.3541C452.234 71.6609 451.906 71.8786 451.527 72.0073C451.152 72.1349 450.742 72.1676 450.299 72.1054C449.86 72.0421 449.407 71.8756 448.939 71.6057ZM452.631 73.5894L455.904 67.9209L457.428 68.8009L456.857 69.7899L456.916 69.824C457.222 69.5318 457.549 69.3663 457.897 69.3273C458.245 69.2858 458.578 69.3567 458.896 69.54C458.974 69.5854 459.056 69.6394 459.142 69.7018C459.227 69.7642 459.299 69.8239 459.358 69.8808L458.553 71.2758C458.492 71.2111 458.401 71.1324 458.281 71.0399C458.16 70.9474 458.046 70.8699 457.937 70.8074C457.706 70.6739 457.47 70.605 457.23 70.6008C456.994 70.5955 456.771 70.6509 456.563 70.767C456.358 70.8844 456.188 71.0588 456.055 71.2901L454.203 74.4971L452.631 73.5894ZM463.455 72.2808L462.774 73.4617L459.36 71.4909L460.042 70.3099L463.455 72.2808ZM461.601 69.3993L463.173 70.3069L460.122 75.5917C460.038 75.7368 459.995 75.8628 459.992 75.9695C459.991 76.0738 460.021 76.1647 460.081 76.2421C460.144 76.321 460.228 76.391 460.334 76.452C460.407 76.4947 460.485 76.5311 460.566 76.5614C460.648 76.5893 460.711 76.6109 460.755 76.6262L460.326 77.9389C460.233 77.918 460.106 77.8824 459.945 77.832C459.783 77.784 459.597 77.7048 459.389 77.5943C459.001 77.3903 458.698 77.1481 458.48 76.8677C458.263 76.5887 458.147 76.282 458.13 75.9475C458.113 75.613 458.213 75.2607 458.43 74.8907L461.601 69.3993ZM466.331 81.637C465.78 81.3188 465.344 80.9407 465.023 80.5027C464.705 80.0636 464.519 79.6051 464.464 79.127C464.412 78.6479 464.51 78.186 464.757 77.7414L466.366 78.6703C466.269 78.8605 466.236 79.0577 466.266 79.2619C466.299 79.465 466.388 79.6587 466.531 79.8429C466.673 80.0271 466.862 80.1867 467.096 80.3216C467.339 80.4623 467.579 80.5435 467.816 80.5653C468.053 80.5872 468.268 80.5524 468.462 80.4609C468.656 80.3695 468.81 80.2241 468.925 80.0248C469.042 79.8231 469.088 79.612 469.064 79.3917C469.045 79.1703 468.956 78.9549 468.798 78.7456C468.642 78.5378 468.422 78.3514 468.136 78.1866L467.431 77.7797L468.109 76.6061L468.814 77.0131C469.055 77.1523 469.292 77.2333 469.525 77.2562C469.76 77.2805 469.972 77.2487 470.16 77.1607C470.35 77.0703 470.503 76.9255 470.618 76.7262C470.727 76.5367 470.778 76.3444 470.769 76.1491C470.764 75.9528 470.704 75.7672 470.589 75.5923C470.476 75.4188 470.312 75.2702 470.098 75.1466C469.882 75.0216 469.661 74.9467 469.436 74.9217C469.212 74.8943 469.005 74.9207 468.814 75.0008C468.624 75.081 468.469 75.215 468.351 75.4026L466.82 74.5184C467.078 74.0872 467.424 73.7751 467.857 73.5822C468.29 73.3892 468.765 73.3172 469.281 73.366C469.801 73.4137 470.32 73.5868 470.836 73.8851C471.358 74.1862 471.76 74.5444 472.041 74.9597C472.323 75.375 472.479 75.8063 472.51 76.2536C472.544 76.6999 472.445 77.1216 472.212 77.5187C471.971 77.9433 471.635 78.2204 471.206 78.3499C470.779 78.4808 470.332 78.4623 469.865 78.2942L469.831 78.3533C470.346 78.7457 470.658 79.1831 470.766 79.6656C470.879 80.1471 470.798 80.6221 470.524 81.0906C470.278 81.5226 469.933 81.8334 469.489 82.0232C469.047 82.2143 468.552 82.2794 468.003 82.2185C467.454 82.1575 466.897 81.9637 466.331 81.637Z" fill="#0B0755"/>
<path d="M357.615 9.27273V18H355.77V9.27273H357.615ZM360.915 14.2159V18H359.099V11.4545H360.83V12.6094H360.906C361.051 12.2287 361.294 11.9276 361.635 11.706C361.976 11.4815 362.389 11.3693 362.875 11.3693C363.33 11.3693 363.726 11.4688 364.064 11.6676C364.402 11.8665 364.665 12.1506 364.852 12.5199C365.04 12.8864 365.134 13.3239 365.134 13.8324V18H363.318V14.1562C363.321 13.7557 363.219 13.4432 363.011 13.2188C362.804 12.9915 362.518 12.8778 362.155 12.8778C361.911 12.8778 361.695 12.9304 361.507 13.0355C361.322 13.1406 361.178 13.294 361.072 13.4957C360.97 13.6946 360.918 13.9347 360.915 14.2159ZM372.01 13.321L370.348 13.4233C370.32 13.2812 370.259 13.1534 370.165 13.0398C370.071 12.9233 369.948 12.831 369.794 12.7628C369.644 12.6918 369.463 12.6562 369.253 12.6562C368.972 12.6562 368.735 12.7159 368.542 12.8352C368.348 12.9517 368.252 13.108 368.252 13.304C368.252 13.4602 368.314 13.5923 368.439 13.7003C368.564 13.8082 368.779 13.8949 369.083 13.9602L370.267 14.1989C370.904 14.3295 371.378 14.5398 371.691 14.8295C372.003 15.1193 372.159 15.5 372.159 15.9716C372.159 16.4006 372.033 16.777 371.78 17.1009C371.53 17.4247 371.186 17.6776 370.749 17.8594C370.314 18.0384 369.813 18.1278 369.245 18.1278C368.378 18.1278 367.688 17.9474 367.174 17.5866C366.662 17.223 366.363 16.7287 366.275 16.1037L368.06 16.0099C368.114 16.2741 368.245 16.4759 368.452 16.6151C368.659 16.7514 368.925 16.8196 369.249 16.8196C369.567 16.8196 369.823 16.7585 370.016 16.6364C370.212 16.5114 370.311 16.3509 370.314 16.1548C370.311 15.9901 370.242 15.8551 370.105 15.75C369.969 15.642 369.759 15.5597 369.475 15.5028L368.341 15.277C367.702 15.1491 367.226 14.9276 366.914 14.6122C366.604 14.2969 366.449 13.8949 366.449 13.4062C366.449 12.9858 366.563 12.6236 366.79 12.3196C367.02 12.0156 367.343 11.7812 367.757 11.6165C368.175 11.4517 368.664 11.3693 369.223 11.3693C370.05 11.3693 370.701 11.544 371.175 11.8935C371.652 12.2429 371.931 12.7187 372.01 13.321ZM376.286 18.1278C375.612 18.1278 375.033 17.9915 374.547 17.7188C374.064 17.4432 373.692 17.054 373.43 16.5511C373.169 16.0455 373.038 15.4474 373.038 14.7571C373.038 14.0838 373.169 13.4929 373.43 12.9844C373.692 12.4759 374.06 12.0795 374.534 11.7955C375.011 11.5114 375.571 11.3693 376.213 11.3693C376.645 11.3693 377.047 11.4389 377.419 11.5781C377.794 11.7145 378.121 11.9205 378.399 12.196C378.68 12.4716 378.899 12.8182 379.055 13.2358C379.212 13.6506 379.29 14.1364 379.29 14.6932V15.1918H373.763V14.0668H377.581C377.581 13.8054 377.524 13.5739 377.411 13.3722C377.297 13.1705 377.139 13.0128 376.938 12.8991C376.739 12.7827 376.507 12.7244 376.243 12.7244C375.967 12.7244 375.723 12.7884 375.51 12.9162C375.3 13.0412 375.135 13.2102 375.016 13.4233C374.896 13.6335 374.835 13.8679 374.832 14.1264V15.196C374.832 15.5199 374.892 15.7997 375.011 16.0355C375.134 16.2713 375.305 16.4531 375.527 16.581C375.749 16.7088 376.011 16.7727 376.315 16.7727C376.517 16.7727 376.702 16.7443 376.869 16.6875C377.037 16.6307 377.18 16.5455 377.3 16.4318C377.419 16.3182 377.51 16.179 377.572 16.0142L379.251 16.125C379.166 16.5284 378.991 16.8807 378.727 17.1818C378.466 17.4801 378.128 17.7131 377.713 17.8807C377.301 18.0455 376.825 18.1278 376.286 18.1278ZM380.474 18V11.4545H382.234V12.5966H382.303C382.422 12.1903 382.622 11.8835 382.903 11.6761C383.185 11.4659 383.509 11.3608 383.875 11.3608C383.966 11.3608 384.064 11.3665 384.169 11.3778C384.274 11.3892 384.366 11.4048 384.446 11.4247V13.0355C384.361 13.0099 384.243 12.9872 384.092 12.9673C383.942 12.9474 383.804 12.9375 383.679 12.9375C383.412 12.9375 383.173 12.9957 382.963 13.1122C382.756 13.2259 382.591 13.3849 382.469 13.5895C382.349 13.794 382.29 14.0298 382.29 14.2969V18H380.474ZM389.194 11.4545V12.8182H385.252V11.4545H389.194ZM386.147 9.88636H387.963V15.9886C387.963 16.1562 387.988 16.2869 388.039 16.3807C388.091 16.4716 388.162 16.5355 388.252 16.5724C388.346 16.6094 388.454 16.6278 388.576 16.6278C388.662 16.6278 388.747 16.6207 388.832 16.6065C388.917 16.5895 388.983 16.5767 389.028 16.5682L389.314 17.919C389.223 17.9474 389.095 17.9801 388.93 18.017C388.765 18.0568 388.565 18.081 388.329 18.0895C387.892 18.1065 387.508 18.0483 387.179 17.9148C386.852 17.7812 386.598 17.5739 386.416 17.2926C386.234 17.0114 386.145 16.6562 386.147 16.2273V9.88636ZM393.137 18V16.6705L396.244 13.794C396.508 13.5384 396.729 13.3082 396.908 13.1037C397.09 12.8991 397.228 12.6989 397.322 12.5028C397.415 12.304 397.462 12.0895 397.462 11.8594C397.462 11.6037 397.404 11.3835 397.288 11.1989C397.171 11.0114 397.012 10.8679 396.81 10.7685C396.609 10.6662 396.38 10.6151 396.124 10.6151C395.857 10.6151 395.624 10.669 395.425 10.777C395.227 10.8849 395.073 11.0398 394.965 11.2415C394.857 11.4432 394.803 11.6832 394.803 11.9616H393.052C393.052 11.3906 393.181 10.8949 393.44 10.4744C393.698 10.054 394.06 9.72869 394.526 9.49858C394.992 9.26847 395.529 9.15341 396.137 9.15341C396.762 9.15341 397.306 9.2642 397.769 9.4858C398.235 9.70455 398.597 10.0085 398.856 10.3977C399.114 10.7869 399.244 11.233 399.244 11.7358C399.244 12.0653 399.178 12.3906 399.048 12.7116C398.92 13.0327 398.691 13.3892 398.362 13.7812C398.032 14.1705 397.567 14.6378 396.968 15.1832L395.694 16.4318V16.4915H399.359V18H393.137Z" fill="#0B0755"/>
<path d="M435 147.036L496 95" stroke="#0B0755" stroke-width="2"/>
<line x1="325.349" y1="151.759" x2="255.349" y2="91.7593" stroke="#0B0755" stroke-width="2"/>
<path d="M188.493 114.533C201.384 130.085 209.586 148.982 212.143 169.019C214.7 189.056 211.506 209.408 202.933 227.698C194.361 245.989 180.763 261.464 163.727 272.318C146.692 283.172 126.92 288.958 106.72 289C86.5207 289.042 66.7255 283.338 49.645 272.554C32.5645 261.771 18.9029 246.352 10.2546 228.097C1.60627 209.842 -1.6722 189.504 0.801775 169.456C3.27575 149.409 11.4001 130.478 24.2269 114.873L36.5678 125.017C25.6651 138.281 18.7594 154.372 16.6565 171.413C14.5536 188.454 17.3403 205.741 24.6914 221.257C32.0425 236.774 43.6548 249.88 58.1733 259.046C72.6917 268.212 89.5176 273.06 106.687 273.025C123.857 272.989 140.663 268.072 155.143 258.845C169.624 249.619 181.182 236.465 188.468 220.918C195.755 205.371 198.47 188.073 196.297 171.041C194.123 154.009 187.151 137.947 176.194 124.728L188.493 114.533Z" fill="#A8D8E8"/>
<path d="M76.4734 183H73.3796V174.273H76.4989C77.3768 174.273 78.1325 174.447 78.766 174.797C79.3995 175.143 79.8867 175.642 80.2276 176.293C80.5714 176.943 80.7433 177.722 80.7433 178.628C80.7433 179.537 80.5714 180.318 80.2276 180.972C79.8867 181.625 79.3967 182.126 78.7575 182.476C78.1211 182.825 77.3597 183 76.4734 183ZM75.2248 181.419H76.3967C76.9421 181.419 77.4009 181.322 77.7731 181.129C78.1481 180.933 78.4293 180.631 78.6168 180.222C78.8072 179.81 78.9023 179.278 78.9023 178.628C78.9023 177.983 78.8072 177.456 78.6168 177.047C78.4293 176.638 78.1495 176.337 77.7773 176.143C77.4052 175.95 76.9464 175.854 76.4009 175.854H75.2248V181.419ZM85.0589 183.128C84.3857 183.128 83.8061 182.991 83.3203 182.719C82.8374 182.443 82.4652 182.054 82.2038 181.551C81.9425 181.045 81.8118 180.447 81.8118 179.757C81.8118 179.084 81.9425 178.493 82.2038 177.984C82.4652 177.476 82.8331 177.08 83.3075 176.795C83.7848 176.511 84.3445 176.369 84.9865 176.369C85.4183 176.369 85.8203 176.439 86.1925 176.578C86.5675 176.714 86.8942 176.92 87.1726 177.196C87.4538 177.472 87.6726 177.818 87.8288 178.236C87.9851 178.651 88.0632 179.136 88.0632 179.693V180.192H82.5362V179.067H86.3544C86.3544 178.805 86.2976 178.574 86.1839 178.372C86.0703 178.17 85.9126 178.013 85.7109 177.899C85.5121 177.783 85.2805 177.724 85.0163 177.724C84.7408 177.724 84.4964 177.788 84.2834 177.916C84.0732 178.041 83.9084 178.21 83.7891 178.423C83.6697 178.634 83.6087 178.868 83.6058 179.126V180.196C83.6058 180.52 83.6655 180.8 83.7848 181.036C83.907 181.271 84.0788 181.453 84.3004 181.581C84.522 181.709 84.7848 181.773 85.0888 181.773C85.2905 181.773 85.4751 181.744 85.6428 181.688C85.8104 181.631 85.9538 181.545 86.0732 181.432C86.1925 181.318 86.2834 181.179 86.3459 181.014L88.0249 181.125C87.9396 181.528 87.7649 181.881 87.5007 182.182C87.2393 182.48 86.9013 182.713 86.4865 182.881C86.0746 183.045 85.5987 183.128 85.0589 183.128ZM94.6939 178.321L93.032 178.423C93.0036 178.281 92.9425 178.153 92.8487 178.04C92.755 177.923 92.6314 177.831 92.478 177.763C92.3274 177.692 92.147 177.656 91.9368 177.656C91.6555 177.656 91.4183 177.716 91.2251 177.835C91.032 177.952 90.9354 178.108 90.9354 178.304C90.9354 178.46 90.9979 178.592 91.1229 178.7C91.2479 178.808 91.4624 178.895 91.7663 178.96L92.951 179.199C93.5874 179.33 94.0618 179.54 94.3743 179.83C94.6868 180.119 94.843 180.5 94.843 180.972C94.843 181.401 94.7166 181.777 94.4638 182.101C94.2138 182.425 93.87 182.678 93.4325 182.859C92.9979 183.038 92.4964 183.128 91.9283 183.128C91.0618 183.128 90.3714 182.947 89.8572 182.587C89.3459 182.223 89.0462 181.729 88.9581 181.104L90.7436 181.01C90.7976 181.274 90.9283 181.476 91.1357 181.615C91.343 181.751 91.6087 181.82 91.9325 181.82C92.2507 181.82 92.5064 181.759 92.6996 181.636C92.8956 181.511 92.995 181.351 92.9979 181.155C92.995 180.99 92.9254 180.855 92.7891 180.75C92.6527 180.642 92.4425 180.56 92.1584 180.503L91.0249 180.277C90.3857 180.149 89.9098 179.928 89.5973 179.612C89.2876 179.297 89.1328 178.895 89.1328 178.406C89.1328 177.986 89.2464 177.624 89.4737 177.32C89.7038 177.016 90.0263 176.781 90.4411 176.616C90.8587 176.452 91.3473 176.369 91.907 176.369C92.7337 176.369 93.3842 176.544 93.8587 176.893C94.3359 177.243 94.6143 177.719 94.6939 178.321ZM99.4677 176.455V177.818H95.5259V176.455H99.4677ZM96.4208 174.886H98.2362V180.989C98.2362 181.156 98.2617 181.287 98.3129 181.381C98.364 181.472 98.435 181.536 98.5259 181.572C98.6197 181.609 98.7276 181.628 98.8498 181.628C98.935 181.628 99.0202 181.621 99.1055 181.607C99.1907 181.589 99.256 181.577 99.3015 181.568L99.587 182.919C99.4961 182.947 99.3683 182.98 99.2035 183.017C99.0387 183.057 98.8384 183.081 98.6026 183.089C98.1651 183.107 97.7816 183.048 97.4521 182.915C97.1254 182.781 96.8711 182.574 96.6893 182.293C96.5075 182.011 96.418 181.656 96.4208 181.227V174.886ZM100.65 183V176.455H102.466V183H100.65ZM101.562 175.611C101.292 175.611 101.061 175.521 100.868 175.342C100.677 175.161 100.582 174.943 100.582 174.69C100.582 174.44 100.677 174.226 100.868 174.047C101.061 173.865 101.292 173.774 101.562 173.774C101.832 173.774 102.062 173.865 102.252 174.047C102.446 174.226 102.542 174.44 102.542 174.69C102.542 174.943 102.446 175.161 102.252 175.342C102.062 175.521 101.832 175.611 101.562 175.611ZM105.735 179.216V183H103.92V176.455H105.65V177.609H105.727C105.871 177.229 106.114 176.928 106.455 176.706C106.796 176.482 107.21 176.369 107.695 176.369C108.15 176.369 108.546 176.469 108.884 176.668C109.222 176.866 109.485 177.151 109.673 177.52C109.86 177.886 109.954 178.324 109.954 178.832V183H108.138V179.156C108.141 178.756 108.039 178.443 107.832 178.219C107.624 177.991 107.339 177.878 106.975 177.878C106.731 177.878 106.515 177.93 106.327 178.036C106.143 178.141 105.998 178.294 105.893 178.496C105.79 178.695 105.738 178.935 105.735 179.216ZM113.251 183.124C112.833 183.124 112.461 183.051 112.135 182.906C111.808 182.759 111.549 182.541 111.359 182.254C111.172 181.964 111.078 181.604 111.078 181.172C111.078 180.808 111.145 180.503 111.278 180.256C111.412 180.009 111.593 179.81 111.824 179.659C112.054 179.509 112.315 179.395 112.608 179.318C112.903 179.241 113.213 179.188 113.537 179.156C113.917 179.116 114.224 179.08 114.457 179.045C114.69 179.009 114.859 178.955 114.964 178.884C115.069 178.812 115.122 178.707 115.122 178.568V178.543C115.122 178.273 115.037 178.064 114.866 177.916C114.699 177.768 114.46 177.695 114.15 177.695C113.824 177.695 113.564 177.767 113.37 177.912C113.177 178.054 113.049 178.233 112.987 178.449L111.308 178.312C111.393 177.915 111.561 177.571 111.811 177.281C112.061 176.989 112.383 176.764 112.778 176.608C113.176 176.449 113.636 176.369 114.159 176.369C114.522 176.369 114.87 176.412 115.203 176.497C115.538 176.582 115.835 176.714 116.093 176.893C116.355 177.072 116.561 177.303 116.711 177.584C116.862 177.862 116.937 178.196 116.937 178.585V183H115.216V182.092H115.164C115.059 182.297 114.919 182.477 114.743 182.634C114.566 182.787 114.355 182.908 114.108 182.996C113.86 183.081 113.575 183.124 113.251 183.124ZM113.771 181.871C114.038 181.871 114.274 181.818 114.478 181.713C114.683 181.605 114.843 181.46 114.96 181.278C115.076 181.097 115.135 180.891 115.135 180.661V179.966C115.078 180.003 115 180.037 114.9 180.068C114.804 180.097 114.694 180.124 114.572 180.149C114.45 180.172 114.328 180.193 114.206 180.213C114.083 180.23 113.973 180.246 113.873 180.26C113.66 180.291 113.474 180.341 113.315 180.409C113.156 180.477 113.032 180.57 112.944 180.686C112.856 180.8 112.812 180.942 112.812 181.112C112.812 181.359 112.902 181.548 113.081 181.679C113.262 181.807 113.493 181.871 113.771 181.871ZM121.827 176.455V177.818H117.885V176.455H121.827ZM118.78 174.886H120.596V180.989C120.596 181.156 120.621 181.287 120.672 181.381C120.723 181.472 120.794 181.536 120.885 181.572C120.979 181.609 121.087 181.628 121.209 181.628C121.294 181.628 121.38 181.621 121.465 181.607C121.55 181.589 121.615 181.577 121.661 181.568L121.946 182.919C121.855 182.947 121.728 182.98 121.563 183.017C121.398 183.057 121.198 183.081 120.962 183.089C120.525 183.107 120.141 183.048 119.811 182.915C119.485 182.781 119.23 182.574 119.049 182.293C118.867 182.011 118.777 181.656 118.78 181.227V174.886ZM123.01 183V176.455H124.825V183H123.01ZM123.922 175.611C123.652 175.611 123.42 175.521 123.227 175.342C123.037 175.161 122.941 174.943 122.941 174.69C122.941 174.44 123.037 174.226 123.227 174.047C123.42 173.865 123.652 173.774 123.922 173.774C124.191 173.774 124.422 173.865 124.612 174.047C124.805 174.226 124.902 174.44 124.902 174.69C124.902 174.943 124.805 175.161 124.612 175.342C124.422 175.521 124.191 175.611 123.922 175.611ZM129.237 183.128C128.575 183.128 128.002 182.987 127.519 182.706C127.039 182.422 126.668 182.027 126.407 181.521C126.146 181.013 126.015 180.423 126.015 179.753C126.015 179.077 126.146 178.486 126.407 177.98C126.668 177.472 127.039 177.077 127.519 176.795C128.002 176.511 128.575 176.369 129.237 176.369C129.898 176.369 130.469 176.511 130.95 176.795C131.433 177.077 131.805 177.472 132.066 177.98C132.327 178.486 132.458 179.077 132.458 179.753C132.458 180.423 132.327 181.013 132.066 181.521C131.805 182.027 131.433 182.422 130.95 182.706C130.469 182.987 129.898 183.128 129.237 183.128ZM129.245 181.722C129.546 181.722 129.798 181.636 129.999 181.466C130.201 181.293 130.353 181.057 130.455 180.759C130.56 180.46 130.613 180.121 130.613 179.74C130.613 179.359 130.56 179.02 130.455 178.722C130.353 178.423 130.201 178.187 129.999 178.014C129.798 177.841 129.546 177.754 129.245 177.754C128.941 177.754 128.685 177.841 128.478 178.014C128.273 178.187 128.119 178.423 128.013 178.722C127.911 179.02 127.86 179.359 127.86 179.74C127.86 180.121 127.911 180.46 128.013 180.759C128.119 181.057 128.273 181.293 128.478 181.466C128.685 181.636 128.941 181.722 129.245 181.722ZM135.454 179.216V183H133.638V176.455H135.369V177.609H135.445C135.59 177.229 135.833 176.928 136.174 176.706C136.515 176.482 136.928 176.369 137.414 176.369C137.869 176.369 138.265 176.469 138.603 176.668C138.941 176.866 139.204 177.151 139.391 177.52C139.579 177.886 139.673 178.324 139.673 178.832V183H137.857V179.156C137.86 178.756 137.758 178.443 137.55 178.219C137.343 177.991 137.058 177.878 136.694 177.878C136.45 177.878 136.234 177.93 136.046 178.036C135.862 178.141 135.717 178.294 135.612 178.496C135.509 178.695 135.457 178.935 135.454 179.216ZM89.177 189.273L91.2864 195.903H91.3674L93.481 189.273H95.5265L92.5179 198H90.1401L87.1273 189.273H89.177ZM98.7875 198.128C98.1142 198.128 97.5346 197.991 97.0488 197.719C96.5659 197.443 96.1937 197.054 95.9324 196.551C95.671 196.045 95.5403 195.447 95.5403 194.757C95.5403 194.084 95.671 193.493 95.9324 192.984C96.1937 192.476 96.5616 192.08 97.036 191.795C97.5133 191.511 98.073 191.369 98.715 191.369C99.1468 191.369 99.5488 191.439 99.921 191.578C100.296 191.714 100.623 191.92 100.901 192.196C101.182 192.472 101.401 192.818 101.557 193.236C101.714 193.651 101.792 194.136 101.792 194.693V195.192H96.2647V194.067H100.083C100.083 193.805 100.026 193.574 99.9125 193.372C99.7988 193.17 99.6412 193.013 99.4395 192.899C99.2406 192.783 99.0091 192.724 98.7449 192.724C98.4693 192.724 98.225 192.788 98.0119 192.916C97.8017 193.041 97.6369 193.21 97.5176 193.423C97.3983 193.634 97.3372 193.868 97.3343 194.126V195.196C97.3343 195.52 97.394 195.8 97.5133 196.036C97.6355 196.271 97.8074 196.453 98.0289 196.581C98.2505 196.709 98.5133 196.773 98.8173 196.773C99.019 196.773 99.2037 196.744 99.3713 196.688C99.5389 196.631 99.6824 196.545 99.8017 196.432C99.921 196.318 100.012 196.179 100.074 196.014L101.753 196.125C101.668 196.528 101.493 196.881 101.229 197.182C100.968 197.48 100.63 197.713 100.215 197.881C99.8031 198.045 99.3272 198.128 98.7875 198.128ZM105.934 198.128C105.263 198.128 104.687 197.986 104.204 197.702C103.724 197.415 103.354 197.017 103.096 196.509C102.84 196 102.712 195.415 102.712 194.753C102.712 194.082 102.841 193.494 103.1 192.989C103.361 192.48 103.732 192.084 104.212 191.8C104.692 191.513 105.263 191.369 105.925 191.369C106.496 191.369 106.996 191.473 107.425 191.68C107.854 191.888 108.194 192.179 108.444 192.554C108.694 192.929 108.831 193.369 108.857 193.875H107.144C107.096 193.548 106.968 193.286 106.76 193.087C106.556 192.885 106.287 192.784 105.955 192.784C105.674 192.784 105.428 192.861 105.218 193.014C105.01 193.165 104.849 193.385 104.732 193.675C104.616 193.964 104.557 194.315 104.557 194.727C104.557 195.145 104.614 195.5 104.728 195.793C104.844 196.085 105.008 196.308 105.218 196.462C105.428 196.615 105.674 196.692 105.955 196.692C106.162 196.692 106.349 196.649 106.513 196.564C106.681 196.479 106.819 196.355 106.927 196.193C107.037 196.028 107.11 195.831 107.144 195.601H108.857C108.829 196.101 108.692 196.541 108.448 196.922C108.206 197.3 107.873 197.595 107.447 197.808C107.02 198.021 106.516 198.128 105.934 198.128ZM113.501 191.455V192.818H109.559V191.455H113.501ZM110.454 189.886H112.269V195.989C112.269 196.156 112.295 196.287 112.346 196.381C112.397 196.472 112.468 196.536 112.559 196.572C112.653 196.609 112.761 196.628 112.883 196.628C112.968 196.628 113.053 196.621 113.139 196.607C113.224 196.589 113.289 196.577 113.335 196.568L113.62 197.919C113.529 197.947 113.401 197.98 113.237 198.017C113.072 198.057 112.872 198.081 112.636 198.089C112.198 198.107 111.815 198.048 111.485 197.915C111.159 197.781 110.904 197.574 110.722 197.293C110.541 197.011 110.451 196.656 110.454 196.227V189.886ZM117.57 198.128C116.909 198.128 116.336 197.987 115.853 197.706C115.373 197.422 115.002 197.027 114.741 196.521C114.48 196.013 114.349 195.423 114.349 194.753C114.349 194.077 114.48 193.486 114.741 192.98C115.002 192.472 115.373 192.077 115.853 191.795C116.336 191.511 116.909 191.369 117.57 191.369C118.232 191.369 118.803 191.511 119.284 191.795C119.767 192.077 120.139 192.472 120.4 192.98C120.661 193.486 120.792 194.077 120.792 194.753C120.792 195.423 120.661 196.013 120.4 196.521C120.139 197.027 119.767 197.422 119.284 197.706C118.803 197.987 118.232 198.128 117.57 198.128ZM117.579 196.722C117.88 196.722 118.132 196.636 118.333 196.466C118.535 196.293 118.687 196.057 118.789 195.759C118.894 195.46 118.947 195.121 118.947 194.74C118.947 194.359 118.894 194.02 118.789 193.722C118.687 193.423 118.535 193.187 118.333 193.014C118.132 192.841 117.88 192.754 117.579 192.754C117.275 192.754 117.019 192.841 116.812 193.014C116.607 193.187 116.453 193.423 116.347 193.722C116.245 194.02 116.194 194.359 116.194 194.74C116.194 195.121 116.245 195.46 116.347 195.759C116.453 196.057 116.607 196.293 116.812 196.466C117.019 196.636 117.275 196.722 117.579 196.722ZM121.972 198V191.455H123.732V192.597H123.801C123.92 192.19 124.12 191.884 124.401 191.676C124.683 191.466 125.007 191.361 125.373 191.361C125.464 191.361 125.562 191.366 125.667 191.378C125.772 191.389 125.865 191.405 125.944 191.425V193.036C125.859 193.01 125.741 192.987 125.59 192.967C125.44 192.947 125.302 192.938 125.177 192.938C124.91 192.938 124.671 192.996 124.461 193.112C124.254 193.226 124.089 193.385 123.967 193.589C123.847 193.794 123.788 194.03 123.788 194.297V198H121.972Z" fill="#0B0755"/>
<path d="M740.304 132.071C748.932 148.12 753.298 166.116 752.984 184.335C752.67 202.554 747.687 220.389 738.51 236.132C729.334 251.874 716.272 265 700.573 274.252C684.875 283.503 667.065 288.573 648.847 288.974C630.629 289.376 612.613 285.096 596.522 276.545C580.431 267.994 566.803 255.457 556.942 240.134C547.081 224.81 541.317 207.213 540.2 189.025C539.084 170.837 542.652 152.667 550.565 136.253L564.956 143.19C558.23 157.142 555.196 172.587 556.145 188.047C557.094 203.506 561.994 218.464 570.376 231.489C578.758 244.513 590.341 255.17 604.019 262.438C617.696 269.707 633.01 273.344 648.495 273.003C663.98 272.662 679.118 268.353 692.462 260.489C705.806 252.625 716.909 241.468 724.709 228.087C732.509 214.705 736.745 199.546 737.012 184.06C737.278 168.573 733.567 153.277 726.233 139.635L740.304 132.071Z" fill="#A8D8E8"/>
<path d="M560.898 119.139C571.939 104.223 586.687 92.4498 603.679 84.9879L610.102 99.6147C595.659 105.957 583.123 115.964 573.738 128.644L560.898 119.139Z" fill="#1E79B7"/>
<path d="M622.329 78.7793C639.442 74.7911 657.277 75.0994 674.242 79.6767L670.081 95.1002C655.66 91.2095 640.501 90.9474 625.954 94.3374L622.329 78.7793Z" fill="#1E79B7"/>
<path d="M692.417 86.4067C707.004 93.3772 719.814 103.578 729.873 116.234L717.367 126.174C708.817 115.416 697.929 106.746 685.529 100.821L692.417 86.4067Z" fill="#1E79B7"/>
<path d="M550.575 136.233C553.484 130.202 556.956 124.458 560.944 119.078L573.777 128.591C570.387 133.164 567.436 138.046 564.964 143.173L550.575 136.233Z" fill="#F38300"/>
<path d="M603.454 85.0872C609.579 82.3805 615.945 80.2576 622.469 78.7466L626.074 94.3096C620.529 95.5939 615.117 97.3984 609.91 99.6991L603.454 85.0872Z" fill="#E75A46"/>
<path d="M674.136 79.6481C680.603 81.3857 686.892 83.7295 692.919 86.6483L685.956 101.026C680.833 98.5451 675.487 96.5529 669.99 95.0758L674.136 79.6481Z" fill="#5FA65F"/>
<path d="M729.792 116.133C733.966 121.37 737.635 126.989 740.753 132.916L726.615 140.353C723.965 135.316 720.846 130.54 717.299 126.088L729.792 116.133Z" fill="#3A035D"/>
<path d="M608.61 190V181.273H614.388V182.794H610.455V184.874H614.005V186.395H610.455V190H608.61ZM615.596 190V183.455H617.411V190H615.596ZM616.507 182.611C616.238 182.611 616.006 182.521 615.813 182.342C615.623 182.161 615.527 181.943 615.527 181.69C615.527 181.44 615.623 181.226 615.813 181.047C616.006 180.865 616.238 180.774 616.507 180.774C616.777 180.774 617.007 180.865 617.198 181.047C617.391 181.226 617.488 181.44 617.488 181.69C617.488 181.943 617.391 182.161 617.198 182.342C617.007 182.521 616.777 182.611 616.507 182.611ZM620.68 186.216V190H618.865V183.455H620.595V184.609H620.672C620.817 184.229 621.06 183.928 621.401 183.706C621.741 183.482 622.155 183.369 622.641 183.369C623.095 183.369 623.491 183.469 623.83 183.668C624.168 183.866 624.43 184.151 624.618 184.52C624.805 184.886 624.899 185.324 624.899 185.832V190H623.084V186.156C623.087 185.756 622.984 185.443 622.777 185.219C622.57 184.991 622.284 184.878 621.92 184.878C621.676 184.878 621.46 184.93 621.273 185.036C621.088 185.141 620.943 185.294 620.838 185.496C620.736 185.695 620.683 185.935 620.68 186.216ZM628.196 190.124C627.779 190.124 627.407 190.051 627.08 189.906C626.753 189.759 626.495 189.541 626.304 189.254C626.117 188.964 626.023 188.604 626.023 188.172C626.023 187.808 626.09 187.503 626.223 187.256C626.357 187.009 626.539 186.81 626.769 186.659C626.999 186.509 627.26 186.395 627.553 186.318C627.848 186.241 628.158 186.188 628.482 186.156C628.863 186.116 629.169 186.08 629.402 186.045C629.635 186.009 629.804 185.955 629.909 185.884C630.015 185.812 630.067 185.707 630.067 185.568V185.543C630.067 185.273 629.982 185.064 629.811 184.916C629.644 184.768 629.405 184.695 629.096 184.695C628.769 184.695 628.509 184.767 628.316 184.912C628.123 185.054 627.995 185.233 627.932 185.449L626.253 185.312C626.338 184.915 626.506 184.571 626.756 184.281C627.006 183.989 627.328 183.764 627.723 183.608C628.121 183.449 628.581 183.369 629.104 183.369C629.468 183.369 629.816 183.412 630.148 183.497C630.483 183.582 630.78 183.714 631.039 183.893C631.3 184.072 631.506 184.303 631.657 184.584C631.807 184.862 631.882 185.196 631.882 185.585V190H630.161V189.092H630.11C630.005 189.297 629.864 189.477 629.688 189.634C629.512 189.787 629.3 189.908 629.053 189.996C628.806 190.081 628.52 190.124 628.196 190.124ZM628.716 188.871C628.983 188.871 629.219 188.818 629.424 188.713C629.628 188.605 629.789 188.46 629.905 188.278C630.022 188.097 630.08 187.891 630.08 187.661V186.966C630.023 187.003 629.945 187.037 629.846 187.068C629.749 187.097 629.64 187.124 629.517 187.149C629.395 187.172 629.273 187.193 629.151 187.213C629.029 187.23 628.918 187.246 628.819 187.26C628.605 187.291 628.419 187.341 628.26 187.409C628.101 187.477 627.978 187.57 627.89 187.686C627.801 187.8 627.757 187.942 627.757 188.112C627.757 188.359 627.847 188.548 628.026 188.679C628.208 188.807 628.438 188.871 628.716 188.871ZM635.106 181.273V190H633.291V181.273H635.106ZM639.372 190V181.273H642.815C643.477 181.273 644.041 181.399 644.507 181.652C644.973 181.902 645.328 182.25 645.572 182.696C645.819 183.139 645.943 183.651 645.943 184.23C645.943 184.81 645.818 185.321 645.568 185.764C645.318 186.207 644.956 186.553 644.481 186.8C644.01 187.047 643.439 187.17 642.768 187.17H640.574V185.692H642.47C642.825 185.692 643.118 185.631 643.348 185.509C643.581 185.384 643.754 185.212 643.868 184.993C643.984 184.771 644.042 184.517 644.042 184.23C644.042 183.94 643.984 183.687 643.868 183.472C643.754 183.253 643.581 183.084 643.348 182.964C643.115 182.842 642.819 182.781 642.461 182.781H641.217V190H639.372ZM647.107 190V183.455H648.867V184.597H648.935C649.055 184.19 649.255 183.884 649.536 183.676C649.817 183.466 650.141 183.361 650.508 183.361C650.599 183.361 650.697 183.366 650.802 183.378C650.907 183.389 650.999 183.405 651.079 183.425V185.036C650.994 185.01 650.876 184.987 650.725 184.967C650.575 184.947 650.437 184.938 650.312 184.938C650.045 184.938 649.806 184.996 649.596 185.112C649.388 185.226 649.224 185.385 649.102 185.589C648.982 185.794 648.923 186.03 648.923 186.297V190H647.107ZM654.67 190.128C654.008 190.128 653.436 189.987 652.953 189.706C652.473 189.422 652.102 189.027 651.841 188.521C651.579 188.013 651.449 187.423 651.449 186.753C651.449 186.077 651.579 185.486 651.841 184.98C652.102 184.472 652.473 184.077 652.953 183.795C653.436 183.511 654.008 183.369 654.67 183.369C655.332 183.369 655.903 183.511 656.383 183.795C656.866 184.077 657.238 184.472 657.5 184.98C657.761 185.486 657.892 186.077 657.892 186.753C657.892 187.423 657.761 188.013 657.5 188.521C657.238 189.027 656.866 189.422 656.383 189.706C655.903 189.987 655.332 190.128 654.67 190.128ZM654.679 188.722C654.98 188.722 655.231 188.636 655.433 188.466C655.635 188.293 655.787 188.057 655.889 187.759C655.994 187.46 656.047 187.121 656.047 186.74C656.047 186.359 655.994 186.02 655.889 185.722C655.787 185.423 655.635 185.187 655.433 185.014C655.231 184.841 654.98 184.754 654.679 184.754C654.375 184.754 654.119 184.841 653.912 185.014C653.707 185.187 653.552 185.423 653.447 185.722C653.345 186.02 653.294 186.359 653.294 186.74C653.294 187.121 653.345 187.46 653.447 187.759C653.552 188.057 653.707 188.293 653.912 188.466C654.119 188.636 654.375 188.722 654.679 188.722ZM661.484 190.107C660.987 190.107 660.537 189.979 660.133 189.723C659.733 189.464 659.414 189.085 659.179 188.585C658.946 188.082 658.829 187.466 658.829 186.736C658.829 185.986 658.95 185.362 659.191 184.865C659.433 184.365 659.754 183.991 660.154 183.744C660.558 183.494 661 183.369 661.48 183.369C661.846 183.369 662.152 183.432 662.396 183.557C662.643 183.679 662.842 183.832 662.993 184.017C663.146 184.199 663.262 184.378 663.342 184.554H663.397V181.273H665.208V190H663.419V188.952H663.342C663.257 189.134 663.136 189.314 662.98 189.493C662.826 189.669 662.626 189.815 662.379 189.932C662.135 190.048 661.836 190.107 661.484 190.107ZM662.059 188.662C662.352 188.662 662.599 188.582 662.801 188.423C663.005 188.261 663.162 188.036 663.27 187.746C663.38 187.456 663.436 187.116 663.436 186.727C663.436 186.338 663.382 186 663.274 185.713C663.166 185.426 663.01 185.205 662.805 185.048C662.6 184.892 662.352 184.814 662.059 184.814C661.761 184.814 661.51 184.895 661.305 185.057C661.1 185.219 660.946 185.443 660.841 185.73C660.735 186.017 660.683 186.349 660.683 186.727C660.683 187.108 660.735 187.445 660.841 187.737C660.949 188.027 661.103 188.254 661.305 188.419C661.51 188.581 661.761 188.662 662.059 188.662ZM670.898 187.213V183.455H672.714V190H670.971V188.811H670.903C670.755 189.195 670.509 189.503 670.165 189.736C669.825 189.969 669.408 190.085 668.917 190.085C668.479 190.085 668.094 189.986 667.762 189.787C667.43 189.588 667.17 189.305 666.982 188.939C666.798 188.572 666.704 188.134 666.701 187.622V183.455H668.516V187.298C668.519 187.685 668.623 187.99 668.827 188.214C669.032 188.439 669.306 188.551 669.65 188.551C669.869 188.551 670.073 188.501 670.263 188.402C670.454 188.3 670.607 188.149 670.724 187.95C670.843 187.751 670.901 187.506 670.898 187.213ZM677.123 190.128C676.453 190.128 675.876 189.986 675.393 189.702C674.913 189.415 674.544 189.017 674.285 188.509C674.029 188 673.902 187.415 673.902 186.753C673.902 186.082 674.031 185.494 674.289 184.989C674.551 184.48 674.922 184.084 675.402 183.8C675.882 183.513 676.453 183.369 677.115 183.369C677.686 183.369 678.186 183.473 678.615 183.68C679.044 183.888 679.383 184.179 679.633 184.554C679.883 184.929 680.021 185.369 680.047 185.875H678.333C678.285 185.548 678.157 185.286 677.95 185.087C677.745 184.885 677.477 184.784 677.145 184.784C676.863 184.784 676.618 184.861 676.407 185.014C676.2 185.165 676.038 185.385 675.922 185.675C675.805 185.964 675.747 186.315 675.747 186.727C675.747 187.145 675.804 187.5 675.917 187.793C676.034 188.085 676.197 188.308 676.407 188.462C676.618 188.615 676.863 188.692 677.145 188.692C677.352 188.692 677.538 188.649 677.703 188.564C677.87 188.479 678.008 188.355 678.116 188.193C678.227 188.028 678.299 187.831 678.333 187.601H680.047C680.018 188.101 679.882 188.541 679.637 188.922C679.396 189.3 679.062 189.595 678.636 189.808C678.21 190.021 677.706 190.128 677.123 190.128ZM684.69 183.455V184.818H680.749V183.455H684.69ZM681.643 181.886H683.459V187.989C683.459 188.156 683.484 188.287 683.536 188.381C683.587 188.472 683.658 188.536 683.749 188.572C683.842 188.609 683.95 188.628 684.072 188.628C684.158 188.628 684.243 188.621 684.328 188.607C684.413 188.589 684.479 188.577 684.524 188.568L684.81 189.919C684.719 189.947 684.591 189.98 684.426 190.017C684.261 190.057 684.061 190.081 683.825 190.089C683.388 190.107 683.004 190.048 682.675 189.915C682.348 189.781 682.094 189.574 681.912 189.293C681.73 189.011 681.641 188.656 681.643 188.227V181.886Z" fill="#0B0755"/>
<path d="M584.487 78.2727V87H582.641V78.2727H584.487ZM589.75 78.2727V87H587.905V80.0241H587.854L585.855 81.277V79.6406L588.016 78.2727H589.75Z" fill="#0B0755"/>
<path d="M643.643 64.2727V73H641.798V64.2727H643.643ZM645.11 73V71.6705L648.216 68.794C648.48 68.5384 648.702 68.3082 648.881 68.1037C649.063 67.8991 649.201 67.6989 649.294 67.5028C649.388 67.304 649.435 67.0895 649.435 66.8594C649.435 66.6037 649.377 66.3835 649.26 66.1989C649.144 66.0114 648.985 65.8679 648.783 65.7685C648.581 65.6662 648.353 65.6151 648.097 65.6151C647.83 65.6151 647.597 65.669 647.398 65.777C647.199 65.8849 647.046 66.0398 646.938 66.2415C646.83 66.4432 646.776 66.6832 646.776 66.9616H645.025C645.025 66.3906 645.154 65.8949 645.412 65.4744C645.671 65.054 646.033 64.7287 646.499 64.4986C646.965 64.2685 647.502 64.1534 648.11 64.1534C648.735 64.1534 649.279 64.2642 649.742 64.4858C650.208 64.7045 650.57 65.0085 650.828 65.3977C651.087 65.7869 651.216 66.233 651.216 66.7358C651.216 67.0653 651.151 67.3906 651.02 67.7116C650.892 68.0327 650.664 68.3892 650.334 68.7812C650.005 69.1705 649.54 69.6378 648.941 70.1832L647.667 71.4318V71.4915H651.331V73H645.11Z" fill="#0B0755"/>
<path d="M703.467 79.2727V88H701.622V79.2727H703.467ZM708.16 88.1193C707.523 88.1193 706.957 88.0099 706.46 87.7912C705.965 87.5696 705.575 87.2656 705.288 86.8793C705.004 86.4901 704.857 86.0412 704.849 85.5327H706.707C706.718 85.7457 706.788 85.9332 706.915 86.0952C707.046 86.2543 707.219 86.3778 707.435 86.4659C707.651 86.554 707.894 86.598 708.164 86.598C708.445 86.598 708.694 86.5483 708.91 86.4489C709.126 86.3494 709.295 86.2116 709.417 86.0355C709.539 85.8594 709.6 85.6562 709.6 85.4261C709.6 85.1932 709.535 84.9872 709.404 84.8082C709.276 84.6264 709.092 84.4844 708.85 84.3821C708.612 84.2798 708.327 84.2287 707.998 84.2287H707.184V82.8736H707.998C708.276 82.8736 708.522 82.8253 708.735 82.7287C708.951 82.6321 709.119 82.4986 709.238 82.3281C709.357 82.1548 709.417 81.9531 709.417 81.723C709.417 81.5043 709.364 81.3125 709.259 81.1477C709.157 80.9801 709.012 80.8494 708.825 80.7557C708.64 80.6619 708.424 80.6151 708.177 80.6151C707.927 80.6151 707.698 80.6605 707.491 80.7514C707.283 80.8395 707.117 80.9659 706.992 81.1307C706.867 81.2955 706.8 81.4886 706.792 81.7102H705.023C705.032 81.2074 705.175 80.7642 705.454 80.3807C705.732 79.9972 706.107 79.6974 706.579 79.4815C707.053 79.2628 707.589 79.1534 708.185 79.1534C708.788 79.1534 709.315 79.2628 709.766 79.4815C710.218 79.7003 710.569 79.9957 710.819 80.3679C711.072 80.7372 711.197 81.152 711.194 81.6122C711.197 82.1009 711.045 82.5085 710.738 82.8352C710.434 83.1619 710.038 83.3693 709.549 83.4574V83.5256C710.191 83.608 710.68 83.831 711.015 84.1946C711.353 84.5554 711.521 85.0071 711.518 85.5497C711.521 86.0469 711.377 86.4886 711.087 86.875C710.8 87.2614 710.404 87.5653 709.898 87.7869C709.393 88.0085 708.813 88.1193 708.16 88.1193Z" fill="#0B0755"/>
</svg>
