<?xml version="1.0" encoding="UTF-8"?>
<svg id="Layer_1" xmlns="http://www.w3.org/2000/svg" version="1.1" viewBox="0 0 753 367">
  <!-- Generator: Adobe Illustrator 29.5.1, SVG Export Plug-In . SVG Version: 2.1.0 Build 141)  -->
  <defs>
    <style>
      .st0 {
        font-family: Arial-Mdm, Arial;
        font-size: 12px;
        font-weight: 500;
        stroke: #231f20;
        stroke-miterlimit: 10;
        stroke-width: .25px;
      }

      .st1 {
        fill: #a8d8e8;
      }

      .st2 {
        fill: #fff;
      }

      .st3 {
        fill: none;
        stroke: #61a5fb;
        stroke-dasharray: 2 2;
      }

      .st4 {
        fill: #3c82f5;
      }

      .st5 {
        fill: #8a5cf5;
      }

      .st6 {
        fill: #1b76b3;
      }

      .st7 {
        fill: #1e79b7;
      }

      .st8 {
        fill: #ec4799;
      }

      .st9 {
        fill: #f49d0d;
      }

      .st10 {
        fill: #0b0755;
      }

      .st11 {
        fill: #0bb980;
      }
    </style>
  </defs>
  <rect class="st2" y="0" width="753" height="367"/>
  <path class="st10" d="M262.5,184l-10-5.77v11.55l10-5.77ZM221,184v1h32.5v-2h-32.5v1Z"/>
  <path class="st10" d="M531.5,184l-10-5.77v11.55l10-5.77ZM490,184v1h32.5v-2h-32.5v1Z"/>
  <path class="st1" d="M458.49,119.53c12.89,15.55,21.09,34.45,23.65,54.49s-.64,40.39-9.21,58.68c-8.57,18.29-22.17,33.77-39.21,44.62-17.04,10.85-36.81,16.64-57.01,16.68-20.2.04-39.99-5.66-57.08-16.45-17.08-10.78-30.74-26.2-39.39-44.46-8.65-18.26-11.93-38.59-9.45-58.64,2.47-20.05,10.6-38.98,23.42-54.58l12.34,10.14c-10.9,13.26-17.81,29.35-19.91,46.4-2.1,17.04.68,34.33,8.03,49.84,7.35,15.52,18.96,28.62,33.48,37.79,14.52,9.17,31.35,14.01,48.51,13.98,17.17-.04,33.98-4.95,48.46-14.18,14.48-9.23,26.04-22.38,33.32-37.93,7.29-15.55,10-32.85,7.83-49.88-2.17-17.03-9.15-33.09-20.1-46.31l12.3-10.19Z"/>
  <path class="st4" d="M294.19,119.91c2.12-2.59,4.37-5.07,6.73-7.44l11.34,11.25c-2,2.02-3.91,4.13-5.72,6.33l-12.35-10.14Z"/>
  <path class="st5" d="M451.81,112.19c2.37,2.37,4.62,4.84,6.75,7.42l-12.31,10.18c-1.81-2.19-3.73-4.3-5.74-6.31l11.3-11.3Z"/>
  <path class="st10" d="M346.47,188h-3.09v-8.73h3.12c.88,0,1.63.17,2.27.52.63.35,1.12.85,1.46,1.5.34.65.52,1.43.52,2.34s-.17,1.69-.52,2.34c-.34.65-.83,1.15-1.47,1.5-.64.35-1.4.52-2.28.52ZM345.23,186.42h1.17c.54,0,1-.1,1.38-.29.38-.2.66-.5.84-.91.19-.41.29-.94.29-1.59s-.1-1.17-.29-1.58c-.19-.41-.47-.71-.84-.9-.37-.19-.83-.29-1.38-.29h-1.18v5.57ZM355.06,188.13c-.67,0-1.25-.14-1.74-.41-.48-.28-.86-.66-1.12-1.17-.26-.51-.39-1.1-.39-1.79s.13-1.26.39-1.77c.26-.51.63-.9,1.1-1.19.48-.28,1.04-.43,1.68-.43.43,0,.83.07,1.2.21.38.14.7.34.98.62.28.28.5.62.66,1.04.16.42.23.9.23,1.46v.5h-5.53v-1.12h3.82c0-.26-.06-.49-.17-.7-.11-.2-.27-.36-.47-.47-.2-.12-.43-.18-.7-.18s-.52.06-.73.19c-.21.12-.38.29-.49.51-.12.21-.18.44-.18.7v1.07c0,.32.06.6.18.84.12.24.29.42.51.54.22.13.49.19.79.19.2,0,.39-.03.55-.08.17-.06.31-.14.43-.26.12-.11.21-.25.27-.42l1.68.11c-.08.4-.26.76-.52,1.06-.26.3-.6.53-1.01.7-.41.16-.89.25-1.43.25ZM364.69,183.32l-1.66.1c-.03-.14-.09-.27-.18-.38-.09-.12-.22-.21-.37-.28-.15-.07-.33-.11-.54-.11-.28,0-.52.06-.71.18-.19.12-.29.27-.29.47,0,.16.06.29.19.4s.34.2.64.26l1.18.24c.64.13,1.11.34,1.42.63.31.29.47.67.47,1.14,0,.43-.13.8-.38,1.13-.25.32-.59.58-1.03.76-.44.18-.94.27-1.51.27-.87,0-1.56-.18-2.07-.54-.51-.36-.81-.86-.9-1.48l1.79-.09c.05.26.18.47.39.61.21.14.47.21.8.21s.57-.06.77-.18c.2-.12.29-.29.3-.48,0-.16-.07-.3-.21-.4-.14-.11-.35-.19-.63-.25l-1.13-.23c-.64-.13-1.11-.35-1.43-.66-.31-.32-.46-.72-.46-1.21,0-.42.11-.78.34-1.09.23-.3.55-.54.97-.7.42-.16.91-.25,1.47-.25.83,0,1.48.18,1.95.52.48.35.76.83.83,1.43ZM369.47,181.46v1.36h-3.94v-1.36h3.94ZM366.42,179.89h1.82v6.1c0,.17.03.3.08.39.05.09.12.15.21.19.09.04.2.06.32.06.08,0,.17,0,.26-.02.09-.02.15-.03.2-.04l.29,1.35c-.09.03-.22.06-.38.1-.16.04-.36.06-.6.07-.44.02-.82-.04-1.15-.17-.33-.13-.58-.34-.76-.62-.18-.28-.27-.64-.27-1.07v-6.34ZM370.65,188v-6.54h1.82v6.54h-1.82ZM371.56,180.61c-.27,0-.5-.09-.69-.27-.19-.18-.29-.4-.29-.65s.1-.46.29-.64c.19-.18.42-.27.69-.27s.5.09.69.27c.19.18.29.39.29.64s-.1.47-.29.65c-.19.18-.42.27-.69.27ZM375.73,184.22v3.78h-1.81v-6.54h1.73v1.15h.08c.14-.38.39-.68.73-.9.34-.22.76-.34,1.24-.34.45,0,.85.1,1.19.3.34.2.6.48.79.85.19.37.28.8.28,1.31v4.17h-1.82v-3.84c0-.4-.1-.71-.31-.94-.21-.23-.49-.34-.86-.34-.24,0-.46.05-.65.16-.18.11-.33.26-.43.46-.1.2-.15.44-.16.72ZM383.25,188.12c-.42,0-.79-.07-1.12-.22-.33-.15-.59-.37-.78-.65-.19-.29-.28-.65-.28-1.08,0-.36.07-.67.2-.92.13-.25.31-.45.55-.6.23-.15.49-.26.78-.34.3-.08.61-.13.93-.16.38-.04.69-.08.92-.11.23-.04.4-.09.51-.16.11-.07.16-.18.16-.32v-.02c0-.27-.09-.48-.26-.63-.17-.15-.41-.22-.72-.22-.33,0-.59.07-.78.22-.19.14-.32.32-.38.54l-1.68-.14c.08-.4.25-.74.5-1.03.25-.29.57-.52.97-.67.4-.16.86-.24,1.38-.24.36,0,.71.04,1.04.13.33.09.63.22.89.4.26.18.47.41.62.69.15.28.23.61.23,1v4.41h-1.72v-.91h-.05c-.11.21-.24.39-.42.54-.18.15-.39.27-.64.36-.25.08-.53.13-.86.13ZM383.77,186.87c.27,0,.5-.05.71-.16.21-.11.36-.25.48-.43.12-.18.18-.39.18-.62v-.69c-.06.04-.14.07-.24.1-.1.03-.21.06-.33.08-.12.02-.24.04-.37.06-.12.02-.23.03-.33.05-.21.03-.4.08-.56.15-.16.07-.28.16-.37.28-.09.11-.13.26-.13.43,0,.25.09.44.27.57.18.13.41.19.69.19ZM391.83,181.46v1.36h-3.94v-1.36h3.94ZM388.78,179.89h1.82v6.1c0,.17.02.3.08.39.05.09.12.15.21.19.09.04.2.06.32.06.08,0,.17,0,.26-.02.08-.02.15-.03.2-.04l.29,1.35c-.09.03-.22.06-.38.1-.16.04-.36.06-.6.07-.44.02-.82-.04-1.15-.17-.33-.13-.58-.34-.76-.62-.18-.28-.27-.64-.27-1.07v-6.34ZM393.01,188v-6.54h1.82v6.54h-1.82ZM393.92,180.61c-.27,0-.5-.09-.7-.27-.19-.18-.29-.4-.29-.65s.1-.46.29-.64c.19-.18.43-.27.7-.27s.5.09.69.27c.19.18.29.39.29.64s-.1.47-.29.65c-.19.18-.42.27-.69.27ZM399.24,188.13c-.66,0-1.23-.14-1.72-.42-.48-.28-.85-.68-1.11-1.18-.26-.51-.39-1.1-.39-1.77s.13-1.27.39-1.77c.26-.51.63-.9,1.11-1.18.48-.28,1.06-.43,1.72-.43s1.23.14,1.71.43c.48.28.85.68,1.12,1.18.26.51.39,1.1.39,1.77s-.13,1.26-.39,1.77c-.26.51-.63.9-1.12,1.18-.48.28-1.05.42-1.71.42ZM399.24,186.72c.3,0,.55-.09.75-.26.2-.17.35-.41.46-.71.11-.3.16-.64.16-1.02s-.05-.72-.16-1.02c-.1-.3-.25-.54-.46-.71-.2-.17-.45-.26-.75-.26s-.56.09-.77.26c-.2.17-.36.41-.46.71-.1.3-.15.64-.15,1.02s.05.72.15,1.02c.11.3.26.53.46.71.21.17.46.26.77.26ZM405.45,184.22v3.78h-1.82v-6.54h1.73v1.15h.08c.14-.38.39-.68.73-.9.34-.22.75-.34,1.24-.34.45,0,.85.1,1.19.3.34.2.6.48.79.85.19.37.28.8.28,1.31v4.17h-1.82v-3.84c0-.4-.1-.71-.31-.94-.21-.23-.49-.34-.86-.34-.24,0-.46.05-.65.16-.18.11-.33.26-.43.46-.1.2-.15.44-.16.72ZM359.18,194.27l2.11,6.63h.08l2.11-6.63h2.05l-3.01,8.73h-2.38l-3.01-8.73h2.05ZM368.79,203.13c-.67,0-1.25-.14-1.74-.41-.48-.28-.86-.66-1.12-1.17-.26-.51-.39-1.1-.39-1.79s.13-1.26.39-1.77c.26-.51.63-.9,1.1-1.19.48-.28,1.04-.43,1.68-.43.43,0,.83.07,1.21.21.38.14.7.34.98.62.28.28.5.62.66,1.04.16.42.23.9.23,1.46v.5h-5.53v-1.12h3.82c0-.26-.06-.49-.17-.7-.11-.2-.27-.36-.47-.47-.2-.12-.43-.18-.69-.18s-.52.06-.73.19c-.21.12-.38.29-.49.51-.12.21-.18.44-.18.7v1.07c0,.32.06.6.18.84.12.24.29.42.52.54.22.13.48.19.79.19.2,0,.39-.03.55-.08.17-.06.31-.14.43-.26.12-.11.21-.25.27-.42l1.68.11c-.08.4-.26.76-.52,1.06-.26.3-.6.53-1.01.7-.41.16-.89.25-1.43.25ZM375.93,203.13c-.67,0-1.25-.14-1.73-.43-.48-.29-.85-.68-1.11-1.19-.26-.51-.38-1.09-.38-1.76s.13-1.26.39-1.76c.26-.51.63-.9,1.11-1.19.48-.29,1.05-.43,1.71-.43.57,0,1.07.1,1.5.31.43.21.77.5,1.02.87s.39.82.41,1.32h-1.71c-.05-.33-.18-.59-.38-.79-.2-.2-.47-.3-.81-.3-.28,0-.53.08-.74.23-.21.15-.37.37-.49.66-.12.29-.17.64-.17,1.05s.06.77.17,1.07c.12.29.28.51.49.67.21.15.46.23.74.23.21,0,.39-.04.56-.13.17-.08.31-.21.41-.37.11-.16.18-.36.22-.59h1.71c-.03.5-.17.94-.41,1.32-.24.38-.58.67-1,.89-.43.21-.93.32-1.51.32ZM383.5,196.46v1.36h-3.94v-1.36h3.94ZM380.45,194.89h1.82v6.1c0,.17.03.3.08.39.05.09.12.15.21.19.09.04.2.06.32.06.08,0,.17,0,.26-.02.08-.02.15-.03.2-.04l.29,1.35c-.09.03-.22.06-.38.1-.17.04-.36.06-.6.07-.44.02-.82-.04-1.15-.17-.33-.13-.58-.34-.76-.62-.18-.28-.27-.64-.27-1.07v-6.34ZM387.57,203.13c-.66,0-1.23-.14-1.72-.42-.48-.28-.85-.68-1.11-1.18-.26-.51-.39-1.1-.39-1.77s.13-1.27.39-1.77c.26-.51.63-.9,1.11-1.18.48-.28,1.06-.43,1.72-.43s1.23.14,1.71.43c.48.28.86.68,1.12,1.18.26.51.39,1.1.39,1.77s-.13,1.26-.39,1.77c-.26.51-.63.9-1.12,1.18-.48.28-1.05.42-1.71.42ZM387.58,201.72c.3,0,.55-.09.75-.26.2-.17.35-.41.46-.71.11-.3.16-.64.16-1.02s-.05-.72-.16-1.02c-.1-.3-.25-.54-.46-.71-.2-.17-.45-.26-.75-.26s-.56.09-.77.26c-.21.17-.36.41-.47.71-.1.3-.15.64-.15,1.02s.05.72.15,1.02c.11.3.26.53.47.71.21.17.46.26.77.26ZM391.97,203v-6.54h1.76v1.14h.07c.12-.41.32-.71.6-.92.28-.21.61-.32.97-.32.09,0,.19,0,.29.02.11.01.2.03.28.05v1.61c-.08-.03-.2-.05-.35-.07-.15-.02-.29-.03-.41-.03-.27,0-.51.06-.72.17-.21.11-.37.27-.49.48-.12.21-.18.44-.18.71v3.7h-1.82Z"/>
  <path class="st6" d="M283.76,92.76c11.06-11.31,24.15-20.43,38.6-26.87l6.65,14.9c-12.57,5.61-23.96,13.54-33.58,23.38l-11.67-11.41Z"/>
  <path class="st4" d="M275.85,101.67c2.48-3.07,5.1-6.02,7.85-8.84l11.67,11.4c-2.4,2.45-4.68,5.02-6.83,7.69l-12.69-10.25Z"/>
  <path class="st8" d="M322.24,65.95c3.6-1.61,7.27-3.05,11.01-4.32l5.23,15.45c-3.25,1.1-6.45,2.35-9.58,3.75l-6.66-14.89Z"/>
  <path class="st10" d="M273.15,73.87l4.36,7.56-1.6.92-4.36-7.56,1.6-.92ZM278.48,76.5l1.89,3.28-1.57.91-3.27-5.67,1.5-.87.58,1,.07-.04c-.07-.4,0-.78.18-1.15.18-.36.49-.67.91-.91.39-.23.79-.34,1.18-.34.39,0,.76.12,1.11.34.35.22.65.56.9,1l2.08,3.61-1.57.91-1.92-3.33c-.2-.35-.44-.57-.73-.66-.29-.09-.6-.05-.91.13-.21.12-.37.28-.48.46-.11.18-.16.39-.15.62.01.22.08.46.22.7ZM287.64,70.18l-1.39.92c-.1-.11-.21-.19-.35-.24-.14-.05-.29-.07-.46-.05-.17.01-.34.07-.52.18-.24.14-.42.31-.53.51-.11.2-.11.38-.02.55.08.14.2.22.36.25.16.03.39,0,.69-.1l1.15-.39c.62-.21,1.13-.26,1.55-.17.41.09.74.35.98.75.21.37.29.76.24,1.17-.05.41-.23.8-.51,1.17-.29.37-.68.7-1.17.98-.75.43-1.44.62-2.06.57-.62-.06-1.13-.34-1.52-.83l1.5-.97c.18.2.39.31.64.33.25.01.51-.06.79-.22.28-.16.47-.34.57-.54.11-.21.11-.4.02-.57-.08-.14-.21-.22-.38-.25-.17-.03-.39,0-.67.1l-1.09.37c-.62.21-1.14.25-1.57.14-.43-.12-.76-.39-1.01-.81-.21-.36-.29-.73-.25-1.11.05-.38.21-.74.49-1.09.28-.35.66-.67,1.15-.95.72-.41,1.37-.59,1.95-.52.59.06,1.07.34,1.44.82ZM293.75,72.2c-.58.34-1.15.51-1.71.51-.56,0-1.07-.15-1.55-.45-.48-.31-.89-.76-1.24-1.36-.34-.58-.52-1.16-.55-1.73-.03-.57.09-1.1.36-1.58.27-.48.68-.89,1.24-1.21.37-.22.76-.36,1.15-.42.39-.07.78-.05,1.16.05.38.1.74.29,1.09.57.34.28.65.66.93,1.14l.25.43-4.79,2.76-.56-.97,3.31-1.91c-.13-.23-.3-.4-.49-.52-.2-.12-.41-.18-.65-.17-.23,0-.46.06-.69.2-.24.14-.42.32-.54.53-.12.21-.18.44-.17.69,0,.24.07.48.19.7l.54.93c.16.28.35.49.57.64.22.14.46.21.72.21.25,0,.51-.08.78-.23.17-.1.32-.22.44-.35.12-.13.2-.28.24-.44.05-.16.06-.32.03-.5l1.51-.74c.13.39.15.78.08,1.18-.08.39-.25.76-.53,1.11-.28.35-.65.66-1.11.93ZM297.31,70l-3.27-5.67,1.52-.88.57.99.06-.03c-.1-.41-.08-.78.06-1.1.14-.32.37-.58.68-.76.08-.05.17-.09.26-.13.1-.04.18-.08.26-.1l.8,1.39c-.09.02-.2.06-.34.12-.14.06-.27.12-.37.18-.23.13-.41.3-.53.51-.12.2-.19.42-.19.66,0,.24.07.47.2.7l1.85,3.21-1.57.91ZM301.59,59.97l.68,1.18-3.41,1.97-.68-1.18,3.41-1.97ZM298.17,60.14l1.57-.91,3.05,5.28c.08.15.17.25.26.3.09.05.18.07.28.06.1-.01.2-.05.31-.11.07-.04.14-.09.21-.15.07-.06.12-.1.15-.13l.92,1.03c-.06.07-.16.16-.28.28-.12.12-.28.24-.48.36-.37.23-.73.37-1.08.42-.35.05-.67,0-.97-.16-.3-.15-.55-.42-.76-.79l-3.17-5.49ZM307.2,54.21l4.36,7.56-1.6.92-3.49-6.04-.04.03-1.1,2.08-.82-1.42,1.19-2.26,1.5-.87Z"/>
  <path class="st10" d="M469.12,32.73l-5.67,6.63-1.4-1.2,5.67-6.63,1.4,1.2ZM468.41,38.63l-2.46,2.88-1.38-1.18,4.26-4.97,1.31,1.12-.75.88.06.05c.36-.2.74-.27,1.14-.21.41.05.79.23,1.16.55.35.3.58.63.71,1,.13.37.14.76.04,1.16-.1.4-.31.79-.64,1.18l-2.71,3.17-1.38-1.18,2.5-2.92c.26-.3.39-.61.38-.91,0-.31-.15-.58-.43-.82-.19-.16-.38-.26-.59-.3-.21-.04-.42-.02-.63.07-.21.08-.4.23-.59.44ZM477.42,45.17l-1.33-1c.07-.13.11-.26.11-.41,0-.15-.03-.3-.1-.45-.07-.15-.18-.3-.34-.43-.21-.18-.43-.29-.66-.33-.22-.04-.4.02-.52.17-.1.12-.14.26-.11.42.02.16.13.37.32.62l.75.95c.4.51.62.98.67,1.4.05.42-.08.81-.39,1.17-.28.33-.62.53-1.02.61-.4.08-.83.05-1.28-.09-.45-.15-.89-.4-1.32-.77-.66-.56-1.07-1.15-1.22-1.76-.15-.61-.06-1.18.28-1.71l1.42,1.09c-.13.24-.16.47-.1.71.07.24.23.46.47.67.24.21.48.33.7.36.23.03.41-.02.54-.17.11-.13.14-.27.1-.44-.03-.17-.14-.37-.32-.6l-.71-.91c-.4-.51-.62-.99-.65-1.43-.03-.44.11-.85.43-1.22.27-.32.6-.52.97-.6.37-.08.77-.05,1.19.09.42.15.85.4,1.27.77.63.54,1.01,1.09,1.14,1.67.13.58.04,1.12-.29,1.63ZM477.54,51.6c-.51-.44-.86-.92-1.05-1.44-.19-.52-.22-1.06-.09-1.61.13-.55.42-1.09.87-1.62.44-.51.92-.88,1.45-1.09.53-.22,1.07-.28,1.61-.19.55.09,1.06.35,1.55.77.33.28.59.59.78.94.2.35.31.72.34,1.11.03.39-.02.8-.18,1.22-.15.42-.41.84-.77,1.26l-.32.38-4.2-3.59.73-.85,2.9,2.48c.17-.2.28-.41.32-.64.04-.23.03-.45-.05-.67-.08-.22-.21-.41-.41-.58-.21-.18-.44-.29-.68-.33-.24-.04-.48-.02-.71.06-.23.08-.43.22-.6.42l-.7.81c-.21.25-.35.5-.41.75-.06.26-.05.51.04.75.09.24.24.46.47.66.15.13.31.23.48.3.16.07.33.09.49.09.16,0,.32-.06.48-.14l1.2,1.18c-.33.25-.69.41-1.08.46-.39.06-.8.01-1.23-.13-.42-.14-.84-.39-1.25-.74ZM480.81,54.23l4.26-4.97,1.34,1.14-.74.87.05.04c.35-.23.71-.33,1.05-.31.35.02.67.15.94.39.07.06.14.13.21.2.07.08.13.15.18.22l-1.05,1.22c-.05-.07-.12-.17-.22-.28-.1-.11-.2-.21-.29-.29-.2-.17-.42-.28-.66-.33-.23-.05-.46-.03-.69.04-.22.08-.42.22-.6.42l-2.41,2.81-1.38-1.18ZM491.69,54.92l-.89,1.04-3-2.56.89-1.04,3,2.56ZM490.4,51.75l1.38,1.18-3.97,4.64c-.11.13-.17.24-.2.35-.02.1,0,.2.04.28.05.09.12.17.21.25.07.06.13.11.21.15.08.04.13.08.17.1l-.66,1.21c-.09-.04-.21-.1-.36-.17-.15-.08-.32-.19-.5-.34-.34-.27-.6-.57-.76-.88-.16-.31-.22-.64-.17-.97.04-.33.21-.66.49-.98l4.12-4.82ZM491.33,61.21l.94-1.1,6.5-1.99.95.81-1.31,1.53-.56-.48-4.11,1.27-.04.05,3.93,3.37-.96,1.12-5.35-4.57ZM493.51,65.1l1.29-1.5.44-.47,3.97-4.64,1.31,1.12-5.67,6.63-1.34-1.15Z"/>
  <path class="st10" d="M323.49,14.76l1.3,8.63-1.82.28-1.3-8.63,1.82-.28ZM327.49,19.15l.57,3.74-1.79.27-.98-6.47,1.71-.26.17,1.14h.08c.09-.41.28-.74.58-1.01.3-.27.7-.45,1.18-.52.45-.07.86-.03,1.22.12.36.15.67.39.91.72.24.33.4.75.48,1.26l.62,4.12-1.79.27-.58-3.8c-.06-.4-.2-.69-.44-.88-.24-.19-.54-.26-.9-.21-.24.04-.45.12-.62.25-.17.13-.29.3-.36.52-.07.21-.09.46-.05.74ZM338.33,16.61l-1.63.35c-.05-.14-.13-.25-.24-.35-.11-.1-.25-.17-.41-.22-.16-.05-.34-.06-.55-.02-.28.04-.5.14-.68.28-.17.14-.25.31-.22.51.02.15.11.28.24.36.14.09.37.14.68.16l1.21.06c.65.03,1.15.17,1.5.41.35.24.56.59.63,1.06.07.42,0,.82-.21,1.17-.2.36-.5.66-.91.9-.4.24-.88.41-1.45.49-.86.13-1.57.05-2.13-.23-.56-.28-.93-.73-1.11-1.33l1.75-.36c.09.25.25.43.48.54.23.1.5.13.82.08.31-.05.56-.15.73-.3.17-.15.25-.33.22-.52-.03-.16-.12-.29-.27-.37-.15-.09-.37-.14-.66-.15l-1.15-.05c-.65-.03-1.15-.18-1.51-.44-.35-.27-.57-.64-.64-1.12-.06-.42,0-.79.17-1.13.18-.34.47-.61.85-.84.39-.23.86-.38,1.41-.46.82-.12,1.49-.05,2.01.23.52.27.87.7,1.04,1.29ZM343.27,20.72c-.67.1-1.26.05-1.78-.14-.52-.2-.95-.53-1.28-.99-.33-.46-.55-1.03-.66-1.72-.1-.67-.06-1.27.12-1.81.18-.54.49-.99.91-1.34.43-.35.96-.58,1.6-.67.43-.06.83-.06,1.22.03.39.08.74.23,1.06.46.32.23.59.54.8.93.22.39.37.86.45,1.41l.08.49-5.47.83-.17-1.11,3.78-.57c-.04-.26-.13-.48-.27-.66-.14-.18-.32-.31-.54-.4-.21-.09-.45-.11-.71-.07-.27.04-.5.14-.7.3-.19.15-.33.35-.41.58-.09.23-.11.47-.08.72l.16,1.06c.05.32.15.59.3.8.16.21.35.37.59.46.24.09.51.12.81.07.2-.03.38-.09.54-.17.16-.08.29-.19.39-.32.1-.13.17-.28.21-.45l1.68-.14c-.02.41-.14.79-.36,1.12-.21.33-.51.61-.9.84-.38.22-.84.38-1.37.46ZM347.39,19.97l-.98-6.47,1.74-.26.17,1.13h.07c.06-.43.21-.76.46-1.01.25-.25.55-.4.91-.46.09-.01.19-.02.29-.03.1,0,.2,0,.28,0l.24,1.59c-.09-.01-.21-.02-.36-.01s-.29.01-.41.03c-.27.04-.49.13-.68.28-.19.14-.33.33-.42.55-.09.22-.11.46-.07.73l.55,3.66-1.8.27ZM355.04,12.19l.2,1.35-3.9.59-.2-1.35,3.9-.59ZM351.79,11.1l1.79-.27.91,6.03c.03.17.07.29.13.38.06.08.14.13.24.16.1.02.21.02.33,0,.08-.01.17-.03.25-.06.08-.03.14-.05.19-.07l.48,1.29c-.09.04-.21.09-.37.15-.16.06-.35.12-.58.16-.43.08-.82.08-1.16,0-.34-.08-.62-.25-.85-.5-.22-.25-.36-.59-.42-1.01l-.95-6.27ZM359.91,18.07l-.2-1.31,2.64-3.31c.22-.29.41-.55.55-.78.15-.23.25-.45.32-.66.06-.21.08-.43.04-.66-.04-.25-.13-.46-.27-.63-.14-.17-.32-.29-.54-.35-.21-.07-.45-.09-.7-.05-.26.04-.49.13-.67.26-.18.14-.31.31-.39.53-.08.22-.09.46-.05.74l-1.73.26c-.08-.56-.03-1.07.16-1.53.19-.45.5-.83.93-1.13.43-.3.94-.49,1.54-.58.62-.09,1.17-.07,1.66.08.49.15.9.39,1.21.74.31.35.51.77.58,1.27.05.33.03.66-.05.99-.08.34-.25.72-.52,1.16-.27.43-.66.97-1.17,1.59l-1.07,1.43v.06s3.63-.55,3.63-.55l.23,1.49-6.15.93Z"/>
  <path class="st10" d="M389.45,38.14l-1.87,8.52-1.8-.4,1.87-8.52,1.8.4ZM391.62,43.67l-.81,3.7-1.77-.39,1.4-6.39,1.69.37-.25,1.13.08.02c.22-.34.52-.58.9-.73.38-.15.81-.17,1.28-.06.44.1.81.28,1.1.55.29.27.48.6.59,1,.11.4.1.85,0,1.34l-.89,4.07-1.77-.39.82-3.75c.09-.39.05-.72-.1-.98-.15-.27-.41-.44-.76-.52-.24-.05-.46-.05-.67.02-.2.06-.38.18-.52.36-.14.17-.24.4-.31.67ZM402.65,45.17l-1.64-.26c0-.14-.03-.28-.1-.41-.07-.13-.17-.25-.3-.35-.13-.1-.3-.17-.51-.22-.27-.06-.52-.05-.73.02-.21.07-.34.2-.38.4-.03.15,0,.3.1.43.1.13.29.26.57.39l1.11.49c.59.26,1.01.57,1.26.92.24.35.31.76.21,1.22-.09.42-.3.76-.61,1.02-.31.26-.7.44-1.17.52-.46.08-.97.06-1.53-.06-.85-.19-1.48-.51-1.91-.97-.42-.46-.61-1.01-.56-1.64l1.77.29c0,.27.08.49.25.68.17.18.42.3.73.37.31.07.57.06.79-.01.22-.08.35-.22.39-.41.03-.16,0-.31-.12-.44-.11-.13-.3-.26-.56-.38l-1.06-.46c-.6-.26-1.01-.58-1.25-.96-.23-.37-.3-.8-.2-1.28.09-.41.28-.74.57-.99.29-.25.65-.41,1.1-.48.44-.07.94-.05,1.48.07.81.18,1.41.49,1.79.93.39.44.56.97.51,1.57ZM405.8,50.78c-.66-.14-1.19-.4-1.61-.77-.41-.37-.69-.83-.84-1.38-.15-.55-.15-1.16,0-1.84.14-.66.4-1.21.76-1.65.36-.44.81-.75,1.33-.93.53-.18,1.1-.19,1.73-.06.42.09.8.25,1.13.46.34.21.61.48.83.81.21.33.36.71.42,1.16.06.44.04.93-.08,1.47l-.11.49-5.4-1.18.24-1.1,3.73.82c.06-.26.05-.49-.02-.72-.07-.22-.19-.41-.36-.56-.17-.16-.38-.26-.64-.32-.27-.06-.52-.05-.76.03-.23.08-.43.21-.59.39-.16.18-.27.4-.33.65l-.23,1.04c-.07.32-.07.6,0,.86.07.26.2.47.39.64.19.17.43.29.73.36.2.04.38.06.56.04.18-.02.33-.07.48-.16.14-.09.26-.2.36-.35l1.62.47c-.17.38-.42.68-.74.92-.32.24-.7.39-1.14.47-.44.07-.92.05-1.45-.06ZM409.91,51.55l1.4-6.39,1.72.38-.24,1.12h.07c.2-.36.47-.61.78-.76.32-.15.66-.18,1.02-.1.09.02.18.05.28.08s.19.07.26.1l-.34,1.57c-.08-.04-.19-.09-.33-.14-.14-.05-.28-.09-.4-.12-.26-.06-.51-.05-.74.02-.23.07-.42.19-.58.36-.16.17-.27.39-.33.65l-.79,3.62-1.77-.39ZM419.83,47.03l-.29,1.33-3.85-.84.29-1.33,3.85.84ZM417.19,44.84l1.77.39-1.31,5.96c-.04.16-.04.3,0,.4.03.1.09.18.17.23.08.06.19.1.3.12.08.02.17.03.26.03.09,0,.15,0,.2,0v1.38c-.11,0-.24.01-.41.01-.17,0-.37-.02-.6-.06-.43-.08-.79-.22-1.09-.42-.29-.2-.49-.46-.61-.77-.12-.31-.13-.68-.03-1.1l1.36-6.19ZM425.41,55.07c-.62-.14-1.15-.36-1.59-.68-.44-.32-.75-.7-.95-1.14-.19-.44-.24-.91-.14-1.41l1.82.4c-.03.21,0,.41.08.59.09.18.24.34.43.47.19.13.42.23.68.28.27.06.53.06.76.01.23-.05.43-.15.58-.3.16-.15.26-.33.31-.56.05-.23.03-.44-.06-.65-.09-.2-.24-.38-.45-.53-.21-.15-.48-.26-.8-.33l-.8-.17.29-1.32.79.17c.27.06.52.06.75.02.23-.05.42-.14.58-.28.15-.14.26-.33.3-.55.05-.21.04-.41-.03-.6-.06-.19-.18-.34-.34-.48-.16-.13-.36-.22-.6-.28-.24-.05-.48-.06-.7-.01-.22.04-.41.13-.57.26-.16.13-.26.31-.32.52l-1.73-.38c.12-.49.35-.89.7-1.21.35-.32.79-.53,1.29-.64.51-.11,1.06-.1,1.64.02.59.13,1.08.35,1.47.66.4.31.67.67.84,1.09.17.41.2.85.1,1.3-.1.48-.34.84-.71,1.1-.37.25-.8.37-1.3.35l-.02.07c.61.22,1.04.54,1.29.97.25.42.32.9.2,1.43-.1.49-.34.89-.7,1.2-.36.32-.82.53-1.36.64-.54.11-1.13.09-1.77-.05Z"/>
  <path class="st1" d="M188.49,119.53c12.89,15.55,21.09,34.45,23.65,54.49,2.56,20.04-.64,40.39-9.21,58.68-8.57,18.29-22.17,33.77-39.21,44.62-17.04,10.85-36.81,16.64-57.01,16.68-20.2.04-39.99-5.66-57.08-16.45-17.08-10.78-30.74-26.2-39.39-44.46C1.61,214.84-1.67,194.5.8,174.46c2.47-20.05,10.6-38.98,23.43-54.58l12.34,10.14c-10.9,13.26-17.81,29.35-19.91,46.4s.68,34.33,8.03,49.84c7.35,15.52,18.96,28.62,33.48,37.79,14.52,9.17,31.34,14.01,48.51,13.98,17.17-.04,33.98-4.95,48.46-14.18,14.48-9.23,26.04-22.38,33.32-37.93,7.29-15.55,10-32.85,7.83-49.88-2.17-17.03-9.15-33.09-20.1-46.31l12.3-10.19Z"/>
  <path class="st10" d="M76.47,188h-3.09v-8.73h3.12c.88,0,1.63.17,2.27.52.63.35,1.12.85,1.46,1.5.34.65.52,1.43.52,2.34s-.17,1.69-.52,2.34c-.34.65-.83,1.15-1.47,1.5-.64.35-1.4.52-2.28.52ZM75.22,186.42h1.17c.55,0,1-.1,1.38-.29.38-.2.66-.5.84-.91.19-.41.29-.94.29-1.59s-.1-1.17-.29-1.58c-.19-.41-.47-.71-.84-.9-.37-.19-.83-.29-1.38-.29h-1.18v5.57ZM85.06,188.13c-.67,0-1.25-.14-1.74-.41-.48-.28-.86-.66-1.12-1.17-.26-.51-.39-1.1-.39-1.79s.13-1.26.39-1.77c.26-.51.63-.9,1.1-1.19.48-.28,1.04-.43,1.68-.43.43,0,.83.07,1.21.21.38.14.7.34.98.62.28.28.5.62.66,1.04.16.42.23.9.23,1.46v.5h-5.53v-1.12h3.82c0-.26-.06-.49-.17-.7-.11-.2-.27-.36-.47-.47-.2-.12-.43-.18-.69-.18s-.52.06-.73.19c-.21.12-.38.29-.49.51-.12.21-.18.44-.18.7v1.07c0,.32.06.6.18.84.12.24.29.42.52.54.22.13.48.19.79.19.2,0,.39-.03.55-.08.17-.06.31-.14.43-.26.12-.11.21-.25.27-.42l1.68.11c-.09.4-.26.76-.52,1.06-.26.3-.6.53-1.01.7-.41.16-.89.25-1.43.25ZM94.69,183.32l-1.66.1c-.03-.14-.09-.27-.18-.38-.09-.12-.22-.21-.37-.28-.15-.07-.33-.11-.54-.11-.28,0-.52.06-.71.18-.19.12-.29.27-.29.47,0,.16.06.29.19.4s.34.2.64.26l1.18.24c.64.13,1.11.34,1.42.63.31.29.47.67.47,1.14,0,.43-.13.8-.38,1.13-.25.32-.59.58-1.03.76-.43.18-.94.27-1.5.27-.87,0-1.56-.18-2.07-.54-.51-.36-.81-.86-.9-1.48l1.79-.09c.05.26.18.47.39.61.21.14.47.21.8.21s.57-.06.77-.18c.2-.12.3-.29.3-.48,0-.16-.07-.3-.21-.4-.14-.11-.35-.19-.63-.25l-1.13-.23c-.64-.13-1.12-.35-1.43-.66-.31-.32-.46-.72-.46-1.21,0-.42.11-.78.34-1.09.23-.3.55-.54.97-.7.42-.16.91-.25,1.47-.25.83,0,1.48.18,1.95.52.48.35.76.83.84,1.43ZM99.47,181.46v1.36h-3.94v-1.36h3.94ZM96.42,179.89h1.82v6.1c0,.17.03.3.08.39.05.09.12.15.21.19.09.04.2.06.32.06.09,0,.17,0,.26-.02.09-.02.15-.03.2-.04l.29,1.35c-.09.03-.22.06-.38.1-.16.04-.37.06-.6.07-.44.02-.82-.04-1.15-.17-.33-.13-.58-.34-.76-.62-.18-.28-.27-.64-.27-1.07v-6.34ZM100.65,188v-6.54h1.82v6.54h-1.82ZM101.56,180.61c-.27,0-.5-.09-.69-.27-.19-.18-.29-.4-.29-.65s.1-.46.29-.64c.19-.18.42-.27.69-.27s.5.09.69.27c.19.18.29.39.29.64s-.1.47-.29.65c-.19.18-.42.27-.69.27ZM105.74,184.22v3.78h-1.82v-6.54h1.73v1.15h.08c.14-.38.39-.68.73-.9.34-.22.75-.34,1.24-.34.46,0,.85.1,1.19.3.34.2.6.48.79.85.19.37.28.8.28,1.31v4.17h-1.82v-3.84c0-.4-.1-.71-.31-.94-.21-.23-.49-.34-.86-.34-.24,0-.46.05-.65.16-.18.11-.33.26-.43.46-.1.2-.15.44-.16.72ZM113.25,188.12c-.42,0-.79-.07-1.12-.22-.33-.15-.59-.37-.78-.65-.19-.29-.28-.65-.28-1.08,0-.36.07-.67.2-.92.13-.25.32-.45.55-.6.23-.15.49-.26.78-.34.29-.08.6-.13.93-.16.38-.04.69-.08.92-.11.23-.04.4-.09.51-.16.11-.07.16-.18.16-.32v-.02c0-.27-.08-.48-.26-.63-.17-.15-.41-.22-.72-.22-.33,0-.59.07-.78.22-.19.14-.32.32-.38.54l-1.68-.14c.08-.4.25-.74.5-1.03.25-.29.57-.52.97-.67.4-.16.86-.24,1.38-.24.36,0,.71.04,1.04.13.33.09.63.22.89.4.26.18.47.41.62.69.15.28.23.61.23,1v4.41h-1.72v-.91h-.05c-.11.21-.25.39-.42.54-.18.15-.39.27-.63.36-.25.08-.53.13-.86.13ZM113.77,186.87c.27,0,.5-.05.71-.16.21-.11.37-.25.48-.43.12-.18.18-.39.18-.62v-.69c-.06.04-.14.07-.24.1-.1.03-.21.06-.33.08-.12.02-.24.04-.37.06-.12.02-.23.03-.33.05-.21.03-.4.08-.56.15-.16.07-.28.16-.37.28-.09.11-.13.26-.13.43,0,.25.09.44.27.57.18.13.41.19.69.19ZM121.83,181.46v1.36h-3.94v-1.36h3.94ZM118.78,179.89h1.82v6.1c0,.17.03.3.08.39.05.09.12.15.21.19.09.04.2.06.32.06.08,0,.17,0,.26-.02.09-.02.15-.03.2-.04l.28,1.35c-.09.03-.22.06-.38.1-.17.04-.37.06-.6.07-.44.02-.82-.04-1.15-.17-.33-.13-.58-.34-.76-.62-.18-.28-.27-.64-.27-1.07v-6.34ZM123.01,188v-6.54h1.81v6.54h-1.81ZM123.92,180.61c-.27,0-.5-.09-.69-.27-.19-.18-.29-.4-.29-.65s.1-.46.29-.64c.19-.18.43-.27.69-.27s.5.09.69.27c.19.18.29.39.29.64s-.1.47-.29.65c-.19.18-.42.27-.69.27ZM129.24,188.13c-.66,0-1.24-.14-1.72-.42-.48-.28-.85-.68-1.11-1.18-.26-.51-.39-1.1-.39-1.77s.13-1.27.39-1.77c.26-.51.63-.9,1.11-1.18.48-.28,1.06-.43,1.72-.43s1.23.14,1.71.43c.48.28.85.68,1.12,1.18.26.51.39,1.1.39,1.77s-.13,1.26-.39,1.77c-.26.51-.63.9-1.12,1.18-.48.28-1.05.42-1.71.42ZM129.24,186.72c.3,0,.55-.09.75-.26.2-.17.35-.41.46-.71.1-.3.16-.64.16-1.02s-.05-.72-.16-1.02c-.1-.3-.25-.54-.46-.71-.2-.17-.45-.26-.75-.26s-.56.09-.77.26c-.21.17-.36.41-.46.71-.1.3-.15.64-.15,1.02s.05.72.15,1.02c.11.3.26.53.46.71.21.17.46.26.77.26ZM135.45,184.22v3.78h-1.82v-6.54h1.73v1.15h.08c.14-.38.39-.68.73-.9.34-.22.75-.34,1.24-.34.46,0,.85.1,1.19.3.34.2.6.48.79.85.19.37.28.8.28,1.31v4.17h-1.82v-3.84c0-.4-.1-.71-.31-.94-.21-.23-.49-.34-.86-.34-.24,0-.46.05-.65.16-.18.11-.33.26-.43.46-.1.2-.15.44-.16.72ZM89.18,194.27l2.11,6.63h.08l2.11-6.63h2.05l-3.01,8.73h-2.38l-3.01-8.73h2.05ZM98.79,203.13c-.67,0-1.25-.14-1.74-.41-.48-.28-.86-.66-1.12-1.17-.26-.51-.39-1.1-.39-1.79s.13-1.26.39-1.77c.26-.51.63-.9,1.1-1.19.48-.28,1.04-.43,1.68-.43.43,0,.83.07,1.21.21.38.14.7.34.98.62.28.28.5.62.66,1.04.16.42.24.9.24,1.46v.5h-5.53v-1.12h3.82c0-.26-.06-.49-.17-.7-.11-.2-.27-.36-.47-.47-.2-.12-.43-.18-.69-.18s-.52.06-.73.19c-.21.12-.38.29-.49.51-.12.21-.18.44-.18.7v1.07c0,.32.06.6.18.84.12.24.29.42.52.54.22.13.48.19.79.19.2,0,.39-.03.55-.08.17-.06.31-.14.43-.26.12-.11.21-.25.27-.42l1.68.11c-.08.4-.26.76-.52,1.06-.26.3-.6.53-1.01.7-.41.16-.89.25-1.43.25ZM105.93,203.13c-.67,0-1.25-.14-1.73-.43-.48-.29-.85-.68-1.11-1.19-.26-.51-.38-1.09-.38-1.76s.13-1.26.39-1.76c.26-.51.63-.9,1.11-1.19.48-.29,1.05-.43,1.71-.43.57,0,1.07.1,1.5.31.43.21.77.5,1.02.87s.39.82.41,1.32h-1.71c-.05-.33-.18-.59-.38-.79-.2-.2-.47-.3-.81-.3-.28,0-.53.08-.74.23-.21.15-.37.37-.49.66-.12.29-.18.64-.18,1.05s.06.77.17,1.07c.12.29.28.51.49.67.21.15.46.23.74.23.21,0,.39-.04.56-.13.17-.08.31-.21.41-.37.11-.16.18-.36.22-.59h1.71c-.03.5-.17.94-.41,1.32-.24.38-.57.67-1,.89-.43.21-.93.32-1.51.32ZM113.5,196.46v1.36h-3.94v-1.36h3.94ZM110.45,194.89h1.81v6.1c0,.17.03.3.08.39.05.09.12.15.21.19.09.04.2.06.32.06.08,0,.17,0,.26-.02.08-.02.15-.03.2-.04l.29,1.35c-.09.03-.22.06-.38.1-.17.04-.36.06-.6.07-.44.02-.82-.04-1.15-.17-.33-.13-.58-.34-.76-.62-.18-.28-.27-.64-.27-1.07v-6.34ZM117.57,203.13c-.66,0-1.23-.14-1.72-.42-.48-.28-.85-.68-1.11-1.18-.26-.51-.39-1.1-.39-1.77s.13-1.27.39-1.77c.26-.51.63-.9,1.11-1.18.48-.28,1.06-.43,1.72-.43s1.23.14,1.71.43c.48.28.86.68,1.12,1.18.26.51.39,1.1.39,1.77s-.13,1.26-.39,1.77c-.26.51-.63.9-1.12,1.18-.48.28-1.05.42-1.71.42ZM117.58,201.72c.3,0,.55-.09.75-.26.2-.17.35-.41.46-.71.1-.3.16-.64.16-1.02s-.05-.72-.16-1.02c-.1-.3-.25-.54-.46-.71-.2-.17-.45-.26-.75-.26s-.56.09-.77.26c-.2.17-.36.41-.46.71-.1.3-.15.64-.15,1.02s.05.72.15,1.02c.11.3.26.53.46.71.21.17.46.26.77.26ZM121.97,203v-6.54h1.76v1.14h.07c.12-.41.32-.71.6-.92.28-.21.61-.32.97-.32.09,0,.19,0,.29.02.11.01.2.03.28.05v1.61c-.08-.03-.2-.05-.35-.07-.15-.02-.29-.03-.41-.03-.27,0-.51.06-.72.17-.21.11-.37.27-.49.48-.12.21-.18.44-.18.71v3.7h-1.82Z"/>
  <path class="st1" d="M748.84,178.8c2.27,15.23,1.21,30.76-3.1,45.54-4.31,14.78-11.78,28.45-21.88,40.06-10.1,11.61-22.61,20.9-36.64,27.22-14.04,6.32-29.28,9.52-44.67,9.38-15.39-.14-30.58-3.62-44.5-10.19-13.92-6.57-26.25-16.08-36.14-27.88-9.89-11.8-17.11-25.6-21.15-40.45-4.04-14.85-4.82-30.41-2.27-45.59l15.76,2.64c-2.16,12.91-1.51,26.13,1.93,38.75,3.44,12.63,9.57,24.36,17.98,34.38,8.41,10.03,18.89,18.11,30.72,23.7,11.83,5.59,24.74,8.54,37.82,8.66,13.08.12,26.04-2.6,37.97-7.97s22.56-13.26,31.15-23.13c8.59-9.87,14.93-21.49,18.6-34.05,3.67-12.56,4.57-25.77,2.64-38.71l15.8-2.35Z"/>
  <path class="st7" d="M543.67,157.41c5.85-15.76,15.35-29.9,27.72-41.28l10.82,11.76c-10.51,9.67-18.59,21.7-23.56,35.09l-14.97-5.56Z"/>
  <path class="st7" d="M587.11,104.15c14.26-8.9,30.42-14.3,47.16-15.75l1.38,15.91c-14.23,1.24-27.97,5.83-40.09,13.39l-8.46-13.55Z"/>
  <path class="st7" d="M654.16,88.53c16.72,1.68,32.81,7.3,46.95,16.39l-8.64,13.44c-12.02-7.73-25.69-12.5-39.9-13.93l1.6-15.9Z"/>
  <path class="st7" d="M716.92,117.35c13.98,13.31,24.09,30.17,29.23,48.77l-15.4,4.26c-4.37-15.82-12.96-30.14-24.85-41.46l11.01-11.57Z"/>
  <path class="st4" d="M538.48,176.8c1.11-6.6,2.85-13.09,5.18-19.36l14.98,5.56c-1.98,5.34-3.45,10.85-4.4,16.46l-15.75-2.65Z"/>
  <path class="st8" d="M571.26,116.25c4.92-4.54,10.26-8.61,15.94-12.15l8.45,13.56c-4.83,3.01-9.37,6.47-13.55,10.33l-10.84-11.74Z"/>
  <path class="st11" d="M634.07,88.42c6.67-.59,13.38-.55,20.05.11l-1.59,15.9c-5.66-.57-11.37-.6-17.04-.1l-1.41-15.91Z"/>
  <path class="st5" d="M746.1,165.95c1.79,6.45,2.98,13.06,3.53,19.73l-15.92,1.32c-.47-5.67-1.48-11.29-3-16.77l15.39-4.28Z"/>
  <path class="st9" d="M701,104.86c5.64,3.61,10.92,7.75,15.78,12.36l-10.99,11.59c-4.13-3.92-8.62-7.43-13.41-10.51l8.62-13.45Z"/>
  <path class="st10" d="M605.61,202v-8.73h5.78v1.52h-3.93v2.08h3.55v1.52h-3.55v3.6h-1.85ZM612.6,202v-6.54h1.82v6.54h-1.82ZM613.51,194.61c-.27,0-.5-.09-.69-.27-.19-.18-.29-.4-.29-.65s.1-.46.29-.64c.19-.18.42-.27.69-.27s.5.09.69.27c.19.18.29.39.29.64s-.1.47-.29.65c-.19.18-.42.27-.69.27ZM617.68,198.22v3.78h-1.82v-6.54h1.73v1.15h.08c.15-.38.39-.68.73-.9.34-.22.75-.34,1.24-.34.45,0,.85.1,1.19.3.34.2.6.48.79.85.19.37.28.8.28,1.31v4.17h-1.82v-3.84c0-.4-.1-.71-.31-.94-.21-.23-.49-.34-.86-.34-.24,0-.46.05-.65.16-.18.11-.33.26-.43.46-.1.2-.16.44-.16.72ZM625.2,202.12c-.42,0-.79-.07-1.12-.22-.33-.15-.59-.37-.78-.65-.19-.29-.28-.65-.28-1.08,0-.36.07-.67.2-.92.13-.25.32-.45.55-.6.23-.15.49-.26.78-.34.3-.08.61-.13.93-.16.38-.04.69-.08.92-.11.23-.04.4-.09.51-.16.11-.07.16-.18.16-.32v-.02c0-.27-.09-.48-.26-.63-.17-.15-.41-.22-.71-.22-.33,0-.59.07-.78.22-.19.14-.32.32-.38.54l-1.68-.14c.09-.4.25-.74.5-1.03.25-.29.57-.52.97-.67.4-.16.86-.24,1.38-.24.36,0,.71.04,1.04.13.33.09.63.22.89.4.26.18.47.41.62.69.15.28.23.61.23,1v4.41h-1.72v-.91h-.05c-.1.21-.25.39-.42.54-.18.15-.39.27-.64.36-.25.08-.53.13-.86.13ZM625.72,200.87c.27,0,.5-.05.71-.16.2-.11.36-.25.48-.43.12-.18.17-.39.17-.62v-.69c-.06.04-.14.07-.23.1-.1.03-.21.06-.33.08-.12.02-.24.04-.37.06-.12.02-.23.03-.33.05-.21.03-.4.08-.56.15-.16.07-.28.16-.37.28-.09.11-.13.26-.13.43,0,.25.09.44.27.57.18.13.41.19.69.19ZM632.11,193.27v8.73h-1.82v-8.73h1.82ZM636.37,202v-8.73h3.44c.66,0,1.23.13,1.69.38.47.25.82.6,1.07,1.04.25.44.37.96.37,1.53s-.12,1.09-.38,1.53c-.25.44-.61.79-1.09,1.04-.47.25-1.04.37-1.71.37h-2.19v-1.48h1.9c.36,0,.65-.06.88-.18.23-.12.41-.3.52-.52.12-.22.17-.48.17-.76s-.06-.54-.17-.76c-.11-.22-.29-.39-.52-.51-.23-.12-.53-.18-.89-.18h-1.24v7.22h-1.84ZM644.11,202v-6.54h1.76v1.14h.07c.12-.41.32-.71.6-.92.28-.21.6-.32.97-.32.09,0,.19,0,.29.02.1.01.2.03.28.05v1.61c-.08-.03-.2-.05-.35-.07-.15-.02-.29-.03-.41-.03-.27,0-.51.06-.72.17-.21.11-.37.27-.49.48-.12.21-.18.44-.18.71v3.7h-1.82ZM651.67,202.13c-.66,0-1.23-.14-1.72-.42-.48-.28-.85-.68-1.11-1.18-.26-.51-.39-1.1-.39-1.77s.13-1.27.39-1.77c.26-.51.63-.9,1.11-1.18.48-.28,1.05-.43,1.72-.43s1.23.14,1.71.43c.48.28.85.68,1.12,1.18.26.51.39,1.1.39,1.77s-.13,1.26-.39,1.77c-.26.51-.63.9-1.12,1.18-.48.28-1.05.42-1.71.42ZM651.68,200.72c.3,0,.55-.09.75-.26.2-.17.35-.41.46-.71.11-.3.16-.64.16-1.02s-.05-.72-.16-1.02c-.1-.3-.25-.54-.46-.71-.2-.17-.45-.26-.75-.26s-.56.09-.77.26c-.21.17-.36.41-.46.71-.1.3-.15.64-.15,1.02s.05.72.15,1.02c.1.3.26.53.46.71.21.17.46.26.77.26ZM658.48,202.11c-.5,0-.95-.13-1.35-.38-.4-.26-.72-.64-.95-1.14-.23-.5-.35-1.12-.35-1.85s.12-1.37.36-1.87c.24-.5.56-.87.96-1.12.4-.25.85-.38,1.33-.38.37,0,.67.06.92.19.25.12.45.27.6.46.15.18.27.36.35.54h.05v-3.28h1.81v8.73h-1.79v-1.05h-.08c-.08.18-.21.36-.36.54-.15.18-.35.32-.6.44-.24.12-.54.17-.9.17ZM659.06,200.66c.29,0,.54-.08.74-.24.2-.16.36-.39.47-.68.11-.29.17-.63.17-1.02s-.05-.73-.16-1.01c-.11-.29-.26-.51-.47-.66-.21-.16-.45-.23-.75-.23s-.55.08-.75.24c-.21.16-.36.39-.46.67-.11.29-.16.62-.16,1s.05.72.16,1.01c.11.29.26.52.46.68.21.16.46.24.75.24ZM667.9,199.21v-3.76h1.82v6.54h-1.74v-1.19h-.07c-.15.38-.39.69-.74.92-.34.23-.76.35-1.25.35-.44,0-.82-.1-1.15-.3-.33-.2-.59-.48-.78-.85-.18-.37-.28-.8-.28-1.32v-4.17h1.82v3.84c0,.39.11.69.31.92.2.22.48.34.82.34.22,0,.42-.05.61-.15.19-.1.34-.25.46-.45.12-.2.18-.44.17-.74ZM674.12,202.13c-.67,0-1.25-.14-1.73-.43-.48-.29-.85-.68-1.11-1.19-.26-.51-.38-1.09-.38-1.76s.13-1.26.39-1.76c.26-.51.63-.9,1.11-1.19.48-.29,1.05-.43,1.71-.43.57,0,1.07.1,1.5.31.43.21.77.5,1.02.87s.39.82.41,1.32h-1.71c-.05-.33-.18-.59-.38-.79-.21-.2-.47-.3-.8-.3-.28,0-.53.08-.74.23-.21.15-.37.37-.48.66-.12.29-.17.64-.17,1.05s.06.77.17,1.07c.12.29.28.51.49.67.21.15.46.23.74.23.21,0,.39-.04.56-.13.17-.08.3-.21.41-.37.11-.16.18-.36.22-.59h1.71c-.03.5-.16.94-.41,1.32-.24.38-.58.67-1,.89-.43.21-.93.32-1.51.32ZM681.69,195.46v1.36h-3.94v-1.36h3.94ZM678.64,193.89h1.82v6.1c0,.17.03.3.08.39.05.09.12.15.21.19.09.04.2.06.32.06.09,0,.17,0,.26-.02.09-.02.15-.03.2-.04l.29,1.35c-.09.03-.22.06-.38.1-.17.04-.37.06-.6.07-.44.02-.82-.04-1.15-.17-.33-.13-.58-.34-.76-.62-.18-.28-.27-.64-.27-1.07v-6.34Z"/>
  <path class="st10" d="M545.49,123.27v8.73h-1.85v-8.73h1.85ZM550.75,123.27v8.73h-1.84v-6.98h-.05l-2,1.25v-1.64l2.16-1.37h1.73Z"/>
  <path class="st10" d="M601.64,81.27v8.73h-1.85v-8.73h1.85ZM603.11,90v-1.33l3.11-2.88c.26-.26.49-.49.66-.69.18-.2.32-.4.41-.6.09-.2.14-.41.14-.64,0-.26-.06-.48-.17-.66-.12-.19-.28-.33-.48-.43-.2-.1-.43-.15-.69-.15s-.5.05-.7.16c-.2.11-.35.26-.46.46-.11.2-.16.44-.16.72h-1.75c0-.57.13-1.07.39-1.49.26-.42.62-.75,1.09-.98.47-.23,1-.35,1.61-.35s1.17.11,1.63.33c.47.22.83.52,1.09.91.26.39.39.84.39,1.34,0,.33-.07.65-.2.98-.13.32-.36.68-.69,1.07-.33.39-.79.86-1.39,1.4l-1.27,1.25v.06h3.66v1.51h-6.22Z"/>
  <path class="st10" d="M684.47,81.27v8.73h-1.84v-8.73h1.84ZM689.16,90.12c-.64,0-1.2-.11-1.7-.33-.49-.22-.89-.53-1.17-.91-.28-.39-.43-.84-.44-1.35h1.86c.01.21.08.4.21.56.13.16.3.28.52.37.22.09.46.13.73.13s.53-.05.75-.15c.22-.1.39-.24.51-.41s.18-.38.18-.61-.07-.44-.2-.62c-.13-.18-.31-.32-.55-.43-.24-.1-.52-.15-.85-.15h-.81v-1.36h.81c.28,0,.52-.05.74-.14.22-.1.38-.23.5-.4.12-.17.18-.38.18-.61s-.05-.41-.16-.58c-.1-.17-.25-.3-.43-.39-.18-.09-.4-.14-.65-.14s-.48.05-.69.14c-.21.09-.37.21-.5.38s-.19.36-.2.58h-1.77c0-.5.15-.95.43-1.33.28-.38.65-.68,1.12-.9.47-.22,1.01-.33,1.61-.33s1.13.11,1.58.33c.45.22.8.51,1.05.89.25.37.38.78.38,1.24,0,.49-.15.9-.46,1.22-.3.33-.7.53-1.19.62v.07c.64.08,1.13.31,1.47.67.34.36.51.81.5,1.36,0,.5-.14.94-.43,1.33-.29.39-.68.69-1.19.91-.51.22-1.09.33-1.74.33Z"/>
  <path class="st10" d="M736.36,123.27v8.73h-1.85v-8.73h1.85ZM737.69,130.47v-1.45l3.64-5.74h1.25v2.01h-.74l-2.3,3.64v.07h5.18v1.48h-7.04ZM741.88,132v-1.98l.03-.64v-6.11h1.73v8.73h-1.76Z"/>
  <line class="st3" x1="275.85" y1="101.67" x2="294.19" y2="119.91"/>
  <path class="st6" d="M381.19,55.28c15.81.43,31.4,3.85,45.94,10.07l-6.42,15c-12.65-5.41-26.21-8.39-39.97-8.76l.45-16.31Z"/>
  <path class="st11" d="M369.28,55.52c3.93-.27,7.88-.35,11.82-.24l-.44,16.31c-3.43-.09-6.86-.02-10.28.21l-1.1-16.28Z"/>
  <path class="st9" d="M427.01,65.3c3.63,1.55,7.18,3.27,10.64,5.15l-7.79,14.34c-3.02-1.64-6.11-3.13-9.26-4.48l6.4-15.01Z"/>
  <path class="st6" d="M322.48,34.6c14.7-5.84,30.37-8.84,46.19-8.86l.02,16.32c-13.76.01-27.4,2.63-40.19,7.71l-6.02-15.16Z"/>
  <path class="st8" d="M311.63,39.51c3.51-1.8,7.1-3.43,10.77-4.88l6.03,15.16c-3.19,1.27-6.31,2.69-9.37,4.25l-7.43-14.52Z"/>
  <path class="st11" d="M368.54,25.74c3.94,0,7.89.17,11.81.53l-1.5,16.25c-3.42-.32-6.85-.47-10.28-.46l-.03-16.32Z"/>
  <path class="st6" d="M451.89,44.47c13.68,7.94,25.74,18.39,35.54,30.8l-12.81,10.11c-8.53-10.8-19.02-19.9-30.92-26.8l8.19-14.11Z"/>
  <path class="st9" d="M441.31,38.99c3.58,1.65,7.09,3.46,10.5,5.44l-8.18,14.12c-2.97-1.72-6.02-3.3-9.13-4.73l6.81-14.82Z"/>
  <path class="st5" d="M487.34,75.17c2.45,3.09,4.75,6.3,6.89,9.61l-13.69,8.87c-1.87-2.88-3.87-5.67-5.99-8.36l12.8-10.12Z"/>
  <line class="st3" x1="493.24" y1="86.77" x2="458.49" y2="119.53"/>
  <text class="st0" transform="translate(46.42 319.89)"><tspan x="0" y="0">Linearized Destination </tspan><tspan x="41.76" y="14.4">Vector</tspan></text>
  <text class="st0" transform="translate(334.82 319.89)"><tspan x="0" y="0">Overlap Directed</tspan><tspan x="17.68" y="14.4">Assembly</tspan></text>
  <text class="st0" transform="translate(598.36 327.09)"><tspan x="0" y="0">Assembled Plasmid</tspan></text>
</svg>