<?xml version="1.0" encoding="UTF-8"?>
<svg id="Layer_1" xmlns="http://www.w3.org/2000/svg" version="1.1" viewBox="0 0 776 336.72">
  <!-- Generator: Adobe Illustrator 29.5.1, SVG Export Plug-In . SVG Version: 2.1.0 Build 141)  -->
  <defs>
    <style>
      .st0, .st1, .st2, .st3 {
        isolation: isolate;
      }

      .st0, .st2, .st3 {
        font-family: Arial-Mdm, Arial;
        font-size: 12px;
        font-weight: 500;
      }

      .st4 {
        fill: #e8a13b;
      }

      .st5 {
        fill: #dd514c;
      }

      .st6 {
        stroke-dasharray: 4.09 2.04;
      }

      .st6, .st7, .st8, .st2, .st9, .st3, .st10 {
        fill: none;
      }

      .st6, .st8, .st2, .st9, .st3, .st10 {
        stroke-miterlimit: 10;
      }

      .st6, .st8, .st9 {
        stroke: red;
      }

      .st7 {
        stroke: #71a2f3;
        stroke-dasharray: 2 2;
      }

      .st8 {
        stroke-dasharray: 2.63 1.32;
      }

      .st2 {
        stroke: #000;
      }

      .st2, .st3 {
        stroke-width: .25px;
      }

      .st11 {
        fill: #54b684;
      }

      .st12 {
        fill: #a8d8e8;
      }

      .st13 {
        fill: #4e80ed;
      }

      .st3 {
        stroke: #221f20;
      }

      .st14 {
        fill: #835eed;
      }

      .st15 {
        fill: #8a5cf5;
      }

      .st16 {
        fill: #3974ad;
      }

      .st17 {
        fill: #da5497;
      }

      .st18 {
        fill: #ec4799;
      }

      .st10 {
        stroke: #1b76b1;
        stroke-width: 17px;
      }

      .st19 {
        fill: #f49d0d;
      }

      .st20 {
        fill: #3c81f4;
      }

      .st21 {
        fill: #0b0755;
      }

      .st22 {
        fill: #0bb980;
      }
    </style>
  </defs>
  <path class="st21" d="M273.26,166.31l-10-5.77v11.55l10-5.77h0ZM231.76,166.31v1h32.5v-2h-32.5v1Z"/>
  <path class="st21" d="M537.26,166.31l-10-5.77v11.55l10-5.77h0ZM495.76,166.31v1h32.5v-2h-32.5v1Z"/>
  <path class="st21" d="M353.24,176.31h-3.09v-8.73h3.12c.88,0,1.63.17,2.27.52.63.35,1.12.85,1.46,1.5s.52,1.43.52,2.34-.17,1.69-.52,2.34c-.34.65-.83,1.15-1.47,1.5s-1.4.52-2.28.52h0ZM351.99,174.73h1.17c.54,0,1-.1,1.38-.29.38-.2.66-.5.84-.91.19-.41.29-.94.29-1.59s-.1-1.17-.29-1.58-.47-.71-.84-.9c-.37-.19-.83-.29-1.38-.29h-1.18v5.57h0ZM361.82,176.44c-.67,0-1.25-.14-1.74-.41-.48-.28-.86-.66-1.12-1.17s-.39-1.1-.39-1.79.13-1.26.39-1.77c.26-.51.63-.9,1.1-1.19.48-.28,1.04-.43,1.68-.43.43,0,.83.07,1.2.21.38.14.7.34.98.62s.5.62.66,1.04.23.9.23,1.46v.5h-5.53v-1.12h3.82c0-.26-.06-.49-.17-.7-.11-.2-.27-.36-.47-.47-.2-.12-.43-.18-.7-.18s-.52.06-.73.19c-.21.12-.38.29-.49.51-.12.21-.18.44-.18.7v1.07c0,.32.06.6.18.84.12.24.29.42.51.54.22.13.49.19.79.19.2,0,.39-.03.55-.08.17-.06.31-.14.43-.26.12-.11.21-.25.27-.42l1.68.11c-.08.4-.26.76-.52,1.06-.26.3-.6.53-1.01.7-.41.16-.89.25-1.43.25h0ZM371.46,171.63l-1.66.1c-.03-.14-.09-.27-.18-.38-.09-.12-.22-.21-.37-.28-.15-.07-.33-.11-.54-.11-.28,0-.52.06-.71.18s-.29.27-.29.47c0,.16.06.29.19.4s.34.2.64.26l1.18.24c.64.13,1.11.34,1.42.63.31.29.47.67.47,1.14,0,.43-.13.8-.38,1.13-.25.32-.59.58-1.03.76s-.94.27-1.51.27c-.87,0-1.56-.18-2.07-.54s-.81-.86-.9-1.48l1.79-.09c.05.26.18.47.39.61.21.14.47.21.8.21s.57-.06.77-.18c.2-.12.29-.29.3-.48,0-.16-.07-.3-.21-.4-.14-.11-.35-.19-.63-.25l-1.13-.23c-.64-.13-1.11-.35-1.43-.66-.31-.32-.46-.72-.46-1.21,0-.42.11-.78.34-1.09.23-.3.55-.54.97-.7s.91-.25,1.47-.25c.83,0,1.48.18,1.95.52.48.35.76.83.83,1.43v-.02h-.01ZM376.23,169.77v1.36h-3.94v-1.36h3.94ZM373.18,168.2h1.82v6.1c0,.17.03.3.08.39s.12.15.21.19c.09.04.2.06.32.06.08,0,.17,0,.26-.02s.15-.03.2-.04l.29,1.35c-.09.03-.22.06-.38.1-.16.04-.36.06-.6.07-.44.02-.82-.04-1.15-.17s-.58-.34-.76-.62c-.18-.28-.27-.64-.27-1.07v-6.34h-.02ZM377.41,176.31v-6.54h1.82v6.54h-1.82ZM378.32,168.92c-.27,0-.5-.09-.69-.27-.19-.18-.29-.4-.29-.65s.1-.46.29-.64.42-.27.69-.27.5.09.69.27c.19.18.29.39.29.64s-.1.47-.29.65-.42.27-.69.27ZM382.5,172.53v3.78h-1.81v-6.54h1.73v1.15h.08c.14-.38.39-.68.73-.9s.76-.34,1.24-.34c.45,0,.85.1,1.19.3s.6.48.79.85c.19.37.28.8.28,1.31v4.17h-1.82v-3.84c0-.4-.1-.71-.31-.94s-.49-.34-.86-.34c-.24,0-.46.05-.65.16-.18.11-.33.26-.43.46-.1.2-.15.44-.16.72h0ZM390.01,176.43c-.42,0-.79-.07-1.12-.22s-.59-.37-.78-.65c-.19-.29-.28-.65-.28-1.08,0-.36.07-.67.2-.92s.31-.45.55-.6c.23-.15.49-.26.78-.34.3-.08.61-.13.93-.16.38-.04.69-.08.92-.11.23-.04.4-.09.51-.16.11-.07.16-.18.16-.32v-.02c0-.27-.09-.48-.26-.63-.17-.15-.41-.22-.72-.22-.33,0-.59.07-.78.22-.19.14-.32.32-.38.54l-1.68-.14c.08-.4.25-.74.5-1.03s.57-.52.97-.67c.4-.16.86-.24,1.38-.24.36,0,.71.04,1.04.13.33.09.63.22.89.4s.47.41.62.69.23.61.23,1v4.41h-1.72v-.91h-.05c-.11.21-.24.39-.42.54-.18.15-.39.27-.64.36-.25.08-.53.13-.86.13h0ZM390.53,175.18c.27,0,.5-.05.71-.16s.36-.25.48-.43c.12-.18.18-.39.18-.62v-.69c-.06.04-.14.07-.24.1-.1.03-.21.06-.33.08s-.24.04-.37.06c-.12.02-.23.03-.33.05-.21.03-.4.08-.56.15-.16.07-.28.16-.37.28-.09.11-.13.26-.13.43,0,.25.09.44.27.57s.41.19.69.19h0ZM398.59,169.77v1.36h-3.94v-1.36h3.94ZM395.54,168.2h1.82v6.1c0,.17.02.3.08.39.05.09.12.15.21.19.09.04.2.06.32.06.08,0,.17,0,.26-.02.08-.02.15-.03.2-.04l.29,1.35c-.09.03-.22.06-.38.1-.16.04-.36.06-.6.07-.44.02-.82-.04-1.15-.17s-.58-.34-.76-.62c-.18-.28-.27-.64-.27-1.07v-6.34h-.02ZM399.77,176.31v-6.54h1.82v6.54h-1.82ZM400.68,168.92c-.27,0-.5-.09-.7-.27-.19-.18-.29-.4-.29-.65s.1-.46.29-.64.43-.27.7-.27.5.09.69.27c.19.18.29.39.29.64s-.1.47-.29.65-.42.27-.69.27ZM406,176.44c-.66,0-1.23-.14-1.72-.42-.48-.28-.85-.68-1.11-1.18-.26-.51-.39-1.1-.39-1.77s.13-1.27.39-1.77c.26-.51.63-.9,1.11-1.18.48-.28,1.06-.43,1.72-.43s1.23.14,1.71.43c.48.28.85.68,1.12,1.18.26.51.39,1.1.39,1.77s-.13,1.26-.39,1.77c-.26.51-.63.9-1.12,1.18-.48.28-1.05.42-1.71.42ZM406.01,175.03c.3,0,.55-.09.75-.26s.35-.41.46-.71.16-.64.16-1.02-.05-.72-.16-1.02c-.1-.3-.25-.54-.46-.71-.2-.17-.45-.26-.75-.26s-.56.09-.77.26c-.2.17-.36.41-.46.71s-.15.64-.15,1.02.05.72.15,1.02c.11.3.26.53.46.71.21.17.46.26.77.26ZM412.22,172.53v3.78h-1.82v-6.54h1.73v1.15h.08c.14-.38.39-.68.73-.9s.75-.34,1.24-.34c.45,0,.85.1,1.19.3s.6.48.79.85c.19.37.28.8.28,1.31v4.17h-1.82v-3.84c0-.4-.1-.71-.31-.94s-.49-.34-.86-.34c-.24,0-.46.05-.65.16-.18.11-.33.26-.43.46-.1.2-.15.44-.16.72h0ZM365.94,182.58l2.11,6.63h.08l2.11-6.63h2.05l-3.01,8.73h-2.38l-3.01-8.73h2.05ZM375.55,191.44c-.67,0-1.25-.14-1.74-.41-.48-.28-.86-.66-1.12-1.17s-.39-1.1-.39-1.79.13-1.26.39-1.77c.26-.51.63-.9,1.1-1.19.48-.28,1.04-.43,1.68-.43.43,0,.83.07,1.21.21s.7.34.98.62.5.62.66,1.04.23.9.23,1.46v.5h-5.53v-1.12h3.82c0-.26-.06-.49-.17-.7-.11-.2-.27-.36-.47-.47-.2-.12-.43-.18-.69-.18s-.52.06-.73.19c-.21.12-.38.29-.49.51-.12.21-.18.44-.18.7v1.07c0,.32.06.6.18.84.12.24.29.42.52.54.22.13.48.19.79.19.2,0,.39-.03.55-.08.17-.06.31-.14.43-.26.12-.11.21-.25.27-.42l1.68.11c-.08.4-.26.76-.52,1.06-.26.3-.6.53-1.01.7-.41.16-.89.25-1.43.25h-.02ZM382.7,191.44c-.67,0-1.25-.14-1.73-.43s-.85-.68-1.11-1.19c-.26-.51-.38-1.09-.38-1.76s.13-1.26.39-1.76c.26-.51.63-.9,1.11-1.19.48-.29,1.05-.43,1.71-.43.57,0,1.07.1,1.5.31.43.21.77.5,1.02.87s.39.82.41,1.32h-1.71c-.05-.33-.18-.59-.38-.79s-.47-.3-.81-.3c-.28,0-.53.08-.74.23s-.37.37-.49.66c-.12.29-.17.64-.17,1.05s.06.77.17,1.07c.12.29.28.51.49.67.21.15.46.23.74.23.21,0,.39-.04.56-.13.17-.08.31-.21.41-.37.11-.16.18-.36.22-.59h1.71c-.03.5-.17.94-.41,1.32s-.58.67-1,.89c-.43.21-.93.32-1.51.32h0ZM390.26,184.77v1.36h-3.94v-1.36h3.94ZM387.22,183.2h1.82v6.1c0,.17.03.3.08.39s.12.15.21.19c.09.04.2.06.32.06.08,0,.17,0,.26-.02.08-.02.15-.03.2-.04l.29,1.35c-.09.03-.22.06-.38.1-.17.04-.36.06-.6.07-.44.02-.82-.04-1.15-.17s-.58-.34-.76-.62c-.18-.28-.27-.64-.27-1.07v-6.34h-.02ZM394.33,191.44c-.66,0-1.23-.14-1.72-.42-.48-.28-.85-.68-1.11-1.18-.26-.51-.39-1.1-.39-1.77s.13-1.27.39-1.77c.26-.51.63-.9,1.11-1.18.48-.28,1.06-.43,1.72-.43s1.23.14,1.71.43c.48.28.86.68,1.12,1.18.26.51.39,1.1.39,1.77s-.13,1.26-.39,1.77c-.26.51-.63.9-1.12,1.18-.48.28-1.05.42-1.71.42ZM394.34,190.03c.3,0,.55-.09.75-.26s.35-.41.46-.71.16-.64.16-1.02-.05-.72-.16-1.02c-.1-.3-.25-.54-.46-.71-.2-.17-.45-.26-.75-.26s-.56.09-.77.26-.36.41-.47.71c-.1.3-.15.64-.15,1.02s.05.72.15,1.02c.11.3.26.53.47.71.21.17.46.26.77.26ZM398.73,191.31v-6.54h1.76v1.14h.07c.12-.41.32-.71.6-.92.28-.21.61-.32.97-.32.09,0,.19,0,.29.02.11,0,.2.03.28.05v1.61c-.08-.03-.2-.05-.35-.07s-.29-.03-.41-.03c-.27,0-.51.06-.72.17s-.37.27-.49.48c-.12.21-.18.44-.18.71v3.7h-1.82Z"/>
  <path class="st21" d="M279.94,72.47l5.19,7.02-1.48,1.1-5.19-7.02,1.48-1.1ZM285.53,74.48l2.25,3.04-1.46,1.08-3.89-5.26,1.39-1.03.69.93.06-.05c-.11-.39-.09-.78.05-1.16.14-.38.41-.72.8-1.01.37-.27.74-.43,1.13-.47s.77.03,1.14.22c.37.18.7.48,1.01.89l2.48,3.35-1.46,1.08-2.29-3.09c-.24-.32-.5-.51-.8-.57s-.6.02-.89.24c-.2.15-.34.32-.43.51s-.11.4-.08.63c.04.22.14.44.3.67h0ZM293.92,67.17l-1.28,1.07c-.11-.1-.23-.16-.38-.2-.14-.04-.3-.04-.46,0-.16.03-.33.11-.5.24-.23.17-.38.36-.47.57s-.07.39.05.55c.09.13.22.19.39.21.16,0,.39-.05.67-.17l1.09-.51c.59-.27,1.1-.39,1.52-.34.42.05.78.26,1.06.64.26.34.38.72.37,1.13,0,.41-.13.82-.38,1.22-.24.4-.59.77-1.05,1.11-.7.52-1.36.78-1.99.8-.63.01-1.16-.21-1.61-.66l1.38-1.14c.2.18.43.26.68.25s.5-.12.76-.31.43-.39.51-.6c.08-.22.07-.41-.05-.56-.1-.13-.24-.2-.41-.2s-.39.05-.65.18l-1.05.49c-.59.28-1.1.38-1.54.31s-.8-.3-1.09-.69c-.25-.34-.37-.7-.37-1.08s.12-.76.36-1.14.58-.74,1.03-1.07c.66-.49,1.29-.74,1.88-.74s1.1.21,1.52.65h0ZM300.21,68.49c-.54.4-1.09.64-1.64.7-.55.07-1.08-.03-1.59-.27-.51-.25-.97-.65-1.38-1.21-.4-.54-.65-1.09-.74-1.66-.09-.56-.03-1.1.18-1.61s.58-.96,1.1-1.34c.35-.26.71-.44,1.09-.55s.77-.14,1.16-.09.77.2,1.15.45c.37.24.72.58,1.05,1.03l.3.4-4.44,3.29-.67-.9,3.07-2.27c-.16-.21-.34-.36-.55-.46-.21-.09-.43-.13-.66-.1-.23.02-.45.12-.66.27-.22.16-.38.36-.48.59s-.13.46-.1.7.12.46.27.67l.64.86c.19.26.41.45.64.57.24.12.48.16.74.13.25-.03.5-.13.75-.31.16-.12.29-.25.4-.4.1-.15.17-.3.19-.46s.02-.33-.03-.5l1.42-.91c.17.38.24.76.21,1.16s-.17.78-.4,1.17c-.23.38-.57.73-1,1.05h-.02,0ZM303.5,65.89l-3.89-5.26,1.41-1.05.68.92.06-.04c-.15-.4-.17-.76-.07-1.1s.3-.61.59-.83c.07-.05.15-.11.25-.16.09-.05.17-.1.25-.13l.96,1.3c-.08.03-.19.08-.32.16-.13.07-.25.15-.35.22-.21.16-.37.35-.47.57-.1.21-.14.44-.11.68.02.24.12.46.28.68l2.2,2.98-1.46,1.08v-.02h0ZM306.62,55.45l.81,1.1-3.17,2.34-.81-1.1,3.17-2.34ZM303.24,56l1.46-1.08,3.63,4.91c.1.13.2.22.29.27.1.04.19.05.29.03.1-.03.19-.08.29-.15.07-.05.13-.11.19-.17s.1-.11.14-.15l1.03.92c-.06.08-.14.18-.25.31s-.26.27-.44.42c-.34.27-.68.46-1.03.54-.34.09-.67.07-.98-.05s-.6-.35-.85-.7l-3.77-5.1h0ZM311.55,49.09l5.19,7.02-1.48,1.1-4.15-5.61-.04.03-.86,2.2-.97-1.32.92-2.38,1.4-1.03h-.01Z"/>
  <path class="st21" d="M457.52,45.26l-5.08,7.1-1.5-1.07,5.08-7.1,1.5,1.07ZM457.32,51.2l-2.2,3.08-1.48-1.06,3.81-5.32,1.41,1.01-.67.94.06.04c.34-.23.71-.33,1.12-.31s.81.17,1.2.45c.37.26.63.58.79.93.16.36.21.74.14,1.15-.06.41-.24.82-.53,1.23l-2.43,3.39-1.48-1.06,2.24-3.12c.24-.32.33-.64.3-.94-.04-.31-.2-.56-.5-.78-.2-.14-.4-.23-.62-.25-.21-.02-.42.02-.62.12-.2.1-.38.27-.55.49h.01ZM466.86,56.94l-1.41-.88c.06-.13.08-.27.08-.42s-.06-.3-.14-.44c-.08-.15-.21-.28-.38-.4-.23-.16-.46-.25-.68-.27-.23-.02-.39.05-.51.21-.09.13-.12.27-.08.43s.16.36.37.59l.82.88c.44.48.7.92.79,1.34.08.42,0,.82-.28,1.2-.25.35-.57.58-.97.7-.39.12-.82.12-1.28.02-.46-.11-.92-.33-1.38-.66-.7-.5-1.16-1.05-1.37-1.65-.2-.59-.16-1.17.13-1.73l1.51.96c-.11.25-.12.49-.03.72s.27.44.53.63c.26.19.5.28.73.3.23,0,.41-.06.52-.22.09-.14.12-.29.07-.45-.05-.17-.17-.36-.37-.57l-.79-.84c-.45-.48-.7-.93-.77-1.37-.07-.44.04-.85.32-1.25.24-.34.55-.57.91-.68.36-.11.76-.12,1.2,0,.44.11.88.33,1.34.65.67.48,1.1,1,1.28,1.56s.13,1.11-.15,1.65h-.01ZM467.54,63.34c-.55-.39-.94-.84-1.18-1.35-.23-.51-.31-1.04-.23-1.6s.32-1.13.73-1.69c.39-.55.84-.95,1.35-1.21s1.04-.37,1.59-.32,1.09.26,1.61.63c.35.25.64.54.86.87.23.33.37.69.44,1.07.07.39.04.8-.07,1.23-.11.43-.33.87-.66,1.32l-.29.41-4.49-3.22.66-.91,3.1,2.22c.15-.21.24-.43.27-.66.02-.23-.01-.45-.11-.66-.09-.21-.25-.39-.46-.55-.22-.16-.46-.25-.71-.27-.24-.02-.48.02-.7.12s-.41.26-.56.46l-.62.87c-.19.26-.3.53-.34.79s0,.51.1.74c.11.23.28.44.53.61.16.12.33.2.5.25s.34.07.5.04c.16-.02.32-.08.46-.18l1.3,1.07c-.3.28-.65.46-1.04.55s-.8.08-1.23-.02c-.43-.11-.86-.32-1.3-.63v.02h0ZM471.02,65.67l3.81-5.32,1.43,1.02-.67.93.06.04c.33-.26.67-.39,1.02-.4.35,0,.67.1.97.31.07.05.15.11.23.19.08.07.14.14.2.2l-.94,1.31c-.05-.07-.14-.16-.25-.26s-.22-.19-.32-.26c-.22-.16-.45-.25-.68-.27-.24-.03-.46,0-.68.1s-.4.25-.56.47l-2.16,3.01-1.48-1.06h.02ZM481.92,65.43l-.79,1.11-3.21-2.3.79-1.11,3.2,2.3h0ZM480.36,62.38l1.48,1.06-3.55,4.96c-.1.14-.15.26-.17.36-.01.1,0,.2.06.28s.13.16.23.23c.07.05.14.09.22.13s.14.06.18.08l-.55,1.26c-.09-.03-.21-.08-.37-.14s-.33-.16-.53-.29c-.36-.24-.64-.51-.83-.81-.19-.3-.27-.62-.26-.95.02-.33.15-.68.4-1.02l3.69-5.15h0ZM483.84,75c-.49-.35-.86-.75-1.12-1.21-.25-.45-.38-.92-.37-1.39,0-.48.15-.92.43-1.34l1.45,1.04c-.18.29-.22.59-.13.92.09.32.29.59.58.8.23.17.48.27.73.29.26.02.51-.02.74-.13.24-.11.45-.29.62-.54.18-.25.28-.51.31-.77.03-.26,0-.51-.12-.75-.11-.24-.28-.44-.52-.62-.21-.15-.44-.25-.7-.31-.26-.05-.49-.05-.7.02l-1.16-1.19,3.02-3.5,4.34,3.11-.88,1.23-3.1-2.22-1.46,1.65.04.03c.25-.09.54-.1.88-.03.33.06.66.21.97.43.43.31.74.68.93,1.12s.26.91.2,1.4-.25.96-.58,1.41c-.34.48-.76.83-1.24,1.04-.49.21-1.01.28-1.56.21s-1.08-.3-1.61-.68v-.02h0Z"/>
  <path class="st21" d="M331.74,86.17l2.39,8.39-1.77.51-2.39-8.39,1.78-.51h-.01ZM336.27,90.01l1.04,3.64-1.75.5-1.79-6.29,1.66-.47.32,1.11.07-.02c.03-.41.19-.76.45-1.07.27-.31.63-.53,1.1-.66.44-.12.85-.14,1.23-.04s.71.3.99.6c.28.3.49.7.63,1.19l1.14,4.01-1.75.5-1.05-3.7c-.11-.39-.29-.66-.55-.82-.26-.16-.57-.19-.92-.09-.23.07-.43.18-.58.33s-.25.34-.29.56-.03.46.05.74v-.02h0ZM346.7,86.11l-1.57.55c-.07-.13-.16-.24-.28-.32-.12-.09-.27-.14-.43-.16-.16-.03-.35-.01-.55.05-.27.08-.48.2-.63.37-.15.17-.2.34-.15.53.04.15.14.26.29.33s.38.09.69.07l1.21-.1c.65-.05,1.16.02,1.54.22.38.19.63.52.76.97.12.41.1.81-.06,1.19-.15.38-.41.72-.78,1.01s-.83.51-1.37.67c-.83.24-1.55.25-2.14.05-.59-.21-1.02-.6-1.27-1.18l1.69-.58c.12.24.31.4.54.47.24.07.51.07.82-.02s.53-.22.69-.39.21-.36.16-.54c-.05-.16-.15-.27-.31-.33-.16-.07-.39-.09-.67-.06l-1.15.09c-.65.05-1.17-.03-1.55-.25-.38-.22-.64-.56-.78-1.03-.12-.4-.11-.78.03-1.14.14-.36.38-.67.74-.94.36-.27.8-.49,1.34-.64.8-.23,1.47-.24,2.02-.03s.95.59,1.19,1.14h-.02ZM352.13,89.56c-.65.18-1.24.21-1.78.08s-1-.4-1.39-.82c-.39-.41-.68-.95-.87-1.62-.18-.65-.22-1.25-.11-1.81.11-.56.36-1.04.74-1.45.38-.4.88-.69,1.5-.87.42-.12.82-.16,1.22-.13.4.03.77.14,1.11.33.35.19.65.46.92.82.26.36.47.8.62,1.34l.14.48-5.32,1.52-.31-1.08,3.67-1.05c-.07-.25-.19-.46-.35-.62s-.36-.27-.58-.33c-.22-.06-.46-.05-.72.02-.27.08-.48.2-.65.39-.17.18-.28.39-.34.62s-.05.48.02.73l.29,1.03c.09.31.22.56.4.76.18.19.4.32.64.38.25.06.52.05.81-.03.19-.06.36-.13.51-.23.15-.1.26-.22.34-.36s.13-.3.15-.48l1.64-.35c.03.41-.04.8-.21,1.16-.17.36-.43.68-.78.95s-.79.48-1.3.63h-.01ZM356.12,88.29l-1.79-6.29,1.69-.48.31,1.1.07-.02c0-.42.11-.77.33-1.05.21-.28.5-.47.85-.57.09-.02.18-.05.29-.06.1-.02.2-.03.28-.03l.44,1.55c-.09,0-.21,0-.36.03-.15.02-.29.05-.41.08-.26.07-.47.19-.64.36s-.28.36-.34.59c-.06.23-.05.47.02.73l1.02,3.56-1.75.5h0ZM362.71,79.61l.37,1.31-3.79,1.08-.37-1.31,3.79-1.08ZM359.35,78.93l1.75-.5,1.67,5.87c.05.16.11.28.18.36.07.07.16.12.26.13.1,0,.21,0,.33-.04.08-.02.16-.05.24-.09.08-.04.14-.07.18-.09l.65,1.22c-.08.05-.19.12-.34.2-.15.08-.33.16-.56.23-.42.14-.8.19-1.15.15s-.65-.17-.9-.39-.44-.54-.55-.95l-1.74-6.1h-.02ZM368.3,84.82l-.37-1.28,2.2-3.62c.18-.32.33-.6.45-.85.12-.25.2-.48.23-.69.04-.22.02-.44-.04-.66-.07-.25-.19-.44-.35-.59-.16-.15-.36-.24-.58-.28s-.46-.03-.7.04c-.26.07-.47.19-.63.35-.16.16-.27.35-.32.57-.05.22-.03.47.04.74l-1.68.48c-.16-.55-.17-1.06-.03-1.54.13-.48.39-.89.78-1.24.39-.35.87-.61,1.45-.77.6-.17,1.15-.21,1.66-.13s.94.28,1.3.58.6.7.74,1.18c.09.32.12.65.08.99-.03.34-.16.75-.37,1.22-.21.46-.53,1.04-.96,1.73l-.88,1.55.02.06,3.52-1,.41,1.45-5.98,1.71s.01,0,.01,0Z"/>
  <path class="st21" d="M363.96,26v8.73h-1.85v-8.73h1.85ZM367.26,30.93v3.78h-1.82v-6.55h1.73v1.15h.08c.14-.38.39-.68.73-.9s.75-.34,1.24-.34c.45,0,.85.1,1.19.3s.6.48.79.85.28.8.28,1.31v4.17h-1.82v-3.84c0-.4-.1-.71-.31-.94s-.49-.34-.86-.34c-.24,0-.46.05-.65.16-.18.11-.33.26-.43.46s-.15.44-.16.72h0ZM378.35,30.04l-1.66.1c-.03-.14-.09-.27-.18-.38-.09-.12-.22-.21-.37-.28s-.33-.11-.54-.11c-.28,0-.52.06-.71.18s-.29.27-.29.47c0,.16.06.29.19.4.12.11.34.19.64.26l1.18.24c.64.13,1.11.34,1.42.63.31.29.47.67.47,1.14,0,.43-.13.81-.38,1.13s-.59.58-1.03.76c-.43.18-.94.27-1.5.27-.87,0-1.56-.18-2.07-.54s-.81-.86-.9-1.48l1.79-.09c.05.26.18.47.39.61.21.14.47.2.8.2s.57-.06.77-.18c.2-.12.3-.29.3-.48,0-.16-.07-.3-.21-.4-.14-.11-.35-.19-.63-.25l-1.13-.23c-.64-.13-1.12-.35-1.43-.66-.31-.32-.46-.72-.46-1.21,0-.42.11-.78.34-1.09.23-.3.55-.54.97-.7s.91-.25,1.47-.25c.83,0,1.48.17,1.95.52.48.35.76.83.84,1.43h-.03ZM382.63,34.86c-.67,0-1.25-.14-1.74-.41-.48-.28-.86-.66-1.12-1.17s-.39-1.1-.39-1.79.13-1.26.39-1.77.63-.9,1.1-1.19c.48-.28,1.04-.43,1.68-.43.43,0,.83.07,1.21.21s.7.34.98.62.5.62.66,1.04c.16.41.23.9.23,1.46v.5h-5.53v-1.12h3.82c0-.26-.06-.49-.17-.69-.11-.2-.27-.36-.47-.47-.2-.12-.43-.17-.7-.17s-.52.06-.73.19c-.21.12-.38.29-.49.51-.12.21-.18.44-.18.7v1.07c0,.32.06.6.18.84s.29.42.52.55c.22.13.48.19.79.19.2,0,.39-.03.55-.09.17-.06.31-.14.43-.26.12-.11.21-.25.27-.42l1.68.11c-.09.4-.26.76-.52,1.06-.26.3-.6.53-1.01.7-.41.16-.89.25-1.43.25v-.02h0ZM386.82,34.73v-6.55h1.76v1.14h.07c.12-.41.32-.71.6-.92s.61-.32.97-.32c.09,0,.19,0,.29.02.1,0,.2.03.28.05v1.61c-.08-.03-.2-.05-.35-.07s-.29-.03-.41-.03c-.27,0-.51.06-.72.17s-.37.27-.49.48c-.12.2-.18.44-.18.71v3.7h-1.82ZM395.54,28.17v1.36h-3.94v-1.36h3.94ZM392.49,26.61h1.82v6.1c0,.17.03.3.08.39s.12.15.21.19c.09.04.2.06.32.06.08,0,.17,0,.26-.02.08-.02.15-.03.2-.04l.29,1.35c-.09.03-.22.06-.38.1-.17.04-.36.06-.6.07-.44.02-.82-.04-1.15-.17-.33-.13-.58-.34-.76-.62-.18-.28-.27-.64-.27-1.07v-6.34h-.02ZM402.7,34.84c-.64,0-1.2-.11-1.7-.33-.49-.22-.89-.53-1.17-.91-.28-.39-.43-.84-.44-1.35h1.86c.01.21.08.4.21.56s.3.28.52.37.46.13.73.13.53-.05.75-.15c.22-.1.38-.24.51-.41s.18-.38.18-.61-.07-.44-.2-.62-.31-.32-.55-.43c-.24-.1-.52-.15-.85-.15h-.81v-1.36h.81c.28,0,.52-.05.74-.14.22-.1.38-.23.5-.4s.18-.38.18-.61-.05-.41-.16-.58c-.1-.17-.25-.3-.43-.39s-.4-.14-.65-.14-.48.05-.69.14-.37.21-.5.38c-.12.16-.19.36-.2.58h-1.77c0-.5.15-.95.43-1.33s.65-.68,1.12-.9c.48-.22,1.01-.33,1.61-.33s1.13.11,1.58.33c.45.22.8.51,1.05.89.25.37.38.78.38,1.24,0,.49-.15.9-.46,1.22-.3.33-.7.53-1.19.62v.07c.64.08,1.13.31,1.47.67s.51.81.5,1.36c0,.5-.14.94-.43,1.33-.29.39-.68.69-1.19.91s-1.08.33-1.74.33h0Z"/>
  <path class="st21" d="M398.25,74.09l-2.03,8.49-1.79-.43,2.03-8.49,1.79.43ZM400.31,79.67l-.88,3.68-1.77-.42,1.52-6.37,1.68.4-.27,1.12.08.02c.23-.34.54-.57.92-.71s.81-.15,1.29-.04c.44.11.8.29,1.09.57.28.27.47.61.57,1.01s.09.85-.03,1.34l-.97,4.05-1.77-.42.89-3.74c.1-.39.07-.72-.08-.98-.15-.27-.4-.45-.75-.53-.24-.06-.46-.06-.67,0-.2.06-.38.17-.53.35-.15.17-.25.39-.32.66h0ZM411.31,81.38l-1.64-.29c0-.14-.02-.28-.09-.42-.06-.14-.16-.25-.3-.36-.13-.1-.3-.18-.5-.23-.27-.07-.52-.06-.73,0-.21.07-.35.2-.39.39-.04.15,0,.29.09.43.1.13.29.27.57.4l1.1.51c.59.28,1,.59,1.24.94.24.35.3.76.19,1.22-.1.42-.31.75-.63,1.01s-.71.42-1.18.5c-.46.07-.97.04-1.53-.09-.84-.2-1.47-.54-1.89-1.01-.41-.47-.59-1.02-.53-1.65l1.76.32c0,.27.07.5.24.68.17.18.41.31.73.38.31.07.57.07.79,0,.22-.08.35-.21.4-.4.04-.16,0-.31-.11-.44-.11-.14-.29-.27-.56-.39l-1.05-.48c-.59-.27-1-.6-1.23-.98-.23-.38-.29-.81-.17-1.28.1-.41.29-.73.58-.98.29-.24.66-.39,1.1-.46.44-.06.94-.03,1.48.1.8.19,1.4.51,1.78.96s.54.98.48,1.58v.04ZM414.35,87.05c-.65-.16-1.19-.42-1.6-.8-.4-.38-.68-.85-.81-1.4-.14-.55-.12-1.16.04-1.84.16-.65.42-1.2.79-1.63s.82-.73,1.35-.9,1.11-.17,1.73-.02c.42.1.8.26,1.12.48.33.22.6.5.81.83s.34.72.4,1.16c.05.44.02.93-.11,1.47l-.12.48-5.38-1.29.26-1.09,3.71.89c.06-.25.06-.49,0-.72-.06-.22-.18-.41-.35-.57-.17-.16-.38-.27-.63-.33-.27-.06-.52-.06-.76.02-.23.07-.43.2-.6.38-.16.18-.28.39-.34.64l-.25,1.04c-.08.32-.08.6-.02.86s.19.47.37.65c.19.18.43.3.72.37.2.05.38.06.56.05.18-.02.33-.07.48-.15.14-.08.26-.2.36-.34l1.61.5c-.18.37-.43.67-.75.91-.32.23-.71.38-1.15.44-.44.06-.92.03-1.45-.09h.01ZM418.46,87.9l1.52-6.37,1.71.41-.27,1.11.07.02c.21-.37.48-.62.8-.76.32-.14.66-.17,1.02-.08.09.02.18.05.28.08.1.04.19.07.26.11l-.38,1.57c-.08-.04-.19-.09-.33-.15s-.27-.1-.4-.13c-.26-.06-.51-.06-.74,0-.23.06-.42.18-.59.35-.16.17-.28.39-.34.65l-.86,3.6-1.76-.42h0ZM428.46,83.56l-.32,1.33-3.83-.92.32-1.33,3.83.92ZM425.86,81.32l1.76.42-1.42,5.93c-.04.16-.04.3-.02.4.03.1.08.18.16.24.08.06.18.1.3.13.08.02.17.03.25.04h.2l-.04,1.38h-.4c-.17,0-.37-.02-.6-.07-.43-.09-.79-.23-1.08-.44-.29-.21-.49-.47-.6-.78-.11-.32-.12-.68-.01-1.1l1.48-6.17s.02.02.02.02ZM431,89.32l.34-1.41,4.88-4.73,1.22.29-.47,1.96-.72-.17-3.08,3-.02.07,5.04,1.2-.34,1.44-6.84-1.64h-.01ZM434.72,91.79l.46-1.92.18-.62,1.42-5.94,1.68.4-2.03,8.49-1.72-.41s.01,0,.01,0Z"/>
  <path class="st12" d="M202.26,96.84c12.89,15.55,21.09,34.45,23.65,54.49s-.64,40.39-9.21,58.68-22.17,33.77-39.21,44.62c-17.04,10.85-36.81,16.64-57.01,16.68s-39.99-5.66-57.08-16.45c-17.08-10.78-30.74-26.2-39.39-44.46-8.64-18.25-11.92-38.59-9.45-58.63,2.47-20.05,10.6-38.98,23.43-54.58l12.34,10.14c-10.9,13.26-17.81,29.35-19.91,46.4s.68,34.33,8.03,49.84c7.35,15.52,18.96,28.62,33.48,37.79,14.52,9.17,31.34,14.01,48.51,13.98,17.17-.04,33.98-4.95,48.46-14.18,14.48-9.23,26.04-22.38,33.32-37.93,7.29-15.55,10-32.85,7.83-49.88s-9.15-33.09-20.1-46.31l12.3-10.19h0Z"/>
  <path class="st21" d="M90.24,165.31h-3.09v-8.73h3.12c.88,0,1.63.17,2.27.52.63.35,1.12.85,1.46,1.5s.52,1.43.52,2.34-.17,1.69-.52,2.34c-.34.65-.83,1.15-1.47,1.5s-1.4.52-2.28.52h-.01ZM88.99,163.73h1.17c.55,0,1-.1,1.38-.29.38-.2.66-.5.84-.91.19-.41.29-.94.29-1.59s-.1-1.17-.29-1.58-.47-.71-.84-.9c-.37-.19-.83-.29-1.38-.29h-1.18v5.57h.01ZM98.82,165.44c-.67,0-1.25-.14-1.74-.41-.48-.28-.86-.66-1.12-1.17s-.39-1.1-.39-1.79.13-1.26.39-1.77c.26-.51.63-.9,1.1-1.19.48-.28,1.04-.43,1.68-.43.43,0,.83.07,1.21.21s.7.34.98.62c.28.28.5.62.66,1.04s.23.9.23,1.46v.5h-5.53v-1.12h3.82c0-.26-.06-.49-.17-.7-.11-.2-.27-.36-.47-.47-.2-.12-.43-.18-.69-.18s-.52.06-.73.19c-.21.12-.38.29-.49.51-.12.21-.18.44-.18.7v1.07c0,.32.06.6.18.84.12.24.29.42.52.54.22.13.48.19.79.19.2,0,.39-.03.55-.08.17-.06.31-.14.43-.26.12-.11.21-.25.27-.42l1.68.11c-.09.4-.26.76-.52,1.06-.26.3-.6.53-1.01.7-.41.16-.89.25-1.43.25h-.02ZM108.46,160.63l-1.66.1c-.03-.14-.09-.27-.18-.38-.09-.12-.22-.21-.37-.28-.15-.07-.33-.11-.54-.11-.28,0-.52.06-.71.18s-.29.27-.29.47c0,.16.06.29.19.4s.34.2.64.26l1.18.24c.64.13,1.11.34,1.42.63.31.29.47.67.47,1.14,0,.43-.13.8-.38,1.13-.25.32-.59.58-1.03.76-.43.18-.94.27-1.5.27-.87,0-1.56-.18-2.07-.54s-.81-.86-.9-1.48l1.79-.09c.05.26.18.47.39.61s.47.21.8.21.57-.06.77-.18.3-.29.3-.48c0-.16-.07-.3-.21-.4-.14-.11-.35-.19-.63-.25l-1.13-.23c-.64-.13-1.12-.35-1.43-.66-.31-.32-.46-.72-.46-1.21,0-.42.11-.78.34-1.09.23-.3.55-.54.97-.7s.91-.25,1.47-.25c.83,0,1.48.18,1.95.52.48.35.76.83.84,1.43l-.03-.02h0ZM113.23,158.77v1.36h-3.94v-1.36h3.94ZM110.18,157.2h1.82v6.1c0,.17.03.3.08.39s.12.15.21.19c.09.04.2.06.32.06.09,0,.17,0,.26-.02.09-.02.15-.03.2-.04l.29,1.35c-.09.03-.22.06-.38.1-.16.04-.37.06-.6.07-.44.02-.82-.04-1.15-.17s-.58-.34-.76-.62-.27-.64-.27-1.07v-6.34h-.02ZM114.41,165.31v-6.54h1.82v6.54h-1.82ZM115.32,157.92c-.27,0-.5-.09-.69-.27-.19-.18-.29-.4-.29-.65s.1-.46.29-.64.42-.27.69-.27.5.09.69.27c.19.18.29.39.29.64s-.1.47-.29.65-.42.27-.69.27ZM119.5,161.53v3.78h-1.82v-6.54h1.73v1.15h.08c.14-.38.39-.68.73-.9.34-.22.75-.34,1.24-.34.46,0,.85.1,1.19.3.34.2.6.48.79.85.19.37.28.8.28,1.31v4.17h-1.82v-3.84c0-.4-.1-.71-.31-.94s-.49-.34-.86-.34c-.24,0-.46.05-.65.16-.18.11-.33.26-.43.46-.1.2-.15.44-.16.72h0ZM127.01,165.43c-.42,0-.79-.07-1.12-.22s-.59-.37-.78-.65c-.19-.29-.28-.65-.28-1.08,0-.36.07-.67.2-.92s.32-.45.55-.6c.23-.15.49-.26.78-.34s.6-.13.93-.16c.38-.04.69-.08.92-.11.23-.04.4-.09.51-.16s.16-.18.16-.32v-.02c0-.27-.08-.48-.26-.63-.17-.15-.41-.22-.72-.22-.33,0-.59.07-.78.22-.19.14-.32.32-.38.54l-1.68-.14c.08-.4.25-.74.5-1.03s.57-.52.97-.67c.4-.16.86-.24,1.38-.24.36,0,.71.04,1.04.13.33.09.63.22.89.4s.47.41.62.69.23.61.23,1v4.41h-1.72v-.91h-.05c-.11.21-.25.39-.42.54-.18.15-.39.27-.63.36-.25.08-.53.13-.86.13h0ZM127.53,164.18c.27,0,.5-.05.71-.16s.37-.25.48-.43c.12-.18.18-.39.18-.62v-.69c-.06.04-.14.07-.24.1s-.21.06-.33.08-.24.04-.37.06c-.12.02-.23.03-.33.05-.21.03-.4.08-.56.15-.16.07-.28.16-.37.28-.09.11-.13.26-.13.43,0,.25.09.44.27.57s.41.19.69.19h0ZM135.59,158.77v1.36h-3.94v-1.36h3.94ZM132.54,157.2h1.82v6.1c0,.17.03.3.08.39s.12.15.21.19c.09.04.2.06.32.06.08,0,.17,0,.26-.02.09-.02.15-.03.2-.04l.28,1.35c-.09.03-.22.06-.38.1-.17.04-.37.06-.6.07-.44.02-.82-.04-1.15-.17s-.58-.34-.76-.62-.27-.64-.27-1.07v-6.34h-.01ZM136.77,165.31v-6.54h1.81v6.54h-1.81ZM137.68,157.92c-.27,0-.5-.09-.69-.27-.19-.18-.29-.4-.29-.65s.1-.46.29-.64.43-.27.69-.27.5.09.69.27c.19.18.29.39.29.64s-.1.47-.29.65-.42.27-.69.27ZM143,165.44c-.66,0-1.24-.14-1.72-.42s-.85-.68-1.11-1.18c-.26-.51-.39-1.1-.39-1.77s.13-1.27.39-1.77c.26-.51.63-.9,1.11-1.18s1.06-.43,1.72-.43,1.23.14,1.71.43c.48.28.85.68,1.12,1.18.26.51.39,1.1.39,1.77s-.13,1.26-.39,1.77c-.26.51-.63.9-1.12,1.18-.48.28-1.05.42-1.71.42ZM143.01,164.03c.3,0,.55-.09.75-.26s.35-.41.46-.71c.1-.3.16-.64.16-1.02s-.05-.72-.16-1.02c-.1-.3-.25-.54-.46-.71-.2-.17-.45-.26-.75-.26s-.56.09-.77.26-.36.41-.46.71-.15.64-.15,1.02.05.72.15,1.02c.11.3.26.53.46.71.21.17.46.26.77.26ZM149.22,161.53v3.78h-1.82v-6.54h1.73v1.15h.08c.14-.38.39-.68.73-.9s.75-.34,1.24-.34c.46,0,.85.1,1.19.3s.6.48.79.85c.19.37.28.8.28,1.31v4.17h-1.82v-3.84c0-.4-.1-.71-.31-.94-.21-.23-.49-.34-.86-.34-.24,0-.46.05-.65.16-.18.11-.33.26-.43.46-.1.2-.15.44-.16.72h.01ZM102.94,171.58l2.11,6.63h.08l2.11-6.63h2.05l-3.01,8.73h-2.38l-3.01-8.73s2.05,0,2.05,0ZM112.55,180.44c-.67,0-1.25-.14-1.74-.41-.48-.28-.86-.66-1.12-1.17s-.39-1.1-.39-1.79.13-1.26.39-1.77c.26-.51.63-.9,1.1-1.19.48-.28,1.04-.43,1.68-.43.43,0,.83.07,1.21.21s.7.34.98.62c.28.28.5.62.66,1.04s.24.9.24,1.46v.5h-5.53v-1.12h3.82c0-.26-.06-.49-.17-.7-.11-.2-.27-.36-.47-.47-.2-.12-.43-.18-.69-.18s-.52.06-.73.19c-.21.12-.38.29-.49.51-.12.21-.18.44-.18.7v1.07c0,.32.06.6.18.84.12.24.29.42.52.54.22.13.48.19.79.19.2,0,.39-.03.55-.08.17-.06.31-.14.43-.26.12-.11.21-.25.27-.42l1.68.11c-.08.4-.26.76-.52,1.06-.26.3-.6.53-1.01.7-.41.16-.89.25-1.43.25h-.03ZM119.7,180.44c-.67,0-1.25-.14-1.73-.43s-.85-.68-1.11-1.19c-.26-.51-.38-1.09-.38-1.76s.13-1.26.39-1.76c.26-.51.63-.9,1.11-1.19.48-.29,1.05-.43,1.71-.43.57,0,1.07.1,1.5.31.43.21.77.5,1.02.87s.39.82.41,1.32h-1.71c-.05-.33-.18-.59-.38-.79s-.47-.3-.81-.3c-.28,0-.53.08-.74.23s-.37.37-.49.66c-.12.29-.18.64-.18,1.05s.06.77.17,1.07c.12.29.28.51.49.67.21.15.46.23.74.23.21,0,.39-.04.56-.13.17-.08.31-.21.41-.37.11-.16.18-.36.22-.59h1.71c-.03.5-.17.94-.41,1.32-.24.38-.57.67-1,.89-.43.21-.93.32-1.51.32h.01ZM127.26,173.77v1.36h-3.94v-1.36h3.94ZM124.22,172.2h1.81v6.1c0,.17.03.3.08.39s.12.15.21.19c.09.04.2.06.32.06.08,0,.17,0,.26-.02.08-.02.15-.03.2-.04l.29,1.35c-.09.03-.22.06-.38.1-.17.04-.36.06-.6.07-.44.02-.82-.04-1.15-.17s-.58-.34-.76-.62-.27-.64-.27-1.07v-6.34h-.01ZM131.33,180.44c-.66,0-1.23-.14-1.72-.42-.48-.28-.85-.68-1.11-1.18-.26-.51-.39-1.1-.39-1.77s.13-1.27.39-1.77c.26-.51.63-.9,1.11-1.18s1.06-.43,1.72-.43,1.23.14,1.71.43c.48.28.86.68,1.12,1.18.26.51.39,1.1.39,1.77s-.13,1.26-.39,1.77c-.26.51-.63.9-1.12,1.18-.48.28-1.05.42-1.71.42ZM131.34,179.03c.3,0,.55-.09.75-.26s.35-.41.46-.71c.1-.3.16-.64.16-1.02s-.05-.72-.16-1.02c-.1-.3-.25-.54-.46-.71-.2-.17-.45-.26-.75-.26s-.56.09-.77.26c-.2.17-.36.41-.46.71s-.15.64-.15,1.02.05.72.15,1.02c.11.3.26.53.46.71.21.17.46.26.77.26ZM135.73,180.31v-6.54h1.76v1.14h.07c.12-.41.32-.71.6-.92.28-.21.61-.32.97-.32.09,0,.19,0,.29.02.11,0,.2.03.28.05v1.61c-.08-.03-.2-.05-.35-.07s-.29-.03-.41-.03c-.27,0-.51.06-.72.17s-.37.27-.49.48c-.12.21-.18.44-.18.71v3.7h-1.82Z"/>
  <path class="st12" d="M752.22,182.85c-4.3,24.99-17.37,47.63-36.87,63.84s-44.14,24.94-69.5,24.61c-25.35-.33-49.76-9.7-68.82-26.42s-31.54-39.7-35.17-64.79l15.81-2.29c3.09,21.33,13.69,40.86,29.9,55.07,16.2,14.21,36.95,22.18,58.5,22.46s42.5-7.13,59.07-20.91,27.68-33.02,31.34-54.27l15.74,2.71h0Z"/>
  <path class="st16" d="M540.86,160.23c.77-17.92,6.06-35.36,15.37-50.69l13.65,8.29c-7.91,13.03-12.41,27.85-13.06,43.09l-15.96-.69h0Z"/>
  <path class="st16" d="M567.9,93.8c11.96-13.37,27.11-23.5,44.03-29.45l5.3,15.07c-14.38,5.06-27.26,13.67-37.42,25.03l-11.91-10.65h0Z"/>
  <path class="st16" d="M623.73,60.94c17.5-3.96,35.71-3.44,52.95,1.51l-4.41,15.35c-14.65-4.21-30.14-4.65-45.01-1.29l-3.53-15.58h0Z"/>
  <path class="st16" d="M686.26,65.71c16.69,6.57,31.46,17.25,42.92,31.04l-12.29,10.21c-9.74-11.73-22.29-20.81-36.48-26.39l5.85-14.86Z"/>
  <path class="st16" d="M739.85,112.18c8.87,15.59,13.65,33.18,13.91,51.11l-15.97.23c-.22-15.25-4.28-30.19-11.82-43.45l13.89-7.9h-.01Z"/>
  <path class="st13" d="M541.89,180.27c-.97-6.63-1.32-13.33-1.03-20.02l15.96.68c-.24,5.69.05,11.38.88,17.02l-15.81,2.32Z"/>
  <path class="st17" d="M556.07,109.79c3.46-5.73,7.45-11.13,11.92-16.11l11.89,10.67c-3.8,4.24-7.2,8.82-10.14,13.7l-13.68-8.25h.01Z"/>
  <path class="st11" d="M604.85,67.12c6.14-2.67,12.52-4.75,19.06-6.22l3.5,15.59c-5.55,1.25-10.98,3.02-16.2,5.29l-6.36-14.65h0Z"/>
  <path class="st14" d="M728.67,96.14c4.32,5.12,8.14,10.63,11.43,16.47l-13.92,7.83c-2.79-4.96-6.04-9.65-9.71-14l12.21-10.3h-.01Z"/>
  <path class="st5" d="M753.74,162.8c.13,6.7-.38,13.39-1.51,19.99l-15.75-2.7c.96-5.61,1.39-11.3,1.28-16.99l15.97-.3h.01Z"/>
  <path class="st4" d="M675.88,62.23c6.45,1.8,12.72,4.2,18.71,7.18l-7.1,14.31c-5.1-2.53-10.42-4.57-15.91-6.1l4.29-15.39h0Z"/>
  <path class="st21" d="M609.37,172.31v-8.73h5.78v1.52h-3.93v2.08h3.55v1.52h-3.55v3.6h-1.85ZM616.36,172.31v-6.54h1.82v6.54h-1.82ZM617.27,164.92c-.27,0-.5-.09-.69-.27-.19-.18-.29-.4-.29-.65s.1-.46.29-.64.42-.27.69-.27.5.09.69.27c.19.18.29.39.29.64s-.1.47-.29.65-.42.27-.69.27ZM621.44,168.53v3.78h-1.82v-6.54h1.73v1.15h.08c.15-.38.39-.68.73-.9.34-.22.75-.34,1.24-.34.45,0,.85.1,1.19.3s.6.48.79.85c.19.37.28.8.28,1.31v4.17h-1.82v-3.84c0-.4-.1-.71-.31-.94s-.49-.34-.86-.34c-.24,0-.46.05-.65.16-.18.11-.33.26-.43.46-.1.2-.16.44-.16.72h.01ZM628.96,172.43c-.42,0-.79-.07-1.12-.22s-.59-.37-.78-.65c-.19-.29-.28-.65-.28-1.08,0-.36.07-.67.2-.92s.32-.45.55-.6c.23-.15.49-.26.78-.34.3-.08.61-.13.93-.16.38-.04.69-.08.92-.11.23-.04.4-.09.51-.16s.16-.18.16-.32v-.02c0-.27-.09-.48-.26-.63-.17-.15-.41-.22-.71-.22-.33,0-.59.07-.78.22-.19.14-.32.32-.38.54l-1.68-.14c.09-.4.25-.74.5-1.03s.57-.52.97-.67c.4-.16.86-.24,1.38-.24.36,0,.71.04,1.04.13.33.09.63.22.89.4s.47.41.62.69.23.61.23,1v4.41h-1.72v-.91h-.05c-.1.21-.25.39-.42.54-.18.15-.39.27-.64.36-.25.08-.53.13-.86.13h0ZM629.48,171.18c.27,0,.5-.05.71-.16.2-.11.36-.25.48-.43s.17-.39.17-.62v-.69c-.06.04-.14.07-.23.1-.1.03-.21.06-.33.08s-.24.04-.37.06c-.12.02-.23.03-.33.05-.21.03-.4.08-.56.15-.16.07-.28.16-.37.28-.09.11-.13.26-.13.43,0,.25.09.44.27.57s.41.19.69.19h0ZM635.87,163.58v8.73h-1.82v-8.73h1.82ZM640.13,172.31v-8.73h3.44c.66,0,1.23.13,1.69.38.47.25.82.6,1.07,1.04.25.44.37.96.37,1.53s-.12,1.09-.38,1.53c-.25.44-.61.79-1.09,1.04-.47.25-1.04.37-1.71.37h-2.19v-1.48h1.9c.36,0,.65-.06.88-.18s.41-.3.52-.52c.12-.22.17-.48.17-.76s-.06-.54-.17-.76-.29-.39-.52-.51c-.23-.12-.53-.18-.89-.18h-1.24v7.22h-1.85ZM647.87,172.31v-6.54h1.76v1.14h.07c.12-.41.32-.71.6-.92.28-.21.6-.32.97-.32.09,0,.19,0,.29.02.1,0,.2.03.28.05v1.61c-.08-.03-.2-.05-.35-.07-.15-.02-.29-.03-.41-.03-.27,0-.51.06-.72.17-.21.11-.37.27-.49.48-.12.21-.18.44-.18.71v3.7h-1.82ZM655.43,172.44c-.66,0-1.23-.14-1.72-.42-.48-.28-.85-.68-1.11-1.18-.26-.51-.39-1.1-.39-1.77s.13-1.27.39-1.77c.26-.51.63-.9,1.11-1.18s1.05-.43,1.72-.43,1.23.14,1.71.43c.48.28.85.68,1.12,1.18.26.51.39,1.1.39,1.77s-.13,1.26-.39,1.77c-.26.51-.63.9-1.12,1.18-.48.28-1.05.42-1.71.42ZM655.44,171.03c.3,0,.55-.09.75-.26s.35-.41.46-.71c.11-.3.16-.64.16-1.02s-.05-.72-.16-1.02c-.1-.3-.25-.54-.46-.71-.2-.17-.45-.26-.75-.26s-.56.09-.77.26-.36.41-.46.71c-.1.3-.15.64-.15,1.02s.05.72.15,1.02c.1.3.26.53.46.71.21.17.46.26.77.26ZM662.25,172.42c-.5,0-.95-.13-1.35-.38-.4-.26-.72-.64-.95-1.14-.23-.5-.35-1.12-.35-1.85s.12-1.37.36-1.87.56-.87.96-1.12.85-.38,1.33-.38c.37,0,.67.06.92.19.25.12.45.27.6.46.15.18.27.36.35.54h.05v-3.28h1.81v8.73h-1.79v-1.05h-.08c-.08.18-.21.36-.36.54-.15.18-.35.32-.6.44-.24.12-.54.17-.9.17h0ZM662.82,170.97c.29,0,.54-.08.74-.24s.36-.39.47-.68.17-.63.17-1.02-.05-.73-.16-1.01c-.11-.29-.26-.51-.47-.66-.21-.16-.45-.23-.75-.23s-.55.08-.75.24c-.21.16-.36.39-.46.67-.11.29-.16.62-.16,1s.05.72.16,1.01.26.52.46.68c.21.16.46.24.75.24ZM671.66,169.52v-3.76h1.82v6.54h-1.74v-1.19h-.07c-.15.38-.39.69-.74.92-.34.23-.76.35-1.25.35-.44,0-.82-.1-1.15-.3s-.59-.48-.78-.85c-.18-.37-.28-.8-.28-1.32v-4.17h1.82v3.84c0,.39.11.69.31.92.2.22.48.34.82.34.22,0,.42-.05.61-.15.19-.1.34-.25.46-.45s.18-.44.17-.74v.02h0ZM677.89,172.44c-.67,0-1.25-.14-1.73-.43s-.85-.68-1.11-1.19c-.26-.51-.38-1.09-.38-1.76s.13-1.26.39-1.76c.26-.51.63-.9,1.11-1.19.48-.29,1.05-.43,1.71-.43.57,0,1.07.1,1.5.31.43.21.77.5,1.02.87s.39.82.41,1.32h-1.71c-.05-.33-.18-.59-.38-.79-.21-.2-.47-.3-.8-.3-.28,0-.53.08-.74.23-.21.15-.37.37-.48.66-.12.29-.17.64-.17,1.05s.06.77.17,1.07c.12.29.28.51.49.67.21.15.46.23.74.23.21,0,.39-.04.56-.13.17-.08.3-.21.41-.37.11-.16.18-.36.22-.59h1.71c-.03.5-.16.94-.41,1.32-.24.38-.58.67-1,.89-.43.21-.93.32-1.51.32h-.02ZM685.45,165.77v1.36h-3.94v-1.36h3.94ZM682.41,164.2h1.82v6.1c0,.17.03.3.08.39s.12.15.21.19c.09.04.2.06.32.06.09,0,.17,0,.26-.02s.15-.03.2-.04l.29,1.35c-.09.03-.22.06-.38.1-.17.04-.37.06-.6.07-.44.02-.82-.04-1.15-.17s-.58-.34-.76-.62-.27-.64-.27-1.07v-6.34h-.02Z"/>
  <path class="st21" d="M538.25,122.58v8.73h-1.85v-8.73h1.85ZM543.51,122.58v8.73h-1.84v-6.98h-.05l-2,1.25v-1.64l2.16-1.37h1.73Z"/>
  <path class="st21" d="M575.41,68.58v8.73h-1.85v-8.73h1.85ZM576.87,77.31v-1.33l3.11-2.88c.26-.26.49-.49.66-.69.18-.2.32-.4.41-.6.09-.2.14-.41.14-.64,0-.26-.06-.47-.17-.66-.12-.19-.28-.33-.48-.43-.2-.1-.43-.15-.69-.15s-.5.05-.7.16-.35.26-.46.46c-.11.2-.16.44-.16.72h-1.75c0-.57.13-1.07.39-1.49s.62-.75,1.09-.97c.47-.23,1-.35,1.61-.35s1.17.11,1.63.33c.47.22.83.52,1.09.91.26.39.39.83.39,1.34,0,.33-.07.65-.2.98-.13.32-.36.68-.69,1.07s-.79.86-1.39,1.4l-1.27,1.25v.06h3.66v1.51s-6.22,0-6.22,0Z"/>
  <path class="st21" d="M644.23,46.58v8.73h-1.84v-8.73s1.84,0,1.84,0ZM648.92,55.43c-.64,0-1.2-.11-1.7-.33-.49-.22-.89-.53-1.17-.91-.28-.39-.43-.84-.44-1.35h1.86c.01.21.08.4.21.56.13.16.3.28.52.37.22.09.46.13.73.13s.53-.05.75-.15.39-.24.51-.41c.12-.18.18-.38.18-.61s-.07-.44-.2-.62-.31-.32-.55-.43c-.24-.1-.52-.15-.85-.15h-.81v-1.35h.81c.28,0,.52-.05.74-.15s.38-.23.5-.4.18-.38.18-.61-.05-.41-.16-.57c-.1-.17-.25-.3-.43-.39s-.4-.14-.65-.14-.48.05-.69.14-.37.22-.5.38c-.12.16-.19.36-.2.58h-1.77c0-.5.15-.95.43-1.33.28-.38.65-.68,1.12-.9s1.01-.33,1.61-.33,1.13.11,1.58.33.8.51,1.05.89c.25.37.38.78.38,1.24,0,.49-.15.9-.46,1.22-.3.33-.7.53-1.19.62v.07c.64.08,1.13.31,1.47.67.34.36.51.81.5,1.36,0,.5-.14.94-.43,1.32-.29.39-.68.69-1.19.91s-1.09.33-1.74.33h0Z"/>
  <path class="st21" d="M713.12,68.58v8.73h-1.85v-8.73h1.85ZM714.45,75.78v-1.45l3.64-5.74h1.25v2.01h-.74l-2.3,3.64v.07h5.18v1.48h-7.04,0ZM718.64,77.31v-1.98l.03-.64v-6.11h1.73v8.73h-1.76Z"/>
  <path class="st21" d="M754.32,122.58v8.73h-1.84v-8.73h1.84ZM758.97,131.43c-.6,0-1.14-.11-1.61-.33s-.84-.53-1.12-.92c-.28-.39-.42-.84-.43-1.34h1.79c.02.34.16.61.43.82.26.21.58.32.94.32.29,0,.55-.06.77-.19.22-.13.4-.31.52-.54.13-.23.19-.5.19-.8s-.07-.58-.2-.81-.3-.41-.53-.55c-.23-.13-.49-.2-.78-.2-.26,0-.5.05-.75.16-.24.1-.42.25-.56.43l-1.64-.29.41-4.6h5.33v1.51h-3.81l-.23,2.19h.05c.15-.22.38-.39.69-.54.31-.14.66-.21,1.04-.21.53,0,1,.12,1.41.37s.74.59.98,1.02c.24.43.36.92.35,1.48,0,.59-.13,1.11-.41,1.57-.27.45-.65.81-1.15,1.07-.49.26-1.06.39-1.71.39h.03Z"/>
  <line class="st7" x1="292.07" y1="99.86" x2="300.99" y2="108.18"/>
  <line class="st7" x1="472.75" y1="85.18" x2="465.27" y2="107.56"/>
  <g class="st1">
    <g class="st1">
      <text class="st0" transform="translate(52.75 300.73)"><tspan x="0" y="0">Linearized Destination</tspan></text>
    </g>
    <g class="st1">
      <text class="st3" transform="translate(52.75 300.73)"><tspan x="0" y="0">Linearized Destination</tspan></text>
    </g>
    <g class="st1">
      <text class="st0" transform="translate(94.51 315.13)"><tspan x="0" y="0">Vector</tspan></text>
    </g>
    <g class="st1">
      <text class="st3" transform="translate(94.51 315.13)"><tspan x="0" y="0">Vector</tspan></text>
    </g>
  </g>
  <g class="st1">
    <g class="st1">
      <text class="st0" transform="translate(604.68 307.93)"><tspan x="0" y="0">Assembled Plasmid</tspan></text>
    </g>
    <g class="st1">
      <text class="st3" transform="translate(604.68 307.93)"><tspan x="0" y="0">Assembled Plasmid</tspan></text>
    </g>
  </g>
  <g class="st1">
    <g class="st1">
      <text class="st0" transform="translate(373.82 307.26)"><tspan x="0" y="0">Ligate</tspan></text>
      <text class="st2" transform="translate(373.82 307.26)"><tspan x="0" y="0">Ligate</tspan></text>
    </g>
  </g>
  <path class="st18" d="M335.34,80.56c-5.42,3.1-10.45,6.66-14.96,10.6l-5.57-4.42c4.85-4.24,10.27-8.08,16.1-11.41,0,0,4.43,5.23,4.43,5.23Z"/>
  <path class="st20" d="M298.1,103.09l-6.03-3.22c3.36-5.22,7.35-10.16,11.84-14.69l5.18,4.28c-4.17,4.2-7.87,8.79-10.99,13.63Z"/>
  <path class="st10" d="M303.25,98.72c1.68-2.35,3.52-4.69,5.51-6.99,4.95-5.72,10.41-10.69,16.04-14.79"/>
  <path class="st22" d="M366.34,65.9c-6.29.25-12.54,1.1-18.57,2.51l-2.03-6.46c6.49-1.52,13.22-2.43,19.99-2.7l.62,6.65h0Z"/>
  <path class="st18" d="M322.27,68.4l-3.12-5.62c5.83-3.07,12.01-5.61,18.37-7.56l1.79,6.16c-5.91,1.8-11.64,4.16-17.05,7.01h0Z"/>
  <path class="st10" d="M328.44,67.39c2.76-1.31,5.65-2.53,8.64-3.65,7.44-2.78,14.85-4.68,21.91-5.72"/>
  <path class="st19" d="M402.9,64.17c-5.68-2.12-11.61-3.68-17.61-4.63l1.28-6.77c6.46,1.02,12.84,2.69,18.95,4.98,0,0-2.62,6.42-2.62,6.42Z"/>
  <path class="st22" d="M360.6,49.45l-.08-6.39c6.61-.67,13.29-.72,19.83-.14l-1.35,6.4c-6.08-.53-12.27-.49-18.41.13h.01Z"/>
  <path class="st10" d="M367.58,51.18c3.06-.18,6.2-.23,9.37-.15,7.9.2,15.35,1.22,22.09,2.89"/>
  <path class="st15" d="M436.14,75.66c-4.25-3.91-8.95-7.36-13.99-10.27l4.03-5.98c5.42,3.12,10.49,6.84,15.06,11.05,0,0-5.1,5.2-5.1,5.2Z"/>
  <path class="st19" d="M403.25,47.93l2.64-6.08c6.28,1.58,12.34,3.76,18.03,6.5l-3.94,5.61c-5.28-2.54-10.91-4.57-16.73-6.03Z"/>
  <path class="st10" d="M408.64,51.41c2.85.85,5.71,1.85,8.56,2.99,7.07,2.83,13.39,6.29,18.79,10.12"/>
  <path class="st5" d="M459.53,98.12c-2.15-5.31-4.91-10.4-8.21-15.13l6.24-3.74c3.55,5.09,6.52,10.57,8.83,16.28l-6.87,2.59h.01Z"/>
  <path class="st19" d="M442.33,61.18l5.03-4.4c4.99,4.04,9.53,8.55,13.49,13.4l-6,3.44c-3.68-4.5-7.89-8.68-12.52-12.43h0Z"/>
  <path class="st10" d="M445.96,66.21c2.21,1.96,4.37,4.06,6.44,6.27,5.17,5.51,9.39,11.27,12.61,16.99"/>
  <path class="st20" d="M303.37,132.41l-7.75-4.55c4.57-7.27,9.94-14.16,15.96-20.46l6.6,6.02c-5.59,5.85-10.57,12.24-14.81,18.99Z"/>
  <path class="st5" d="M467.6,127.13c-4.02-6.89-8.76-13.47-14.08-19.56l6.9-5.15c5.73,6.55,10.83,13.63,15.15,21.05l-7.97,3.66Z"/>
  <path class="st12" d="M465.26,107.84c12.89,15.55,21.09,34.45,23.65,54.49s-.64,40.39-9.21,58.68c-8.57,18.29-22.17,33.77-39.21,44.62-17.04,10.85-36.81,16.64-57.01,16.68s-39.99-5.66-57.08-16.45c-17.08-10.78-30.74-26.2-39.39-44.46-8.65-18.25-11.93-38.59-9.45-58.64,2.47-20.05,10.6-38.98,23.42-54.58l12.34,10.14c-10.9,13.26-17.81,29.35-19.91,46.4-2.1,17.04.68,34.33,8.03,49.84,7.35,15.52,18.96,28.62,33.48,37.79,14.52,9.17,31.35,14.01,48.51,13.98,17.17-.04,33.98-4.95,48.46-14.18,14.48-9.23,26.04-22.38,33.32-37.93,7.29-15.55,10-32.85,7.83-49.88s-9.15-33.09-20.1-46.31l12.3-10.19h.02Z"/>
  <g>
    <line class="st9" x1="556.58" y1="160.5" x2="554.58" y2="160.5"/>
    <line class="st8" x1="553.26" y1="160.51" x2="549.97" y2="160.52"/>
    <polyline class="st9" points="549.31 160.52 547.31 160.53 547.57 162.51"/>
    <line class="st6" x1="547.83" y1="164.54" x2="549.27" y2="175.69"/>
    <polyline class="st9" points="549.4 176.7 549.65 178.69 547.68 179.03"/>
    <line class="st9" x1="543.86" y1="179.68" x2="541.88" y2="180.02"/>
  </g>
  <g>
    <line class="st9" x1="580.03" y1="104.84" x2="578.57" y2="103.47"/>
    <line class="st8" x1="577.62" y1="102.56" x2="575.22" y2="100.31"/>
    <polyline class="st9" points="574.74 99.86 573.29 98.48 572.11 100.1"/>
    <line class="st6" x1="570.9" y1="101.75" x2="564.26" y2="110.82"/>
    <polyline class="st9" points="563.66 111.65 562.48 113.26 560.82 112.15"/>
    <line class="st9" x1="557.59" y1="110" x2="555.93" y2="108.89"/>
  </g>
  <g>
    <line class="st9" x1="627.17" y1="76.6" x2="626.76" y2="74.64"/>
    <line class="st8" x1="626.5" y1="73.35" x2="625.83" y2="70.13"/>
    <polyline class="st9" points="625.69 69.48 625.29 67.52 623.39 68.17"/>
    <line class="st6" x1="621.46" y1="68.83" x2="610.82" y2="72.47"/>
    <polyline class="st9" points="609.85 72.81 607.96 73.45 607.23 71.59"/>
    <line class="st9" x1="605.82" y1="67.97" x2="605.1" y2="66.11"/>
  </g>
  <g>
    <line class="st9" x1="688.02" y1="83.62" x2="688.84" y2="81.79"/>
    <line class="st8" x1="689.39" y1="80.59" x2="690.74" y2="77.6"/>
    <polyline class="st9" points="691.01 77 691.83 75.17 689.92 74.58"/>
    <line class="st6" x1="687.97" y1="73.98" x2="677.22" y2="70.67"/>
    <polyline class="st9" points="676.25 70.37 674.34 69.78 674.84 67.84"/>
    <line class="st9" x1="675.83" y1="64.09" x2="676.34" y2="62.15"/>
  </g>
  <g>
    <line class="st9" x1="726.98" y1="120.45" x2="728.69" y2="119.41"/>
    <line class="st8" x1="729.81" y1="118.72" x2="732.62" y2="117.01"/>
    <polyline class="st9" points="733.18 116.66 734.89 115.62 733.64 114.06"/>
    <line class="st6" x1="732.37" y1="112.46" x2="725.36" y2="103.67"/>
    <polyline class="st9" points="724.72 102.87 723.47 101.3 724.98 99.99"/>
    <line class="st9" x1="727.91" y1="97.44" x2="729.42" y2="96.13"/>
  </g>
  <g>
    <line class="st9" x1="736.72" y1="180.81" x2="738.71" y2="181.03"/>
    <line class="st8" x1="740.02" y1="181.17" x2="743.29" y2="181.53"/>
    <polyline class="st9" points="743.94 181.6 745.93 181.82 745.9 179.82"/>
    <line class="st6" x1="745.87" y1="177.78" x2="745.69" y2="166.53"/>
    <polyline class="st9" points="745.68 165.51 745.65 163.51 747.64 163.4"/>
    <line class="st9" x1="751.52" y1="163.17" x2="753.52" y2="163.06"/>
  </g>
</svg>