<svg width="753" height="367" viewBox="0 0 753 367" fill="none" xmlns="http://www.w3.org/2000/svg">
<rect width="753" height="367" fill="white"/>
<path d="M262.5 177L252.5 171.226V182.774L262.5 177ZM221 177V178H253.5V177V176H221V177Z" fill="#0B0755"/>
<path d="M530.5 177L520.5 171.226V182.774L530.5 177ZM489 177V178H521.5V177V176H489V177Z" fill="#0B0755"/>
<path d="M458.493 127.533C471.384 143.085 479.586 161.982 482.143 182.019C484.7 202.056 481.506 222.408 472.933 240.698C464.361 258.989 450.763 274.464 433.727 285.318C416.692 296.172 396.92 301.958 376.72 302C356.521 302.042 336.726 296.338 319.645 285.554C302.565 274.771 288.903 259.352 280.255 241.097C271.606 222.842 268.328 202.504 270.802 182.456C273.276 162.409 281.4 143.478 294.227 127.873L306.568 138.017C295.665 151.281 288.759 167.372 286.657 184.413C284.554 201.454 287.34 218.741 294.691 234.257C302.043 249.774 313.655 262.88 328.173 272.046C342.692 281.212 359.518 286.06 376.687 286.025C393.857 285.989 410.663 281.072 425.143 271.845C439.624 262.619 451.182 249.465 458.468 233.918C465.755 218.371 468.47 201.073 466.297 184.041C464.123 167.009 457.151 150.947 446.194 137.728L458.493 127.533Z" fill="#A8D8E8"/>
<path d="M300.376 132.991C306.299 125.777 313.218 119.442 320.925 114.175L325.371 120.681C318.281 125.527 311.915 131.355 306.466 137.992L300.376 132.991Z" fill="#F38300"/>
<path d="M436.2 107.306C444.558 112.963 452.069 119.78 458.508 127.552L451.947 132.988C446.023 125.838 439.113 119.566 431.424 114.361L436.2 107.306Z" fill="#3A035D"/>
<path d="M346.473 196H343.38V187.273H346.499C347.377 187.273 348.133 187.447 348.766 187.797C349.4 188.143 349.887 188.642 350.228 189.293C350.571 189.943 350.743 190.722 350.743 191.628C350.743 192.537 350.571 193.318 350.228 193.972C349.887 194.625 349.397 195.126 348.758 195.476C348.121 195.825 347.36 196 346.473 196ZM345.225 194.419H346.397C346.942 194.419 347.401 194.322 347.773 194.129C348.148 193.933 348.429 193.631 348.617 193.222C348.807 192.81 348.902 192.278 348.902 191.628C348.902 190.983 348.807 190.456 348.617 190.047C348.429 189.638 348.15 189.337 347.777 189.143C347.405 188.95 346.946 188.854 346.401 188.854H345.225V194.419ZM355.059 196.128C354.386 196.128 353.806 195.991 353.32 195.719C352.837 195.443 352.465 195.054 352.204 194.551C351.943 194.045 351.812 193.447 351.812 192.757C351.812 192.084 351.943 191.493 352.204 190.984C352.465 190.476 352.833 190.08 353.308 189.795C353.785 189.511 354.345 189.369 354.987 189.369C355.418 189.369 355.82 189.439 356.193 189.578C356.568 189.714 356.894 189.92 357.173 190.196C357.454 190.472 357.673 190.818 357.829 191.236C357.985 191.651 358.063 192.136 358.063 192.693V193.192H352.536V192.067H356.354C356.354 191.805 356.298 191.574 356.184 191.372C356.07 191.17 355.913 191.013 355.711 190.899C355.512 190.783 355.281 190.724 355.016 190.724C354.741 190.724 354.497 190.788 354.283 190.916C354.073 191.041 353.908 191.21 353.789 191.423C353.67 191.634 353.609 191.868 353.606 192.126V193.196C353.606 193.52 353.666 193.8 353.785 194.036C353.907 194.271 354.079 194.453 354.3 194.581C354.522 194.709 354.785 194.773 355.089 194.773C355.291 194.773 355.475 194.744 355.643 194.688C355.81 194.631 355.954 194.545 356.073 194.432C356.193 194.318 356.283 194.179 356.346 194.014L358.025 194.125C357.94 194.528 357.765 194.881 357.501 195.182C357.239 195.48 356.901 195.713 356.487 195.881C356.075 196.045 355.599 196.128 355.059 196.128ZM364.694 191.321L363.032 191.423C363.004 191.281 362.943 191.153 362.849 191.04C362.755 190.923 362.631 190.831 362.478 190.763C362.327 190.692 362.147 190.656 361.937 190.656C361.656 190.656 361.418 190.716 361.225 190.835C361.032 190.952 360.935 191.108 360.935 191.304C360.935 191.46 360.998 191.592 361.123 191.7C361.248 191.808 361.462 191.895 361.766 191.96L362.951 192.199C363.587 192.33 364.062 192.54 364.374 192.83C364.687 193.119 364.843 193.5 364.843 193.972C364.843 194.401 364.717 194.777 364.464 195.101C364.214 195.425 363.87 195.678 363.433 195.859C362.998 196.038 362.497 196.128 361.928 196.128C361.062 196.128 360.372 195.947 359.857 195.587C359.346 195.223 359.046 194.729 358.958 194.104L360.744 194.01C360.798 194.274 360.928 194.476 361.136 194.615C361.343 194.751 361.609 194.82 361.933 194.82C362.251 194.82 362.506 194.759 362.7 194.636C362.896 194.511 362.995 194.351 362.998 194.155C362.995 193.99 362.925 193.855 362.789 193.75C362.653 193.642 362.443 193.56 362.158 193.503L361.025 193.277C360.386 193.149 359.91 192.928 359.597 192.612C359.288 192.297 359.133 191.895 359.133 191.406C359.133 190.986 359.247 190.624 359.474 190.32C359.704 190.016 360.026 189.781 360.441 189.616C360.859 189.452 361.347 189.369 361.907 189.369C362.734 189.369 363.384 189.544 363.859 189.893C364.336 190.243 364.614 190.719 364.694 191.321ZM369.468 189.455V190.818H365.526V189.455H369.468ZM366.421 187.886H368.236V193.989C368.236 194.156 368.262 194.287 368.313 194.381C368.364 194.472 368.435 194.536 368.526 194.572C368.62 194.609 368.728 194.628 368.85 194.628C368.935 194.628 369.02 194.621 369.106 194.607C369.191 194.589 369.256 194.577 369.302 194.568L369.587 195.919C369.496 195.947 369.368 195.98 369.204 196.017C369.039 196.057 368.838 196.081 368.603 196.089C368.165 196.107 367.782 196.048 367.452 195.915C367.125 195.781 366.871 195.574 366.689 195.293C366.508 195.011 366.418 194.656 366.421 194.227V187.886ZM370.65 196V189.455H372.466V196H370.65ZM371.562 188.611C371.292 188.611 371.061 188.521 370.868 188.342C370.677 188.161 370.582 187.943 370.582 187.69C370.582 187.44 370.677 187.226 370.868 187.047C371.061 186.865 371.292 186.774 371.562 186.774C371.832 186.774 372.062 186.865 372.253 187.047C372.446 187.226 372.542 187.44 372.542 187.69C372.542 187.943 372.446 188.161 372.253 188.342C372.062 188.521 371.832 188.611 371.562 188.611ZM375.735 192.216V196H373.92V189.455H375.65V190.609H375.727C375.872 190.229 376.114 189.928 376.455 189.706C376.796 189.482 377.21 189.369 377.695 189.369C378.15 189.369 378.546 189.469 378.884 189.668C379.222 189.866 379.485 190.151 379.673 190.52C379.86 190.886 379.954 191.324 379.954 191.832V196H378.139V192.156C378.141 191.756 378.039 191.443 377.832 191.219C377.624 190.991 377.339 190.878 376.975 190.878C376.731 190.878 376.515 190.93 376.327 191.036C376.143 191.141 375.998 191.294 375.893 191.496C375.791 191.695 375.738 191.935 375.735 192.216ZM383.251 196.124C382.834 196.124 382.461 196.051 382.135 195.906C381.808 195.759 381.549 195.541 381.359 195.254C381.172 194.964 381.078 194.604 381.078 194.172C381.078 193.808 381.145 193.503 381.278 193.256C381.412 193.009 381.593 192.81 381.824 192.659C382.054 192.509 382.315 192.395 382.608 192.318C382.903 192.241 383.213 192.188 383.537 192.156C383.917 192.116 384.224 192.08 384.457 192.045C384.69 192.009 384.859 191.955 384.964 191.884C385.069 191.812 385.122 191.707 385.122 191.568V191.543C385.122 191.273 385.037 191.064 384.866 190.916C384.699 190.768 384.46 190.695 384.15 190.695C383.824 190.695 383.564 190.767 383.37 190.912C383.177 191.054 383.049 191.233 382.987 191.449L381.308 191.312C381.393 190.915 381.561 190.571 381.811 190.281C382.061 189.989 382.383 189.764 382.778 189.608C383.176 189.449 383.636 189.369 384.159 189.369C384.522 189.369 384.87 189.412 385.203 189.497C385.538 189.582 385.835 189.714 386.093 189.893C386.355 190.072 386.561 190.303 386.711 190.584C386.862 190.862 386.937 191.196 386.937 191.585V196H385.216V195.092H385.164C385.059 195.297 384.919 195.477 384.743 195.634C384.566 195.787 384.355 195.908 384.108 195.996C383.861 196.081 383.575 196.124 383.251 196.124ZM383.771 194.871C384.038 194.871 384.274 194.818 384.478 194.713C384.683 194.605 384.843 194.46 384.96 194.278C385.076 194.097 385.135 193.891 385.135 193.661V192.966C385.078 193.003 385 193.037 384.9 193.068C384.804 193.097 384.694 193.124 384.572 193.149C384.45 193.172 384.328 193.193 384.206 193.213C384.084 193.23 383.973 193.246 383.873 193.26C383.66 193.291 383.474 193.341 383.315 193.409C383.156 193.477 383.032 193.57 382.944 193.686C382.856 193.8 382.812 193.942 382.812 194.112C382.812 194.359 382.902 194.548 383.081 194.679C383.262 194.807 383.493 194.871 383.771 194.871ZM391.827 189.455V190.818H387.885V189.455H391.827ZM388.78 187.886H390.596V193.989C390.596 194.156 390.621 194.287 390.672 194.381C390.723 194.472 390.794 194.536 390.885 194.572C390.979 194.609 391.087 194.628 391.209 194.628C391.294 194.628 391.38 194.621 391.465 194.607C391.55 194.589 391.615 194.577 391.661 194.568L391.946 195.919C391.856 195.947 391.728 195.98 391.563 196.017C391.398 196.057 391.198 196.081 390.962 196.089C390.525 196.107 390.141 196.048 389.811 195.915C389.485 195.781 389.231 195.574 389.049 195.293C388.867 195.011 388.777 194.656 388.78 194.227V187.886ZM393.01 196V189.455H394.825V196H393.01ZM393.922 188.611C393.652 188.611 393.42 188.521 393.227 188.342C393.037 188.161 392.941 187.943 392.941 187.69C392.941 187.44 393.037 187.226 393.227 187.047C393.42 186.865 393.652 186.774 393.922 186.774C394.191 186.774 394.422 186.865 394.612 187.047C394.805 187.226 394.902 187.44 394.902 187.69C394.902 187.943 394.805 188.161 394.612 188.342C394.422 188.521 394.191 188.611 393.922 188.611ZM399.237 196.128C398.575 196.128 398.002 195.987 397.519 195.706C397.039 195.422 396.668 195.027 396.407 194.521C396.146 194.013 396.015 193.423 396.015 192.753C396.015 192.077 396.146 191.486 396.407 190.98C396.668 190.472 397.039 190.077 397.519 189.795C398.002 189.511 398.575 189.369 399.237 189.369C399.898 189.369 400.47 189.511 400.95 189.795C401.433 190.077 401.805 190.472 402.066 190.98C402.327 191.486 402.458 192.077 402.458 192.753C402.458 193.423 402.327 194.013 402.066 194.521C401.805 195.027 401.433 195.422 400.95 195.706C400.47 195.987 399.898 196.128 399.237 196.128ZM399.245 194.722C399.546 194.722 399.798 194.636 399.999 194.466C400.201 194.293 400.353 194.057 400.455 193.759C400.56 193.46 400.613 193.121 400.613 192.74C400.613 192.359 400.56 192.02 400.455 191.722C400.353 191.423 400.201 191.187 399.999 191.014C399.798 190.841 399.546 190.754 399.245 190.754C398.941 190.754 398.685 190.841 398.478 191.014C398.273 191.187 398.119 191.423 398.014 191.722C397.911 192.02 397.86 192.359 397.86 192.74C397.86 193.121 397.911 193.46 398.014 193.759C398.119 194.057 398.273 194.293 398.478 194.466C398.685 194.636 398.941 194.722 399.245 194.722ZM405.454 192.216V196H403.639V189.455H405.369V190.609H405.445C405.59 190.229 405.833 189.928 406.174 189.706C406.515 189.482 406.928 189.369 407.414 189.369C407.869 189.369 408.265 189.469 408.603 189.668C408.941 189.866 409.204 190.151 409.391 190.52C409.579 190.886 409.673 191.324 409.673 191.832V196H407.857V192.156C407.86 191.756 407.758 191.443 407.55 191.219C407.343 190.991 407.058 190.878 406.694 190.878C406.45 190.878 406.234 190.93 406.046 191.036C405.862 191.141 405.717 191.294 405.612 191.496C405.509 191.695 405.457 191.935 405.454 192.216ZM359.177 202.273L361.286 208.903H361.367L363.481 202.273H365.527L362.518 211H360.14L357.127 202.273H359.177ZM368.788 211.128C368.114 211.128 367.535 210.991 367.049 210.719C366.566 210.443 366.194 210.054 365.932 209.551C365.671 209.045 365.54 208.447 365.54 207.757C365.54 207.084 365.671 206.493 365.932 205.984C366.194 205.476 366.562 205.08 367.036 204.795C367.513 204.511 368.073 204.369 368.715 204.369C369.147 204.369 369.549 204.439 369.921 204.578C370.296 204.714 370.623 204.92 370.901 205.196C371.182 205.472 371.401 205.818 371.557 206.236C371.714 206.651 371.792 207.136 371.792 207.693V208.192H366.265V207.067H370.083C370.083 206.805 370.026 206.574 369.913 206.372C369.799 206.17 369.641 206.013 369.44 205.899C369.241 205.783 369.009 205.724 368.745 205.724C368.469 205.724 368.225 205.788 368.012 205.916C367.802 206.041 367.637 206.21 367.518 206.423C367.398 206.634 367.337 206.868 367.334 207.126V208.196C367.334 208.52 367.394 208.8 367.513 209.036C367.636 209.271 367.807 209.453 368.029 209.581C368.251 209.709 368.513 209.773 368.817 209.773C369.019 209.773 369.204 209.744 369.371 209.688C369.539 209.631 369.682 209.545 369.802 209.432C369.921 209.318 370.012 209.179 370.074 209.014L371.753 209.125C371.668 209.528 371.493 209.881 371.229 210.182C370.968 210.48 370.63 210.713 370.215 210.881C369.803 211.045 369.327 211.128 368.788 211.128ZM375.934 211.128C375.263 211.128 374.687 210.986 374.204 210.702C373.724 210.415 373.354 210.017 373.096 209.509C372.84 209 372.712 208.415 372.712 207.753C372.712 207.082 372.842 206.494 373.1 205.989C373.361 205.48 373.732 205.084 374.212 204.8C374.692 204.513 375.263 204.369 375.925 204.369C376.496 204.369 376.996 204.473 377.425 204.68C377.854 204.888 378.194 205.179 378.444 205.554C378.694 205.929 378.832 206.369 378.857 206.875H377.144C377.096 206.548 376.968 206.286 376.761 206.087C376.556 205.885 376.288 205.784 375.955 205.784C375.674 205.784 375.428 205.861 375.218 206.014C375.011 206.165 374.849 206.385 374.732 206.675C374.616 206.964 374.557 207.315 374.557 207.727C374.557 208.145 374.614 208.5 374.728 208.793C374.844 209.085 375.008 209.308 375.218 209.462C375.428 209.615 375.674 209.692 375.955 209.692C376.163 209.692 376.349 209.649 376.513 209.564C376.681 209.479 376.819 209.355 376.927 209.193C377.038 209.028 377.11 208.831 377.144 208.601H378.857C378.829 209.101 378.692 209.541 378.448 209.922C378.207 210.3 377.873 210.595 377.447 210.808C377.02 211.021 376.516 211.128 375.934 211.128ZM383.501 204.455V205.818H379.559V204.455H383.501ZM380.454 202.886H382.269V208.989C382.269 209.156 382.295 209.287 382.346 209.381C382.397 209.472 382.468 209.536 382.559 209.572C382.653 209.609 382.761 209.628 382.883 209.628C382.968 209.628 383.054 209.621 383.139 209.607C383.224 209.589 383.289 209.577 383.335 209.568L383.62 210.919C383.529 210.947 383.402 210.98 383.237 211.017C383.072 211.057 382.872 211.081 382.636 211.089C382.198 211.107 381.815 211.048 381.485 210.915C381.159 210.781 380.904 210.574 380.723 210.293C380.541 210.011 380.451 209.656 380.454 209.227V202.886ZM387.571 211.128C386.909 211.128 386.336 210.987 385.853 210.706C385.373 210.422 385.002 210.027 384.741 209.521C384.48 209.013 384.349 208.423 384.349 207.753C384.349 207.077 384.48 206.486 384.741 205.98C385.002 205.472 385.373 205.077 385.853 204.795C386.336 204.511 386.909 204.369 387.571 204.369C388.232 204.369 388.804 204.511 389.284 204.795C389.767 205.077 390.139 205.472 390.4 205.98C390.661 206.486 390.792 207.077 390.792 207.753C390.792 208.423 390.661 209.013 390.4 209.521C390.139 210.027 389.767 210.422 389.284 210.706C388.804 210.987 388.232 211.128 387.571 211.128ZM387.579 209.722C387.88 209.722 388.132 209.636 388.333 209.466C388.535 209.293 388.687 209.057 388.789 208.759C388.894 208.46 388.947 208.121 388.947 207.74C388.947 207.359 388.894 207.02 388.789 206.722C388.687 206.423 388.535 206.187 388.333 206.014C388.132 205.841 387.88 205.754 387.579 205.754C387.275 205.754 387.019 205.841 386.812 206.014C386.607 206.187 386.453 206.423 386.348 206.722C386.245 207.02 386.194 207.359 386.194 207.74C386.194 208.121 386.245 208.46 386.348 208.759C386.453 209.057 386.607 209.293 386.812 209.466C387.019 209.636 387.275 209.722 387.579 209.722ZM391.973 211V204.455H393.732V205.597H393.801C393.92 205.19 394.12 204.884 394.402 204.676C394.683 204.466 395.007 204.361 395.373 204.361C395.464 204.361 395.562 204.366 395.667 204.378C395.772 204.389 395.865 204.405 395.944 204.425V206.036C395.859 206.01 395.741 205.987 395.59 205.967C395.44 205.947 395.302 205.938 395.177 205.938C394.91 205.938 394.671 205.996 394.461 206.112C394.254 206.226 394.089 206.385 393.967 206.589C393.848 206.794 393.788 207.03 393.788 207.297V211H391.973Z" fill="#0B0755"/>
<path d="M295.115 75.5265C318.919 58.9649 347.209 50.0598 376.208 50.0003C405.206 49.9408 433.532 58.7298 457.404 75.1935L446.886 90.4434C426.118 76.1199 401.474 68.4735 376.246 68.5253C351.017 68.577 326.405 76.3245 305.695 90.7331L295.115 75.5265Z" fill="#1E79B7"/>
<path d="M265.624 102.986C274.107 92.4785 284.041 83.2304 295.126 75.519L300.822 83.7077C290.513 90.8793 281.275 99.48 273.386 109.252L265.624 102.986Z" fill="#F38300"/>
<path d="M452.341 82.6349C462.753 89.8221 472.09 98.4527 480.072 108.268L472.822 114.164C465.399 105.036 456.715 97.0095 447.033 90.3255L452.341 82.6349Z" fill="#3A035D"/>
<path d="M361.783 36.2727V45H359.938V36.2727H361.783ZM365.083 41.2159V45H363.267V38.4545H364.998V39.6094H365.074C365.219 39.2287 365.462 38.9276 365.803 38.706C366.144 38.4815 366.557 38.3693 367.043 38.3693C367.498 38.3693 367.894 38.4688 368.232 38.6676C368.57 38.8665 368.833 39.1506 369.02 39.5199C369.208 39.8864 369.302 40.3239 369.302 40.8324V45H367.486V41.1562C367.489 40.7557 367.387 40.4432 367.179 40.2188C366.972 39.9915 366.686 39.8778 366.323 39.8778C366.079 39.8778 365.863 39.9304 365.675 40.0355C365.49 40.1406 365.346 40.294 365.24 40.4957C365.138 40.6946 365.086 40.9347 365.083 41.2159ZM376.178 40.321L374.516 40.4233C374.488 40.2812 374.427 40.1534 374.333 40.0398C374.239 39.9233 374.116 39.831 373.962 39.7628C373.812 39.6918 373.631 39.6562 373.421 39.6562C373.14 39.6562 372.903 39.7159 372.71 39.8352C372.516 39.9517 372.42 40.108 372.42 40.304C372.42 40.4602 372.482 40.5923 372.607 40.7003C372.732 40.8082 372.947 40.8949 373.251 40.9602L374.435 41.1989C375.072 41.3295 375.546 41.5398 375.859 41.8295C376.171 42.1193 376.327 42.5 376.327 42.9716C376.327 43.4006 376.201 43.777 375.948 44.1009C375.698 44.4247 375.354 44.6776 374.917 44.8594C374.482 45.0384 373.981 45.1278 373.413 45.1278C372.546 45.1278 371.856 44.9474 371.342 44.5866C370.83 44.223 370.531 43.7287 370.443 43.1037L372.228 43.0099C372.282 43.2741 372.413 43.4759 372.62 43.6151C372.827 43.7514 373.093 43.8196 373.417 43.8196C373.735 43.8196 373.991 43.7585 374.184 43.6364C374.38 43.5114 374.479 43.3509 374.482 43.1548C374.479 42.9901 374.41 42.8551 374.273 42.75C374.137 42.642 373.927 42.5597 373.643 42.5028L372.509 42.277C371.87 42.1491 371.394 41.9276 371.082 41.6122C370.772 41.2969 370.617 40.8949 370.617 40.4062C370.617 39.9858 370.731 39.6236 370.958 39.3196C371.188 39.0156 371.511 38.7812 371.925 38.6165C372.343 38.4517 372.832 38.3693 373.391 38.3693C374.218 38.3693 374.869 38.544 375.343 38.8935C375.82 39.2429 376.099 39.7187 376.178 40.321ZM380.454 45.1278C379.78 45.1278 379.201 44.9915 378.715 44.7188C378.232 44.4432 377.86 44.054 377.598 43.5511C377.337 43.0455 377.206 42.4474 377.206 41.7571C377.206 41.0838 377.337 40.4929 377.598 39.9844C377.86 39.4759 378.228 39.0795 378.702 38.7955C379.179 38.5114 379.739 38.3693 380.381 38.3693C380.813 38.3693 381.215 38.4389 381.587 38.5781C381.962 38.7145 382.289 38.9205 382.567 39.196C382.848 39.4716 383.067 39.8182 383.223 40.2358C383.38 40.6506 383.458 41.1364 383.458 41.6932V42.1918H377.931V41.0668H381.749C381.749 40.8054 381.692 40.5739 381.579 40.3722C381.465 40.1705 381.307 40.0128 381.106 39.8991C380.907 39.7827 380.675 39.7244 380.411 39.7244C380.135 39.7244 379.891 39.7884 379.678 39.9162C379.468 40.0412 379.303 40.2102 379.184 40.4233C379.064 40.6335 379.003 40.8679 379 41.1264V42.196C379 42.5199 379.06 42.7997 379.179 43.0355C379.302 43.2713 379.473 43.4531 379.695 43.581C379.917 43.7088 380.179 43.7727 380.483 43.7727C380.685 43.7727 380.87 43.7443 381.037 43.6875C381.205 43.6307 381.348 43.5455 381.468 43.4318C381.587 43.3182 381.678 43.179 381.74 43.0142L383.419 43.125C383.334 43.5284 383.16 43.8807 382.895 44.1818C382.634 44.4801 382.296 44.7131 381.881 44.8807C381.469 45.0455 380.993 45.1278 380.454 45.1278ZM384.642 45V38.4545H386.402V39.5966H386.471C386.59 39.1903 386.79 38.8835 387.071 38.6761C387.353 38.4659 387.677 38.3608 388.043 38.3608C388.134 38.3608 388.232 38.3665 388.337 38.3778C388.442 38.3892 388.535 38.4048 388.614 38.4247V40.0355C388.529 40.0099 388.411 39.9872 388.26 39.9673C388.11 39.9474 387.972 39.9375 387.847 39.9375C387.58 39.9375 387.341 39.9957 387.131 40.1122C386.924 40.2259 386.759 40.3849 386.637 40.5895C386.517 40.794 386.458 41.0298 386.458 41.2969V45H384.642ZM393.362 38.4545V39.8182H389.421V38.4545H393.362ZM390.315 36.8864H392.131V42.9886C392.131 43.1562 392.156 43.2869 392.207 43.3807C392.259 43.4716 392.33 43.5355 392.421 43.5724C392.514 43.6094 392.622 43.6278 392.744 43.6278C392.83 43.6278 392.915 43.6207 393 43.6065C393.085 43.5895 393.151 43.5767 393.196 43.5682L393.482 44.919C393.391 44.9474 393.263 44.9801 393.098 45.017C392.933 45.0568 392.733 45.081 392.497 45.0895C392.06 45.1065 391.676 45.0483 391.347 44.9148C391.02 44.7812 390.766 44.5739 390.584 44.2926C390.402 44.0114 390.313 43.6562 390.315 43.2273V36.8864Z" fill="#0B0755"/>
<path d="M728.493 127.533C741.384 143.085 749.586 161.982 752.143 182.019C754.7 202.056 751.506 222.408 742.933 240.698C734.361 258.989 720.763 274.464 703.727 285.318C686.692 296.172 666.92 301.958 646.72 302C626.521 302.042 606.726 296.338 589.645 285.554C572.565 274.771 558.903 259.352 550.255 241.097C541.606 222.842 538.328 202.504 540.802 182.456C543.276 162.409 551.4 143.478 564.227 127.873L576.568 138.017C565.665 151.281 558.759 167.372 556.657 184.413C554.554 201.454 557.34 218.741 564.691 234.257C572.043 249.774 583.655 262.88 598.173 272.046C612.692 281.212 629.518 286.06 646.687 286.025C663.857 285.989 680.663 281.072 695.143 271.845C709.624 262.619 721.182 249.465 728.468 233.918C735.755 218.371 738.47 201.073 736.297 184.041C734.123 167.009 727.151 150.947 716.194 137.728L728.493 127.533Z" fill="#A8D8E8"/>
<path d="M564.005 128.144C573.964 115.947 586.503 106.11 600.721 99.3413C614.938 92.5728 630.479 89.0411 646.225 89.0004C661.971 88.9596 677.53 92.411 691.782 99.1059C706.034 105.801 718.624 115.573 728.645 127.718L716.323 137.885C707.805 127.562 697.104 119.256 684.989 113.565C672.875 107.874 659.65 104.941 646.266 104.975C632.882 105.01 619.672 108.012 607.587 113.765C595.503 119.518 584.845 127.88 576.38 138.247L564.005 128.144Z" fill="#1E79B7"/>
<path d="M564.047 128.093C570.435 120.279 577.901 113.413 586.221 107.701L595.263 120.87C588.191 125.726 581.845 131.562 576.415 138.204L564.047 128.093Z" fill="#F38300"/>
<path d="M706.2 107.306C714.558 112.963 722.069 119.78 728.508 127.552L716.207 137.744C710.733 131.138 704.349 125.344 697.245 120.535L706.2 107.306Z" fill="#3A035D"/>
<path d="M608.61 203V194.273H614.389V195.794H610.455V197.874H614.005V199.395H610.455V203H608.61ZM615.596 203V196.455H617.411V203H615.596ZM616.508 195.611C616.238 195.611 616.006 195.521 615.813 195.342C615.623 195.161 615.527 194.943 615.527 194.69C615.527 194.44 615.623 194.226 615.813 194.047C616.006 193.865 616.238 193.774 616.508 193.774C616.777 193.774 617.008 193.865 617.198 194.047C617.391 194.226 617.488 194.44 617.488 194.69C617.488 194.943 617.391 195.161 617.198 195.342C617.008 195.521 616.777 195.611 616.508 195.611ZM620.68 199.216V203H618.865V196.455H620.595V197.609H620.672C620.817 197.229 621.06 196.928 621.401 196.706C621.742 196.482 622.155 196.369 622.641 196.369C623.095 196.369 623.492 196.469 623.83 196.668C624.168 196.866 624.43 197.151 624.618 197.52C624.805 197.886 624.899 198.324 624.899 198.832V203H623.084V199.156C623.087 198.756 622.984 198.443 622.777 198.219C622.57 197.991 622.284 197.878 621.921 197.878C621.676 197.878 621.46 197.93 621.273 198.036C621.088 198.141 620.943 198.294 620.838 198.496C620.736 198.695 620.683 198.935 620.68 199.216ZM628.196 203.124C627.779 203.124 627.407 203.051 627.08 202.906C626.753 202.759 626.495 202.541 626.304 202.254C626.117 201.964 626.023 201.604 626.023 201.172C626.023 200.808 626.09 200.503 626.223 200.256C626.357 200.009 626.539 199.81 626.769 199.659C626.999 199.509 627.26 199.395 627.553 199.318C627.848 199.241 628.158 199.188 628.482 199.156C628.863 199.116 629.169 199.08 629.402 199.045C629.635 199.009 629.804 198.955 629.91 198.884C630.015 198.812 630.067 198.707 630.067 198.568V198.543C630.067 198.273 629.982 198.064 629.811 197.916C629.644 197.768 629.405 197.695 629.096 197.695C628.769 197.695 628.509 197.767 628.316 197.912C628.123 198.054 627.995 198.233 627.932 198.449L626.253 198.312C626.338 197.915 626.506 197.571 626.756 197.281C627.006 196.989 627.329 196.764 627.723 196.608C628.121 196.449 628.581 196.369 629.104 196.369C629.468 196.369 629.816 196.412 630.148 196.497C630.483 196.582 630.78 196.714 631.039 196.893C631.3 197.072 631.506 197.303 631.657 197.584C631.807 197.862 631.883 198.196 631.883 198.585V203H630.161V202.092H630.11C630.005 202.297 629.864 202.477 629.688 202.634C629.512 202.787 629.3 202.908 629.053 202.996C628.806 203.081 628.52 203.124 628.196 203.124ZM628.716 201.871C628.983 201.871 629.219 201.818 629.424 201.713C629.628 201.605 629.789 201.46 629.905 201.278C630.022 201.097 630.08 200.891 630.08 200.661V199.966C630.023 200.003 629.945 200.037 629.846 200.068C629.749 200.097 629.64 200.124 629.517 200.149C629.395 200.172 629.273 200.193 629.151 200.213C629.029 200.23 628.918 200.246 628.819 200.26C628.606 200.291 628.419 200.341 628.26 200.409C628.101 200.477 627.978 200.57 627.89 200.686C627.802 200.8 627.758 200.942 627.758 201.112C627.758 201.359 627.847 201.548 628.026 201.679C628.208 201.807 628.438 201.871 628.716 201.871ZM635.106 194.273V203H633.291V194.273H635.106ZM639.372 203V194.273H642.815C643.477 194.273 644.041 194.399 644.507 194.652C644.973 194.902 645.328 195.25 645.572 195.696C645.819 196.139 645.943 196.651 645.943 197.23C645.943 197.81 645.818 198.321 645.568 198.764C645.318 199.207 644.956 199.553 644.481 199.8C644.01 200.047 643.439 200.17 642.768 200.17H640.574V198.692H642.47C642.825 198.692 643.118 198.631 643.348 198.509C643.581 198.384 643.754 198.212 643.868 197.993C643.984 197.771 644.042 197.517 644.042 197.23C644.042 196.94 643.984 196.687 643.868 196.472C643.754 196.253 643.581 196.084 643.348 195.964C643.115 195.842 642.819 195.781 642.461 195.781H641.217V203H639.372ZM647.107 203V196.455H648.867V197.597H648.935C649.055 197.19 649.255 196.884 649.536 196.676C649.818 196.466 650.141 196.361 650.508 196.361C650.599 196.361 650.697 196.366 650.802 196.378C650.907 196.389 650.999 196.405 651.079 196.425V198.036C650.994 198.01 650.876 197.987 650.725 197.967C650.575 197.947 650.437 197.938 650.312 197.938C650.045 197.938 649.806 197.996 649.596 198.112C649.389 198.226 649.224 198.385 649.102 198.589C648.982 198.794 648.923 199.03 648.923 199.297V203H647.107ZM654.67 203.128C654.008 203.128 653.436 202.987 652.953 202.706C652.473 202.422 652.102 202.027 651.841 201.521C651.579 201.013 651.449 200.423 651.449 199.753C651.449 199.077 651.579 198.486 651.841 197.98C652.102 197.472 652.473 197.077 652.953 196.795C653.436 196.511 654.008 196.369 654.67 196.369C655.332 196.369 655.903 196.511 656.383 196.795C656.866 197.077 657.238 197.472 657.5 197.98C657.761 198.486 657.892 199.077 657.892 199.753C657.892 200.423 657.761 201.013 657.5 201.521C657.238 202.027 656.866 202.422 656.383 202.706C655.903 202.987 655.332 203.128 654.67 203.128ZM654.679 201.722C654.98 201.722 655.231 201.636 655.433 201.466C655.635 201.293 655.787 201.057 655.889 200.759C655.994 200.46 656.047 200.121 656.047 199.74C656.047 199.359 655.994 199.02 655.889 198.722C655.787 198.423 655.635 198.187 655.433 198.014C655.231 197.841 654.98 197.754 654.679 197.754C654.375 197.754 654.119 197.841 653.912 198.014C653.707 198.187 653.552 198.423 653.447 198.722C653.345 199.02 653.294 199.359 653.294 199.74C653.294 200.121 653.345 200.46 653.447 200.759C653.552 201.057 653.707 201.293 653.912 201.466C654.119 201.636 654.375 201.722 654.679 201.722ZM661.484 203.107C660.987 203.107 660.537 202.979 660.133 202.723C659.733 202.464 659.414 202.085 659.179 201.585C658.946 201.082 658.829 200.466 658.829 199.736C658.829 198.986 658.95 198.362 659.191 197.865C659.433 197.365 659.754 196.991 660.155 196.744C660.558 196.494 661 196.369 661.48 196.369C661.846 196.369 662.152 196.432 662.396 196.557C662.643 196.679 662.842 196.832 662.993 197.017C663.146 197.199 663.262 197.378 663.342 197.554H663.397V194.273H665.209V203H663.419V201.952H663.342C663.257 202.134 663.136 202.314 662.98 202.493C662.826 202.669 662.626 202.815 662.379 202.932C662.135 203.048 661.836 203.107 661.484 203.107ZM662.059 201.662C662.352 201.662 662.599 201.582 662.801 201.423C663.005 201.261 663.162 201.036 663.27 200.746C663.38 200.456 663.436 200.116 663.436 199.727C663.436 199.338 663.382 199 663.274 198.713C663.166 198.426 663.01 198.205 662.805 198.048C662.601 197.892 662.352 197.814 662.059 197.814C661.761 197.814 661.51 197.895 661.305 198.057C661.101 198.219 660.946 198.443 660.841 198.73C660.736 199.017 660.683 199.349 660.683 199.727C660.683 200.108 660.736 200.445 660.841 200.737C660.949 201.027 661.103 201.254 661.305 201.419C661.51 201.581 661.761 201.662 662.059 201.662ZM670.898 200.213V196.455H672.714V203H670.971V201.811H670.903C670.755 202.195 670.509 202.503 670.166 202.736C669.825 202.969 669.408 203.085 668.917 203.085C668.479 203.085 668.095 202.986 667.762 202.787C667.43 202.588 667.17 202.305 666.982 201.939C666.798 201.572 666.704 201.134 666.701 200.622V196.455H668.516V200.298C668.519 200.685 668.623 200.99 668.827 201.214C669.032 201.439 669.306 201.551 669.65 201.551C669.869 201.551 670.073 201.501 670.264 201.402C670.454 201.3 670.607 201.149 670.724 200.95C670.843 200.751 670.901 200.506 670.898 200.213ZM677.123 203.128C676.453 203.128 675.876 202.986 675.393 202.702C674.913 202.415 674.544 202.017 674.285 201.509C674.03 201 673.902 200.415 673.902 199.753C673.902 199.082 674.031 198.494 674.289 197.989C674.551 197.48 674.922 197.084 675.402 196.8C675.882 196.513 676.453 196.369 677.115 196.369C677.686 196.369 678.186 196.473 678.615 196.68C679.044 196.888 679.383 197.179 679.633 197.554C679.883 197.929 680.021 198.369 680.047 198.875H678.334C678.285 198.548 678.157 198.286 677.95 198.087C677.745 197.885 677.477 197.784 677.145 197.784C676.863 197.784 676.618 197.861 676.407 198.014C676.2 198.165 676.038 198.385 675.922 198.675C675.805 198.964 675.747 199.315 675.747 199.727C675.747 200.145 675.804 200.5 675.917 200.793C676.034 201.085 676.197 201.308 676.407 201.462C676.618 201.615 676.863 201.692 677.145 201.692C677.352 201.692 677.538 201.649 677.703 201.564C677.87 201.479 678.008 201.355 678.116 201.193C678.227 201.028 678.299 200.831 678.334 200.601H680.047C680.018 201.101 679.882 201.541 679.637 201.922C679.396 202.3 679.062 202.595 678.636 202.808C678.21 203.021 677.706 203.128 677.123 203.128ZM684.69 196.455V197.818H680.749V196.455H684.69ZM681.644 194.886H683.459V200.989C683.459 201.156 683.484 201.287 683.536 201.381C683.587 201.472 683.658 201.536 683.749 201.572C683.842 201.609 683.95 201.628 684.073 201.628C684.158 201.628 684.243 201.621 684.328 201.607C684.413 201.589 684.479 201.577 684.524 201.568L684.81 202.919C684.719 202.947 684.591 202.98 684.426 203.017C684.261 203.057 684.061 203.081 683.825 203.089C683.388 203.107 683.004 203.048 682.675 202.915C682.348 202.781 682.094 202.574 681.912 202.293C681.73 202.011 681.641 201.656 681.644 201.227V194.886Z" fill="#0B0755"/>
<path d="M644.487 74.2727V83H642.641V74.2727H644.487ZM649.75 74.2727V83H647.905V76.0241H647.854L645.856 77.277V75.6406L648.016 74.2727H649.75Z" fill="#0B0755"/>
<path d="M188.493 127.533C201.384 143.085 209.586 161.982 212.143 182.019C214.7 202.056 211.506 222.408 202.933 240.698C194.361 258.989 180.763 274.464 163.727 285.318C146.692 296.172 126.92 301.958 106.72 302C86.5207 302.042 66.7256 296.338 49.6451 285.554C32.5645 274.771 18.903 259.352 10.2547 241.097C1.60633 222.842 -1.67214 202.504 0.801836 182.456C3.27581 162.409 11.4002 143.478 24.2269 127.873L36.5679 138.017C25.6652 151.281 18.7594 167.372 16.6566 184.413C14.5537 201.454 17.3404 218.741 24.6915 234.257C32.0426 249.774 43.6549 262.88 58.1733 272.046C72.6918 281.212 89.5176 286.06 106.687 286.025C123.857 285.989 140.663 281.072 155.143 271.845C169.624 262.619 181.182 249.465 188.468 233.918C195.755 218.371 198.47 201.073 196.297 184.041C194.123 167.009 187.151 150.947 176.194 137.728L188.493 127.533Z" fill="#A8D8E8"/>
<path d="M76.4734 196H73.3797V187.273H76.499C77.3768 187.273 78.1325 187.447 78.766 187.797C79.3996 188.143 79.8868 188.642 80.2277 189.293C80.5714 189.943 80.7433 190.722 80.7433 191.628C80.7433 192.537 80.5714 193.318 80.2277 193.972C79.8868 194.625 79.3967 195.126 78.7575 195.476C78.1212 195.825 77.3598 196 76.4734 196ZM75.2248 194.419H76.3967C76.9422 194.419 77.401 194.322 77.7731 194.129C78.1481 193.933 78.4294 193.631 78.6169 193.222C78.8072 192.81 78.9024 192.278 78.9024 191.628C78.9024 190.983 78.8072 190.456 78.6169 190.047C78.4294 189.638 78.1496 189.337 77.7774 189.143C77.4052 188.95 76.9464 188.854 76.401 188.854H75.2248V194.419ZM85.059 196.128C84.3857 196.128 83.8062 195.991 83.3204 195.719C82.8374 195.443 82.4653 195.054 82.2039 194.551C81.9425 194.045 81.8119 193.447 81.8119 192.757C81.8119 192.084 81.9425 191.493 82.2039 190.984C82.4653 190.476 82.8332 190.08 83.3076 189.795C83.7849 189.511 84.3445 189.369 84.9866 189.369C85.4184 189.369 85.8204 189.439 86.1925 189.578C86.5675 189.714 86.8942 189.92 87.1726 190.196C87.4539 190.472 87.6726 190.818 87.8289 191.236C87.9851 191.651 88.0633 192.136 88.0633 192.693V193.192H82.5363V192.067H86.3545C86.3545 191.805 86.2976 191.574 86.184 191.372C86.0704 191.17 85.9127 191.013 85.711 190.899C85.5121 190.783 85.2806 190.724 85.0164 190.724C84.7408 190.724 84.4965 190.788 84.2834 190.916C84.0732 191.041 83.9084 191.21 83.7891 191.423C83.6698 191.634 83.6087 191.868 83.6059 192.126V193.196C83.6059 193.52 83.6655 193.8 83.7849 194.036C83.907 194.271 84.0789 194.453 84.3005 194.581C84.5221 194.709 84.7849 194.773 85.0888 194.773C85.2905 194.773 85.4752 194.744 85.6428 194.688C85.8104 194.631 85.9539 194.545 86.0732 194.432C86.1925 194.318 86.2834 194.179 86.3459 194.014L88.0249 194.125C87.9397 194.528 87.765 194.881 87.5008 195.182C87.2394 195.48 86.9013 195.713 86.4866 195.881C86.0746 196.045 85.5988 196.128 85.059 196.128ZM94.694 191.321L93.032 191.423C93.0036 191.281 92.9425 191.153 92.8488 191.04C92.755 190.923 92.6315 190.831 92.478 190.763C92.3275 190.692 92.1471 190.656 91.9369 190.656C91.6556 190.656 91.4184 190.716 91.2252 190.835C91.032 190.952 90.9354 191.108 90.9354 191.304C90.9354 191.46 90.9979 191.592 91.1229 191.7C91.2479 191.808 91.4624 191.895 91.7664 191.96L92.9511 192.199C93.5874 192.33 94.0619 192.54 94.3744 192.83C94.6869 193.119 94.8431 193.5 94.8431 193.972C94.8431 194.401 94.7167 194.777 94.4638 195.101C94.2138 195.425 93.8701 195.678 93.4326 195.859C92.9979 196.038 92.4965 196.128 91.9283 196.128C91.0619 196.128 90.3715 195.947 89.8573 195.587C89.3459 195.223 89.0462 194.729 88.9582 194.104L90.7437 194.01C90.7976 194.274 90.9283 194.476 91.1357 194.615C91.3431 194.751 91.6087 194.82 91.9326 194.82C92.2508 194.82 92.5065 194.759 92.6996 194.636C92.8957 194.511 92.9951 194.351 92.9979 194.155C92.9951 193.99 92.9255 193.855 92.7891 193.75C92.6528 193.642 92.4425 193.56 92.1584 193.503L91.0249 193.277C90.3857 193.149 89.9099 192.928 89.5974 192.612C89.2877 192.297 89.1329 191.895 89.1329 191.406C89.1329 190.986 89.2465 190.624 89.4738 190.32C89.7039 190.016 90.0263 189.781 90.4411 189.616C90.8587 189.452 91.3474 189.369 91.907 189.369C92.7337 189.369 93.3843 189.544 93.8587 189.893C94.336 190.243 94.6144 190.719 94.694 191.321ZM99.4677 189.455V190.818H95.526V189.455H99.4677ZM96.4209 187.886H98.2362V193.989C98.2362 194.156 98.2618 194.287 98.3129 194.381C98.3641 194.472 98.4351 194.536 98.526 194.572C98.6197 194.609 98.7277 194.628 98.8498 194.628C98.9351 194.628 99.0203 194.621 99.1055 194.607C99.1908 194.589 99.2561 194.577 99.3016 194.568L99.5871 195.919C99.4962 195.947 99.3683 195.98 99.2035 196.017C99.0388 196.057 98.8385 196.081 98.6027 196.089C98.1652 196.107 97.7817 196.048 97.4521 195.915C97.1254 195.781 96.8712 195.574 96.6893 195.293C96.5075 195.011 96.418 194.656 96.4209 194.227V187.886ZM100.65 196V189.455H102.466V196H100.65ZM101.562 188.611C101.292 188.611 101.061 188.521 100.868 188.342C100.677 188.161 100.582 187.943 100.582 187.69C100.582 187.44 100.677 187.226 100.868 187.047C101.061 186.865 101.292 186.774 101.562 186.774C101.832 186.774 102.062 186.865 102.253 187.047C102.446 187.226 102.542 187.44 102.542 187.69C102.542 187.943 102.446 188.161 102.253 188.342C102.062 188.521 101.832 188.611 101.562 188.611ZM105.735 192.216V196H103.92V189.455H105.65V190.609H105.727C105.872 190.229 106.114 189.928 106.455 189.706C106.796 189.482 107.21 189.369 107.695 189.369C108.15 189.369 108.546 189.469 108.884 189.668C109.222 189.866 109.485 190.151 109.673 190.52C109.86 190.886 109.954 191.324 109.954 191.832V196H108.139V192.156C108.141 191.756 108.039 191.443 107.832 191.219C107.624 190.991 107.339 190.878 106.975 190.878C106.731 190.878 106.515 190.93 106.327 191.036C106.143 191.141 105.998 191.294 105.893 191.496C105.791 191.695 105.738 191.935 105.735 192.216ZM113.251 196.124C112.834 196.124 112.461 196.051 112.135 195.906C111.808 195.759 111.549 195.541 111.359 195.254C111.172 194.964 111.078 194.604 111.078 194.172C111.078 193.808 111.145 193.503 111.278 193.256C111.412 193.009 111.593 192.81 111.824 192.659C112.054 192.509 112.315 192.395 112.608 192.318C112.903 192.241 113.213 192.188 113.537 192.156C113.917 192.116 114.224 192.08 114.457 192.045C114.69 192.009 114.859 191.955 114.964 191.884C115.069 191.812 115.122 191.707 115.122 191.568V191.543C115.122 191.273 115.037 191.064 114.866 190.916C114.699 190.768 114.46 190.695 114.15 190.695C113.824 190.695 113.564 190.767 113.37 190.912C113.177 191.054 113.049 191.233 112.987 191.449L111.308 191.312C111.393 190.915 111.561 190.571 111.811 190.281C112.061 189.989 112.383 189.764 112.778 189.608C113.176 189.449 113.636 189.369 114.159 189.369C114.522 189.369 114.87 189.412 115.203 189.497C115.538 189.582 115.835 189.714 116.093 189.893C116.355 190.072 116.561 190.303 116.711 190.584C116.862 190.862 116.937 191.196 116.937 191.585V196H115.216V195.092H115.164C115.059 195.297 114.919 195.477 114.743 195.634C114.566 195.787 114.355 195.908 114.108 195.996C113.861 196.081 113.575 196.124 113.251 196.124ZM113.771 194.871C114.038 194.871 114.274 194.818 114.478 194.713C114.683 194.605 114.843 194.46 114.96 194.278C115.076 194.097 115.135 193.891 115.135 193.661V192.966C115.078 193.003 115 193.037 114.9 193.068C114.804 193.097 114.694 193.124 114.572 193.149C114.45 193.172 114.328 193.193 114.206 193.213C114.084 193.23 113.973 193.246 113.873 193.26C113.66 193.291 113.474 193.341 113.315 193.409C113.156 193.477 113.032 193.57 112.944 193.686C112.856 193.8 112.812 193.942 112.812 194.112C112.812 194.359 112.902 194.548 113.081 194.679C113.262 194.807 113.493 194.871 113.771 194.871ZM121.827 189.455V190.818H117.885V189.455H121.827ZM118.78 187.886H120.596V193.989C120.596 194.156 120.621 194.287 120.672 194.381C120.723 194.472 120.794 194.536 120.885 194.572C120.979 194.609 121.087 194.628 121.209 194.628C121.294 194.628 121.38 194.621 121.465 194.607C121.55 194.589 121.615 194.577 121.661 194.568L121.946 195.919C121.856 195.947 121.728 195.98 121.563 196.017C121.398 196.057 121.198 196.081 120.962 196.089C120.525 196.107 120.141 196.048 119.811 195.915C119.485 195.781 119.231 195.574 119.049 195.293C118.867 195.011 118.777 194.656 118.78 194.227V187.886ZM123.01 196V189.455H124.825V196H123.01ZM123.922 188.611C123.652 188.611 123.42 188.521 123.227 188.342C123.037 188.161 122.941 187.943 122.941 187.69C122.941 187.44 123.037 187.226 123.227 187.047C123.42 186.865 123.652 186.774 123.922 186.774C124.191 186.774 124.422 186.865 124.612 187.047C124.805 187.226 124.902 187.44 124.902 187.69C124.902 187.943 124.805 188.161 124.612 188.342C124.422 188.521 124.191 188.611 123.922 188.611ZM129.237 196.128C128.575 196.128 128.002 195.987 127.519 195.706C127.039 195.422 126.668 195.027 126.407 194.521C126.146 194.013 126.015 193.423 126.015 192.753C126.015 192.077 126.146 191.486 126.407 190.98C126.668 190.472 127.039 190.077 127.519 189.795C128.002 189.511 128.575 189.369 129.237 189.369C129.898 189.369 130.47 189.511 130.95 189.795C131.433 190.077 131.805 190.472 132.066 190.98C132.327 191.486 132.458 192.077 132.458 192.753C132.458 193.423 132.327 194.013 132.066 194.521C131.805 195.027 131.433 195.422 130.95 195.706C130.47 195.987 129.898 196.128 129.237 196.128ZM129.245 194.722C129.546 194.722 129.798 194.636 129.999 194.466C130.201 194.293 130.353 194.057 130.455 193.759C130.56 193.46 130.613 193.121 130.613 192.74C130.613 192.359 130.56 192.02 130.455 191.722C130.353 191.423 130.201 191.187 129.999 191.014C129.798 190.841 129.546 190.754 129.245 190.754C128.941 190.754 128.685 190.841 128.478 191.014C128.273 191.187 128.119 191.423 128.014 191.722C127.911 192.02 127.86 192.359 127.86 192.74C127.86 193.121 127.911 193.46 128.014 193.759C128.119 194.057 128.273 194.293 128.478 194.466C128.685 194.636 128.941 194.722 129.245 194.722ZM135.454 192.216V196H133.639V189.455H135.369V190.609H135.445C135.59 190.229 135.833 189.928 136.174 189.706C136.515 189.482 136.928 189.369 137.414 189.369C137.869 189.369 138.265 189.469 138.603 189.668C138.941 189.866 139.204 190.151 139.391 190.52C139.579 190.886 139.673 191.324 139.673 191.832V196H137.857V192.156C137.86 191.756 137.758 191.443 137.55 191.219C137.343 190.991 137.058 190.878 136.694 190.878C136.45 190.878 136.234 190.93 136.046 191.036C135.862 191.141 135.717 191.294 135.612 191.496C135.509 191.695 135.457 191.935 135.454 192.216ZM89.1771 202.273L91.2865 208.903H91.3674L93.4811 202.273H95.5265L92.518 211H90.1402L87.1274 202.273H89.1771ZM98.7875 211.128C98.1142 211.128 97.5347 210.991 97.0489 210.719C96.5659 210.443 96.1938 210.054 95.9324 209.551C95.671 209.045 95.5404 208.447 95.5404 207.757C95.5404 207.084 95.671 206.493 95.9324 205.984C96.1938 205.476 96.5617 205.08 97.0361 204.795C97.5134 204.511 98.073 204.369 98.7151 204.369C99.1469 204.369 99.5489 204.439 99.921 204.578C100.296 204.714 100.623 204.92 100.901 205.196C101.182 205.472 101.401 205.818 101.557 206.236C101.714 206.651 101.792 207.136 101.792 207.693V208.192H96.2648V207.067H100.083C100.083 206.805 100.026 206.574 99.9125 206.372C99.7989 206.17 99.6412 206.013 99.4395 205.899C99.2407 205.783 99.0091 205.724 98.7449 205.724C98.4693 205.724 98.225 205.788 98.012 205.916C97.8017 206.041 97.637 206.21 97.5176 206.423C97.3983 206.634 97.3372 206.868 97.3344 207.126V208.196C97.3344 208.52 97.3941 208.8 97.5134 209.036C97.6355 209.271 97.8074 209.453 98.029 209.581C98.2506 209.709 98.5134 209.773 98.8174 209.773C99.0191 209.773 99.2037 209.744 99.3713 209.688C99.5389 209.631 99.6824 209.545 99.8017 209.432C99.921 209.318 100.012 209.179 100.074 209.014L101.753 209.125C101.668 209.528 101.493 209.881 101.229 210.182C100.968 210.48 100.63 210.713 100.215 210.881C99.8032 211.045 99.3273 211.128 98.7875 211.128ZM105.934 211.128C105.263 211.128 104.687 210.986 104.204 210.702C103.724 210.415 103.354 210.017 103.096 209.509C102.84 209 102.712 208.415 102.712 207.753C102.712 207.082 102.842 206.494 103.1 205.989C103.361 205.48 103.732 205.084 104.212 204.8C104.692 204.513 105.263 204.369 105.925 204.369C106.496 204.369 106.996 204.473 107.425 204.68C107.854 204.888 108.194 205.179 108.444 205.554C108.694 205.929 108.832 206.369 108.857 206.875H107.144C107.096 206.548 106.968 206.286 106.761 206.087C106.556 205.885 106.288 205.784 105.955 205.784C105.674 205.784 105.428 205.861 105.218 206.014C105.011 206.165 104.849 206.385 104.732 206.675C104.616 206.964 104.557 207.315 104.557 207.727C104.557 208.145 104.614 208.5 104.728 208.793C104.844 209.085 105.008 209.308 105.218 209.462C105.428 209.615 105.674 209.692 105.955 209.692C106.163 209.692 106.349 209.649 106.513 209.564C106.681 209.479 106.819 209.355 106.927 209.193C107.038 209.028 107.11 208.831 107.144 208.601H108.857C108.829 209.101 108.692 209.541 108.448 209.922C108.207 210.3 107.873 210.595 107.447 210.808C107.02 211.021 106.516 211.128 105.934 211.128ZM113.501 204.455V205.818H109.559V204.455H113.501ZM110.454 202.886H112.269V208.989C112.269 209.156 112.295 209.287 112.346 209.381C112.397 209.472 112.468 209.536 112.559 209.572C112.653 209.609 112.761 209.628 112.883 209.628C112.968 209.628 113.054 209.621 113.139 209.607C113.224 209.589 113.289 209.577 113.335 209.568L113.62 210.919C113.529 210.947 113.402 210.98 113.237 211.017C113.072 211.057 112.872 211.081 112.636 211.089C112.198 211.107 111.815 211.048 111.485 210.915C111.159 210.781 110.904 210.574 110.723 210.293C110.541 210.011 110.451 209.656 110.454 209.227V202.886ZM117.571 211.128C116.909 211.128 116.336 210.987 115.853 210.706C115.373 210.422 115.002 210.027 114.741 209.521C114.48 209.013 114.349 208.423 114.349 207.753C114.349 207.077 114.48 206.486 114.741 205.98C115.002 205.472 115.373 205.077 115.853 204.795C116.336 204.511 116.909 204.369 117.571 204.369C118.232 204.369 118.804 204.511 119.284 204.795C119.767 205.077 120.139 205.472 120.4 205.98C120.661 206.486 120.792 207.077 120.792 207.753C120.792 208.423 120.661 209.013 120.4 209.521C120.139 210.027 119.767 210.422 119.284 210.706C118.804 210.987 118.232 211.128 117.571 211.128ZM117.579 209.722C117.88 209.722 118.132 209.636 118.333 209.466C118.535 209.293 118.687 209.057 118.789 208.759C118.894 208.46 118.947 208.121 118.947 207.74C118.947 207.359 118.894 207.02 118.789 206.722C118.687 206.423 118.535 206.187 118.333 206.014C118.132 205.841 117.88 205.754 117.579 205.754C117.275 205.754 117.019 205.841 116.812 206.014C116.607 206.187 116.453 206.423 116.348 206.722C116.245 207.02 116.194 207.359 116.194 207.74C116.194 208.121 116.245 208.46 116.348 208.759C116.453 209.057 116.607 209.293 116.812 209.466C117.019 209.636 117.275 209.722 117.579 209.722ZM121.973 211V204.455H123.732V205.597H123.801C123.92 205.19 124.12 204.884 124.402 204.676C124.683 204.466 125.007 204.361 125.373 204.361C125.464 204.361 125.562 204.366 125.667 204.378C125.772 204.389 125.865 204.405 125.944 204.425V206.036C125.859 206.01 125.741 205.987 125.59 205.967C125.44 205.947 125.302 205.938 125.177 205.938C124.91 205.938 124.671 205.996 124.461 206.112C124.254 206.226 124.089 206.385 123.967 206.589C123.848 206.794 123.788 207.03 123.788 207.297V211H121.973Z" fill="#0B0755"/>
</svg>
