<svg width="753" height="367" viewBox="0 0 753 367" fill="none" xmlns="http://www.w3.org/2000/svg">
<rect width="753" height="367" fill="white"/>
<path d="M262.5 177L252.5 171.226V182.774L262.5 177ZM221 177V178H253.5V177V176H221V177Z" fill="#0B0755"/>
<path d="M530.5 177L520.5 171.226V182.774L530.5 177ZM489 177V178H521.5V177V176H489V177Z" fill="#0B0755"/>
<path d="M458.023 107.734C470.914 123.286 479.117 142.183 481.674 162.22C484.231 182.258 481.037 202.609 472.464 220.899C463.891 239.19 450.294 254.665 433.258 265.519C416.222 276.374 396.451 282.159 376.251 282.201C356.051 282.243 336.256 276.539 319.176 265.755C302.095 254.972 288.433 239.553 279.785 221.298C271.137 203.043 267.858 182.705 270.332 162.658C272.806 142.61 280.931 123.679 293.757 108.074L306.098 118.218C295.196 131.482 288.29 147.574 286.187 164.614C284.084 181.655 286.871 198.942 294.222 214.459C301.573 229.975 313.185 243.081 327.704 252.247C342.222 261.413 359.048 266.262 376.218 266.226C393.388 266.19 410.193 261.273 424.674 252.047C439.154 242.82 450.712 229.666 457.999 214.12C465.286 198.573 468.001 181.274 465.827 164.242C463.654 147.211 456.682 131.148 445.724 117.929L458.023 107.734Z" fill="#A8D8E8"/>
<path d="M299.906 113.193C305.83 105.979 312.749 99.6432 320.456 94.3766L324.902 100.883C317.811 105.728 311.446 111.556 305.996 118.193L299.906 113.193Z" fill="#F38300"/>
<path d="M435.73 87.5071C444.088 93.1646 451.599 99.9814 458.038 107.753L451.478 113.189C445.554 106.039 438.643 99.7675 430.954 94.5626L435.73 87.5071Z" fill="#3A035D"/>
<path d="M346.004 176.201H342.91V167.474H346.029C346.907 167.474 347.663 167.649 348.296 167.998C348.93 168.345 349.417 168.843 349.758 169.494C350.102 170.144 350.274 170.923 350.274 171.829C350.274 172.738 350.102 173.519 349.758 174.173C349.417 174.826 348.927 175.328 348.288 175.677C347.652 176.026 346.89 176.201 346.004 176.201ZM344.755 174.62H345.927C346.473 174.62 346.931 174.524 347.304 174.33C347.679 174.134 347.96 173.832 348.147 173.423C348.338 173.011 348.433 172.48 348.433 171.829C348.433 171.184 348.338 170.657 348.147 170.248C347.96 169.839 347.68 169.538 347.308 169.345C346.936 169.151 346.477 169.055 345.931 169.055H344.755V174.62ZM354.589 176.329C353.916 176.329 353.337 176.193 352.851 175.92C352.368 175.644 351.996 175.255 351.734 174.752C351.473 174.247 351.342 173.649 351.342 172.958C351.342 172.285 351.473 171.694 351.734 171.186C351.996 170.677 352.364 170.281 352.838 169.997C353.315 169.713 353.875 169.57 354.517 169.57C354.949 169.57 355.351 169.64 355.723 169.779C356.098 169.916 356.425 170.122 356.703 170.397C356.984 170.673 357.203 171.019 357.359 171.437C357.516 171.852 357.594 172.338 357.594 172.894V173.393H352.067V172.268H355.885C355.885 172.007 355.828 171.775 355.714 171.573C355.601 171.372 355.443 171.214 355.241 171.1C355.043 170.984 354.811 170.926 354.547 170.926C354.271 170.926 354.027 170.99 353.814 171.117C353.604 171.242 353.439 171.411 353.32 171.624C353.2 171.835 353.139 172.069 353.136 172.328V173.397C353.136 173.721 353.196 174.001 353.315 174.237C353.437 174.472 353.609 174.654 353.831 174.782C354.053 174.91 354.315 174.974 354.619 174.974C354.821 174.974 355.006 174.945 355.173 174.889C355.341 174.832 355.484 174.747 355.604 174.633C355.723 174.519 355.814 174.38 355.876 174.215L357.555 174.326C357.47 174.73 357.295 175.082 357.031 175.383C356.77 175.681 356.432 175.914 356.017 176.082C355.605 176.247 355.129 176.329 354.589 176.329ZM364.224 171.522L362.562 171.624C362.534 171.482 362.473 171.355 362.379 171.241C362.285 171.124 362.162 171.032 362.009 170.964C361.858 170.893 361.678 170.857 361.467 170.857C361.186 170.857 360.949 170.917 360.756 171.036C360.562 171.153 360.466 171.309 360.466 171.505C360.466 171.661 360.528 171.794 360.653 171.901C360.778 172.009 360.993 172.096 361.297 172.161L362.482 172.4C363.118 172.531 363.592 172.741 363.905 173.031C364.217 173.32 364.374 173.701 364.374 174.173C364.374 174.602 364.247 174.978 363.994 175.302C363.744 175.626 363.401 175.879 362.963 176.061C362.528 176.24 362.027 176.329 361.459 176.329C360.592 176.329 359.902 176.149 359.388 175.788C358.876 175.424 358.577 174.93 358.489 174.305L360.274 174.211C360.328 174.475 360.459 174.677 360.666 174.816C360.874 174.953 361.139 175.021 361.463 175.021C361.781 175.021 362.037 174.96 362.23 174.838C362.426 174.713 362.526 174.552 362.528 174.356C362.526 174.191 362.456 174.056 362.32 173.951C362.183 173.843 361.973 173.761 361.689 173.704L360.555 173.478C359.916 173.35 359.44 173.129 359.128 172.813C358.818 172.498 358.663 172.096 358.663 171.607C358.663 171.187 358.777 170.825 359.004 170.521C359.234 170.217 359.557 169.982 359.972 169.818C360.389 169.653 360.878 169.57 361.437 169.57C362.264 169.57 362.915 169.745 363.389 170.095C363.866 170.444 364.145 170.92 364.224 171.522ZM368.998 169.656V171.019H365.056V169.656H368.998ZM365.951 168.088H367.767V174.19C367.767 174.357 367.792 174.488 367.843 174.582C367.895 174.673 367.966 174.737 368.056 174.774C368.15 174.811 368.258 174.829 368.38 174.829C368.466 174.829 368.551 174.822 368.636 174.808C368.721 174.791 368.787 174.778 368.832 174.769L369.118 176.12C369.027 176.149 368.899 176.181 368.734 176.218C368.569 176.258 368.369 176.282 368.133 176.291C367.696 176.308 367.312 176.249 366.983 176.116C366.656 175.982 366.402 175.775 366.22 175.494C366.038 175.213 365.948 174.857 365.951 174.428V168.088ZM370.181 176.201V169.656H371.996V176.201H370.181ZM371.093 168.812C370.823 168.812 370.591 168.722 370.398 168.544C370.208 168.362 370.113 168.144 370.113 167.892C370.113 167.642 370.208 167.427 370.398 167.248C370.591 167.066 370.823 166.975 371.093 166.975C371.363 166.975 371.593 167.066 371.783 167.248C371.976 167.427 372.073 167.642 372.073 167.892C372.073 168.144 371.976 168.362 371.783 168.544C371.593 168.722 371.363 168.812 371.093 168.812ZM375.266 172.417V176.201H373.45V169.656H375.18V170.811H375.257C375.402 170.43 375.645 170.129 375.986 169.907C376.327 169.683 376.74 169.57 377.226 169.57C377.68 169.57 378.077 169.67 378.415 169.869C378.753 170.068 379.016 170.352 379.203 170.721C379.391 171.088 379.484 171.525 379.484 172.034V176.201H377.669V172.357C377.672 171.957 377.57 171.644 377.362 171.42C377.155 171.193 376.869 171.079 376.506 171.079C376.261 171.079 376.045 171.132 375.858 171.237C375.673 171.342 375.528 171.495 375.423 171.697C375.321 171.896 375.268 172.136 375.266 172.417ZM382.782 176.325C382.364 176.325 381.992 176.252 381.665 176.107C381.338 175.96 381.08 175.742 380.89 175.455C380.702 175.166 380.608 174.805 380.608 174.373C380.608 174.009 380.675 173.704 380.809 173.457C380.942 173.21 381.124 173.011 381.354 172.86C381.584 172.71 381.846 172.596 382.138 172.519C382.434 172.443 382.743 172.389 383.067 172.357C383.448 172.318 383.755 172.281 383.988 172.247C384.221 172.21 384.39 172.156 384.495 172.085C384.6 172.014 384.652 171.909 384.652 171.769V171.744C384.652 171.474 384.567 171.265 384.397 171.117C384.229 170.97 383.99 170.896 383.681 170.896C383.354 170.896 383.094 170.968 382.901 171.113C382.708 171.255 382.58 171.434 382.517 171.65L380.838 171.514C380.924 171.116 381.091 170.772 381.341 170.482C381.591 170.19 381.914 169.965 382.309 169.809C382.706 169.65 383.167 169.57 383.689 169.57C384.053 169.57 384.401 169.613 384.733 169.698C385.069 169.784 385.365 169.916 385.624 170.095C385.885 170.274 386.091 170.504 386.242 170.785C386.392 171.063 386.468 171.397 386.468 171.786V176.201H384.746V175.294H384.695C384.59 175.498 384.449 175.678 384.273 175.835C384.097 175.988 383.885 176.109 383.638 176.197C383.391 176.282 383.105 176.325 382.782 176.325ZM383.301 175.072C383.569 175.072 383.804 175.019 384.009 174.914C384.213 174.806 384.374 174.661 384.49 174.48C384.607 174.298 384.665 174.092 384.665 173.862V173.167C384.608 173.204 384.53 173.238 384.431 173.269C384.334 173.298 384.225 173.325 384.103 173.35C383.98 173.373 383.858 173.394 383.736 173.414C383.614 173.431 383.503 173.447 383.404 173.461C383.191 173.492 383.005 173.542 382.846 173.61C382.686 173.678 382.563 173.771 382.475 173.887C382.387 174.001 382.343 174.143 382.343 174.313C382.343 174.561 382.432 174.749 382.611 174.88C382.793 175.008 383.023 175.072 383.301 175.072ZM391.358 169.656V171.019H387.416V169.656H391.358ZM388.311 168.088H390.126V174.19C390.126 174.357 390.152 174.488 390.203 174.582C390.254 174.673 390.325 174.737 390.416 174.774C390.51 174.811 390.618 174.829 390.74 174.829C390.825 174.829 390.91 174.822 390.995 174.808C391.081 174.791 391.146 174.778 391.191 174.769L391.477 176.12C391.386 176.149 391.258 176.181 391.093 176.218C390.929 176.258 390.728 176.282 390.493 176.291C390.055 176.308 389.671 176.249 389.342 176.116C389.015 175.982 388.761 175.775 388.579 175.494C388.397 175.213 388.308 174.857 388.311 174.428V168.088ZM392.54 176.201V169.656H394.355V176.201H392.54ZM393.452 168.812C393.182 168.812 392.951 168.722 392.757 168.544C392.567 168.362 392.472 168.144 392.472 167.892C392.472 167.642 392.567 167.427 392.757 167.248C392.951 167.066 393.182 166.975 393.452 166.975C393.722 166.975 393.952 167.066 394.142 167.248C394.336 167.427 394.432 167.642 394.432 167.892C394.432 168.144 394.336 168.362 394.142 168.544C393.952 168.722 393.722 168.812 393.452 168.812ZM398.767 176.329C398.105 176.329 397.533 176.188 397.05 175.907C396.57 175.623 396.199 175.228 395.937 174.722C395.676 174.214 395.545 173.624 395.545 172.954C395.545 172.278 395.676 171.687 395.937 171.181C396.199 170.673 396.57 170.278 397.05 169.997C397.533 169.713 398.105 169.57 398.767 169.57C399.429 169.57 400 169.713 400.48 169.997C400.963 170.278 401.335 170.673 401.597 171.181C401.858 171.687 401.989 172.278 401.989 172.954C401.989 173.624 401.858 174.214 401.597 174.722C401.335 175.228 400.963 175.623 400.48 175.907C400 176.188 399.429 176.329 398.767 176.329ZM398.776 174.923C399.077 174.923 399.328 174.838 399.53 174.667C399.732 174.494 399.884 174.258 399.986 173.96C400.091 173.661 400.143 173.322 400.143 172.941C400.143 172.561 400.091 172.221 399.986 171.923C399.884 171.624 399.732 171.389 399.53 171.215C399.328 171.042 399.077 170.955 398.776 170.955C398.472 170.955 398.216 171.042 398.009 171.215C397.804 171.389 397.649 171.624 397.544 171.923C397.442 172.221 397.391 172.561 397.391 172.941C397.391 173.322 397.442 173.661 397.544 173.96C397.649 174.258 397.804 174.494 398.009 174.667C398.216 174.838 398.472 174.923 398.776 174.923ZM404.984 172.417V176.201H403.169V169.656H404.899V170.811H404.976C405.121 170.43 405.364 170.129 405.705 169.907C406.045 169.683 406.459 169.57 406.945 169.57C407.399 169.57 407.795 169.67 408.134 169.869C408.472 170.068 408.734 170.352 408.922 170.721C409.109 171.088 409.203 171.525 409.203 172.034V176.201H407.388V172.357C407.391 171.957 407.288 171.644 407.081 171.42C406.874 171.193 406.588 171.079 406.224 171.079C405.98 171.079 405.764 171.132 405.577 171.237C405.392 171.342 405.247 171.495 405.142 171.697C405.04 171.896 404.987 172.136 404.984 172.417ZM358.708 182.474L360.817 189.105H360.898L363.012 182.474H365.057L362.048 191.201H359.671L356.658 182.474H358.708ZM368.318 191.329C367.645 191.329 367.065 191.193 366.579 190.92C366.096 190.644 365.724 190.255 365.463 189.752C365.202 189.247 365.071 188.649 365.071 187.958C365.071 187.285 365.202 186.694 365.463 186.186C365.724 185.677 366.092 185.281 366.567 184.997C367.044 184.713 367.603 184.57 368.246 184.57C368.677 184.57 369.079 184.64 369.452 184.779C369.827 184.916 370.153 185.122 370.432 185.397C370.713 185.673 370.932 186.019 371.088 186.437C371.244 186.852 371.322 187.338 371.322 187.894V188.393H365.795V187.268H369.613C369.613 187.007 369.557 186.775 369.443 186.573C369.329 186.372 369.172 186.214 368.97 186.1C368.771 185.984 368.54 185.926 368.275 185.926C368 185.926 367.755 185.99 367.542 186.117C367.332 186.242 367.167 186.411 367.048 186.624C366.929 186.835 366.868 187.069 366.865 187.328V188.397C366.865 188.721 366.925 189.001 367.044 189.237C367.166 189.472 367.338 189.654 367.559 189.782C367.781 189.91 368.044 189.974 368.348 189.974C368.55 189.974 368.734 189.945 368.902 189.889C369.069 189.832 369.213 189.747 369.332 189.633C369.452 189.519 369.542 189.38 369.605 189.215L371.284 189.326C371.199 189.73 371.024 190.082 370.76 190.383C370.498 190.681 370.16 190.914 369.746 191.082C369.334 191.247 368.858 191.329 368.318 191.329ZM375.464 191.329C374.794 191.329 374.217 191.187 373.734 190.903C373.254 190.616 372.885 190.218 372.626 189.71C372.371 189.201 372.243 188.616 372.243 187.954C372.243 187.284 372.372 186.695 372.63 186.19C372.892 185.681 373.263 185.285 373.743 185.001C374.223 184.714 374.794 184.57 375.456 184.57C376.027 184.57 376.527 184.674 376.956 184.882C377.385 185.089 377.724 185.38 377.974 185.755C378.224 186.13 378.362 186.57 378.388 187.076H376.675C376.626 186.749 376.498 186.487 376.291 186.288C376.086 186.086 375.818 185.985 375.486 185.985C375.204 185.985 374.959 186.062 374.748 186.215C374.541 186.366 374.379 186.586 374.263 186.876C374.146 187.166 374.088 187.517 374.088 187.928C374.088 188.346 374.145 188.701 374.258 188.994C374.375 189.286 374.538 189.509 374.748 189.663C374.959 189.816 375.204 189.893 375.486 189.893C375.693 189.893 375.879 189.85 376.044 189.765C376.211 189.68 376.349 189.556 376.457 189.394C376.568 189.23 376.64 189.032 376.675 188.802H378.388C378.359 189.302 378.223 189.742 377.978 190.123C377.737 190.501 377.403 190.796 376.977 191.009C376.551 191.222 376.047 191.329 375.464 191.329ZM383.031 184.656V186.019H379.09V184.656H383.031ZM379.985 183.088H381.8V189.19C381.8 189.357 381.825 189.488 381.877 189.582C381.928 189.673 381.999 189.737 382.09 189.774C382.183 189.811 382.291 189.829 382.414 189.829C382.499 189.829 382.584 189.822 382.669 189.808C382.754 189.791 382.82 189.778 382.865 189.769L383.151 191.12C383.06 191.149 382.932 191.181 382.767 191.218C382.602 191.258 382.402 191.282 382.166 191.291C381.729 191.308 381.345 191.249 381.016 191.116C380.689 190.982 380.435 190.775 380.253 190.494C380.071 190.213 379.982 189.857 379.985 189.428V183.088ZM387.101 191.329C386.439 191.329 385.867 191.188 385.384 190.907C384.904 190.623 384.533 190.228 384.271 189.722C384.01 189.214 383.879 188.624 383.879 187.954C383.879 187.278 384.01 186.687 384.271 186.181C384.533 185.673 384.904 185.278 385.384 184.997C385.867 184.713 386.439 184.57 387.101 184.57C387.763 184.57 388.334 184.713 388.814 184.997C389.297 185.278 389.669 185.673 389.931 186.181C390.192 186.687 390.323 187.278 390.323 187.954C390.323 188.624 390.192 189.214 389.931 189.722C389.669 190.228 389.297 190.623 388.814 190.907C388.334 191.188 387.763 191.329 387.101 191.329ZM387.11 189.923C387.411 189.923 387.662 189.838 387.864 189.667C388.065 189.494 388.217 189.258 388.32 188.96C388.425 188.661 388.477 188.322 388.477 187.941C388.477 187.561 388.425 187.221 388.32 186.923C388.217 186.624 388.065 186.389 387.864 186.215C387.662 186.042 387.411 185.955 387.11 185.955C386.806 185.955 386.55 186.042 386.342 186.215C386.138 186.389 385.983 186.624 385.878 186.923C385.776 187.221 385.725 187.561 385.725 187.941C385.725 188.322 385.776 188.661 385.878 188.96C385.983 189.258 386.138 189.494 386.342 189.667C386.55 189.838 386.806 189.923 387.11 189.923ZM391.503 191.201V184.656H393.263V185.798H393.331C393.45 185.392 393.651 185.085 393.932 184.877C394.213 184.667 394.537 184.562 394.904 184.562C394.994 184.562 395.092 184.568 395.198 184.579C395.303 184.59 395.395 184.606 395.475 184.626V186.237C395.389 186.211 395.271 186.188 395.121 186.169C394.97 186.149 394.833 186.139 394.708 186.139C394.44 186.139 394.202 186.197 393.992 186.313C393.784 186.427 393.619 186.586 393.497 186.791C393.378 186.995 393.318 187.231 393.318 187.498V191.201H391.503Z" fill="#0B0755"/>
<path d="M308.462 73.1248C327.631 59.5473 349.978 51.3579 373.249 49.3832L374.683 66.8911C354.437 68.609 334.994 75.7338 318.318 87.5463L308.462 73.1248Z" fill="#1E79B7"/>
<path d="M280.99 99.1662C288.892 89.2015 298.145 80.431 308.472 73.1177L313.778 80.8836C304.174 87.685 295.569 95.8416 288.22 105.109L280.99 99.1662Z" fill="#F38300"/>
<path d="M373.917 57.8911C380.331 57.3453 386.778 57.3073 393.198 57.7775L392.574 66.6172C386.603 66.1799 380.607 66.2152 374.642 66.7228L373.917 57.8911Z" fill="#F36464"/>
<path d="M314.428 51.6943L317.296 59.9371L315.56 60.5629L312.692 52.3202L314.428 51.6943ZM319.156 55.244L320.4 58.818L318.692 59.4337L316.541 53.2517L318.169 52.6648L318.548 53.7555L318.62 53.7295C318.632 53.3208 318.761 52.954 319.009 52.6291C319.256 52.3015 319.608 52.0553 320.065 51.8905C320.493 51.7364 320.898 51.6958 321.281 51.769C321.665 51.8422 322.005 52.0213 322.303 52.3066C322.6 52.5891 322.832 52.9705 322.999 53.4508L324.368 57.387L322.66 58.0028L321.398 54.3724C321.269 53.9931 321.07 53.7327 320.801 53.591C320.531 53.4467 320.225 53.4362 319.883 53.5596C319.653 53.6424 319.467 53.7653 319.326 53.9282C319.186 54.0901 319.1 54.2841 319.068 54.5103C319.037 54.7328 319.066 54.9774 319.156 55.244ZM329.3 50.6353L327.77 51.2956C327.697 51.1711 327.597 51.071 327.472 50.9955C327.345 50.9173 327.199 50.872 327.032 50.8597C326.867 50.8436 326.686 50.8713 326.488 50.9426C326.223 51.038 326.02 51.1748 325.877 51.353C325.734 51.5286 325.694 51.7089 325.759 51.894C325.81 52.0416 325.912 52.1452 326.065 52.2047C326.218 52.2643 326.449 52.2734 326.756 52.232L327.949 52.0556C328.59 51.9631 329.106 52.0008 329.495 52.1685C329.884 52.3362 330.156 52.6427 330.311 53.0881C330.452 53.4933 330.457 53.8917 330.325 54.2833C330.197 54.674 329.956 55.0294 329.604 55.3495C329.254 55.666 328.812 55.9206 328.278 56.1133C327.462 56.4072 326.754 56.471 326.152 56.3046C325.551 56.1346 325.107 55.7694 324.818 55.209L326.467 54.5148C326.605 54.746 326.794 54.8922 327.035 54.9534C327.275 55.0118 327.547 54.9861 327.852 54.8763C328.151 54.7683 328.372 54.6239 328.513 54.443C328.656 54.2585 328.697 54.0731 328.636 53.887C328.579 53.7324 328.469 53.6285 328.306 53.5755C328.142 53.5198 327.918 53.5133 327.632 53.556L326.491 53.7272C325.848 53.8232 325.327 53.7753 324.93 53.5835C324.535 53.3907 324.257 53.0635 324.097 52.602C323.958 52.2049 323.946 51.8243 324.06 51.4601C324.177 51.0949 324.403 50.7642 324.739 50.4679C325.078 50.1706 325.51 49.9271 326.037 49.7372C326.815 49.4568 327.484 49.4012 328.045 49.5703C328.609 49.7384 329.027 50.0934 329.3 50.6353ZM334.901 53.7251C334.268 53.9535 333.678 54.0213 333.131 53.9285C332.586 53.832 332.108 53.5907 331.697 53.2044C331.285 52.8154 330.966 52.2949 330.739 51.6429C330.518 51.007 330.446 50.4046 330.525 49.8356C330.604 49.2667 330.82 48.7676 331.173 48.3384C331.528 47.9082 332.008 47.5842 332.612 47.3664C333.018 47.2199 333.42 47.1493 333.815 47.1546C334.213 47.1562 334.588 47.2399 334.94 47.4057C335.296 47.5706 335.615 47.8237 335.899 48.1652C336.183 48.5039 336.416 48.9362 336.599 49.4621L336.763 49.933L331.563 51.8077L331.194 50.7452L334.785 49.4501C334.699 49.2033 334.57 49.0039 334.397 48.8519C334.224 48.6999 334.023 48.6045 333.796 48.5656C333.571 48.523 333.334 48.5466 333.086 48.6362C332.826 48.7296 332.618 48.8729 332.459 49.0659C332.302 49.2553 332.203 49.4708 332.161 49.7125C332.118 49.9515 332.137 50.1936 332.219 50.4387L332.571 51.449C332.677 51.7549 332.825 51.9989 333.015 52.1811C333.207 52.3624 333.429 52.4758 333.679 52.5214C333.93 52.567 334.198 52.5382 334.484 52.4351C334.674 52.3667 334.838 52.2773 334.977 52.1667C335.116 52.0562 335.223 51.9271 335.298 51.7793C335.373 51.6315 335.413 51.4692 335.417 51.2923L337.033 50.8275C337.085 51.2374 337.037 51.6294 336.887 52.0034C336.739 52.3738 336.498 52.7085 336.163 53.0075C335.829 53.3028 335.409 53.542 334.901 53.7251ZM338.8 52.1836L336.649 46.0015L338.305 45.4045L338.68 46.4832L338.744 46.4601C338.723 46.0359 338.81 45.6782 339.007 45.3869C339.202 45.093 339.472 44.8838 339.817 44.7595C339.903 44.7287 339.997 44.7008 340.099 44.6759C340.202 44.651 340.294 44.6344 340.375 44.6262L340.905 46.1476C340.816 46.1523 340.698 46.1709 340.549 46.2031C340.401 46.2354 340.268 46.2728 340.151 46.3152C339.9 46.4058 339.694 46.5417 339.535 46.723C339.377 46.9007 339.274 47.1068 339.227 47.3415C339.182 47.5751 339.203 47.8181 339.291 48.0703L340.507 51.5678L338.8 52.1836ZM344.852 43.0438L345.3 44.3318L341.592 45.6688L341.144 44.3808L344.852 43.0438ZM341.47 42.5962L343.178 41.9804L345.183 47.7439C345.238 47.9022 345.305 48.017 345.384 48.0882C345.462 48.1567 345.55 48.193 345.648 48.197C345.748 48.2001 345.855 48.1809 345.97 48.1395C346.051 48.1106 346.128 48.075 346.204 48.0326C346.279 47.9876 346.336 47.9534 346.376 47.9299L347.088 49.1089C347.012 49.1666 346.902 49.2408 346.76 49.3316C346.618 49.4251 346.437 49.5158 346.218 49.6038C345.812 49.7683 345.432 49.8434 345.078 49.8291C344.727 49.8138 344.42 49.7041 344.156 49.5002C343.893 49.2962 343.692 48.9912 343.554 48.585L341.47 42.5962ZM351.416 38.3579L354.283 46.6007L352.548 47.2265L350.256 40.638L350.207 40.6553L348.739 42.5165L348.201 40.971L349.784 38.9462L351.416 38.3579Z" fill="#0B0755"/>
<path d="M395.611 24.3077C418.703 25.9851 441.157 32.7671 461.412 44.1813L452.927 59.7868C434.9 49.6281 414.916 43.5921 394.364 42.0992L395.611 24.3077Z" fill="#1E79B7"/>
<path d="M461.365 44.1548C475.06 51.8669 487.565 61.592 498.475 73.0165L492.765 78.6682C482.4 67.8148 470.521 58.576 457.51 51.2495L461.365 44.1548Z" fill="#3A035D"/>
<path d="M371.846 34.6651C379.543 34.0101 387.278 33.9646 394.982 34.5288L394.452 42.0172C387.13 41.4809 379.777 41.5243 372.46 42.1468L371.846 34.6651Z" fill="#F36464"/>
<path d="M417.098 13.2968L414.311 21.5669L412.556 20.9972L415.343 12.7272L417.098 13.2968ZM418.658 18.9996L417.449 22.5855L415.722 22.025L417.813 15.8225L419.459 16.3566L419.09 17.451L419.163 17.4746C419.422 17.1586 419.749 16.9483 420.144 16.8435C420.54 16.7361 420.969 16.7574 421.431 16.9074C421.864 17.0477 422.209 17.2643 422.467 17.5571C422.725 17.8499 422.884 18.2002 422.945 18.6081C423.006 19.0133 422.955 19.4568 422.793 19.9387L421.462 23.8879L419.735 23.3275L420.963 19.6851C421.093 19.3064 421.096 18.9787 420.97 18.702C420.846 18.4226 420.61 18.2268 420.265 18.1145C420.032 18.0391 419.81 18.0222 419.598 18.064C419.389 18.1066 419.202 18.2072 419.038 18.3659C418.877 18.5228 418.75 18.734 418.658 18.9996ZM429.497 21.5772L427.884 21.161C427.902 21.0176 427.885 20.8776 427.832 20.741C427.78 20.6017 427.692 20.476 427.568 20.364C427.447 20.2503 427.287 20.1609 427.087 20.096C426.819 20.0092 426.575 19.9925 426.353 20.0459C426.132 20.0966 425.99 20.2149 425.928 20.4006C425.878 20.5487 425.895 20.6932 425.979 20.8341C426.064 20.975 426.24 21.1233 426.508 21.279L427.559 21.8709C428.122 22.1912 428.506 22.5369 428.711 22.908C428.916 23.279 428.943 23.688 428.792 24.1349C428.655 24.5414 428.415 24.8591 428.071 25.0879C427.729 25.3176 427.322 25.4511 426.848 25.4883C426.377 25.5237 425.871 25.4537 425.331 25.2783C424.507 25.0108 423.908 24.6267 423.534 24.1261C423.164 23.6236 423.037 23.0627 423.153 22.4432L424.881 22.9056C424.848 23.1727 424.908 23.4041 425.06 23.6001C425.214 23.7933 425.445 23.9399 425.753 24.0399C426.056 24.1382 426.318 24.1592 426.541 24.1031C426.767 24.0452 426.913 23.9238 426.979 23.7389C427.029 23.5819 427.005 23.4325 426.909 23.2908C426.814 23.1464 426.64 23.0034 426.388 22.8619L425.382 22.2979C424.815 21.9794 424.433 21.6225 424.237 21.2272C424.043 20.8328 424.024 20.4041 424.18 19.941C424.315 19.5426 424.538 19.2345 424.852 19.0166C425.168 18.7996 425.549 18.677 425.996 18.6489C426.446 18.6217 426.937 18.6945 427.47 18.8673C428.256 19.1225 428.819 19.4889 429.159 19.9665C429.501 20.445 429.614 20.9819 429.497 21.5772ZM432.028 27.452C431.388 27.2442 430.88 26.936 430.505 26.5276C430.134 26.1174 429.904 25.6337 429.816 25.0765C429.729 24.5166 429.796 23.9096 430.016 23.2554C430.231 22.6174 430.544 22.0978 430.955 21.6966C431.366 21.2954 431.843 21.0334 432.385 20.9107C432.93 20.7888 433.507 20.827 434.118 21.0252C434.529 21.1585 434.889 21.3486 435.198 21.5954C435.511 21.8404 435.756 22.1364 435.933 22.4835C436.113 22.8315 436.21 23.2274 436.225 23.6714C436.241 24.1127 436.16 24.5972 435.983 25.1248L435.823 25.5973L430.566 23.8909L430.926 22.8249L434.557 24.0036C434.641 23.756 434.661 23.519 434.617 23.2928C434.573 23.0666 434.474 22.8685 434.318 22.6985C434.166 22.5268 433.965 22.4001 433.713 22.3185C433.451 22.2335 433.198 22.2186 432.955 22.274C432.715 22.3275 432.504 22.4368 432.323 22.6019C432.142 22.7643 432.009 22.9675 431.924 23.2116L431.582 24.2252C431.479 24.5321 431.446 24.8157 431.484 25.0759C431.525 25.3371 431.631 25.5625 431.801 25.752C431.97 25.9416 432.2 26.0833 432.489 26.1771C432.681 26.2394 432.866 26.2695 433.043 26.2674C433.221 26.2653 433.385 26.2288 433.534 26.158C433.684 26.0871 433.815 25.9833 433.927 25.8464L435.489 26.4698C435.279 26.8257 435 27.1056 434.653 27.3094C434.309 27.5114 433.913 27.6278 433.465 27.6585C433.02 27.6875 432.541 27.6187 432.028 27.452ZM436.053 28.6241L438.144 22.4216L439.818 22.9649L439.453 24.0471L439.518 24.0682C439.761 23.7201 440.05 23.4912 440.383 23.3815C440.718 23.2691 441.06 23.2695 441.408 23.3826C441.495 23.4107 441.586 23.4463 441.682 23.4895C441.779 23.5327 441.862 23.5761 441.931 23.6195L441.416 25.1459C441.344 25.0953 441.239 25.0374 441.102 24.9721C440.965 24.9067 440.837 24.8548 440.718 24.8162C440.464 24.7337 440.219 24.7153 439.981 24.7607C439.748 24.8044 439.54 24.9043 439.359 25.0604C439.18 25.2174 439.048 25.4224 438.963 25.6755L437.78 29.1846L436.053 28.6241ZM446.438 25.1136L446.002 26.4058L442.253 25.1889L442.688 23.8967L446.438 25.1136ZM444.041 22.687L445.767 23.2474L443.818 29.03C443.764 29.1888 443.747 29.3205 443.766 29.4252C443.785 29.5271 443.832 29.6096 443.907 29.6727C443.985 29.7366 444.081 29.7874 444.197 29.8251C444.279 29.8515 444.362 29.871 444.447 29.8839C444.534 29.8941 444.6 29.9021 444.646 29.9081L444.486 31.2763C444.391 31.2752 444.259 31.2666 444.09 31.2508C443.921 31.2376 443.723 31.1986 443.496 31.1339C443.074 31.015 442.728 30.8414 442.457 30.6131C442.189 30.3857 442.013 30.1107 441.93 29.7881C441.847 29.4654 441.875 29.1013 442.015 28.6957L444.041 22.687ZM448.097 32.5335L448.522 31.2736L452.395 29.5069C452.728 29.3462 453.013 29.1965 453.248 29.058C453.486 28.9203 453.682 28.773 453.833 28.6162C453.986 28.4567 454.099 28.2679 454.173 28.0499C454.254 27.8076 454.269 27.581 454.217 27.37C454.167 27.1564 454.061 26.9713 453.901 26.8148C453.742 26.6556 453.541 26.5366 453.297 26.4576C453.043 26.3752 452.805 26.3544 452.581 26.3953C452.357 26.4362 452.162 26.5356 451.995 26.6934C451.828 26.8512 451.7 27.062 451.611 27.3258L449.945 26.7851C450.127 26.244 450.409 25.8142 450.789 25.4956C451.169 25.1769 451.617 24.9805 452.134 24.9063C452.651 24.8321 453.198 24.8888 453.776 25.0765C454.371 25.2695 454.853 25.5424 455.223 25.8954C455.596 26.2465 455.843 26.6464 455.965 27.095C456.086 27.5436 456.067 28.0062 455.906 28.4827C455.801 28.795 455.635 29.083 455.408 29.3469C455.184 29.6116 454.853 29.8789 454.414 30.1487C453.976 30.4157 453.385 30.7152 452.641 31.047L451.03 31.8368L451.011 31.8933L454.497 33.0247L454.015 34.4542L448.097 32.5335Z" fill="#0B0755"/>
<path d="M188.493 107.533C201.384 123.085 209.586 141.982 212.143 162.019C214.7 182.056 211.506 202.408 202.933 220.698C194.361 238.989 180.763 254.464 163.727 265.318C146.692 276.172 126.92 281.958 106.72 282C86.5207 282.042 66.7255 276.338 49.645 265.554C32.5645 254.771 18.9029 239.352 10.2546 221.097C1.60627 202.842 -1.6722 182.504 0.801775 162.456C3.27575 142.409 11.4001 123.478 24.2269 107.873L36.5678 118.017C25.6651 131.281 18.7594 147.372 16.6565 164.413C14.5536 181.454 17.3403 198.741 24.6914 214.257C32.0425 229.774 43.6548 242.88 58.1733 252.046C72.6917 261.212 89.5176 266.06 106.687 266.025C123.857 265.989 140.663 261.072 155.143 251.845C169.624 242.619 181.182 229.465 188.468 213.918C195.755 198.371 198.47 181.073 196.297 164.041C194.123 147.009 187.151 130.947 176.194 117.728L188.493 107.533Z" fill="#A8D8E8"/>
<path d="M76.4734 176H73.3796V167.273H76.4989C77.3768 167.273 78.1325 167.447 78.766 167.797C79.3995 168.143 79.8867 168.642 80.2276 169.293C80.5714 169.943 80.7433 170.722 80.7433 171.628C80.7433 172.537 80.5714 173.318 80.2276 173.972C79.8867 174.625 79.3967 175.126 78.7575 175.476C78.1211 175.825 77.3597 176 76.4734 176ZM75.2248 174.419H76.3967C76.9421 174.419 77.4009 174.322 77.7731 174.129C78.1481 173.933 78.4293 173.631 78.6168 173.222C78.8072 172.81 78.9023 172.278 78.9023 171.628C78.9023 170.983 78.8072 170.456 78.6168 170.047C78.4293 169.638 78.1495 169.337 77.7773 169.143C77.4052 168.95 76.9464 168.854 76.4009 168.854H75.2248V174.419ZM85.0589 176.128C84.3857 176.128 83.8061 175.991 83.3203 175.719C82.8374 175.443 82.4652 175.054 82.2038 174.551C81.9425 174.045 81.8118 173.447 81.8118 172.757C81.8118 172.084 81.9425 171.493 82.2038 170.984C82.4652 170.476 82.8331 170.08 83.3075 169.795C83.7848 169.511 84.3445 169.369 84.9865 169.369C85.4183 169.369 85.8203 169.439 86.1925 169.578C86.5675 169.714 86.8942 169.92 87.1726 170.196C87.4538 170.472 87.6726 170.818 87.8288 171.236C87.9851 171.651 88.0632 172.136 88.0632 172.693V173.192H82.5362V172.067H86.3544C86.3544 171.805 86.2976 171.574 86.1839 171.372C86.0703 171.17 85.9126 171.013 85.7109 170.899C85.5121 170.783 85.2805 170.724 85.0163 170.724C84.7408 170.724 84.4964 170.788 84.2834 170.916C84.0732 171.041 83.9084 171.21 83.7891 171.423C83.6697 171.634 83.6087 171.868 83.6058 172.126V173.196C83.6058 173.52 83.6655 173.8 83.7848 174.036C83.907 174.271 84.0788 174.453 84.3004 174.581C84.522 174.709 84.7848 174.773 85.0888 174.773C85.2905 174.773 85.4751 174.744 85.6428 174.688C85.8104 174.631 85.9538 174.545 86.0732 174.432C86.1925 174.318 86.2834 174.179 86.3459 174.014L88.0249 174.125C87.9396 174.528 87.7649 174.881 87.5007 175.182C87.2393 175.48 86.9013 175.713 86.4865 175.881C86.0746 176.045 85.5987 176.128 85.0589 176.128ZM94.6939 171.321L93.032 171.423C93.0036 171.281 92.9425 171.153 92.8487 171.04C92.755 170.923 92.6314 170.831 92.478 170.763C92.3274 170.692 92.147 170.656 91.9368 170.656C91.6555 170.656 91.4183 170.716 91.2251 170.835C91.032 170.952 90.9354 171.108 90.9354 171.304C90.9354 171.46 90.9979 171.592 91.1229 171.7C91.2479 171.808 91.4624 171.895 91.7663 171.96L92.951 172.199C93.5874 172.33 94.0618 172.54 94.3743 172.83C94.6868 173.119 94.843 173.5 94.843 173.972C94.843 174.401 94.7166 174.777 94.4638 175.101C94.2138 175.425 93.87 175.678 93.4325 175.859C92.9979 176.038 92.4964 176.128 91.9283 176.128C91.0618 176.128 90.3714 175.947 89.8572 175.587C89.3459 175.223 89.0462 174.729 88.9581 174.104L90.7436 174.01C90.7976 174.274 90.9283 174.476 91.1357 174.615C91.343 174.751 91.6087 174.82 91.9325 174.82C92.2507 174.82 92.5064 174.759 92.6996 174.636C92.8956 174.511 92.995 174.351 92.9979 174.155C92.995 173.99 92.9254 173.855 92.7891 173.75C92.6527 173.642 92.4425 173.56 92.1584 173.503L91.0249 173.277C90.3857 173.149 89.9098 172.928 89.5973 172.612C89.2876 172.297 89.1328 171.895 89.1328 171.406C89.1328 170.986 89.2464 170.624 89.4737 170.32C89.7038 170.016 90.0263 169.781 90.4411 169.616C90.8587 169.452 91.3473 169.369 91.907 169.369C92.7337 169.369 93.3842 169.544 93.8587 169.893C94.3359 170.243 94.6143 170.719 94.6939 171.321ZM99.4677 169.455V170.818H95.5259V169.455H99.4677ZM96.4208 167.886H98.2362V173.989C98.2362 174.156 98.2617 174.287 98.3129 174.381C98.364 174.472 98.435 174.536 98.5259 174.572C98.6197 174.609 98.7276 174.628 98.8498 174.628C98.935 174.628 99.0202 174.621 99.1055 174.607C99.1907 174.589 99.256 174.577 99.3015 174.568L99.587 175.919C99.4961 175.947 99.3683 175.98 99.2035 176.017C99.0387 176.057 98.8384 176.081 98.6026 176.089C98.1651 176.107 97.7816 176.048 97.4521 175.915C97.1254 175.781 96.8711 175.574 96.6893 175.293C96.5075 175.011 96.418 174.656 96.4208 174.227V167.886ZM100.65 176V169.455H102.466V176H100.65ZM101.562 168.611C101.292 168.611 101.061 168.521 100.868 168.342C100.677 168.161 100.582 167.943 100.582 167.69C100.582 167.44 100.677 167.226 100.868 167.047C101.061 166.865 101.292 166.774 101.562 166.774C101.832 166.774 102.062 166.865 102.252 167.047C102.446 167.226 102.542 167.44 102.542 167.69C102.542 167.943 102.446 168.161 102.252 168.342C102.062 168.521 101.832 168.611 101.562 168.611ZM105.735 172.216V176H103.92V169.455H105.65V170.609H105.727C105.871 170.229 106.114 169.928 106.455 169.706C106.796 169.482 107.21 169.369 107.695 169.369C108.15 169.369 108.546 169.469 108.884 169.668C109.222 169.866 109.485 170.151 109.673 170.52C109.86 170.886 109.954 171.324 109.954 171.832V176H108.138V172.156C108.141 171.756 108.039 171.443 107.832 171.219C107.624 170.991 107.339 170.878 106.975 170.878C106.731 170.878 106.515 170.93 106.327 171.036C106.143 171.141 105.998 171.294 105.893 171.496C105.79 171.695 105.738 171.935 105.735 172.216ZM113.251 176.124C112.833 176.124 112.461 176.051 112.135 175.906C111.808 175.759 111.549 175.541 111.359 175.254C111.172 174.964 111.078 174.604 111.078 174.172C111.078 173.808 111.145 173.503 111.278 173.256C111.412 173.009 111.593 172.81 111.824 172.659C112.054 172.509 112.315 172.395 112.608 172.318C112.903 172.241 113.213 172.188 113.537 172.156C113.917 172.116 114.224 172.08 114.457 172.045C114.69 172.009 114.859 171.955 114.964 171.884C115.069 171.812 115.122 171.707 115.122 171.568V171.543C115.122 171.273 115.037 171.064 114.866 170.916C114.699 170.768 114.46 170.695 114.15 170.695C113.824 170.695 113.564 170.767 113.37 170.912C113.177 171.054 113.049 171.233 112.987 171.449L111.308 171.312C111.393 170.915 111.561 170.571 111.811 170.281C112.061 169.989 112.383 169.764 112.778 169.608C113.176 169.449 113.636 169.369 114.159 169.369C114.522 169.369 114.87 169.412 115.203 169.497C115.538 169.582 115.835 169.714 116.093 169.893C116.355 170.072 116.561 170.303 116.711 170.584C116.862 170.862 116.937 171.196 116.937 171.585V176H115.216V175.092H115.164C115.059 175.297 114.919 175.477 114.743 175.634C114.566 175.787 114.355 175.908 114.108 175.996C113.86 176.081 113.575 176.124 113.251 176.124ZM113.771 174.871C114.038 174.871 114.274 174.818 114.478 174.713C114.683 174.605 114.843 174.46 114.96 174.278C115.076 174.097 115.135 173.891 115.135 173.661V172.966C115.078 173.003 115 173.037 114.9 173.068C114.804 173.097 114.694 173.124 114.572 173.149C114.45 173.172 114.328 173.193 114.206 173.213C114.083 173.23 113.973 173.246 113.873 173.26C113.66 173.291 113.474 173.341 113.315 173.409C113.156 173.477 113.032 173.57 112.944 173.686C112.856 173.8 112.812 173.942 112.812 174.112C112.812 174.359 112.902 174.548 113.081 174.679C113.262 174.807 113.493 174.871 113.771 174.871ZM121.827 169.455V170.818H117.885V169.455H121.827ZM118.78 167.886H120.596V173.989C120.596 174.156 120.621 174.287 120.672 174.381C120.723 174.472 120.794 174.536 120.885 174.572C120.979 174.609 121.087 174.628 121.209 174.628C121.294 174.628 121.38 174.621 121.465 174.607C121.55 174.589 121.615 174.577 121.661 174.568L121.946 175.919C121.855 175.947 121.728 175.98 121.563 176.017C121.398 176.057 121.198 176.081 120.962 176.089C120.525 176.107 120.141 176.048 119.811 175.915C119.485 175.781 119.23 175.574 119.049 175.293C118.867 175.011 118.777 174.656 118.78 174.227V167.886ZM123.01 176V169.455H124.825V176H123.01ZM123.922 168.611C123.652 168.611 123.42 168.521 123.227 168.342C123.037 168.161 122.941 167.943 122.941 167.69C122.941 167.44 123.037 167.226 123.227 167.047C123.42 166.865 123.652 166.774 123.922 166.774C124.191 166.774 124.422 166.865 124.612 167.047C124.805 167.226 124.902 167.44 124.902 167.69C124.902 167.943 124.805 168.161 124.612 168.342C124.422 168.521 124.191 168.611 123.922 168.611ZM129.237 176.128C128.575 176.128 128.002 175.987 127.519 175.706C127.039 175.422 126.668 175.027 126.407 174.521C126.146 174.013 126.015 173.423 126.015 172.753C126.015 172.077 126.146 171.486 126.407 170.98C126.668 170.472 127.039 170.077 127.519 169.795C128.002 169.511 128.575 169.369 129.237 169.369C129.898 169.369 130.469 169.511 130.95 169.795C131.433 170.077 131.805 170.472 132.066 170.98C132.327 171.486 132.458 172.077 132.458 172.753C132.458 173.423 132.327 174.013 132.066 174.521C131.805 175.027 131.433 175.422 130.95 175.706C130.469 175.987 129.898 176.128 129.237 176.128ZM129.245 174.722C129.546 174.722 129.798 174.636 129.999 174.466C130.201 174.293 130.353 174.057 130.455 173.759C130.56 173.46 130.613 173.121 130.613 172.74C130.613 172.359 130.56 172.02 130.455 171.722C130.353 171.423 130.201 171.187 129.999 171.014C129.798 170.841 129.546 170.754 129.245 170.754C128.941 170.754 128.685 170.841 128.478 171.014C128.273 171.187 128.119 171.423 128.013 171.722C127.911 172.02 127.86 172.359 127.86 172.74C127.86 173.121 127.911 173.46 128.013 173.759C128.119 174.057 128.273 174.293 128.478 174.466C128.685 174.636 128.941 174.722 129.245 174.722ZM135.454 172.216V176H133.638V169.455H135.369V170.609H135.445C135.59 170.229 135.833 169.928 136.174 169.706C136.515 169.482 136.928 169.369 137.414 169.369C137.869 169.369 138.265 169.469 138.603 169.668C138.941 169.866 139.204 170.151 139.391 170.52C139.579 170.886 139.673 171.324 139.673 171.832V176H137.857V172.156C137.86 171.756 137.758 171.443 137.55 171.219C137.343 170.991 137.058 170.878 136.694 170.878C136.45 170.878 136.234 170.93 136.046 171.036C135.862 171.141 135.717 171.294 135.612 171.496C135.509 171.695 135.457 171.935 135.454 172.216ZM89.177 182.273L91.2864 188.903H91.3674L93.481 182.273H95.5265L92.5179 191H90.1401L87.1273 182.273H89.177ZM98.7875 191.128C98.1142 191.128 97.5346 190.991 97.0488 190.719C96.5659 190.443 96.1937 190.054 95.9324 189.551C95.671 189.045 95.5403 188.447 95.5403 187.757C95.5403 187.084 95.671 186.493 95.9324 185.984C96.1937 185.476 96.5616 185.08 97.036 184.795C97.5133 184.511 98.073 184.369 98.715 184.369C99.1468 184.369 99.5488 184.439 99.921 184.578C100.296 184.714 100.623 184.92 100.901 185.196C101.182 185.472 101.401 185.818 101.557 186.236C101.714 186.651 101.792 187.136 101.792 187.693V188.192H96.2647V187.067H100.083C100.083 186.805 100.026 186.574 99.9125 186.372C99.7988 186.17 99.6412 186.013 99.4395 185.899C99.2406 185.783 99.0091 185.724 98.7449 185.724C98.4693 185.724 98.225 185.788 98.0119 185.916C97.8017 186.041 97.6369 186.21 97.5176 186.423C97.3983 186.634 97.3372 186.868 97.3343 187.126V188.196C97.3343 188.52 97.394 188.8 97.5133 189.036C97.6355 189.271 97.8074 189.453 98.0289 189.581C98.2505 189.709 98.5133 189.773 98.8173 189.773C99.019 189.773 99.2037 189.744 99.3713 189.688C99.5389 189.631 99.6824 189.545 99.8017 189.432C99.921 189.318 100.012 189.179 100.074 189.014L101.753 189.125C101.668 189.528 101.493 189.881 101.229 190.182C100.968 190.48 100.63 190.713 100.215 190.881C99.8031 191.045 99.3272 191.128 98.7875 191.128ZM105.934 191.128C105.263 191.128 104.687 190.986 104.204 190.702C103.724 190.415 103.354 190.017 103.096 189.509C102.84 189 102.712 188.415 102.712 187.753C102.712 187.082 102.841 186.494 103.1 185.989C103.361 185.48 103.732 185.084 104.212 184.8C104.692 184.513 105.263 184.369 105.925 184.369C106.496 184.369 106.996 184.473 107.425 184.68C107.854 184.888 108.194 185.179 108.444 185.554C108.694 185.929 108.831 186.369 108.857 186.875H107.144C107.096 186.548 106.968 186.286 106.76 186.087C106.556 185.885 106.287 185.784 105.955 185.784C105.674 185.784 105.428 185.861 105.218 186.014C105.01 186.165 104.849 186.385 104.732 186.675C104.616 186.964 104.557 187.315 104.557 187.727C104.557 188.145 104.614 188.5 104.728 188.793C104.844 189.085 105.008 189.308 105.218 189.462C105.428 189.615 105.674 189.692 105.955 189.692C106.162 189.692 106.349 189.649 106.513 189.564C106.681 189.479 106.819 189.355 106.927 189.193C107.037 189.028 107.11 188.831 107.144 188.601H108.857C108.829 189.101 108.692 189.541 108.448 189.922C108.206 190.3 107.873 190.595 107.447 190.808C107.02 191.021 106.516 191.128 105.934 191.128ZM113.501 184.455V185.818H109.559V184.455H113.501ZM110.454 182.886H112.269V188.989C112.269 189.156 112.295 189.287 112.346 189.381C112.397 189.472 112.468 189.536 112.559 189.572C112.653 189.609 112.761 189.628 112.883 189.628C112.968 189.628 113.053 189.621 113.139 189.607C113.224 189.589 113.289 189.577 113.335 189.568L113.62 190.919C113.529 190.947 113.401 190.98 113.237 191.017C113.072 191.057 112.872 191.081 112.636 191.089C112.198 191.107 111.815 191.048 111.485 190.915C111.159 190.781 110.904 190.574 110.722 190.293C110.541 190.011 110.451 189.656 110.454 189.227V182.886ZM117.57 191.128C116.909 191.128 116.336 190.987 115.853 190.706C115.373 190.422 115.002 190.027 114.741 189.521C114.48 189.013 114.349 188.423 114.349 187.753C114.349 187.077 114.48 186.486 114.741 185.98C115.002 185.472 115.373 185.077 115.853 184.795C116.336 184.511 116.909 184.369 117.57 184.369C118.232 184.369 118.803 184.511 119.284 184.795C119.767 185.077 120.139 185.472 120.4 185.98C120.661 186.486 120.792 187.077 120.792 187.753C120.792 188.423 120.661 189.013 120.4 189.521C120.139 190.027 119.767 190.422 119.284 190.706C118.803 190.987 118.232 191.128 117.57 191.128ZM117.579 189.722C117.88 189.722 118.132 189.636 118.333 189.466C118.535 189.293 118.687 189.057 118.789 188.759C118.894 188.46 118.947 188.121 118.947 187.74C118.947 187.359 118.894 187.02 118.789 186.722C118.687 186.423 118.535 186.187 118.333 186.014C118.132 185.841 117.88 185.754 117.579 185.754C117.275 185.754 117.019 185.841 116.812 186.014C116.607 186.187 116.453 186.423 116.347 186.722C116.245 187.02 116.194 187.359 116.194 187.74C116.194 188.121 116.245 188.46 116.347 188.759C116.453 189.057 116.607 189.293 116.812 189.466C117.019 189.636 117.275 189.722 117.579 189.722ZM121.972 191V184.455H123.732V185.597H123.801C123.92 185.19 124.12 184.884 124.401 184.676C124.683 184.466 125.007 184.361 125.373 184.361C125.464 184.361 125.562 184.366 125.667 184.378C125.772 184.389 125.865 184.405 125.944 184.425V186.036C125.859 186.01 125.741 185.987 125.59 185.967C125.44 185.947 125.302 185.938 125.177 185.938C124.91 185.938 124.671 185.996 124.461 186.112C124.254 186.226 124.089 186.385 123.967 186.589C123.847 186.794 123.788 187.03 123.788 187.297V191H121.972Z" fill="#0B0755"/>
<path d="M728.493 107.033C741.384 122.585 749.586 141.482 752.143 161.519C754.7 181.556 751.506 201.908 742.933 220.198C734.361 238.489 720.763 253.964 703.727 264.818C686.692 275.672 666.92 281.458 646.72 281.5C626.521 281.542 606.726 275.838 589.645 265.054C572.564 254.271 558.903 238.852 550.255 220.597C541.606 202.342 538.328 182.004 540.802 161.956C543.276 141.909 551.4 122.978 564.227 107.373L576.568 117.517C565.665 130.781 558.759 146.872 556.657 163.913C554.554 180.954 557.34 198.241 564.691 213.757C572.042 229.274 583.655 242.38 598.173 251.546C612.692 260.712 629.518 265.56 646.687 265.525C663.857 265.489 680.663 260.572 695.143 251.345C709.624 242.119 721.182 228.965 728.468 213.418C735.755 197.871 738.47 180.573 736.297 163.541C734.123 146.509 727.151 130.447 716.194 117.228L728.493 107.033Z" fill="#A8D8E8"/>
<path d="M564.005 107.644C573.964 95.4467 586.503 85.6098 600.721 78.8413C614.938 72.0728 630.479 68.5411 646.225 68.5004C661.971 68.4596 677.53 71.911 691.782 78.6059C706.034 85.3008 718.624 95.0726 728.645 107.218L716.323 117.385C707.805 107.062 697.103 98.7557 684.989 93.065C672.875 87.3743 659.65 84.4407 646.266 84.4753C632.882 84.5099 619.672 87.5119 607.587 93.2651C595.503 99.0184 584.844 107.38 576.38 117.747L564.005 107.644Z" fill="#1E79B7"/>
<path d="M564.047 107.593C568.285 102.408 573.003 97.635 578.138 93.3365L588.393 105.586C584.028 109.24 580.018 113.297 576.415 117.704L564.047 107.593Z" fill="#F38300"/>
<path d="M714.553 93.0795C719.705 97.3586 724.44 102.114 728.698 107.282L716.369 117.44C712.749 113.047 708.724 109.005 704.345 105.368L714.553 93.0795Z" fill="#3A035D"/>
<path d="M637.035 68.9214C643.705 68.3263 650.416 68.3616 657.08 69.0268L655.493 84.9228C649.829 84.3573 644.124 84.3273 638.455 84.8332L637.035 68.9214Z" fill="#F36464"/>
<path d="M608.61 182.5V173.773H614.388V175.294H610.455V177.374H614.005V178.895H610.455V182.5H608.61ZM615.596 182.5V175.955H617.411V182.5H615.596ZM616.507 175.111C616.238 175.111 616.006 175.021 615.813 174.842C615.623 174.661 615.527 174.443 615.527 174.19C615.527 173.94 615.623 173.726 615.813 173.547C616.006 173.365 616.238 173.274 616.507 173.274C616.777 173.274 617.007 173.365 617.198 173.547C617.391 173.726 617.488 173.94 617.488 174.19C617.488 174.443 617.391 174.661 617.198 174.842C617.007 175.021 616.777 175.111 616.507 175.111ZM620.68 178.716V182.5H618.865V175.955H620.595V177.109H620.672C620.817 176.729 621.06 176.428 621.401 176.206C621.741 175.982 622.155 175.869 622.641 175.869C623.095 175.869 623.491 175.969 623.83 176.168C624.168 176.366 624.43 176.651 624.618 177.02C624.805 177.386 624.899 177.824 624.899 178.332V182.5H623.084V178.656C623.087 178.256 622.984 177.943 622.777 177.719C622.57 177.491 622.284 177.378 621.92 177.378C621.676 177.378 621.46 177.43 621.273 177.536C621.088 177.641 620.943 177.794 620.838 177.996C620.736 178.195 620.683 178.435 620.68 178.716ZM628.196 182.624C627.779 182.624 627.407 182.551 627.08 182.406C626.753 182.259 626.495 182.041 626.304 181.754C626.117 181.464 626.023 181.104 626.023 180.672C626.023 180.308 626.09 180.003 626.223 179.756C626.357 179.509 626.539 179.31 626.769 179.159C626.999 179.009 627.26 178.895 627.553 178.818C627.848 178.741 628.158 178.688 628.482 178.656C628.863 178.616 629.169 178.58 629.402 178.545C629.635 178.509 629.804 178.455 629.909 178.384C630.015 178.312 630.067 178.207 630.067 178.068V178.043C630.067 177.773 629.982 177.564 629.811 177.416C629.644 177.268 629.405 177.195 629.096 177.195C628.769 177.195 628.509 177.267 628.316 177.412C628.123 177.554 627.995 177.733 627.932 177.949L626.253 177.812C626.338 177.415 626.506 177.071 626.756 176.781C627.006 176.489 627.328 176.264 627.723 176.108C628.121 175.949 628.581 175.869 629.104 175.869C629.468 175.869 629.816 175.912 630.148 175.997C630.483 176.082 630.78 176.214 631.039 176.393C631.3 176.572 631.506 176.803 631.657 177.084C631.807 177.362 631.882 177.696 631.882 178.085V182.5H630.161V181.592H630.11C630.005 181.797 629.864 181.977 629.688 182.134C629.512 182.287 629.3 182.408 629.053 182.496C628.806 182.581 628.52 182.624 628.196 182.624ZM628.716 181.371C628.983 181.371 629.219 181.318 629.424 181.213C629.628 181.105 629.789 180.96 629.905 180.778C630.022 180.597 630.08 180.391 630.08 180.161V179.466C630.023 179.503 629.945 179.537 629.846 179.568C629.749 179.597 629.64 179.624 629.517 179.649C629.395 179.672 629.273 179.693 629.151 179.713C629.029 179.73 628.918 179.746 628.819 179.76C628.605 179.791 628.419 179.841 628.26 179.909C628.101 179.977 627.978 180.07 627.89 180.186C627.801 180.3 627.757 180.442 627.757 180.612C627.757 180.859 627.847 181.048 628.026 181.179C628.208 181.307 628.438 181.371 628.716 181.371ZM635.106 173.773V182.5H633.291V173.773H635.106ZM639.372 182.5V173.773H642.815C643.477 173.773 644.041 173.899 644.507 174.152C644.973 174.402 645.328 174.75 645.572 175.196C645.819 175.639 645.943 176.151 645.943 176.73C645.943 177.31 645.818 177.821 645.568 178.264C645.318 178.707 644.956 179.053 644.481 179.3C644.01 179.547 643.439 179.67 642.768 179.67H640.574V178.192H642.47C642.825 178.192 643.118 178.131 643.348 178.009C643.581 177.884 643.754 177.712 643.868 177.493C643.984 177.271 644.042 177.017 644.042 176.73C644.042 176.44 643.984 176.187 643.868 175.972C643.754 175.753 643.581 175.584 643.348 175.464C643.115 175.342 642.819 175.281 642.461 175.281H641.217V182.5H639.372ZM647.107 182.5V175.955H648.867V177.097H648.935C649.055 176.69 649.255 176.384 649.536 176.176C649.817 175.966 650.141 175.861 650.508 175.861C650.599 175.861 650.697 175.866 650.802 175.878C650.907 175.889 650.999 175.905 651.079 175.925V177.536C650.994 177.51 650.876 177.487 650.725 177.467C650.575 177.447 650.437 177.438 650.312 177.438C650.045 177.438 649.806 177.496 649.596 177.612C649.388 177.726 649.224 177.885 649.102 178.089C648.982 178.294 648.923 178.53 648.923 178.797V182.5H647.107ZM654.67 182.628C654.008 182.628 653.436 182.487 652.953 182.206C652.473 181.922 652.102 181.527 651.841 181.021C651.579 180.513 651.449 179.923 651.449 179.253C651.449 178.577 651.579 177.986 651.841 177.48C652.102 176.972 652.473 176.577 652.953 176.295C653.436 176.011 654.008 175.869 654.67 175.869C655.332 175.869 655.903 176.011 656.383 176.295C656.866 176.577 657.238 176.972 657.5 177.48C657.761 177.986 657.892 178.577 657.892 179.253C657.892 179.923 657.761 180.513 657.5 181.021C657.238 181.527 656.866 181.922 656.383 182.206C655.903 182.487 655.332 182.628 654.67 182.628ZM654.679 181.222C654.98 181.222 655.231 181.136 655.433 180.966C655.635 180.793 655.787 180.557 655.889 180.259C655.994 179.96 656.047 179.621 656.047 179.24C656.047 178.859 655.994 178.52 655.889 178.222C655.787 177.923 655.635 177.687 655.433 177.514C655.231 177.341 654.98 177.254 654.679 177.254C654.375 177.254 654.119 177.341 653.912 177.514C653.707 177.687 653.552 177.923 653.447 178.222C653.345 178.52 653.294 178.859 653.294 179.24C653.294 179.621 653.345 179.96 653.447 180.259C653.552 180.557 653.707 180.793 653.912 180.966C654.119 181.136 654.375 181.222 654.679 181.222ZM661.484 182.607C660.987 182.607 660.537 182.479 660.133 182.223C659.733 181.964 659.414 181.585 659.179 181.085C658.946 180.582 658.829 179.966 658.829 179.236C658.829 178.486 658.95 177.862 659.191 177.365C659.433 176.865 659.754 176.491 660.154 176.244C660.558 175.994 661 175.869 661.48 175.869C661.846 175.869 662.152 175.932 662.396 176.057C662.643 176.179 662.842 176.332 662.993 176.517C663.146 176.699 663.262 176.878 663.342 177.054H663.397V173.773H665.208V182.5H663.419V181.452H663.342C663.257 181.634 663.136 181.814 662.98 181.993C662.826 182.169 662.626 182.315 662.379 182.432C662.135 182.548 661.836 182.607 661.484 182.607ZM662.059 181.162C662.352 181.162 662.599 181.082 662.801 180.923C663.005 180.761 663.162 180.536 663.27 180.246C663.38 179.956 663.436 179.616 663.436 179.227C663.436 178.838 663.382 178.5 663.274 178.213C663.166 177.926 663.01 177.705 662.805 177.548C662.6 177.392 662.352 177.314 662.059 177.314C661.761 177.314 661.51 177.395 661.305 177.557C661.1 177.719 660.946 177.943 660.841 178.23C660.735 178.517 660.683 178.849 660.683 179.227C660.683 179.608 660.735 179.945 660.841 180.237C660.949 180.527 661.103 180.754 661.305 180.919C661.51 181.081 661.761 181.162 662.059 181.162ZM670.898 179.713V175.955H672.714V182.5H670.971V181.311H670.903C670.755 181.695 670.509 182.003 670.165 182.236C669.825 182.469 669.408 182.585 668.917 182.585C668.479 182.585 668.094 182.486 667.762 182.287C667.43 182.088 667.17 181.805 666.982 181.439C666.798 181.072 666.704 180.634 666.701 180.122V175.955H668.516V179.798C668.519 180.185 668.623 180.49 668.827 180.714C669.032 180.939 669.306 181.051 669.65 181.051C669.869 181.051 670.073 181.001 670.263 180.902C670.454 180.8 670.607 180.649 670.724 180.45C670.843 180.251 670.901 180.006 670.898 179.713ZM677.123 182.628C676.453 182.628 675.876 182.486 675.393 182.202C674.913 181.915 674.544 181.517 674.285 181.009C674.029 180.5 673.902 179.915 673.902 179.253C673.902 178.582 674.031 177.994 674.289 177.489C674.551 176.98 674.922 176.584 675.402 176.3C675.882 176.013 676.453 175.869 677.115 175.869C677.686 175.869 678.186 175.973 678.615 176.18C679.044 176.388 679.383 176.679 679.633 177.054C679.883 177.429 680.021 177.869 680.047 178.375H678.333C678.285 178.048 678.157 177.786 677.95 177.587C677.745 177.385 677.477 177.284 677.145 177.284C676.863 177.284 676.618 177.361 676.407 177.514C676.2 177.665 676.038 177.885 675.922 178.175C675.805 178.464 675.747 178.815 675.747 179.227C675.747 179.645 675.804 180 675.917 180.293C676.034 180.585 676.197 180.808 676.407 180.962C676.618 181.115 676.863 181.192 677.145 181.192C677.352 181.192 677.538 181.149 677.703 181.064C677.87 180.979 678.008 180.855 678.116 180.693C678.227 180.528 678.299 180.331 678.333 180.101H680.047C680.018 180.601 679.882 181.041 679.637 181.422C679.396 181.8 679.062 182.095 678.636 182.308C678.21 182.521 677.706 182.628 677.123 182.628ZM684.69 175.955V177.318H680.749V175.955H684.69ZM681.643 174.386H683.459V180.489C683.459 180.656 683.484 180.787 683.536 180.881C683.587 180.972 683.658 181.036 683.749 181.072C683.842 181.109 683.95 181.128 684.072 181.128C684.158 181.128 684.243 181.121 684.328 181.107C684.413 181.089 684.479 181.077 684.524 181.068L684.81 182.419C684.719 182.447 684.591 182.48 684.426 182.517C684.261 182.557 684.061 182.581 683.825 182.589C683.388 182.607 683.004 182.548 682.675 182.415C682.348 182.281 682.094 182.074 681.912 181.793C681.73 181.511 681.641 181.156 681.643 180.727V174.386Z" fill="#0B0755"/>
<path d="M598.487 63.7727V72.5H596.641V63.7727H598.487ZM603.75 63.7727V72.5H601.905V65.5241H601.854L599.855 66.777V65.1406L602.016 63.7727H603.75Z" fill="#0B0755"/>
<path d="M687.643 63.7727V72.5H685.798V63.7727H687.643ZM689.11 72.5V71.1705L692.216 68.294C692.48 68.0384 692.702 67.8082 692.881 67.6037C693.063 67.3991 693.201 67.1989 693.294 67.0028C693.388 66.804 693.435 66.5895 693.435 66.3594C693.435 66.1037 693.377 65.8835 693.26 65.6989C693.144 65.5114 692.985 65.3679 692.783 65.2685C692.581 65.1662 692.353 65.1151 692.097 65.1151C691.83 65.1151 691.597 65.169 691.398 65.277C691.199 65.3849 691.046 65.5398 690.938 65.7415C690.83 65.9432 690.776 66.1832 690.776 66.4616H689.025C689.025 65.8906 689.154 65.3949 689.412 64.9744C689.671 64.554 690.033 64.2287 690.499 63.9986C690.965 63.7685 691.502 63.6534 692.11 63.6534C692.735 63.6534 693.279 63.7642 693.742 63.9858C694.208 64.2045 694.57 64.5085 694.828 64.8977C695.087 65.2869 695.216 65.733 695.216 66.2358C695.216 66.5653 695.151 66.8906 695.02 67.2116C694.892 67.5327 694.664 67.8892 694.334 68.2812C694.005 68.6705 693.54 69.1378 692.941 69.6832L691.667 70.9318V70.9915H695.331V72.5H689.11Z" fill="#0B0755"/>
<path d="M550 97.5078L570.436 113.34L582.864 99.6354L601.723 120.112" stroke="#DE1010" stroke-width="2" stroke-dasharray="2 2"/>
<path d="M725.863 79.0798L709.215 98.8569L722.404 111.83L701.179 129.843" stroke="#DE1010" stroke-width="2" stroke-dasharray="2 2"/>
<path d="M635.5 50L637.5 75.7738L656 75.7738L653.5 103.5" stroke="#DE1010" stroke-width="2" stroke-dasharray="2 2"/>
</svg>
