<svg width="753" height="367" viewBox="0 0 753 367" fill="none" xmlns="http://www.w3.org/2000/svg">
<rect width="753" height="367" fill="white"/>
<path d="M259.5 221L249.5 215.226V226.774L259.5 221ZM218 221V222H250.5V221V220H218V221Z" fill="#0B0755"/>
<path d="M523.5 221L513.5 215.226V226.774L523.5 221ZM482 221V222H514.5V221V220H482V221Z" fill="#0B0755"/>
<path d="M451.493 162.533C464.384 178.085 472.586 196.982 475.143 217.019C477.7 237.056 474.506 257.408 465.933 275.698C457.361 293.989 443.763 309.464 426.727 320.318C409.692 331.172 389.92 336.958 369.72 337C349.521 337.042 329.726 331.338 312.645 320.554C295.564 309.771 281.903 294.352 273.255 276.097C264.606 257.842 261.328 237.504 263.802 217.456C266.276 197.409 274.4 178.478 287.227 162.873L299.568 173.017C288.665 186.281 281.759 202.372 279.657 219.413C277.554 236.454 280.34 253.741 287.691 269.257C295.042 284.774 306.655 297.88 321.173 307.046C335.692 316.212 352.518 321.06 369.687 321.025C386.857 320.989 403.663 316.072 418.143 306.845C432.624 297.619 444.182 284.465 451.468 268.918C458.755 253.371 461.47 236.073 459.297 219.041C457.123 202.009 450.151 185.947 439.194 172.728L451.493 162.533Z" fill="#A8D8E8"/>
<path d="M443.825 154.224C446.222 156.56 448.507 159.007 450.674 161.557L438.498 171.899C436.656 169.731 434.714 167.651 432.676 165.666L443.825 154.224Z" fill="#F373B7"/>
<path d="M287.358 162.714C289.488 160.133 291.739 157.653 294.102 155.284L305.412 166.567C303.403 168.58 301.49 170.688 299.68 172.882L287.358 162.714Z" fill="#61A5FB"/>
<path d="M339.473 231H336.38V222.273H339.499C340.377 222.273 341.132 222.447 341.766 222.797C342.4 223.143 342.887 223.642 343.228 224.293C343.571 224.943 343.743 225.722 343.743 226.628C343.743 227.537 343.571 228.318 343.228 228.972C342.887 229.625 342.397 230.126 341.757 230.476C341.121 230.825 340.36 231 339.473 231ZM338.225 229.419H339.397C339.942 229.419 340.401 229.322 340.773 229.129C341.148 228.933 341.429 228.631 341.617 228.222C341.807 227.81 341.902 227.278 341.902 226.628C341.902 225.983 341.807 225.456 341.617 225.047C341.429 224.638 341.15 224.337 340.777 224.143C340.405 223.95 339.946 223.854 339.401 223.854H338.225V229.419ZM348.059 231.128C347.386 231.128 346.806 230.991 346.32 230.719C345.837 230.443 345.465 230.054 345.204 229.551C344.942 229.045 344.812 228.447 344.812 227.757C344.812 227.084 344.942 226.493 345.204 225.984C345.465 225.476 345.833 225.08 346.308 224.795C346.785 224.511 347.344 224.369 347.987 224.369C348.418 224.369 348.82 224.439 349.192 224.578C349.567 224.714 349.894 224.92 350.173 225.196C350.454 225.472 350.673 225.818 350.829 226.236C350.985 226.651 351.063 227.136 351.063 227.693V228.192H345.536V227.067H349.354C349.354 226.805 349.298 226.574 349.184 226.372C349.07 226.17 348.913 226.013 348.711 225.899C348.512 225.783 348.281 225.724 348.016 225.724C347.741 225.724 347.496 225.788 347.283 225.916C347.073 226.041 346.908 226.21 346.789 226.423C346.67 226.634 346.609 226.868 346.606 227.126V228.196C346.606 228.52 346.665 228.8 346.785 229.036C346.907 229.271 347.079 229.453 347.3 229.581C347.522 229.709 347.785 229.773 348.089 229.773C348.29 229.773 348.475 229.744 348.643 229.688C348.81 229.631 348.954 229.545 349.073 229.432C349.192 229.318 349.283 229.179 349.346 229.014L351.025 229.125C350.94 229.528 350.765 229.881 350.501 230.182C350.239 230.48 349.901 230.713 349.487 230.881C349.075 231.045 348.599 231.128 348.059 231.128ZM357.694 226.321L356.032 226.423C356.004 226.281 355.942 226.153 355.849 226.04C355.755 225.923 355.631 225.831 355.478 225.763C355.327 225.692 355.147 225.656 354.937 225.656C354.656 225.656 354.418 225.716 354.225 225.835C354.032 225.952 353.935 226.108 353.935 226.304C353.935 226.46 353.998 226.592 354.123 226.7C354.248 226.808 354.462 226.895 354.766 226.96L355.951 227.199C356.587 227.33 357.062 227.54 357.374 227.83C357.687 228.119 357.843 228.5 357.843 228.972C357.843 229.401 357.717 229.777 357.464 230.101C357.214 230.425 356.87 230.678 356.433 230.859C355.998 231.038 355.496 231.128 354.928 231.128C354.062 231.128 353.371 230.947 352.857 230.587C352.346 230.223 352.046 229.729 351.958 229.104L353.744 229.01C353.798 229.274 353.928 229.476 354.136 229.615C354.343 229.751 354.609 229.82 354.933 229.82C355.251 229.82 355.506 229.759 355.7 229.636C355.896 229.511 355.995 229.351 355.998 229.155C355.995 228.99 355.925 228.855 355.789 228.75C355.653 228.642 355.442 228.56 355.158 228.503L354.025 228.277C353.386 228.149 352.91 227.928 352.597 227.612C352.288 227.297 352.133 226.895 352.133 226.406C352.133 225.986 352.246 225.624 352.474 225.32C352.704 225.016 353.026 224.781 353.441 224.616C353.859 224.452 354.347 224.369 354.907 224.369C355.734 224.369 356.384 224.544 356.859 224.893C357.336 225.243 357.614 225.719 357.694 226.321ZM362.468 224.455V225.818H358.526V224.455H362.468ZM359.421 222.886H361.236V228.989C361.236 229.156 361.262 229.287 361.313 229.381C361.364 229.472 361.435 229.536 361.526 229.572C361.62 229.609 361.728 229.628 361.85 229.628C361.935 229.628 362.02 229.621 362.105 229.607C362.191 229.589 362.256 229.577 362.301 229.568L362.587 230.919C362.496 230.947 362.368 230.98 362.203 231.017C362.039 231.057 361.838 231.081 361.603 231.089C361.165 231.107 360.782 231.048 360.452 230.915C360.125 230.781 359.871 230.574 359.689 230.293C359.507 230.011 359.418 229.656 359.421 229.227V222.886ZM363.65 231V224.455H365.466V231H363.65ZM364.562 223.611C364.292 223.611 364.061 223.521 363.868 223.342C363.677 223.161 363.582 222.943 363.582 222.69C363.582 222.44 363.677 222.226 363.868 222.047C364.061 221.865 364.292 221.774 364.562 221.774C364.832 221.774 365.062 221.865 365.252 222.047C365.446 222.226 365.542 222.44 365.542 222.69C365.542 222.943 365.446 223.161 365.252 223.342C365.062 223.521 364.832 223.611 364.562 223.611ZM368.735 227.216V231H366.92V224.455H368.65V225.609H368.727C368.871 225.229 369.114 224.928 369.455 224.706C369.796 224.482 370.21 224.369 370.695 224.369C371.15 224.369 371.546 224.469 371.884 224.668C372.222 224.866 372.485 225.151 372.673 225.52C372.86 225.886 372.954 226.324 372.954 226.832V231H371.138V227.156C371.141 226.756 371.039 226.443 370.832 226.219C370.624 225.991 370.339 225.878 369.975 225.878C369.731 225.878 369.515 225.93 369.327 226.036C369.143 226.141 368.998 226.294 368.893 226.496C368.79 226.695 368.738 226.935 368.735 227.216ZM376.251 231.124C375.833 231.124 375.461 231.051 375.135 230.906C374.808 230.759 374.549 230.541 374.359 230.254C374.172 229.964 374.078 229.604 374.078 229.172C374.078 228.808 374.145 228.503 374.278 228.256C374.412 228.009 374.593 227.81 374.824 227.659C375.054 227.509 375.315 227.395 375.608 227.318C375.903 227.241 376.213 227.188 376.537 227.156C376.917 227.116 377.224 227.08 377.457 227.045C377.69 227.009 377.859 226.955 377.964 226.884C378.069 226.812 378.122 226.707 378.122 226.568V226.543C378.122 226.273 378.037 226.064 377.866 225.916C377.699 225.768 377.46 225.695 377.15 225.695C376.824 225.695 376.564 225.767 376.37 225.912C376.177 226.054 376.049 226.233 375.987 226.449L374.308 226.312C374.393 225.915 374.561 225.571 374.811 225.281C375.061 224.989 375.383 224.764 375.778 224.608C376.176 224.449 376.636 224.369 377.159 224.369C377.522 224.369 377.87 224.412 378.203 224.497C378.538 224.582 378.835 224.714 379.093 224.893C379.355 225.072 379.561 225.303 379.711 225.584C379.862 225.862 379.937 226.196 379.937 226.585V231H378.216V230.092H378.164C378.059 230.297 377.919 230.477 377.743 230.634C377.566 230.787 377.355 230.908 377.108 230.996C376.86 231.081 376.575 231.124 376.251 231.124ZM376.771 229.871C377.038 229.871 377.274 229.818 377.478 229.713C377.683 229.605 377.843 229.46 377.96 229.278C378.076 229.097 378.135 228.891 378.135 228.661V227.966C378.078 228.003 378 228.037 377.9 228.068C377.804 228.097 377.694 228.124 377.572 228.149C377.45 228.172 377.328 228.193 377.206 228.213C377.083 228.23 376.973 228.246 376.873 228.26C376.66 228.291 376.474 228.341 376.315 228.409C376.156 228.477 376.032 228.57 375.944 228.686C375.856 228.8 375.812 228.942 375.812 229.112C375.812 229.359 375.902 229.548 376.081 229.679C376.262 229.807 376.493 229.871 376.771 229.871ZM384.827 224.455V225.818H380.885V224.455H384.827ZM381.78 222.886H383.596V228.989C383.596 229.156 383.621 229.287 383.672 229.381C383.723 229.472 383.794 229.536 383.885 229.572C383.979 229.609 384.087 229.628 384.209 229.628C384.294 229.628 384.38 229.621 384.465 229.607C384.55 229.589 384.615 229.577 384.661 229.568L384.946 230.919C384.855 230.947 384.728 230.98 384.563 231.017C384.398 231.057 384.198 231.081 383.962 231.089C383.525 231.107 383.141 231.048 382.811 230.915C382.485 230.781 382.23 230.574 382.049 230.293C381.867 230.011 381.777 229.656 381.78 229.227V222.886ZM386.01 231V224.455H387.825V231H386.01ZM386.922 223.611C386.652 223.611 386.42 223.521 386.227 223.342C386.037 223.161 385.941 222.943 385.941 222.69C385.941 222.44 386.037 222.226 386.227 222.047C386.42 221.865 386.652 221.774 386.922 221.774C387.191 221.774 387.422 221.865 387.612 222.047C387.805 222.226 387.902 222.44 387.902 222.69C387.902 222.943 387.805 223.161 387.612 223.342C387.422 223.521 387.191 223.611 386.922 223.611ZM392.237 231.128C391.575 231.128 391.002 230.987 390.519 230.706C390.039 230.422 389.668 230.027 389.407 229.521C389.146 229.013 389.015 228.423 389.015 227.753C389.015 227.077 389.146 226.486 389.407 225.98C389.668 225.472 390.039 225.077 390.519 224.795C391.002 224.511 391.575 224.369 392.237 224.369C392.898 224.369 393.469 224.511 393.95 224.795C394.433 225.077 394.805 225.472 395.066 225.98C395.327 226.486 395.458 227.077 395.458 227.753C395.458 228.423 395.327 229.013 395.066 229.521C394.805 230.027 394.433 230.422 393.95 230.706C393.469 230.987 392.898 231.128 392.237 231.128ZM392.245 229.722C392.546 229.722 392.798 229.636 392.999 229.466C393.201 229.293 393.353 229.057 393.455 228.759C393.56 228.46 393.613 228.121 393.613 227.74C393.613 227.359 393.56 227.02 393.455 226.722C393.353 226.423 393.201 226.187 392.999 226.014C392.798 225.841 392.546 225.754 392.245 225.754C391.941 225.754 391.685 225.841 391.478 226.014C391.273 226.187 391.119 226.423 391.013 226.722C390.911 227.02 390.86 227.359 390.86 227.74C390.86 228.121 390.911 228.46 391.013 228.759C391.119 229.057 391.273 229.293 391.478 229.466C391.685 229.636 391.941 229.722 392.245 229.722ZM398.454 227.216V231H396.638V224.455H398.369V225.609H398.445C398.59 225.229 398.833 224.928 399.174 224.706C399.515 224.482 399.928 224.369 400.414 224.369C400.869 224.369 401.265 224.469 401.603 224.668C401.941 224.866 402.204 225.151 402.391 225.52C402.579 225.886 402.673 226.324 402.673 226.832V231H400.857V227.156C400.86 226.756 400.758 226.443 400.55 226.219C400.343 225.991 400.058 225.878 399.694 225.878C399.45 225.878 399.234 225.93 399.046 226.036C398.862 226.141 398.717 226.294 398.612 226.496C398.509 226.695 398.457 226.935 398.454 227.216ZM352.177 237.273L354.286 243.903H354.367L356.481 237.273H358.526L355.518 246H353.14L350.127 237.273H352.177ZM361.787 246.128C361.114 246.128 360.535 245.991 360.049 245.719C359.566 245.443 359.194 245.054 358.932 244.551C358.671 244.045 358.54 243.447 358.54 242.757C358.54 242.084 358.671 241.493 358.932 240.984C359.194 240.476 359.562 240.08 360.036 239.795C360.513 239.511 361.073 239.369 361.715 239.369C362.147 239.369 362.549 239.439 362.921 239.578C363.296 239.714 363.623 239.92 363.901 240.196C364.182 240.472 364.401 240.818 364.557 241.236C364.714 241.651 364.792 242.136 364.792 242.693V243.192H359.265V242.067H363.083C363.083 241.805 363.026 241.574 362.912 241.372C362.799 241.17 362.641 241.013 362.439 240.899C362.241 240.783 362.009 240.724 361.745 240.724C361.469 240.724 361.225 240.788 361.012 240.916C360.802 241.041 360.637 241.21 360.518 241.423C360.398 241.634 360.337 241.868 360.334 242.126V243.196C360.334 243.52 360.394 243.8 360.513 244.036C360.635 244.271 360.807 244.453 361.029 244.581C361.251 244.709 361.513 244.773 361.817 244.773C362.019 244.773 362.204 244.744 362.371 244.688C362.539 244.631 362.682 244.545 362.802 244.432C362.921 244.318 363.012 244.179 363.074 244.014L364.753 244.125C364.668 244.528 364.493 244.881 364.229 245.182C363.968 245.48 363.63 245.713 363.215 245.881C362.803 246.045 362.327 246.128 361.787 246.128ZM368.934 246.128C368.263 246.128 367.687 245.986 367.204 245.702C366.724 245.415 366.354 245.017 366.096 244.509C365.84 244 365.712 243.415 365.712 242.753C365.712 242.082 365.841 241.494 366.1 240.989C366.361 240.48 366.732 240.084 367.212 239.8C367.692 239.513 368.263 239.369 368.925 239.369C369.496 239.369 369.996 239.473 370.425 239.68C370.854 239.888 371.194 240.179 371.444 240.554C371.694 240.929 371.831 241.369 371.857 241.875H370.144C370.096 241.548 369.968 241.286 369.76 241.087C369.556 240.885 369.287 240.784 368.955 240.784C368.674 240.784 368.428 240.861 368.218 241.014C368.01 241.165 367.849 241.385 367.732 241.675C367.616 241.964 367.557 242.315 367.557 242.727C367.557 243.145 367.614 243.5 367.728 243.793C367.844 244.085 368.008 244.308 368.218 244.462C368.428 244.615 368.674 244.692 368.955 244.692C369.162 244.692 369.349 244.649 369.513 244.564C369.681 244.479 369.819 244.355 369.927 244.193C370.037 244.028 370.11 243.831 370.144 243.601H371.857C371.829 244.101 371.692 244.541 371.448 244.922C371.206 245.3 370.873 245.595 370.447 245.808C370.02 246.021 369.516 246.128 368.934 246.128ZM376.501 239.455V240.818H372.559V239.455H376.501ZM373.454 237.886H375.269V243.989C375.269 244.156 375.295 244.287 375.346 244.381C375.397 244.472 375.468 244.536 375.559 244.572C375.653 244.609 375.761 244.628 375.883 244.628C375.968 244.628 376.053 244.621 376.139 244.607C376.224 244.589 376.289 244.577 376.335 244.568L376.62 245.919C376.529 245.947 376.401 245.98 376.237 246.017C376.072 246.057 375.872 246.081 375.636 246.089C375.198 246.107 374.815 246.048 374.485 245.915C374.159 245.781 373.904 245.574 373.722 245.293C373.541 245.011 373.451 244.656 373.454 244.227V237.886ZM380.57 246.128C379.909 246.128 379.336 245.987 378.853 245.706C378.373 245.422 378.002 245.027 377.741 244.521C377.48 244.013 377.349 243.423 377.349 242.753C377.349 242.077 377.48 241.486 377.741 240.98C378.002 240.472 378.373 240.077 378.853 239.795C379.336 239.511 379.909 239.369 380.57 239.369C381.232 239.369 381.803 239.511 382.284 239.795C382.767 240.077 383.139 240.472 383.4 240.98C383.661 241.486 383.792 242.077 383.792 242.753C383.792 243.423 383.661 244.013 383.4 244.521C383.139 245.027 382.767 245.422 382.284 245.706C381.803 245.987 381.232 246.128 380.57 246.128ZM380.579 244.722C380.88 244.722 381.132 244.636 381.333 244.466C381.535 244.293 381.687 244.057 381.789 243.759C381.894 243.46 381.947 243.121 381.947 242.74C381.947 242.359 381.894 242.02 381.789 241.722C381.687 241.423 381.535 241.187 381.333 241.014C381.132 240.841 380.88 240.754 380.579 240.754C380.275 240.754 380.019 240.841 379.812 241.014C379.607 241.187 379.453 241.423 379.347 241.722C379.245 242.02 379.194 242.359 379.194 242.74C379.194 243.121 379.245 243.46 379.347 243.759C379.453 244.057 379.607 244.293 379.812 244.466C380.019 244.636 380.275 244.722 380.579 244.722ZM384.972 246V239.455H386.732V240.597H386.801C386.92 240.19 387.12 239.884 387.401 239.676C387.683 239.466 388.007 239.361 388.373 239.361C388.464 239.361 388.562 239.366 388.667 239.378C388.772 239.389 388.865 239.405 388.944 239.425V241.036C388.859 241.01 388.741 240.987 388.59 240.967C388.44 240.947 388.302 240.938 388.177 240.938C387.91 240.938 387.671 240.996 387.461 241.112C387.254 241.226 387.089 241.385 386.967 241.589C386.847 241.794 386.788 242.03 386.788 242.297V246H384.972Z" fill="#0B0755"/>
<path d="M227.646 92.9725C241.763 78.0869 258.134 65.5161 276.16 55.7214L284.561 71.1815C268.157 80.0946 253.259 91.5341 240.413 105.08L227.646 92.9725Z" fill="#1B76B3"/>
<path d="M306.362 84.3015C318.374 79.0051 331.005 75.2412 343.957 73.0985L346.767 90.0827C335.24 91.9896 323.998 95.3395 313.307 100.053L306.362 84.3015Z" fill="#1B76B3"/>
<path d="M215.737 106.765C219.53 101.933 223.55 97.283 227.781 92.8299L240.536 104.95C236.685 109.003 233.028 113.234 229.575 117.631L215.737 106.765Z" fill="#61A5FB"/>
<path d="M275.669 55.9893C281.058 53.041 286.583 50.3483 292.226 47.9202L299.18 64.0823C294.045 66.2919 289.018 68.7423 284.113 71.4253L275.669 55.9893Z" fill="#FEA3AF"/>
<path d="M459.25 53.8189C477.476 63.2369 494.105 75.4648 508.528 90.0538L496.016 102.424C482.891 89.148 467.758 78.0206 451.173 69.4502L459.25 53.8189Z" fill="#1B76B3"/>
<path d="M442.452 46.1213C448.151 48.4136 453.739 50.9732 459.198 53.7917L451.125 69.4254C446.158 66.8606 441.073 64.5314 435.886 62.4454L442.452 46.1213Z" fill="#A78AFA"/>
<path d="M508.461 89.9863C512.782 94.3527 516.895 98.9204 520.786 103.674L507.17 114.818C503.629 110.493 499.887 106.336 495.955 102.363L508.461 89.9863Z" fill="#F373B7"/>
<path d="M343.949 73.0998C347.992 72.4308 352.06 71.9209 356.142 71.5711L357.612 88.7233C353.978 89.0346 350.358 89.4884 346.76 90.0838L343.949 73.0998Z" fill="#34D399"/>
<path d="M295.5 89.6007C299.11 87.6631 302.796 85.8681 306.547 84.2198L313.472 99.9806C310.133 101.448 306.853 103.045 303.64 104.77L295.5 89.6007Z" fill="#FEA3AF"/>
<path d="M390.579 72.426C403.587 74.1942 416.322 77.5922 428.482 82.54L421.994 98.4856C411.171 94.0821 399.838 91.0579 388.26 89.4842L390.579 72.426Z" fill="#1B76B3"/>
<path d="M428.18 82.4176C431.979 83.954 435.716 85.6391 439.382 87.4688L431.695 102.872C428.432 101.244 425.106 99.7441 421.725 98.3766L428.18 82.4176Z" fill="#A78AFA"/>
<path d="M378.27 71.2459C382.361 71.4755 386.442 71.8658 390.502 72.4157L388.192 89.475C384.578 88.9855 380.946 88.6382 377.305 88.4339L378.27 71.2459Z" fill="#FBBF24"/>
<path d="M348.402 33.1418C360.623 31.8152 372.942 31.6441 385.195 32.631L383.782 50.1692C372.632 49.2712 361.422 49.4268 350.301 50.634L348.402 33.1418Z" fill="#1B76B3"/>
<path d="M385.119 32.6249C390.222 33.0339 395.306 33.6431 400.361 34.4511L397.583 51.8255C392.984 51.0902 388.357 50.5359 383.713 50.1637L385.119 32.6249Z" fill="#FBBF24"/>
<path d="M333.206 35.3986C338.235 34.4483 343.301 33.6959 348.39 33.1431L350.289 50.6352C345.659 51.1382 341.049 51.8229 336.472 52.6877L333.206 35.3986Z" fill="#34D399"/>
<path d="M225.415 72.4154L230.605 79.4321L229.121 80.5293L223.931 73.5126L225.415 72.4154ZM231.007 74.4277L233.257 77.4701L231.798 78.5496L227.906 73.2871L229.297 72.2583L229.983 73.1868L230.045 73.1412C229.935 72.749 229.951 72.3624 230.094 71.9815C230.234 71.5984 230.5 71.2624 230.89 70.9735C231.256 70.7032 231.634 70.5475 232.024 70.5063C232.414 70.4652 232.794 70.5373 233.164 70.7227C233.533 70.9059 233.868 71.2019 234.171 71.6107L236.649 74.9615L235.19 76.0409L232.904 72.9506C232.668 72.6269 232.4 72.4364 232.1 72.3793C231.798 72.3199 231.501 72.3983 231.208 72.6146C231.012 72.7598 230.87 72.9305 230.781 73.1265C230.695 73.3208 230.67 73.5303 230.706 73.755C230.742 73.9757 230.842 74.1999 231.007 74.4277ZM239.396 67.1104L238.12 68.1809C238.013 68.0835 237.888 68.0171 237.745 67.9815C237.6 67.9436 237.446 67.9428 237.282 67.9792C237.119 68.0117 236.953 68.0904 236.784 68.2154C236.558 68.3826 236.402 68.5717 236.318 68.7825C236.232 68.991 236.247 69.1741 236.364 69.3317C236.457 69.4573 236.585 69.5263 236.75 69.5388C236.915 69.5512 237.139 69.4934 237.422 69.3651L238.516 68.8526C239.106 68.5792 239.612 68.4661 240.036 68.5133C240.459 68.5604 240.811 68.7736 241.092 69.1527C241.347 69.4976 241.469 69.8754 241.458 70.2862C241.45 70.6952 241.324 71.1029 241.08 71.5092C240.837 71.9116 240.487 72.2817 240.03 72.6196C239.334 73.1348 238.671 73.4003 238.044 73.416C237.416 73.4277 236.881 73.2085 236.439 72.7584L237.819 71.6213C238.019 71.8016 238.244 71.886 238.494 71.8746C238.741 71.8609 238.996 71.7578 239.256 71.5652C239.512 71.376 239.681 71.1749 239.764 70.9618C239.847 70.7447 239.831 70.5565 239.717 70.3973C239.617 70.2665 239.481 70.1994 239.309 70.1959C239.135 70.1902 238.917 70.249 238.654 70.3723L237.609 70.8647C237.019 71.142 236.505 71.2468 236.066 71.1791C235.629 71.1097 235.266 70.8786 234.975 70.4858C234.725 70.1477 234.601 69.7889 234.603 69.4094C234.607 69.0282 234.727 68.648 234.963 68.2689C235.201 67.8881 235.544 67.5313 235.994 67.1985C236.659 66.7069 237.286 66.4605 237.875 66.4593C238.467 66.4564 238.974 66.6735 239.396 67.1104ZM245.691 68.4328C245.15 68.8331 244.603 69.0681 244.05 69.1377C243.498 69.2034 242.967 69.1118 242.458 68.8629C241.947 68.6118 241.487 68.2087 241.076 67.6536C240.676 67.1123 240.429 66.5595 240.337 65.9953C240.245 65.431 240.305 64.8936 240.518 64.3831C240.732 63.8709 241.098 63.4239 241.614 63.0421C241.961 62.7853 242.326 62.6022 242.708 62.4928C243.09 62.3795 243.475 62.3508 243.863 62.4068C244.253 62.4611 244.635 62.6097 245.009 62.8525C245.381 63.0931 245.733 63.4372 246.064 63.8849L246.361 64.2857L241.917 67.5723L241.248 66.6678L244.318 64.3974C244.162 64.1872 243.979 64.0349 243.768 63.9403C243.556 63.8457 243.336 63.8127 243.106 63.8413C242.877 63.8659 242.656 63.9567 242.444 64.1138C242.222 64.2777 242.064 64.4744 241.969 64.7039C241.874 64.9294 241.842 65.1632 241.873 65.4055C241.902 65.6455 241.992 65.8702 242.143 66.0798L242.779 66.9397C242.972 67.2001 243.186 67.3896 243.423 67.5082C243.661 67.6252 243.907 67.6691 244.162 67.6402C244.416 67.6112 244.665 67.5063 244.909 67.3255C245.072 67.2056 245.203 67.0729 245.304 66.9276C245.405 66.7822 245.47 66.6284 245.498 66.4661C245.526 66.3038 245.517 66.1378 245.469 65.9682L246.885 65.0588C247.056 65.4339 247.125 65.821 247.092 66.2202C247.059 66.6154 246.926 67.0038 246.692 67.3852C246.459 67.7626 246.125 68.1118 245.691 68.4328ZM248.983 65.8391L245.091 60.5766L246.506 59.5301L247.185 60.4483L247.24 60.4077C247.094 60.0101 247.073 59.6444 247.175 59.3104C247.277 58.9741 247.474 58.697 247.769 58.4791C247.842 58.425 247.924 58.3713 248.016 58.318C248.107 58.2646 248.19 58.2222 248.266 58.1909L249.224 59.486C249.14 59.5161 249.032 59.568 248.899 59.6415C248.766 59.715 248.65 59.789 248.549 59.8633C248.334 60.0221 248.177 60.2108 248.077 60.4295C247.978 60.6442 247.94 60.8701 247.964 61.1072C247.989 61.3426 248.082 61.5676 248.24 61.7823L250.443 64.7596L248.983 65.8391ZM252.101 55.3914L252.912 56.4878L249.743 58.8317L248.932 57.7354L252.101 55.3914ZM248.719 55.9424L250.179 54.8629L253.807 59.7691C253.907 59.9039 254.005 59.9937 254.102 60.0387C254.197 60.0814 254.293 60.0905 254.388 60.0662C254.485 60.0401 254.583 59.9908 254.681 59.9181C254.749 59.8674 254.814 59.811 254.874 59.7489C254.932 59.6846 254.977 59.6354 255.009 59.6015L256.041 60.5178C255.985 60.5947 255.902 60.697 255.791 60.8247C255.683 60.9547 255.536 61.0932 255.351 61.2402C255.01 61.5141 254.667 61.6953 254.322 61.7839C253.98 61.8709 253.653 61.8553 253.339 61.7373C253.026 61.6193 252.743 61.387 252.49 61.0404L248.719 55.9424ZM257.027 49.0349L262.216 56.0515L260.733 57.1487L256.585 51.5402L256.544 51.5706L255.682 53.7663L254.709 52.4507L255.632 50.0662L257.027 49.0349Z" fill="#0B0755"/>
<path d="M480.769 48.9431L475.687 56.0381L474.187 54.9637L479.269 47.8687L480.769 48.9431ZM480.573 54.883L478.369 57.9594L476.893 56.9023L480.705 51.581L482.111 52.5885L481.439 53.5273L481.501 53.572C481.841 53.3469 482.214 53.2435 482.62 53.2618C483.028 53.2779 483.429 53.4274 483.824 53.7102C484.193 53.9749 484.458 54.2865 484.617 54.6451C484.776 55.0036 484.824 55.3876 484.761 55.797C484.7 56.2041 484.522 56.6144 484.226 57.0278L481.799 60.4159L480.323 59.3589L482.561 56.234C482.797 55.91 482.896 55.5964 482.858 55.2932C482.822 54.9877 482.656 54.729 482.36 54.5173C482.161 54.375 481.955 54.292 481.742 54.2683C481.53 54.2462 481.323 54.2866 481.12 54.3893C480.921 54.4914 480.739 54.656 480.573 54.883ZM490.114 60.6164L488.703 59.7318C488.763 59.5998 488.788 59.4603 488.778 59.3133C488.769 59.1641 488.723 59.017 488.638 58.8723C488.557 58.7269 488.431 58.593 488.26 58.4705C488.031 58.3068 487.804 58.2171 487.577 58.2016C487.352 58.1838 487.183 58.2546 487.068 58.414C486.977 58.541 486.951 58.6848 486.99 58.8454C487.029 59.0059 487.153 59.2012 487.362 59.4314L488.186 60.3152C488.627 60.792 488.891 61.2392 488.976 61.6567C489.061 62.0743 488.967 62.4747 488.692 62.8581C488.442 63.2069 488.12 63.4393 487.726 63.5553C487.334 63.6731 486.908 63.6784 486.446 63.5715C485.988 63.4639 485.529 63.2447 485.067 62.9138C484.362 62.4093 483.906 61.8606 483.698 61.2679C483.494 60.6745 483.538 60.0981 483.831 59.5387L485.337 60.5022C485.227 60.7484 485.216 60.9885 485.303 61.2224C485.392 61.454 485.569 61.6642 485.832 61.8527C486.091 62.038 486.334 62.1372 486.562 62.1504C486.794 62.1629 486.969 62.0904 487.085 61.9327C487.179 61.797 487.201 61.6468 487.151 61.4819C487.103 61.3148 486.98 61.1254 486.782 60.9138L485.992 60.0701C485.547 59.594 485.289 59.1367 485.219 58.6984C485.151 58.2617 485.259 57.8447 485.543 57.4475C485.788 57.1057 486.092 56.8774 486.453 56.7626C486.817 56.6495 487.216 56.6467 487.649 56.7543C488.085 56.8635 488.53 57.081 488.985 57.4069C489.657 57.8883 490.084 58.4092 490.266 58.9695C490.451 59.5315 490.4 60.0805 490.114 60.6164ZM490.791 67.0137C490.243 66.6217 489.852 66.1733 489.615 65.6687C489.383 65.1635 489.307 64.6304 489.388 64.0694C489.47 63.5061 489.712 62.9438 490.114 62.3826C490.506 61.8352 490.956 61.4309 491.465 61.1697C491.973 60.9085 492.503 60.8005 493.054 60.8458C493.608 60.8928 494.145 61.1032 494.667 61.4771C495.018 61.7285 495.305 62.0192 495.526 62.349C495.752 62.6783 495.897 63.036 495.963 63.4221C496.031 63.8099 496.007 64.2191 495.891 64.6495C495.777 65.0777 495.557 65.5182 495.233 65.9708L494.943 66.3762L490.449 63.1578L491.105 62.2432L494.209 64.4665C494.361 64.2541 494.449 64.0327 494.475 63.8026C494.5 63.5724 494.463 63.3524 494.365 63.1426C494.272 62.9321 494.117 62.7499 493.902 62.5961C493.678 62.4356 493.443 62.3453 493.195 62.3252C492.951 62.3044 492.719 62.3459 492.498 62.4496C492.278 62.551 492.092 62.706 491.939 62.9145L491.317 63.7841C491.128 64.0474 491.014 64.3096 490.973 64.5708C490.935 64.8336 490.969 65.0815 491.075 65.3145C491.181 65.5474 491.357 65.7524 491.604 65.9294C491.768 66.0469 491.935 66.1313 492.104 66.1827C492.273 66.2341 492.44 66.2484 492.603 66.2255C492.766 66.2026 492.921 66.1423 493.068 66.0448L494.368 67.1125C494.064 67.3909 493.717 67.5755 493.327 67.6665C492.94 67.7568 492.53 67.7493 492.095 67.6441C491.664 67.5382 491.23 67.328 490.791 67.0137ZM494.271 69.349L498.082 64.0278L499.513 65.0526L498.848 65.981L498.903 66.0207C499.237 65.7599 499.578 65.6271 499.928 65.6223C500.279 65.6152 500.603 65.7183 500.901 65.9317C500.975 65.9846 501.052 66.0463 501.13 66.1168C501.209 66.1872 501.275 66.2537 501.328 66.3162L500.39 67.6257C500.336 67.5553 500.253 67.4682 500.142 67.3643C500.032 67.2605 499.925 67.1722 499.824 67.0994C499.607 66.9439 499.379 66.8523 499.14 66.8245C498.905 66.7962 498.679 66.8295 498.46 66.9247C498.244 67.0215 498.058 67.1785 497.903 67.3956L495.746 70.4061L494.271 69.349ZM505.171 69.1053L504.377 70.2139L501.172 67.9186L501.966 66.81L505.171 69.1053ZM503.607 66.0562L505.083 67.1133L501.53 72.0743C501.432 72.2106 501.377 72.3317 501.364 72.4377C501.352 72.5414 501.373 72.6347 501.425 72.7176C501.48 72.8023 501.557 72.8801 501.656 72.9513C501.726 73.0009 501.799 73.0448 501.877 73.0828C501.956 73.1186 502.016 73.1463 502.058 73.1658L501.504 74.4303C501.413 74.4004 501.29 74.3525 501.135 74.2866C500.978 74.223 500.801 74.126 500.604 73.9956C500.239 73.7547 499.961 73.4841 499.771 73.1836C499.583 72.8848 499.497 72.5682 499.513 72.2336C499.529 71.8991 499.663 71.5583 499.915 71.2112L503.607 66.0562ZM507.087 78.6756C506.597 78.3249 506.225 77.9222 505.971 77.4674C505.719 77.0143 505.594 76.5493 505.597 76.0725C505.599 75.5956 505.742 75.1494 506.026 74.734L507.481 75.7762C507.3 76.0626 507.256 76.3682 507.349 76.693C507.441 77.0177 507.635 77.286 507.931 77.4977C508.166 77.6665 508.411 77.7634 508.666 77.7885C508.924 77.8129 509.171 77.768 509.407 77.6537C509.647 77.5388 509.854 77.3589 510.029 77.1141C510.208 76.8647 510.312 76.6072 510.342 76.3417C510.373 76.0779 510.335 75.8267 510.226 75.5881C510.117 75.3495 509.945 75.1439 509.709 74.9712C509.501 74.8223 509.268 74.7203 509.011 74.6651C508.755 74.6116 508.521 74.6199 508.306 74.69L507.144 73.4956L510.16 69.9948L514.497 73.1015L513.619 74.3279L510.518 72.107L509.061 73.7527L509.103 73.7825C509.353 73.6963 509.646 73.6856 509.98 73.7504C510.315 73.8153 510.638 73.9594 510.95 74.1827C511.377 74.4887 511.686 74.8621 511.877 75.303C512.068 75.7438 512.135 76.2092 512.077 76.6992C512.022 77.1869 511.83 77.6574 511.501 78.1107C511.161 78.5905 510.746 78.936 510.256 79.1474C509.769 79.3581 509.25 79.4266 508.698 79.3529C508.151 79.2786 507.613 79.0528 507.087 78.6756Z" fill="#0B0755"/>
<path d="M301.681 71.6481L303.778 80.1197L301.987 80.5631L299.889 72.0915L301.681 71.6481ZM306.071 75.6536L306.98 79.3269L305.218 79.7631L303.645 73.4094L305.325 72.9937L305.602 74.1147L305.677 74.0962C305.726 73.6919 305.889 73.3412 306.167 73.0442C306.444 72.7444 306.818 72.5362 307.29 72.4194C307.731 72.3102 308.14 72.3115 308.516 72.4233C308.892 72.5351 309.215 72.7477 309.486 73.0611C309.756 73.3718 309.952 73.774 310.074 74.2676L311.076 78.3131L309.313 78.7493L308.39 75.0182C308.296 74.6287 308.122 74.3499 307.867 74.1819C307.611 74.0111 307.306 73.9694 306.953 74.0568C306.716 74.1155 306.519 74.2184 306.362 74.3655C306.208 74.5119 306.105 74.6956 306.051 74.9167C306 75.1343 306.006 75.3799 306.071 75.6536ZM316.626 72.1188L315.038 72.6174C314.976 72.4863 314.886 72.3769 314.768 72.2892C314.649 72.1986 314.507 72.1387 314.341 72.1094C314.178 72.0766 313.995 72.0855 313.79 72.136C313.517 72.2036 313.301 72.3185 313.143 72.4807C312.983 72.6402 312.927 72.8151 312.974 73.0054C313.012 73.1571 313.104 73.2703 313.251 73.345C313.399 73.4198 313.628 73.4523 313.938 73.4427L315.146 73.3897C315.795 73.3636 316.306 73.4537 316.679 73.6599C317.052 73.8661 317.295 74.1981 317.408 74.6558C317.511 75.0723 317.479 75.468 317.311 75.8432C317.147 76.2176 316.874 76.5456 316.493 76.8273C316.114 77.1054 315.648 77.3128 315.097 77.4493C314.256 77.6575 313.542 77.6483 312.957 77.4216C312.373 77.1915 311.963 76.7837 311.727 76.1982L313.438 75.6781C313.554 75.9216 313.729 76.086 313.964 76.1713C314.198 76.2539 314.472 76.2562 314.787 76.1784C315.096 76.1019 315.329 75.9812 315.487 75.8162C315.648 75.6478 315.705 75.4681 315.661 75.2771C315.619 75.1178 315.519 75.0036 315.361 74.9343C315.203 74.8623 314.979 74.8328 314.69 74.8459L313.535 74.8991C312.884 74.9286 312.369 74.8278 311.99 74.5968C311.613 74.3651 311.366 74.0121 311.249 73.5378C311.148 73.1297 311.171 72.7508 311.319 72.4011C311.469 72.0507 311.726 71.7457 312.089 71.4861C312.454 71.2258 312.909 71.0284 313.452 70.8939C314.255 70.6953 314.928 70.7086 315.473 70.9337C316.02 71.1583 316.405 71.5533 316.626 72.1188ZM321.932 75.7574C321.278 75.9192 320.683 75.9261 320.146 75.7781C319.61 75.6267 319.156 75.3383 318.781 74.913C318.406 74.4849 318.135 73.9359 317.97 73.2657C317.808 72.6122 317.793 72.0072 317.924 71.4507C318.056 70.8943 318.317 70.4212 318.71 70.0315C319.105 69.641 319.614 69.3686 320.237 69.2144C320.656 69.1106 321.063 69.0816 321.458 69.1273C321.855 69.1695 322.221 69.2909 322.558 69.4915C322.897 69.6914 323.193 69.9753 323.445 70.3431C323.696 70.7082 323.889 71.161 324.022 71.7015L324.142 72.1855L318.777 73.5136L318.507 72.4216L322.213 71.5041C322.15 71.2504 322.04 71.0393 321.881 70.8708C321.722 70.7023 321.531 70.5871 321.308 70.5253C321.087 70.46 320.848 70.4591 320.592 70.5226C320.324 70.5888 320.102 70.7096 319.926 70.8849C319.752 71.0567 319.633 71.2604 319.568 71.4959C319.503 71.7286 319.5 71.9708 319.559 72.2224L319.816 73.2607C319.894 73.5751 320.019 73.8324 320.192 74.0326C320.367 74.2321 320.578 74.3673 320.823 74.4382C321.069 74.509 321.34 74.5079 321.635 74.4349C321.831 74.3864 322.003 74.3144 322.152 74.219C322.301 74.1236 322.42 74.0064 322.508 73.8674C322.597 73.7284 322.652 73.5715 322.673 73.3965L324.329 73.1006C324.343 73.5127 324.258 73.8966 324.074 74.2524C323.892 74.6048 323.62 74.9121 323.258 75.1745C322.898 75.4334 322.455 75.6277 321.932 75.7574ZM325.967 74.6268L324.394 68.2731L326.103 67.8502L326.377 68.9588L326.443 68.9424C326.461 68.5194 326.582 68.1734 326.805 67.9045C327.028 67.6329 327.317 67.453 327.673 67.365C327.761 67.3431 327.857 67.3251 327.962 67.3108C328.067 67.2966 328.16 67.2896 328.242 67.2898L328.629 68.8534C328.54 68.8491 328.42 68.8553 328.27 68.8722C328.119 68.8891 327.982 68.9125 327.861 68.9426C327.602 69.0067 327.384 69.1206 327.208 69.2842C327.034 69.4443 326.912 69.6384 326.843 69.8663C326.776 70.0935 326.775 70.3367 326.839 70.5959L327.729 74.1906L325.967 74.6268ZM332.858 66.1778L333.186 67.5015L329.36 68.4486L329.032 67.125L332.858 66.1778ZM329.524 65.3877L331.286 64.9515L332.753 70.8749C332.793 71.0376 332.849 71.1584 332.921 71.2371C332.993 71.313 333.077 71.358 333.174 71.372C333.274 71.3853 333.383 71.3773 333.502 71.348C333.585 71.3275 333.666 71.3001 333.745 71.2658C333.823 71.2288 333.884 71.2007 333.926 71.1815L334.528 72.4242C334.446 72.4736 334.33 72.536 334.179 72.6115C334.029 72.6897 333.84 72.7612 333.613 72.8262C333.192 72.9479 332.806 72.9835 332.454 72.9331C332.105 72.882 331.808 72.7417 331.564 72.5124C331.32 72.2831 331.148 71.9599 331.048 71.5428L329.524 65.3877ZM338.259 71.584L337.939 70.2934L340.263 66.7548C340.458 66.4431 340.618 66.1665 340.743 65.9249C340.87 65.6827 340.956 65.4552 341 65.2424C341.043 65.0268 341.037 64.8073 340.982 64.584C340.92 64.3358 340.811 64.136 340.653 63.9848C340.495 63.8308 340.306 63.7297 340.087 63.6817C339.866 63.6309 339.632 63.6362 339.384 63.6976C339.124 63.7618 338.911 63.8702 338.744 64.0227C338.577 64.1753 338.465 64.3625 338.409 64.5842C338.353 64.806 338.358 65.0519 338.425 65.3222L336.725 65.7431C336.588 65.1888 336.594 64.6765 336.744 64.2062C336.894 63.736 337.167 63.3332 337.564 62.9979C337.961 62.6625 338.455 62.4218 339.045 62.2757C339.652 62.1256 340.206 62.1024 340.709 62.2062C341.214 62.3066 341.639 62.5146 341.983 62.8303C342.327 63.146 342.56 63.5479 342.681 64.036C342.76 64.3559 342.775 64.6873 342.725 65.0303C342.678 65.3727 342.542 65.7737 342.316 66.2335C342.09 66.6905 341.751 67.2557 341.3 67.9292L340.364 69.4474L340.378 69.5053L343.935 68.6247L344.298 70.089L338.259 71.584Z" fill="#0B0755"/>
<path d="M346.44 20.2727V29H344.594V20.2727H346.44ZM349.739 25.2159V29H347.924V22.4545H349.654V23.6094H349.73C349.875 23.2287 350.118 22.9276 350.459 22.706C350.8 22.4815 351.213 22.3693 351.699 22.3693C352.154 22.3693 352.55 22.4688 352.888 22.6676C353.226 22.8665 353.489 23.1506 353.676 23.5199C353.864 23.8864 353.958 24.3239 353.958 24.8324V29H352.142V25.1562C352.145 24.7557 352.043 24.4432 351.836 24.2188C351.628 23.9915 351.343 23.8778 350.979 23.8778C350.735 23.8778 350.519 23.9304 350.331 24.0355C350.147 24.1406 350.002 24.294 349.897 24.4957C349.794 24.6946 349.742 24.9347 349.739 25.2159ZM360.835 24.321L359.173 24.4233C359.144 24.2812 359.083 24.1534 358.989 24.0398C358.896 23.9233 358.772 23.831 358.619 23.7628C358.468 23.6918 358.288 23.6562 358.077 23.6562C357.796 23.6562 357.559 23.7159 357.366 23.8352C357.173 23.9517 357.076 24.108 357.076 24.304C357.076 24.4602 357.138 24.5923 357.263 24.7003C357.388 24.8082 357.603 24.8949 357.907 24.9602L359.092 25.1989C359.728 25.3295 360.202 25.5398 360.515 25.8295C360.827 26.1193 360.984 26.5 360.984 26.9716C360.984 27.4006 360.857 27.777 360.604 28.1009C360.354 28.4247 360.011 28.6776 359.573 28.8594C359.138 29.0384 358.637 29.1278 358.069 29.1278C357.202 29.1278 356.512 28.9474 355.998 28.5866C355.487 28.223 355.187 27.7287 355.099 27.1037L356.884 27.0099C356.938 27.2741 357.069 27.4759 357.276 27.6151C357.484 27.7514 357.749 27.8196 358.073 27.8196C358.391 27.8196 358.647 27.7585 358.84 27.6364C359.036 27.5114 359.136 27.3509 359.138 27.1548C359.136 26.9901 359.066 26.8551 358.93 26.75C358.793 26.642 358.583 26.5597 358.299 26.5028L357.165 26.277C356.526 26.1491 356.05 25.9276 355.738 25.6122C355.428 25.2969 355.273 24.8949 355.273 24.4062C355.273 23.9858 355.387 23.6236 355.614 23.3196C355.844 23.0156 356.167 22.7812 356.582 22.6165C356.999 22.4517 357.488 22.3693 358.048 22.3693C358.874 22.3693 359.525 22.544 359.999 22.8935C360.477 23.2429 360.755 23.7187 360.835 24.321ZM365.11 29.1278C364.436 29.1278 363.857 28.9915 363.371 28.7188C362.888 28.4432 362.516 28.054 362.255 27.5511C361.993 27.0455 361.863 26.4474 361.863 25.7571C361.863 25.0838 361.993 24.4929 362.255 23.9844C362.516 23.4759 362.884 23.0795 363.358 22.7955C363.836 22.5114 364.395 22.3693 365.037 22.3693C365.469 22.3693 365.871 22.4389 366.243 22.5781C366.618 22.7145 366.945 22.9205 367.223 23.196C367.505 23.4716 367.723 23.8182 367.88 24.2358C368.036 24.6506 368.114 25.1364 368.114 25.6932V26.1918H362.587V25.0668H366.405C366.405 24.8054 366.348 24.5739 366.235 24.3722C366.121 24.1705 365.963 24.0128 365.762 23.8991C365.563 23.7827 365.331 23.7244 365.067 23.7244C364.792 23.7244 364.547 23.7884 364.334 23.9162C364.124 24.0412 363.959 24.2102 363.84 24.4233C363.721 24.6335 363.659 24.8679 363.657 25.1264V26.196C363.657 26.5199 363.716 26.7997 363.836 27.0355C363.958 27.2713 364.13 27.4531 364.351 27.581C364.573 27.7088 364.836 27.7727 365.14 27.7727C365.341 27.7727 365.526 27.7443 365.694 27.6875C365.861 27.6307 366.005 27.5455 366.124 27.4318C366.243 27.3182 366.334 27.179 366.397 27.0142L368.076 27.125C367.99 27.5284 367.816 27.8807 367.551 28.1818C367.29 28.4801 366.952 28.7131 366.537 28.8807C366.125 29.0455 365.65 29.1278 365.11 29.1278ZM369.299 29V22.4545H371.059V23.5966H371.127C371.246 23.1903 371.446 22.8835 371.728 22.6761C372.009 22.4659 372.333 22.3608 372.699 22.3608C372.79 22.3608 372.888 22.3665 372.993 22.3778C373.098 22.3892 373.191 22.4048 373.27 22.4247V24.0355C373.185 24.0099 373.067 23.9872 372.917 23.9673C372.766 23.9474 372.628 23.9375 372.503 23.9375C372.236 23.9375 371.998 23.9957 371.787 24.1122C371.58 24.2259 371.415 24.3849 371.293 24.5895C371.174 24.794 371.114 25.0298 371.114 25.2969V29H369.299ZM378.018 22.4545V23.8182H374.077V22.4545H378.018ZM374.972 20.8864H376.787V26.9886C376.787 27.1562 376.813 27.2869 376.864 27.3807C376.915 27.4716 376.986 27.5355 377.077 27.5724C377.17 27.6094 377.278 27.6278 377.401 27.6278C377.486 27.6278 377.571 27.6207 377.656 27.6065C377.741 27.5895 377.807 27.5767 377.852 27.5682L378.138 28.919C378.047 28.9474 377.919 28.9801 377.754 29.017C377.589 29.0568 377.389 29.081 377.153 29.0895C376.716 29.1065 376.332 29.0483 376.003 28.9148C375.676 28.7812 375.422 28.5739 375.24 28.2926C375.058 28.0114 374.969 27.6562 374.972 27.2273V20.8864ZM385.187 29.1193C384.551 29.1193 383.984 29.0099 383.487 28.7912C382.993 28.5696 382.602 28.2656 382.315 27.8793C382.031 27.4901 381.885 27.0412 381.876 26.5327H383.734C383.745 26.7457 383.815 26.9332 383.943 27.0952C384.074 27.2543 384.247 27.3778 384.463 27.4659C384.679 27.554 384.922 27.598 385.191 27.598C385.473 27.598 385.721 27.5483 385.937 27.4489C386.153 27.3494 386.322 27.2116 386.444 27.0355C386.566 26.8594 386.627 26.6562 386.627 26.4261C386.627 26.1932 386.562 25.9872 386.431 25.8082C386.304 25.6264 386.119 25.4844 385.877 25.3821C385.639 25.2798 385.355 25.2287 385.025 25.2287H384.211V23.8736H385.025C385.304 23.8736 385.549 23.8253 385.762 23.7287C385.978 23.6321 386.146 23.4986 386.265 23.3281C386.385 23.1548 386.444 22.9531 386.444 22.723C386.444 22.5043 386.392 22.3125 386.287 22.1477C386.184 21.9801 386.039 21.8494 385.852 21.7557C385.667 21.6619 385.451 21.6151 385.204 21.6151C384.954 21.6151 384.725 21.6605 384.518 21.7514C384.311 21.8395 384.145 21.9659 384.02 22.1307C383.895 22.2955 383.828 22.4886 383.819 22.7102H382.051C382.059 22.2074 382.203 21.7642 382.481 21.3807C382.76 20.9972 383.135 20.6974 383.606 20.4815C384.081 20.2628 384.616 20.1534 385.213 20.1534C385.815 20.1534 386.342 20.2628 386.794 20.4815C387.245 20.7003 387.596 20.9957 387.846 21.3679C388.099 21.7372 388.224 22.152 388.221 22.6122C388.224 23.1009 388.072 23.5085 387.765 23.8352C387.461 24.1619 387.065 24.3693 386.576 24.4574V24.5256C387.218 24.608 387.707 24.831 388.042 25.1946C388.38 25.5554 388.548 26.0071 388.545 26.5497C388.548 27.0469 388.404 27.4886 388.115 27.875C387.828 28.2614 387.431 28.5653 386.926 28.7869C386.42 29.0085 385.841 29.1193 385.187 29.1193Z" fill="#0B0755"/>
<path d="M393.481 60.967L391.451 69.4548L389.656 69.0255L391.687 60.5377L393.481 60.967ZM395.54 66.5422L394.66 70.2224L392.894 69.8001L394.417 63.4342L396.1 63.8368L395.831 64.9599L395.906 64.9777C396.135 64.6412 396.441 64.4049 396.824 64.2687C397.208 64.1297 397.636 64.1167 398.109 64.2298C398.551 64.3355 398.913 64.5244 399.196 64.7965C399.478 65.0685 399.668 65.406 399.764 65.8088C399.861 66.2088 399.851 66.6561 399.732 67.1507L398.763 71.2039L396.997 70.7816L397.891 67.0433C397.987 66.6544 397.961 66.3267 397.811 66.0602C397.662 65.7909 397.411 65.6139 397.057 65.5293C396.82 65.4725 396.598 65.4734 396.391 65.532C396.187 65.5912 396.01 65.7067 395.861 65.8785C395.715 66.0481 395.608 66.2693 395.54 66.5422ZM406.539 68.2533L404.899 67.9661C404.905 67.8213 404.875 67.6828 404.81 67.5505C404.746 67.4154 404.647 67.2968 404.514 67.1948C404.384 67.0907 404.217 67.0142 404.013 66.9653C403.739 66.8999 403.494 66.9027 403.279 66.9738C403.064 67.0421 402.934 67.1716 402.888 67.3623C402.852 67.5142 402.882 67.6572 402.978 67.7913C403.075 67.9254 403.263 68.0596 403.543 68.1938L404.64 68.7015C405.229 68.9767 405.641 69.2915 405.878 69.646C406.114 70.0006 406.177 70.4072 406.068 70.8658C405.968 71.283 405.757 71.6197 405.436 71.8758C405.118 72.1327 404.725 72.2986 404.257 72.3736C403.792 72.4466 403.284 72.4169 402.731 72.2848C401.889 72.0832 401.259 71.7471 400.843 71.2766C400.43 70.8039 400.254 70.2535 400.314 69.6251L402.072 69.9494C402.063 70.2189 402.143 70.4454 402.312 70.6291C402.482 70.8099 402.725 70.9381 403.04 71.0134C403.349 71.0874 403.612 71.0875 403.828 71.0136C404.048 70.9377 404.182 70.8047 404.231 70.6147C404.266 70.4538 404.23 70.3064 404.122 70.1724C404.014 70.0357 403.829 69.9067 403.566 69.7853L402.516 69.3019C401.924 69.0289 401.513 68.7027 401.282 68.3233C401.054 67.9446 400.997 67.5176 401.111 67.0423C401.209 66.6334 401.404 66.3076 401.695 66.0648C401.99 65.8227 402.358 65.6698 402.8 65.6061C403.244 65.543 403.739 65.5765 404.283 65.7067C405.087 65.8991 405.679 66.2203 406.059 66.6706C406.442 67.1214 406.602 67.649 406.539 68.2533ZM409.579 73.9228C408.924 73.7662 408.392 73.4987 407.983 73.1205C407.578 72.7401 407.306 72.275 407.169 71.7251C407.032 71.1725 407.044 70.5605 407.205 69.8891C407.362 69.2343 407.626 68.69 407.999 68.2563C408.371 67.8225 408.821 67.5227 409.349 67.3567C409.879 67.1915 410.456 67.1835 411.081 67.3329C411.501 67.4334 411.876 67.5946 412.205 67.8166C412.538 68.0364 412.808 68.3128 413.015 68.6455C413.224 68.979 413.356 69.3669 413.411 69.8095C413.466 70.2492 413.429 70.7398 413.3 71.2814L413.184 71.7663L407.809 70.4804L408.07 69.3863L411.784 70.2746C411.844 70.0204 411.843 69.782 411.779 69.5594C411.716 69.3368 411.599 69.1468 411.43 68.9893C411.263 68.8298 411.052 68.7192 410.795 68.6578C410.527 68.5937 410.274 68.599 410.037 68.6738C409.804 68.7464 409.604 68.8725 409.438 69.0519C409.273 69.2286 409.16 69.4424 409.097 69.6931L408.848 70.7334C408.772 71.0484 408.765 71.3344 408.827 71.5915C408.89 71.8492 409.015 72.066 409.201 72.2419C409.387 72.4178 409.628 72.5411 409.923 72.6118C410.119 72.6588 410.306 72.6741 410.482 72.6578C410.658 72.6416 410.817 72.5921 410.96 72.5093C411.102 72.4266 411.223 72.3123 411.322 72.1666L412.929 72.665C412.753 73.0375 412.501 73.3395 412.174 73.5709C411.85 73.8002 411.467 73.9481 411.025 74.0146C410.586 74.079 410.104 74.0484 409.579 73.9228ZM413.683 74.7731L415.205 68.4072L416.917 68.8167L416.651 69.9274L416.718 69.9433C416.928 69.5759 417.194 69.3241 417.516 69.1878C417.839 69.0488 418.178 69.0219 418.535 69.1072C418.623 69.1284 418.717 69.1567 418.817 69.1922C418.916 69.2277 419.002 69.2644 419.075 69.3022L418.7 70.8688C418.623 70.8241 418.514 70.7746 418.372 70.7202C418.23 70.6658 418.099 70.6241 417.977 70.595C417.717 70.5329 417.472 70.534 417.24 70.5984C417.012 70.6607 416.815 70.7771 416.648 70.9476C416.485 71.1187 416.372 71.3342 416.31 71.5939L415.448 75.1954L413.683 74.7731ZM423.686 70.4359L423.369 71.7621L419.535 70.8451L419.852 69.5189L423.686 70.4359ZM421.088 68.2019L422.853 68.6243L421.433 74.5591C421.394 74.7221 421.389 74.8551 421.417 74.9582C421.445 75.0585 421.5 75.1372 421.579 75.1943C421.662 75.252 421.763 75.2951 421.881 75.3235C421.964 75.3433 422.049 75.3563 422.135 75.3623C422.222 75.3655 422.288 75.3683 422.335 75.3706L422.298 76.7508C422.203 76.7573 422.071 76.7593 421.902 76.7569C421.733 76.7572 421.532 76.7341 421.301 76.6875C420.872 76.6023 420.512 76.4565 420.223 76.2499C419.936 76.0441 419.737 75.7832 419.626 75.4674C419.514 75.1516 419.51 74.7854 419.612 74.3688L421.088 68.2019ZM426.226 76.1964L426.564 74.7831L431.443 70.0482L432.662 70.3397L432.194 72.2959L431.473 72.1234L428.393 75.1242L428.377 75.1905L433.413 76.3951L433.069 77.8332L426.226 76.1964ZM429.943 78.6629L430.403 76.7399L430.586 76.122L432.007 70.1831L433.69 70.5856L431.659 79.0734L429.943 78.6629Z" fill="#0B0755"/>
<path d="M438.927 172.598L545.244 81.1889" stroke="#0B0755" stroke-width="2"/>
<line x1="299.372" y1="173.727" x2="211.372" y2="102.778" stroke="#0B0755" stroke-width="2"/>
<path d="M188.493 151.533C201.384 167.085 209.586 185.982 212.143 206.019C214.7 226.056 211.506 246.408 202.933 264.698C194.361 282.989 180.763 298.464 163.727 309.318C146.692 320.172 126.92 325.958 106.72 326C86.5207 326.042 66.7255 320.338 49.645 309.554C32.5645 298.771 18.9029 283.352 10.2546 265.097C1.60627 246.842 -1.6722 226.504 0.801775 206.456C3.27575 186.409 11.4001 167.478 24.2269 151.873L36.5678 162.017C25.6651 175.281 18.7594 191.372 16.6565 208.413C14.5536 225.454 17.3403 242.741 24.6914 258.257C32.0425 273.774 43.6548 286.88 58.1733 296.046C72.6917 305.212 89.5176 310.06 106.687 310.025C123.857 309.989 140.663 305.072 155.143 295.845C169.624 286.619 181.182 273.465 188.468 257.918C195.755 242.371 198.47 225.073 196.297 208.041C194.123 191.009 187.151 174.947 176.194 161.728L188.493 151.533Z" fill="#A8D8E8"/>
<path d="M76.4734 220H73.3796V211.273H76.4989C77.3768 211.273 78.1325 211.447 78.766 211.797C79.3995 212.143 79.8867 212.642 80.2276 213.293C80.5714 213.943 80.7433 214.722 80.7433 215.628C80.7433 216.537 80.5714 217.318 80.2276 217.972C79.8867 218.625 79.3967 219.126 78.7575 219.476C78.1211 219.825 77.3597 220 76.4734 220ZM75.2248 218.419H76.3967C76.9421 218.419 77.4009 218.322 77.7731 218.129C78.1481 217.933 78.4293 217.631 78.6168 217.222C78.8072 216.81 78.9023 216.278 78.9023 215.628C78.9023 214.983 78.8072 214.456 78.6168 214.047C78.4293 213.638 78.1495 213.337 77.7773 213.143C77.4052 212.95 76.9464 212.854 76.4009 212.854H75.2248V218.419ZM85.0589 220.128C84.3857 220.128 83.8061 219.991 83.3203 219.719C82.8374 219.443 82.4652 219.054 82.2038 218.551C81.9425 218.045 81.8118 217.447 81.8118 216.757C81.8118 216.084 81.9425 215.493 82.2038 214.984C82.4652 214.476 82.8331 214.08 83.3075 213.795C83.7848 213.511 84.3445 213.369 84.9865 213.369C85.4183 213.369 85.8203 213.439 86.1925 213.578C86.5675 213.714 86.8942 213.92 87.1726 214.196C87.4538 214.472 87.6726 214.818 87.8288 215.236C87.9851 215.651 88.0632 216.136 88.0632 216.693V217.192H82.5362V216.067H86.3544C86.3544 215.805 86.2976 215.574 86.1839 215.372C86.0703 215.17 85.9126 215.013 85.7109 214.899C85.5121 214.783 85.2805 214.724 85.0163 214.724C84.7408 214.724 84.4964 214.788 84.2834 214.916C84.0732 215.041 83.9084 215.21 83.7891 215.423C83.6697 215.634 83.6087 215.868 83.6058 216.126V217.196C83.6058 217.52 83.6655 217.8 83.7848 218.036C83.907 218.271 84.0788 218.453 84.3004 218.581C84.522 218.709 84.7848 218.773 85.0888 218.773C85.2905 218.773 85.4751 218.744 85.6428 218.688C85.8104 218.631 85.9538 218.545 86.0732 218.432C86.1925 218.318 86.2834 218.179 86.3459 218.014L88.0249 218.125C87.9396 218.528 87.7649 218.881 87.5007 219.182C87.2393 219.48 86.9013 219.713 86.4865 219.881C86.0746 220.045 85.5987 220.128 85.0589 220.128ZM94.6939 215.321L93.032 215.423C93.0036 215.281 92.9425 215.153 92.8487 215.04C92.755 214.923 92.6314 214.831 92.478 214.763C92.3274 214.692 92.147 214.656 91.9368 214.656C91.6555 214.656 91.4183 214.716 91.2251 214.835C91.032 214.952 90.9354 215.108 90.9354 215.304C90.9354 215.46 90.9979 215.592 91.1229 215.7C91.2479 215.808 91.4624 215.895 91.7663 215.96L92.951 216.199C93.5874 216.33 94.0618 216.54 94.3743 216.83C94.6868 217.119 94.843 217.5 94.843 217.972C94.843 218.401 94.7166 218.777 94.4638 219.101C94.2138 219.425 93.87 219.678 93.4325 219.859C92.9979 220.038 92.4964 220.128 91.9283 220.128C91.0618 220.128 90.3714 219.947 89.8572 219.587C89.3459 219.223 89.0462 218.729 88.9581 218.104L90.7436 218.01C90.7976 218.274 90.9283 218.476 91.1357 218.615C91.343 218.751 91.6087 218.82 91.9325 218.82C92.2507 218.82 92.5064 218.759 92.6996 218.636C92.8956 218.511 92.995 218.351 92.9979 218.155C92.995 217.99 92.9254 217.855 92.7891 217.75C92.6527 217.642 92.4425 217.56 92.1584 217.503L91.0249 217.277C90.3857 217.149 89.9098 216.928 89.5973 216.612C89.2876 216.297 89.1328 215.895 89.1328 215.406C89.1328 214.986 89.2464 214.624 89.4737 214.32C89.7038 214.016 90.0263 213.781 90.4411 213.616C90.8587 213.452 91.3473 213.369 91.907 213.369C92.7337 213.369 93.3842 213.544 93.8587 213.893C94.3359 214.243 94.6143 214.719 94.6939 215.321ZM99.4677 213.455V214.818H95.5259V213.455H99.4677ZM96.4208 211.886H98.2362V217.989C98.2362 218.156 98.2617 218.287 98.3129 218.381C98.364 218.472 98.435 218.536 98.5259 218.572C98.6197 218.609 98.7276 218.628 98.8498 218.628C98.935 218.628 99.0202 218.621 99.1055 218.607C99.1907 218.589 99.256 218.577 99.3015 218.568L99.587 219.919C99.4961 219.947 99.3683 219.98 99.2035 220.017C99.0387 220.057 98.8384 220.081 98.6026 220.089C98.1651 220.107 97.7816 220.048 97.4521 219.915C97.1254 219.781 96.8711 219.574 96.6893 219.293C96.5075 219.011 96.418 218.656 96.4208 218.227V211.886ZM100.65 220V213.455H102.466V220H100.65ZM101.562 212.611C101.292 212.611 101.061 212.521 100.868 212.342C100.677 212.161 100.582 211.943 100.582 211.69C100.582 211.44 100.677 211.226 100.868 211.047C101.061 210.865 101.292 210.774 101.562 210.774C101.832 210.774 102.062 210.865 102.252 211.047C102.446 211.226 102.542 211.44 102.542 211.69C102.542 211.943 102.446 212.161 102.252 212.342C102.062 212.521 101.832 212.611 101.562 212.611ZM105.735 216.216V220H103.92V213.455H105.65V214.609H105.727C105.871 214.229 106.114 213.928 106.455 213.706C106.796 213.482 107.21 213.369 107.695 213.369C108.15 213.369 108.546 213.469 108.884 213.668C109.222 213.866 109.485 214.151 109.673 214.52C109.86 214.886 109.954 215.324 109.954 215.832V220H108.138V216.156C108.141 215.756 108.039 215.443 107.832 215.219C107.624 214.991 107.339 214.878 106.975 214.878C106.731 214.878 106.515 214.93 106.327 215.036C106.143 215.141 105.998 215.294 105.893 215.496C105.79 215.695 105.738 215.935 105.735 216.216ZM113.251 220.124C112.833 220.124 112.461 220.051 112.135 219.906C111.808 219.759 111.549 219.541 111.359 219.254C111.172 218.964 111.078 218.604 111.078 218.172C111.078 217.808 111.145 217.503 111.278 217.256C111.412 217.009 111.593 216.81 111.824 216.659C112.054 216.509 112.315 216.395 112.608 216.318C112.903 216.241 113.213 216.188 113.537 216.156C113.917 216.116 114.224 216.08 114.457 216.045C114.69 216.009 114.859 215.955 114.964 215.884C115.069 215.812 115.122 215.707 115.122 215.568V215.543C115.122 215.273 115.037 215.064 114.866 214.916C114.699 214.768 114.46 214.695 114.15 214.695C113.824 214.695 113.564 214.767 113.37 214.912C113.177 215.054 113.049 215.233 112.987 215.449L111.308 215.312C111.393 214.915 111.561 214.571 111.811 214.281C112.061 213.989 112.383 213.764 112.778 213.608C113.176 213.449 113.636 213.369 114.159 213.369C114.522 213.369 114.87 213.412 115.203 213.497C115.538 213.582 115.835 213.714 116.093 213.893C116.355 214.072 116.561 214.303 116.711 214.584C116.862 214.862 116.937 215.196 116.937 215.585V220H115.216V219.092H115.164C115.059 219.297 114.919 219.477 114.743 219.634C114.566 219.787 114.355 219.908 114.108 219.996C113.86 220.081 113.575 220.124 113.251 220.124ZM113.771 218.871C114.038 218.871 114.274 218.818 114.478 218.713C114.683 218.605 114.843 218.46 114.96 218.278C115.076 218.097 115.135 217.891 115.135 217.661V216.966C115.078 217.003 115 217.037 114.9 217.068C114.804 217.097 114.694 217.124 114.572 217.149C114.45 217.172 114.328 217.193 114.206 217.213C114.083 217.23 113.973 217.246 113.873 217.26C113.66 217.291 113.474 217.341 113.315 217.409C113.156 217.477 113.032 217.57 112.944 217.686C112.856 217.8 112.812 217.942 112.812 218.112C112.812 218.359 112.902 218.548 113.081 218.679C113.262 218.807 113.493 218.871 113.771 218.871ZM121.827 213.455V214.818H117.885V213.455H121.827ZM118.78 211.886H120.596V217.989C120.596 218.156 120.621 218.287 120.672 218.381C120.723 218.472 120.794 218.536 120.885 218.572C120.979 218.609 121.087 218.628 121.209 218.628C121.294 218.628 121.38 218.621 121.465 218.607C121.55 218.589 121.615 218.577 121.661 218.568L121.946 219.919C121.855 219.947 121.728 219.98 121.563 220.017C121.398 220.057 121.198 220.081 120.962 220.089C120.525 220.107 120.141 220.048 119.811 219.915C119.485 219.781 119.23 219.574 119.049 219.293C118.867 219.011 118.777 218.656 118.78 218.227V211.886ZM123.01 220V213.455H124.825V220H123.01ZM123.922 212.611C123.652 212.611 123.42 212.521 123.227 212.342C123.037 212.161 122.941 211.943 122.941 211.69C122.941 211.44 123.037 211.226 123.227 211.047C123.42 210.865 123.652 210.774 123.922 210.774C124.191 210.774 124.422 210.865 124.612 211.047C124.805 211.226 124.902 211.44 124.902 211.69C124.902 211.943 124.805 212.161 124.612 212.342C124.422 212.521 124.191 212.611 123.922 212.611ZM129.237 220.128C128.575 220.128 128.002 219.987 127.519 219.706C127.039 219.422 126.668 219.027 126.407 218.521C126.146 218.013 126.015 217.423 126.015 216.753C126.015 216.077 126.146 215.486 126.407 214.98C126.668 214.472 127.039 214.077 127.519 213.795C128.002 213.511 128.575 213.369 129.237 213.369C129.898 213.369 130.469 213.511 130.95 213.795C131.433 214.077 131.805 214.472 132.066 214.98C132.327 215.486 132.458 216.077 132.458 216.753C132.458 217.423 132.327 218.013 132.066 218.521C131.805 219.027 131.433 219.422 130.95 219.706C130.469 219.987 129.898 220.128 129.237 220.128ZM129.245 218.722C129.546 218.722 129.798 218.636 129.999 218.466C130.201 218.293 130.353 218.057 130.455 217.759C130.56 217.46 130.613 217.121 130.613 216.74C130.613 216.359 130.56 216.02 130.455 215.722C130.353 215.423 130.201 215.187 129.999 215.014C129.798 214.841 129.546 214.754 129.245 214.754C128.941 214.754 128.685 214.841 128.478 215.014C128.273 215.187 128.119 215.423 128.013 215.722C127.911 216.02 127.86 216.359 127.86 216.74C127.86 217.121 127.911 217.46 128.013 217.759C128.119 218.057 128.273 218.293 128.478 218.466C128.685 218.636 128.941 218.722 129.245 218.722ZM135.454 216.216V220H133.638V213.455H135.369V214.609H135.445C135.59 214.229 135.833 213.928 136.174 213.706C136.515 213.482 136.928 213.369 137.414 213.369C137.869 213.369 138.265 213.469 138.603 213.668C138.941 213.866 139.204 214.151 139.391 214.52C139.579 214.886 139.673 215.324 139.673 215.832V220H137.857V216.156C137.86 215.756 137.758 215.443 137.55 215.219C137.343 214.991 137.058 214.878 136.694 214.878C136.45 214.878 136.234 214.93 136.046 215.036C135.862 215.141 135.717 215.294 135.612 215.496C135.509 215.695 135.457 215.935 135.454 216.216ZM89.177 226.273L91.2864 232.903H91.3674L93.481 226.273H95.5265L92.5179 235H90.1401L87.1273 226.273H89.177ZM98.7875 235.128C98.1142 235.128 97.5346 234.991 97.0488 234.719C96.5659 234.443 96.1937 234.054 95.9324 233.551C95.671 233.045 95.5403 232.447 95.5403 231.757C95.5403 231.084 95.671 230.493 95.9324 229.984C96.1937 229.476 96.5616 229.08 97.036 228.795C97.5133 228.511 98.073 228.369 98.715 228.369C99.1468 228.369 99.5488 228.439 99.921 228.578C100.296 228.714 100.623 228.92 100.901 229.196C101.182 229.472 101.401 229.818 101.557 230.236C101.714 230.651 101.792 231.136 101.792 231.693V232.192H96.2647V231.067H100.083C100.083 230.805 100.026 230.574 99.9125 230.372C99.7988 230.17 99.6412 230.013 99.4395 229.899C99.2406 229.783 99.0091 229.724 98.7449 229.724C98.4693 229.724 98.225 229.788 98.0119 229.916C97.8017 230.041 97.6369 230.21 97.5176 230.423C97.3983 230.634 97.3372 230.868 97.3343 231.126V232.196C97.3343 232.52 97.394 232.8 97.5133 233.036C97.6355 233.271 97.8074 233.453 98.0289 233.581C98.2505 233.709 98.5133 233.773 98.8173 233.773C99.019 233.773 99.2037 233.744 99.3713 233.688C99.5389 233.631 99.6824 233.545 99.8017 233.432C99.921 233.318 100.012 233.179 100.074 233.014L101.753 233.125C101.668 233.528 101.493 233.881 101.229 234.182C100.968 234.48 100.63 234.713 100.215 234.881C99.8031 235.045 99.3272 235.128 98.7875 235.128ZM105.934 235.128C105.263 235.128 104.687 234.986 104.204 234.702C103.724 234.415 103.354 234.017 103.096 233.509C102.84 233 102.712 232.415 102.712 231.753C102.712 231.082 102.841 230.494 103.1 229.989C103.361 229.48 103.732 229.084 104.212 228.8C104.692 228.513 105.263 228.369 105.925 228.369C106.496 228.369 106.996 228.473 107.425 228.68C107.854 228.888 108.194 229.179 108.444 229.554C108.694 229.929 108.831 230.369 108.857 230.875H107.144C107.096 230.548 106.968 230.286 106.76 230.087C106.556 229.885 106.287 229.784 105.955 229.784C105.674 229.784 105.428 229.861 105.218 230.014C105.01 230.165 104.849 230.385 104.732 230.675C104.616 230.964 104.557 231.315 104.557 231.727C104.557 232.145 104.614 232.5 104.728 232.793C104.844 233.085 105.008 233.308 105.218 233.462C105.428 233.615 105.674 233.692 105.955 233.692C106.162 233.692 106.349 233.649 106.513 233.564C106.681 233.479 106.819 233.355 106.927 233.193C107.037 233.028 107.11 232.831 107.144 232.601H108.857C108.829 233.101 108.692 233.541 108.448 233.922C108.206 234.3 107.873 234.595 107.447 234.808C107.02 235.021 106.516 235.128 105.934 235.128ZM113.501 228.455V229.818H109.559V228.455H113.501ZM110.454 226.886H112.269V232.989C112.269 233.156 112.295 233.287 112.346 233.381C112.397 233.472 112.468 233.536 112.559 233.572C112.653 233.609 112.761 233.628 112.883 233.628C112.968 233.628 113.053 233.621 113.139 233.607C113.224 233.589 113.289 233.577 113.335 233.568L113.62 234.919C113.529 234.947 113.401 234.98 113.237 235.017C113.072 235.057 112.872 235.081 112.636 235.089C112.198 235.107 111.815 235.048 111.485 234.915C111.159 234.781 110.904 234.574 110.722 234.293C110.541 234.011 110.451 233.656 110.454 233.227V226.886ZM117.57 235.128C116.909 235.128 116.336 234.987 115.853 234.706C115.373 234.422 115.002 234.027 114.741 233.521C114.48 233.013 114.349 232.423 114.349 231.753C114.349 231.077 114.48 230.486 114.741 229.98C115.002 229.472 115.373 229.077 115.853 228.795C116.336 228.511 116.909 228.369 117.57 228.369C118.232 228.369 118.803 228.511 119.284 228.795C119.767 229.077 120.139 229.472 120.4 229.98C120.661 230.486 120.792 231.077 120.792 231.753C120.792 232.423 120.661 233.013 120.4 233.521C120.139 234.027 119.767 234.422 119.284 234.706C118.803 234.987 118.232 235.128 117.57 235.128ZM117.579 233.722C117.88 233.722 118.132 233.636 118.333 233.466C118.535 233.293 118.687 233.057 118.789 232.759C118.894 232.46 118.947 232.121 118.947 231.74C118.947 231.359 118.894 231.02 118.789 230.722C118.687 230.423 118.535 230.187 118.333 230.014C118.132 229.841 117.88 229.754 117.579 229.754C117.275 229.754 117.019 229.841 116.812 230.014C116.607 230.187 116.453 230.423 116.347 230.722C116.245 231.02 116.194 231.359 116.194 231.74C116.194 232.121 116.245 232.46 116.347 232.759C116.453 233.057 116.607 233.293 116.812 233.466C117.019 233.636 117.275 233.722 117.579 233.722ZM121.972 235V228.455H123.732V229.597H123.801C123.92 229.19 124.12 228.884 124.401 228.676C124.683 228.466 125.007 228.361 125.373 228.361C125.464 228.361 125.562 228.366 125.667 228.378C125.772 228.389 125.865 228.405 125.944 228.425V230.036C125.859 230.01 125.741 229.987 125.59 229.967C125.44 229.947 125.302 229.938 125.177 229.938C124.91 229.938 124.671 229.996 124.461 230.112C124.254 230.226 124.089 230.385 123.967 230.589C123.847 230.794 123.788 231.03 123.788 231.297V235H121.972Z" fill="#0B0755"/>
<path d="M738.461 237.542C734.165 262.534 721.093 285.172 701.595 301.386C682.098 317.599 657.455 326.324 632.099 325.991C606.744 325.657 582.339 316.288 563.275 299.567C544.211 282.846 531.738 259.871 528.101 234.776L543.911 232.484C547.003 253.816 557.604 273.344 573.809 287.557C590.013 301.769 610.757 309.734 632.31 310.017C653.862 310.301 674.808 302.885 691.381 289.103C707.954 275.321 719.065 256.079 722.717 234.836L738.461 237.542Z" fill="#A8D8E8"/>
<path d="M527.098 214.921C527.87 196.999 533.156 179.562 542.466 164.228L556.121 172.519C548.207 185.552 543.714 200.374 543.059 215.608L527.098 214.921Z" fill="#1E79B7"/>
<path d="M554.133 148.485C566.095 135.117 581.239 124.986 598.162 119.034L603.463 134.104C589.079 139.163 576.205 147.774 566.038 159.137L554.133 148.485Z" fill="#1E79B7"/>
<path d="M609.971 115.632C627.467 111.668 645.68 112.189 662.921 117.144L658.508 132.498C643.853 128.285 628.372 127.843 613.501 131.212L609.971 115.632Z" fill="#1E79B7"/>
<path d="M672.495 120.396C689.188 126.964 703.951 137.642 715.415 151.44L703.128 161.649C693.384 149.921 680.835 140.844 666.646 135.261L672.495 120.396Z" fill="#1E79B7"/>
<path d="M726.084 166.866C734.95 182.46 739.733 200.042 739.989 217.979L724.016 218.207C723.798 202.961 719.733 188.016 712.197 174.761L726.084 166.866Z" fill="#1E79B7"/>
<path d="M528.128 234.958C527.156 228.332 526.811 221.63 527.098 214.939L543.058 215.624C542.814 221.31 543.107 227.008 543.934 232.639L528.128 234.958Z" fill="#61A5FB"/>
<path d="M542.311 164.484C545.77 158.75 549.763 153.355 554.235 148.371L566.125 159.04C562.323 163.277 558.93 167.862 555.989 172.736L542.311 164.484Z" fill="#FEA3AF"/>
<path d="M591.086 121.81C597.228 119.143 603.609 117.062 610.142 115.593L613.646 131.179C608.093 132.427 602.669 134.197 597.448 136.464L591.086 121.81Z" fill="#34D399"/>
<path d="M714.904 150.829C719.222 155.948 723.047 161.462 726.33 167.299L712.405 175.129C709.615 170.168 706.364 165.481 702.693 161.13L714.904 150.829Z" fill="#A78AFA"/>
<path d="M739.981 217.487C740.108 224.182 739.602 230.875 738.472 237.475L722.726 234.779C723.687 229.169 724.116 223.48 724.009 217.789L739.981 217.487Z" fill="#F373B7"/>
<path d="M662.119 116.917C668.569 118.717 674.836 121.121 680.834 124.097L673.734 138.408C668.635 135.878 663.309 133.834 657.826 132.305L662.119 116.917Z" fill="#FBBF24"/>
<path d="M595.61 227V218.273H601.388V219.794H597.455V221.874H601.005V223.395H597.455V227H595.61ZM602.596 227V220.455H604.411V227H602.596ZM603.507 219.611C603.238 219.611 603.006 219.521 602.813 219.342C602.623 219.161 602.527 218.943 602.527 218.69C602.527 218.44 602.623 218.226 602.813 218.047C603.006 217.865 603.238 217.774 603.507 217.774C603.777 217.774 604.007 217.865 604.198 218.047C604.391 218.226 604.488 218.44 604.488 218.69C604.488 218.943 604.391 219.161 604.198 219.342C604.007 219.521 603.777 219.611 603.507 219.611ZM607.68 223.216V227H605.865V220.455H607.595V221.609H607.672C607.817 221.229 608.06 220.928 608.401 220.706C608.741 220.482 609.155 220.369 609.641 220.369C610.095 220.369 610.491 220.469 610.83 220.668C611.168 220.866 611.43 221.151 611.618 221.52C611.805 221.886 611.899 222.324 611.899 222.832V227H610.084V223.156C610.087 222.756 609.984 222.443 609.777 222.219C609.57 221.991 609.284 221.878 608.92 221.878C608.676 221.878 608.46 221.93 608.273 222.036C608.088 222.141 607.943 222.294 607.838 222.496C607.736 222.695 607.683 222.935 607.68 223.216ZM615.196 227.124C614.779 227.124 614.407 227.051 614.08 226.906C613.753 226.759 613.495 226.541 613.304 226.254C613.117 225.964 613.023 225.604 613.023 225.172C613.023 224.808 613.09 224.503 613.223 224.256C613.357 224.009 613.539 223.81 613.769 223.659C613.999 223.509 614.26 223.395 614.553 223.318C614.848 223.241 615.158 223.188 615.482 223.156C615.863 223.116 616.169 223.08 616.402 223.045C616.635 223.009 616.804 222.955 616.909 222.884C617.015 222.812 617.067 222.707 617.067 222.568V222.543C617.067 222.273 616.982 222.064 616.811 221.916C616.644 221.768 616.405 221.695 616.096 221.695C615.769 221.695 615.509 221.767 615.316 221.912C615.123 222.054 614.995 222.233 614.932 222.449L613.253 222.312C613.338 221.915 613.506 221.571 613.756 221.281C614.006 220.989 614.328 220.764 614.723 220.608C615.121 220.449 615.581 220.369 616.104 220.369C616.468 220.369 616.816 220.412 617.148 220.497C617.483 220.582 617.78 220.714 618.039 220.893C618.3 221.072 618.506 221.303 618.657 221.584C618.807 221.862 618.882 222.196 618.882 222.585V227H617.161V226.092H617.11C617.005 226.297 616.864 226.477 616.688 226.634C616.512 226.787 616.3 226.908 616.053 226.996C615.806 227.081 615.52 227.124 615.196 227.124ZM615.716 225.871C615.983 225.871 616.219 225.818 616.424 225.713C616.628 225.605 616.789 225.46 616.905 225.278C617.022 225.097 617.08 224.891 617.08 224.661V223.966C617.023 224.003 616.945 224.037 616.846 224.068C616.749 224.097 616.64 224.124 616.517 224.149C616.395 224.172 616.273 224.193 616.151 224.213C616.029 224.23 615.918 224.246 615.819 224.26C615.605 224.291 615.419 224.341 615.26 224.409C615.101 224.477 614.978 224.57 614.89 224.686C614.801 224.8 614.757 224.942 614.757 225.112C614.757 225.359 614.847 225.548 615.026 225.679C615.208 225.807 615.438 225.871 615.716 225.871ZM622.106 218.273V227H620.291V218.273H622.106ZM626.372 227V218.273H629.815C630.477 218.273 631.041 218.399 631.507 218.652C631.973 218.902 632.328 219.25 632.572 219.696C632.819 220.139 632.943 220.651 632.943 221.23C632.943 221.81 632.818 222.321 632.568 222.764C632.318 223.207 631.956 223.553 631.481 223.8C631.01 224.047 630.439 224.17 629.768 224.17H627.574V222.692H629.47C629.825 222.692 630.118 222.631 630.348 222.509C630.581 222.384 630.754 222.212 630.868 221.993C630.984 221.771 631.042 221.517 631.042 221.23C631.042 220.94 630.984 220.687 630.868 220.472C630.754 220.253 630.581 220.084 630.348 219.964C630.115 219.842 629.819 219.781 629.461 219.781H628.217V227H626.372ZM634.107 227V220.455H635.867V221.597H635.935C636.055 221.19 636.255 220.884 636.536 220.676C636.817 220.466 637.141 220.361 637.508 220.361C637.599 220.361 637.697 220.366 637.802 220.378C637.907 220.389 637.999 220.405 638.079 220.425V222.036C637.994 222.01 637.876 221.987 637.725 221.967C637.575 221.947 637.437 221.938 637.312 221.938C637.045 221.938 636.806 221.996 636.596 222.112C636.388 222.226 636.224 222.385 636.102 222.589C635.982 222.794 635.923 223.03 635.923 223.297V227H634.107ZM641.67 227.128C641.008 227.128 640.436 226.987 639.953 226.706C639.473 226.422 639.102 226.027 638.841 225.521C638.579 225.013 638.449 224.423 638.449 223.753C638.449 223.077 638.579 222.486 638.841 221.98C639.102 221.472 639.473 221.077 639.953 220.795C640.436 220.511 641.008 220.369 641.67 220.369C642.332 220.369 642.903 220.511 643.383 220.795C643.866 221.077 644.238 221.472 644.5 221.98C644.761 222.486 644.892 223.077 644.892 223.753C644.892 224.423 644.761 225.013 644.5 225.521C644.238 226.027 643.866 226.422 643.383 226.706C642.903 226.987 642.332 227.128 641.67 227.128ZM641.679 225.722C641.98 225.722 642.231 225.636 642.433 225.466C642.635 225.293 642.787 225.057 642.889 224.759C642.994 224.46 643.047 224.121 643.047 223.74C643.047 223.359 642.994 223.02 642.889 222.722C642.787 222.423 642.635 222.187 642.433 222.014C642.231 221.841 641.98 221.754 641.679 221.754C641.375 221.754 641.119 221.841 640.912 222.014C640.707 222.187 640.552 222.423 640.447 222.722C640.345 223.02 640.294 223.359 640.294 223.74C640.294 224.121 640.345 224.46 640.447 224.759C640.552 225.057 640.707 225.293 640.912 225.466C641.119 225.636 641.375 225.722 641.679 225.722ZM648.484 227.107C647.987 227.107 647.537 226.979 647.133 226.723C646.733 226.464 646.414 226.085 646.179 225.585C645.946 225.082 645.829 224.466 645.829 223.736C645.829 222.986 645.95 222.362 646.191 221.865C646.433 221.365 646.754 220.991 647.154 220.744C647.558 220.494 648 220.369 648.48 220.369C648.846 220.369 649.152 220.432 649.396 220.557C649.643 220.679 649.842 220.832 649.993 221.017C650.146 221.199 650.262 221.378 650.342 221.554H650.397V218.273H652.208V227H650.419V225.952H650.342C650.257 226.134 650.136 226.314 649.98 226.493C649.826 226.669 649.626 226.815 649.379 226.932C649.135 227.048 648.836 227.107 648.484 227.107ZM649.059 225.662C649.352 225.662 649.599 225.582 649.801 225.423C650.005 225.261 650.162 225.036 650.27 224.746C650.38 224.456 650.436 224.116 650.436 223.727C650.436 223.338 650.382 223 650.274 222.713C650.166 222.426 650.01 222.205 649.805 222.048C649.6 221.892 649.352 221.814 649.059 221.814C648.761 221.814 648.51 221.895 648.305 222.057C648.1 222.219 647.946 222.443 647.841 222.73C647.735 223.017 647.683 223.349 647.683 223.727C647.683 224.108 647.735 224.445 647.841 224.737C647.949 225.027 648.103 225.254 648.305 225.419C648.51 225.581 648.761 225.662 649.059 225.662ZM657.898 224.213V220.455H659.714V227H657.971V225.811H657.903C657.755 226.195 657.509 226.503 657.165 226.736C656.825 226.969 656.408 227.085 655.917 227.085C655.479 227.085 655.094 226.986 654.762 226.787C654.43 226.588 654.17 226.305 653.982 225.939C653.798 225.572 653.704 225.134 653.701 224.622V220.455H655.516V224.298C655.519 224.685 655.623 224.99 655.827 225.214C656.032 225.439 656.306 225.551 656.65 225.551C656.869 225.551 657.073 225.501 657.263 225.402C657.454 225.3 657.607 225.149 657.724 224.95C657.843 224.751 657.901 224.506 657.898 224.213ZM664.123 227.128C663.453 227.128 662.876 226.986 662.393 226.702C661.913 226.415 661.544 226.017 661.285 225.509C661.029 225 660.902 224.415 660.902 223.753C660.902 223.082 661.031 222.494 661.289 221.989C661.551 221.48 661.922 221.084 662.402 220.8C662.882 220.513 663.453 220.369 664.115 220.369C664.686 220.369 665.186 220.473 665.615 220.68C666.044 220.888 666.383 221.179 666.633 221.554C666.883 221.929 667.021 222.369 667.047 222.875H665.333C665.285 222.548 665.157 222.286 664.95 222.087C664.745 221.885 664.477 221.784 664.145 221.784C663.863 221.784 663.618 221.861 663.407 222.014C663.2 222.165 663.038 222.385 662.922 222.675C662.805 222.964 662.747 223.315 662.747 223.727C662.747 224.145 662.804 224.5 662.917 224.793C663.034 225.085 663.197 225.308 663.407 225.462C663.618 225.615 663.863 225.692 664.145 225.692C664.352 225.692 664.538 225.649 664.703 225.564C664.87 225.479 665.008 225.355 665.116 225.193C665.227 225.028 665.299 224.831 665.333 224.601H667.047C667.018 225.101 666.882 225.541 666.637 225.922C666.396 226.3 666.062 226.595 665.636 226.808C665.21 227.021 664.706 227.128 664.123 227.128ZM671.69 220.455V221.818H667.749V220.455H671.69ZM668.643 218.886H670.459V224.989C670.459 225.156 670.484 225.287 670.536 225.381C670.587 225.472 670.658 225.536 670.749 225.572C670.842 225.609 670.95 225.628 671.072 225.628C671.158 225.628 671.243 225.621 671.328 225.607C671.413 225.589 671.479 225.577 671.524 225.568L671.81 226.919C671.719 226.947 671.591 226.98 671.426 227.017C671.261 227.057 671.061 227.081 670.825 227.089C670.388 227.107 670.004 227.048 669.675 226.915C669.348 226.781 669.094 226.574 668.912 226.293C668.73 226.011 668.641 225.656 668.643 225.227V218.886Z" fill="#0B0755"/>
<path d="M524.487 177.273V186H522.641V177.273H524.487ZM529.75 177.273V186H527.905V179.024H527.854L525.855 180.277V178.641L528.016 177.273H529.75Z" fill="#0B0755"/>
<path d="M561.643 123.273V132H559.798V123.273H561.643ZM563.11 132V130.67L566.216 127.794C566.48 127.538 566.702 127.308 566.881 127.104C567.063 126.899 567.201 126.699 567.294 126.503C567.388 126.304 567.435 126.089 567.435 125.859C567.435 125.604 567.377 125.384 567.26 125.199C567.144 125.011 566.985 124.868 566.783 124.768C566.581 124.666 566.353 124.615 566.097 124.615C565.83 124.615 565.597 124.669 565.398 124.777C565.199 124.885 565.046 125.04 564.938 125.241C564.83 125.443 564.776 125.683 564.776 125.962H563.025C563.025 125.391 563.154 124.895 563.412 124.474C563.671 124.054 564.033 123.729 564.499 123.499C564.965 123.268 565.502 123.153 566.11 123.153C566.735 123.153 567.279 123.264 567.742 123.486C568.208 123.705 568.57 124.009 568.828 124.398C569.087 124.787 569.216 125.233 569.216 125.736C569.216 126.065 569.151 126.391 569.02 126.712C568.892 127.033 568.664 127.389 568.334 127.781C568.005 128.17 567.54 128.638 566.941 129.183L565.667 130.432V130.491H569.331V132H563.11Z" fill="#0B0755"/>
<path d="M630.467 101.273V110H628.622V101.273H630.467ZM635.16 110.119C634.523 110.119 633.957 110.01 633.46 109.791C632.965 109.57 632.575 109.266 632.288 108.879C632.004 108.49 631.857 108.041 631.849 107.533H633.707C633.718 107.746 633.788 107.933 633.915 108.095C634.046 108.254 634.219 108.378 634.435 108.466C634.651 108.554 634.894 108.598 635.164 108.598C635.445 108.598 635.694 108.548 635.91 108.449C636.126 108.349 636.295 108.212 636.417 108.036C636.539 107.859 636.6 107.656 636.6 107.426C636.6 107.193 636.535 106.987 636.404 106.808C636.276 106.626 636.092 106.484 635.85 106.382C635.612 106.28 635.327 106.229 634.998 106.229H634.184V104.874H634.998C635.276 104.874 635.522 104.825 635.735 104.729C635.951 104.632 636.119 104.499 636.238 104.328C636.357 104.155 636.417 103.953 636.417 103.723C636.417 103.504 636.364 103.312 636.259 103.148C636.157 102.98 636.012 102.849 635.825 102.756C635.64 102.662 635.424 102.615 635.177 102.615C634.927 102.615 634.698 102.661 634.491 102.751C634.283 102.839 634.117 102.966 633.992 103.131C633.867 103.295 633.8 103.489 633.792 103.71H632.023C632.032 103.207 632.175 102.764 632.454 102.381C632.732 101.997 633.107 101.697 633.579 101.482C634.053 101.263 634.589 101.153 635.185 101.153C635.788 101.153 636.315 101.263 636.766 101.482C637.218 101.7 637.569 101.996 637.819 102.368C638.072 102.737 638.197 103.152 638.194 103.612C638.197 104.101 638.045 104.509 637.738 104.835C637.434 105.162 637.038 105.369 636.549 105.457V105.526C637.191 105.608 637.68 105.831 638.015 106.195C638.353 106.555 638.521 107.007 638.518 107.55C638.521 108.047 638.377 108.489 638.087 108.875C637.8 109.261 637.404 109.565 636.898 109.787C636.393 110.009 635.813 110.119 635.16 110.119Z" fill="#0B0755"/>
<path d="M699.356 123.273V132H697.51V123.273H699.356ZM700.691 130.466V129.013L704.334 123.273H705.587V125.284H704.845L702.548 128.919V128.987H707.726V130.466H700.691ZM704.879 132V130.023L704.914 129.379V123.273H706.644V132H704.879Z" fill="#0B0755"/>
<path d="M740.555 177.273V186H738.71V177.273H740.555ZM745.209 186.119C744.607 186.119 744.07 186.009 743.599 185.787C743.13 185.565 742.758 185.26 742.482 184.871C742.206 184.482 742.063 184.036 742.052 183.533H743.841C743.861 183.871 744.003 184.145 744.268 184.355C744.532 184.565 744.846 184.67 745.209 184.67C745.499 184.67 745.755 184.607 745.976 184.479C746.201 184.348 746.376 184.168 746.501 183.938C746.628 183.705 746.692 183.437 746.692 183.136C746.692 182.83 746.627 182.56 746.496 182.327C746.368 182.094 746.191 181.912 745.964 181.781C745.736 181.651 745.476 181.584 745.184 181.581C744.928 181.581 744.68 181.634 744.438 181.739C744.199 181.844 744.013 181.987 743.88 182.169L742.239 181.875L742.653 177.273H747.988V178.781H744.174L743.948 180.967H743.999C744.153 180.751 744.384 180.572 744.694 180.43C745.003 180.288 745.35 180.217 745.733 180.217C746.259 180.217 746.728 180.341 747.14 180.588C747.552 180.835 747.877 181.175 748.116 181.607C748.354 182.036 748.472 182.53 748.469 183.089C748.472 183.678 748.336 184.2 748.06 184.658C747.787 185.112 747.405 185.47 746.914 185.732C746.425 185.99 745.857 186.119 745.209 186.119Z" fill="#0B0755"/>
</svg>
