<svg width="753" height="367" viewBox="0 0 753 367" fill="none" xmlns="http://www.w3.org/2000/svg">
<rect width="753" height="367" fill="white"/>
<path d="M262.5 184L252.5 178.226V189.774L262.5 184ZM221 184V185H253.5V184V183H221V184Z" fill="#0B0755"/>
<path d="M531.5 184L521.5 178.226V189.774L531.5 184ZM490 184V185H522.5V184V183H490V184Z" fill="#0B0755"/>
<path d="M458.493 119.533C471.384 135.085 479.586 153.982 482.143 174.019C484.7 194.056 481.506 214.408 472.933 232.698C464.361 250.989 450.763 266.464 433.727 277.318C416.692 288.172 396.92 293.958 376.72 294C356.521 294.042 336.726 288.338 319.645 277.554C302.564 266.771 288.903 251.352 280.255 233.097C271.606 214.842 268.328 194.504 270.802 174.456C273.276 154.409 281.4 135.478 294.227 119.873L306.568 130.017C295.665 143.281 288.759 159.372 286.657 176.413C284.554 193.454 287.34 210.741 294.691 226.257C302.042 241.774 313.655 254.88 328.173 264.046C342.692 273.212 359.518 278.06 376.687 278.025C393.857 277.989 410.663 273.072 425.143 263.845C439.624 254.619 451.182 241.465 458.468 225.918C465.755 210.371 468.47 193.073 466.297 176.041C464.123 159.009 457.151 142.947 446.194 129.728L458.493 119.533Z" fill="#A8D8E8"/>
<path d="M294.193 119.914C296.317 117.328 298.561 114.844 300.919 112.469L312.256 123.723C310.252 125.742 308.344 127.854 306.539 130.052L294.193 119.914Z" fill="#61A5FB"/>
<path d="M451.807 112.193C454.173 114.559 456.427 117.036 458.56 119.614L446.251 129.797C444.438 127.605 442.522 125.5 440.511 123.489L451.807 112.193Z" fill="#A78AFA"/>
<path d="M346.473 188H343.38V179.273H346.499C347.377 179.273 348.132 179.447 348.766 179.797C349.4 180.143 349.887 180.642 350.228 181.293C350.571 181.943 350.743 182.722 350.743 183.628C350.743 184.537 350.571 185.318 350.228 185.972C349.887 186.625 349.397 187.126 348.757 187.476C348.121 187.825 347.36 188 346.473 188ZM345.225 186.419H346.397C346.942 186.419 347.401 186.322 347.773 186.129C348.148 185.933 348.429 185.631 348.617 185.222C348.807 184.81 348.902 184.278 348.902 183.628C348.902 182.983 348.807 182.456 348.617 182.047C348.429 181.638 348.15 181.337 347.777 181.143C347.405 180.95 346.946 180.854 346.401 180.854H345.225V186.419ZM355.059 188.128C354.386 188.128 353.806 187.991 353.32 187.719C352.837 187.443 352.465 187.054 352.204 186.551C351.942 186.045 351.812 185.447 351.812 184.757C351.812 184.084 351.942 183.493 352.204 182.984C352.465 182.476 352.833 182.08 353.308 181.795C353.785 181.511 354.344 181.369 354.987 181.369C355.418 181.369 355.82 181.439 356.192 181.578C356.567 181.714 356.894 181.92 357.173 182.196C357.454 182.472 357.673 182.818 357.829 183.236C357.985 183.651 358.063 184.136 358.063 184.693V185.192H352.536V184.067H356.354C356.354 183.805 356.298 183.574 356.184 183.372C356.07 183.17 355.913 183.013 355.711 182.899C355.512 182.783 355.281 182.724 355.016 182.724C354.741 182.724 354.496 182.788 354.283 182.916C354.073 183.041 353.908 183.21 353.789 183.423C353.67 183.634 353.609 183.868 353.606 184.126V185.196C353.606 185.52 353.665 185.8 353.785 186.036C353.907 186.271 354.079 186.453 354.3 186.581C354.522 186.709 354.785 186.773 355.089 186.773C355.29 186.773 355.475 186.744 355.643 186.688C355.81 186.631 355.954 186.545 356.073 186.432C356.192 186.318 356.283 186.179 356.346 186.014L358.025 186.125C357.94 186.528 357.765 186.881 357.501 187.182C357.239 187.48 356.901 187.713 356.487 187.881C356.075 188.045 355.599 188.128 355.059 188.128ZM364.694 183.321L363.032 183.423C363.004 183.281 362.942 183.153 362.849 183.04C362.755 182.923 362.631 182.831 362.478 182.763C362.327 182.692 362.147 182.656 361.937 182.656C361.656 182.656 361.418 182.716 361.225 182.835C361.032 182.952 360.935 183.108 360.935 183.304C360.935 183.46 360.998 183.592 361.123 183.7C361.248 183.808 361.462 183.895 361.766 183.96L362.951 184.199C363.587 184.33 364.062 184.54 364.374 184.83C364.687 185.119 364.843 185.5 364.843 185.972C364.843 186.401 364.717 186.777 364.464 187.101C364.214 187.425 363.87 187.678 363.433 187.859C362.998 188.038 362.496 188.128 361.928 188.128C361.062 188.128 360.371 187.947 359.857 187.587C359.346 187.223 359.046 186.729 358.958 186.104L360.744 186.01C360.798 186.274 360.928 186.476 361.136 186.615C361.343 186.751 361.609 186.82 361.933 186.82C362.251 186.82 362.506 186.759 362.7 186.636C362.896 186.511 362.995 186.351 362.998 186.155C362.995 185.99 362.925 185.855 362.789 185.75C362.653 185.642 362.442 185.56 362.158 185.503L361.025 185.277C360.386 185.149 359.91 184.928 359.597 184.612C359.288 184.297 359.133 183.895 359.133 183.406C359.133 182.986 359.246 182.624 359.474 182.32C359.704 182.016 360.026 181.781 360.441 181.616C360.859 181.452 361.347 181.369 361.907 181.369C362.734 181.369 363.384 181.544 363.859 181.893C364.336 182.243 364.614 182.719 364.694 183.321ZM369.468 181.455V182.818H365.526V181.455H369.468ZM366.421 179.886H368.236V185.989C368.236 186.156 368.262 186.287 368.313 186.381C368.364 186.472 368.435 186.536 368.526 186.572C368.62 186.609 368.728 186.628 368.85 186.628C368.935 186.628 369.02 186.621 369.105 186.607C369.191 186.589 369.256 186.577 369.301 186.568L369.587 187.919C369.496 187.947 369.368 187.98 369.203 188.017C369.039 188.057 368.838 188.081 368.603 188.089C368.165 188.107 367.782 188.048 367.452 187.915C367.125 187.781 366.871 187.574 366.689 187.293C366.507 187.011 366.418 186.656 366.421 186.227V179.886ZM370.65 188V181.455H372.466V188H370.65ZM371.562 180.611C371.292 180.611 371.061 180.521 370.868 180.342C370.677 180.161 370.582 179.943 370.582 179.69C370.582 179.44 370.677 179.226 370.868 179.047C371.061 178.865 371.292 178.774 371.562 178.774C371.832 178.774 372.062 178.865 372.252 179.047C372.446 179.226 372.542 179.44 372.542 179.69C372.542 179.943 372.446 180.161 372.252 180.342C372.062 180.521 371.832 180.611 371.562 180.611ZM375.735 184.216V188H373.92V181.455H375.65V182.609H375.727C375.871 182.229 376.114 181.928 376.455 181.706C376.796 181.482 377.21 181.369 377.695 181.369C378.15 181.369 378.546 181.469 378.884 181.668C379.222 181.866 379.485 182.151 379.673 182.52C379.86 182.886 379.954 183.324 379.954 183.832V188H378.138V184.156C378.141 183.756 378.039 183.443 377.832 183.219C377.624 182.991 377.339 182.878 376.975 182.878C376.731 182.878 376.515 182.93 376.327 183.036C376.143 183.141 375.998 183.294 375.893 183.496C375.79 183.695 375.738 183.935 375.735 184.216ZM383.251 188.124C382.833 188.124 382.461 188.051 382.135 187.906C381.808 187.759 381.549 187.541 381.359 187.254C381.172 186.964 381.078 186.604 381.078 186.172C381.078 185.808 381.145 185.503 381.278 185.256C381.412 185.009 381.593 184.81 381.824 184.659C382.054 184.509 382.315 184.395 382.608 184.318C382.903 184.241 383.213 184.188 383.537 184.156C383.917 184.116 384.224 184.08 384.457 184.045C384.69 184.009 384.859 183.955 384.964 183.884C385.069 183.812 385.122 183.707 385.122 183.568V183.543C385.122 183.273 385.037 183.064 384.866 182.916C384.699 182.768 384.46 182.695 384.15 182.695C383.824 182.695 383.564 182.767 383.37 182.912C383.177 183.054 383.049 183.233 382.987 183.449L381.308 183.312C381.393 182.915 381.561 182.571 381.811 182.281C382.061 181.989 382.383 181.764 382.778 181.608C383.176 181.449 383.636 181.369 384.159 181.369C384.522 181.369 384.87 181.412 385.203 181.497C385.538 181.582 385.835 181.714 386.093 181.893C386.355 182.072 386.561 182.303 386.711 182.584C386.862 182.862 386.937 183.196 386.937 183.585V188H385.216V187.092H385.164C385.059 187.297 384.919 187.477 384.743 187.634C384.566 187.787 384.355 187.908 384.108 187.996C383.86 188.081 383.575 188.124 383.251 188.124ZM383.771 186.871C384.038 186.871 384.274 186.818 384.478 186.713C384.683 186.605 384.843 186.46 384.96 186.278C385.076 186.097 385.135 185.891 385.135 185.661V184.966C385.078 185.003 385 185.037 384.9 185.068C384.804 185.097 384.694 185.124 384.572 185.149C384.45 185.172 384.328 185.193 384.206 185.213C384.083 185.23 383.973 185.246 383.873 185.26C383.66 185.291 383.474 185.341 383.315 185.409C383.156 185.477 383.032 185.57 382.944 185.686C382.856 185.8 382.812 185.942 382.812 186.112C382.812 186.359 382.902 186.548 383.081 186.679C383.262 186.807 383.493 186.871 383.771 186.871ZM391.827 181.455V182.818H387.885V181.455H391.827ZM388.78 179.886H390.596V185.989C390.596 186.156 390.621 186.287 390.672 186.381C390.723 186.472 390.794 186.536 390.885 186.572C390.979 186.609 391.087 186.628 391.209 186.628C391.294 186.628 391.38 186.621 391.465 186.607C391.55 186.589 391.615 186.577 391.661 186.568L391.946 187.919C391.855 187.947 391.728 187.98 391.563 188.017C391.398 188.057 391.198 188.081 390.962 188.089C390.525 188.107 390.141 188.048 389.811 187.915C389.485 187.781 389.23 187.574 389.049 187.293C388.867 187.011 388.777 186.656 388.78 186.227V179.886ZM393.01 188V181.455H394.825V188H393.01ZM393.922 180.611C393.652 180.611 393.42 180.521 393.227 180.342C393.037 180.161 392.941 179.943 392.941 179.69C392.941 179.44 393.037 179.226 393.227 179.047C393.42 178.865 393.652 178.774 393.922 178.774C394.191 178.774 394.422 178.865 394.612 179.047C394.805 179.226 394.902 179.44 394.902 179.69C394.902 179.943 394.805 180.161 394.612 180.342C394.422 180.521 394.191 180.611 393.922 180.611ZM399.237 188.128C398.575 188.128 398.002 187.987 397.519 187.706C397.039 187.422 396.668 187.027 396.407 186.521C396.146 186.013 396.015 185.423 396.015 184.753C396.015 184.077 396.146 183.486 396.407 182.98C396.668 182.472 397.039 182.077 397.519 181.795C398.002 181.511 398.575 181.369 399.237 181.369C399.898 181.369 400.469 181.511 400.95 181.795C401.433 182.077 401.805 182.472 402.066 182.98C402.327 183.486 402.458 184.077 402.458 184.753C402.458 185.423 402.327 186.013 402.066 186.521C401.805 187.027 401.433 187.422 400.95 187.706C400.469 187.987 399.898 188.128 399.237 188.128ZM399.245 186.722C399.546 186.722 399.798 186.636 399.999 186.466C400.201 186.293 400.353 186.057 400.455 185.759C400.56 185.46 400.613 185.121 400.613 184.74C400.613 184.359 400.56 184.02 400.455 183.722C400.353 183.423 400.201 183.187 399.999 183.014C399.798 182.841 399.546 182.754 399.245 182.754C398.941 182.754 398.685 182.841 398.478 183.014C398.273 183.187 398.119 183.423 398.013 183.722C397.911 184.02 397.86 184.359 397.86 184.74C397.86 185.121 397.911 185.46 398.013 185.759C398.119 186.057 398.273 186.293 398.478 186.466C398.685 186.636 398.941 186.722 399.245 186.722ZM405.454 184.216V188H403.638V181.455H405.369V182.609H405.445C405.59 182.229 405.833 181.928 406.174 181.706C406.515 181.482 406.928 181.369 407.414 181.369C407.869 181.369 408.265 181.469 408.603 181.668C408.941 181.866 409.204 182.151 409.391 182.52C409.579 182.886 409.673 183.324 409.673 183.832V188H407.857V184.156C407.86 183.756 407.758 183.443 407.55 183.219C407.343 182.991 407.058 182.878 406.694 182.878C406.45 182.878 406.234 182.93 406.046 183.036C405.862 183.141 405.717 183.294 405.612 183.496C405.509 183.695 405.457 183.935 405.454 184.216ZM359.177 194.273L361.286 200.903H361.367L363.481 194.273H365.526L362.518 203H360.14L357.127 194.273H359.177ZM368.787 203.128C368.114 203.128 367.535 202.991 367.049 202.719C366.566 202.443 366.194 202.054 365.932 201.551C365.671 201.045 365.54 200.447 365.54 199.757C365.54 199.084 365.671 198.493 365.932 197.984C366.194 197.476 366.562 197.08 367.036 196.795C367.513 196.511 368.073 196.369 368.715 196.369C369.147 196.369 369.549 196.439 369.921 196.578C370.296 196.714 370.623 196.92 370.901 197.196C371.182 197.472 371.401 197.818 371.557 198.236C371.714 198.651 371.792 199.136 371.792 199.693V200.192H366.265V199.067H370.083C370.083 198.805 370.026 198.574 369.912 198.372C369.799 198.17 369.641 198.013 369.439 197.899C369.241 197.783 369.009 197.724 368.745 197.724C368.469 197.724 368.225 197.788 368.012 197.916C367.802 198.041 367.637 198.21 367.518 198.423C367.398 198.634 367.337 198.868 367.334 199.126V200.196C367.334 200.52 367.394 200.8 367.513 201.036C367.635 201.271 367.807 201.453 368.029 201.581C368.251 201.709 368.513 201.773 368.817 201.773C369.019 201.773 369.204 201.744 369.371 201.688C369.539 201.631 369.682 201.545 369.802 201.432C369.921 201.318 370.012 201.179 370.074 201.014L371.753 201.125C371.668 201.528 371.493 201.881 371.229 202.182C370.968 202.48 370.63 202.713 370.215 202.881C369.803 203.045 369.327 203.128 368.787 203.128ZM375.934 203.128C375.263 203.128 374.687 202.986 374.204 202.702C373.724 202.415 373.354 202.017 373.096 201.509C372.84 201 372.712 200.415 372.712 199.753C372.712 199.082 372.841 198.494 373.1 197.989C373.361 197.48 373.732 197.084 374.212 196.8C374.692 196.513 375.263 196.369 375.925 196.369C376.496 196.369 376.996 196.473 377.425 196.68C377.854 196.888 378.194 197.179 378.444 197.554C378.694 197.929 378.831 198.369 378.857 198.875H377.144C377.096 198.548 376.968 198.286 376.76 198.087C376.556 197.885 376.287 197.784 375.955 197.784C375.674 197.784 375.428 197.861 375.218 198.014C375.01 198.165 374.849 198.385 374.732 198.675C374.616 198.964 374.557 199.315 374.557 199.727C374.557 200.145 374.614 200.5 374.728 200.793C374.844 201.085 375.008 201.308 375.218 201.462C375.428 201.615 375.674 201.692 375.955 201.692C376.162 201.692 376.349 201.649 376.513 201.564C376.681 201.479 376.819 201.355 376.927 201.193C377.037 201.028 377.11 200.831 377.144 200.601H378.857C378.829 201.101 378.692 201.541 378.448 201.922C378.206 202.3 377.873 202.595 377.447 202.808C377.02 203.021 376.516 203.128 375.934 203.128ZM383.501 196.455V197.818H379.559V196.455H383.501ZM380.454 194.886H382.269V200.989C382.269 201.156 382.295 201.287 382.346 201.381C382.397 201.472 382.468 201.536 382.559 201.572C382.653 201.609 382.761 201.628 382.883 201.628C382.968 201.628 383.053 201.621 383.139 201.607C383.224 201.589 383.289 201.577 383.335 201.568L383.62 202.919C383.529 202.947 383.401 202.98 383.237 203.017C383.072 203.057 382.872 203.081 382.636 203.089C382.198 203.107 381.815 203.048 381.485 202.915C381.159 202.781 380.904 202.574 380.722 202.293C380.541 202.011 380.451 201.656 380.454 201.227V194.886ZM387.57 203.128C386.909 203.128 386.336 202.987 385.853 202.706C385.373 202.422 385.002 202.027 384.741 201.521C384.48 201.013 384.349 200.423 384.349 199.753C384.349 199.077 384.48 198.486 384.741 197.98C385.002 197.472 385.373 197.077 385.853 196.795C386.336 196.511 386.909 196.369 387.57 196.369C388.232 196.369 388.803 196.511 389.284 196.795C389.767 197.077 390.139 197.472 390.4 197.98C390.661 198.486 390.792 199.077 390.792 199.753C390.792 200.423 390.661 201.013 390.4 201.521C390.139 202.027 389.767 202.422 389.284 202.706C388.803 202.987 388.232 203.128 387.57 203.128ZM387.579 201.722C387.88 201.722 388.132 201.636 388.333 201.466C388.535 201.293 388.687 201.057 388.789 200.759C388.894 200.46 388.947 200.121 388.947 199.74C388.947 199.359 388.894 199.02 388.789 198.722C388.687 198.423 388.535 198.187 388.333 198.014C388.132 197.841 387.88 197.754 387.579 197.754C387.275 197.754 387.019 197.841 386.812 198.014C386.607 198.187 386.453 198.423 386.347 198.722C386.245 199.02 386.194 199.359 386.194 199.74C386.194 200.121 386.245 200.46 386.347 200.759C386.453 201.057 386.607 201.293 386.812 201.466C387.019 201.636 387.275 201.722 387.579 201.722ZM391.972 203V196.455H393.732V197.597H393.801C393.92 197.19 394.12 196.884 394.401 196.676C394.683 196.466 395.007 196.361 395.373 196.361C395.464 196.361 395.562 196.366 395.667 196.378C395.772 196.389 395.865 196.405 395.944 196.425V198.036C395.859 198.01 395.741 197.987 395.59 197.967C395.44 197.947 395.302 197.938 395.177 197.938C394.91 197.938 394.671 197.996 394.461 198.112C394.254 198.226 394.089 198.385 393.967 198.589C393.847 198.794 393.788 199.03 393.788 199.297V203H391.972Z" fill="#0B0755"/>
<path d="M286.763 96.7643C297.821 85.4542 310.917 76.3363 325.362 69.8911L332.01 84.7903C319.443 90.3976 308.049 98.3301 298.429 108.17L286.763 96.7643Z" fill="#1B76B3"/>
<path d="M453.281 39.0182C468.547 47.0753 482.45 57.485 494.479 69.8652L481.502 82.475C470.796 71.4566 458.422 62.192 444.835 55.0212L453.281 39.0182Z" fill="#1B76B3"/>
<path d="M278.852 105.665C281.329 102.596 283.949 99.6464 286.704 96.8249L298.377 108.223C295.981 110.677 293.701 113.244 291.546 115.913L278.852 105.665Z" fill="#61A5FB"/>
<path d="M325.24 69.9459C328.839 68.3352 332.513 66.895 336.248 65.6302L341.481 81.0833C338.231 82.1837 335.035 83.4366 331.904 84.8379L325.24 69.9459Z" fill="#FEA3AF"/>
<path d="M385.42 59.3174C399.15 60.2957 412.626 63.5262 425.307 68.8794L418.962 83.9101C407.929 79.2528 396.205 76.4423 384.26 75.5911L385.42 59.3174Z" fill="#1B76B3"/>
<path d="M373.699 59.0313C377.641 58.9432 381.586 59.0411 385.519 59.3245L384.346 75.5973C380.924 75.3508 377.493 75.2656 374.063 75.3422L373.699 59.0313Z" fill="#34D399"/>
<path d="M425.238 68.8502C428.872 70.3816 432.431 72.0835 435.905 73.9501L428.182 88.3216C425.16 86.6976 422.063 85.217 418.902 83.8847L425.238 68.8502Z" fill="#FBBF24"/>
<path d="M494.389 69.7725C497.393 72.8593 500.275 76.0628 503.027 79.3757L489.109 90.9394C486.659 87.9909 484.095 85.1397 481.421 82.3926L494.389 69.7725Z" fill="#A78AFA"/>
<path d="M441.874 33.548C445.826 35.2597 449.71 37.126 453.516 39.1426L445.044 55.1319C441.657 53.3372 438.2 51.6762 434.683 50.1528L441.874 33.548Z" fill="#FBBF24"/>
<path d="M322.832 29.0007C339.15 23.369 356.252 20.3408 373.511 20.0272L373.84 38.1192C358.479 38.3983 343.258 41.0935 328.736 46.1056L322.832 29.0007Z" fill="#1B76B3"/>
<path d="M373.282 20.0315C377.589 19.9472 381.897 20.0321 386.196 20.286L385.13 38.3496C381.303 38.1236 377.469 38.048 373.636 38.123L373.282 20.0315Z" fill="#34D399"/>
<path d="M310.912 33.6409C314.862 31.9236 318.878 30.3621 322.95 28.96L328.841 46.0694C325.216 47.3173 321.642 48.707 318.127 50.2354L310.912 33.6409Z" fill="#FEA3AF"/>
<path d="M280.685 80.6047L285.048 88.1627L283.45 89.0853L279.087 81.5273L280.685 80.6047ZM286.014 83.2359L287.906 86.513L286.333 87.4207L283.061 81.7522L284.559 80.8871L285.136 81.8872L285.203 81.8489C285.138 81.4468 285.198 81.0645 285.382 80.7022C285.565 80.3373 285.867 80.0335 286.288 79.7906C286.682 79.5633 287.074 79.4513 287.467 79.4545C287.859 79.4576 288.228 79.5723 288.576 79.7984C288.921 80.022 289.221 80.354 289.475 80.7944L291.559 84.4037L289.987 85.3113L288.065 81.9826C287.867 81.6342 287.623 81.4147 287.331 81.3241C287.037 81.2309 286.733 81.2753 286.418 81.4571C286.207 81.5793 286.046 81.7327 285.936 81.9175C285.829 82.1009 285.78 82.3062 285.79 82.5334C285.801 82.7568 285.875 82.9909 286.014 83.2359ZM295.175 76.9132L293.787 77.8327C293.691 77.7239 293.575 77.6437 293.437 77.5922C293.297 77.5382 293.144 77.52 292.977 77.5377C292.811 77.5514 292.637 77.6109 292.455 77.716C292.211 77.8566 292.036 78.0269 291.928 78.2268C291.819 78.4243 291.814 78.6079 291.912 78.7777C291.99 78.913 292.11 78.9961 292.272 79.0271C292.434 79.0581 292.663 79.0259 292.959 78.9305L294.105 78.5448C294.721 78.3398 295.237 78.2847 295.653 78.3794C296.068 78.4741 296.394 78.7256 296.63 79.1341C296.844 79.5056 296.923 79.8948 296.866 80.3017C296.811 80.7071 296.64 81.098 296.352 81.4742C296.065 81.8465 295.675 82.1747 295.183 82.4588C294.433 82.892 293.745 83.081 293.119 83.0256C292.495 82.9664 291.988 82.6882 291.599 82.1909L293.099 81.217C293.277 81.4188 293.491 81.5281 293.741 81.545C293.988 81.5594 294.253 81.4856 294.533 81.3237C294.809 81.1646 294.999 80.9839 295.106 80.7815C295.213 80.5752 295.219 80.3865 295.123 80.2153C295.038 80.0741 294.911 79.992 294.74 79.9691C294.568 79.9438 294.345 79.9776 294.07 80.0704L292.976 80.4416C292.358 80.6505 291.835 80.6965 291.407 80.5797C290.981 80.4614 290.646 80.1907 290.402 79.7675C290.191 79.4034 290.109 79.0329 290.154 78.656C290.201 78.2777 290.363 77.9135 290.64 77.5634C290.919 77.2119 291.301 76.8962 291.786 76.6164C292.502 76.2031 293.152 76.0291 293.738 76.0945C294.326 76.1585 294.805 76.4314 295.175 76.9132ZM301.281 78.9384C300.698 79.275 300.128 79.4467 299.571 79.4534C299.015 79.4563 298.498 79.3053 298.02 79.0005C297.541 78.6932 297.129 78.2407 296.783 77.6428C296.447 77.0597 296.265 76.4826 296.237 75.9116C296.209 75.3405 296.329 74.8133 296.598 74.3301C296.869 73.8454 297.283 73.4426 297.839 73.1216C298.213 72.9056 298.596 72.7649 298.988 72.6994C299.381 72.63 299.767 72.645 300.146 72.7445C300.527 72.8425 300.89 73.0333 301.234 73.3168C301.576 73.5979 301.887 73.9795 302.165 74.4618L302.415 74.8935L297.628 77.657L297.066 76.6828L300.372 74.7737C300.242 74.5473 300.077 74.3752 299.877 74.2573C299.678 74.1395 299.463 74.0818 299.231 74.0842C299.001 74.0828 298.771 74.1481 298.542 74.2802C298.304 74.418 298.124 74.5955 298.003 74.8128C297.884 75.0261 297.826 75.2549 297.829 75.4991C297.831 75.7408 297.895 75.9743 298.022 76.1996L298.557 77.1259C298.719 77.4064 298.91 77.6189 299.131 77.7635C299.355 77.9066 299.595 77.9781 299.851 77.978C300.106 77.9779 300.366 77.9019 300.629 77.7499C300.804 77.6491 300.95 77.5321 301.066 77.3991C301.183 77.2661 301.265 77.1206 301.311 76.9625C301.358 76.8044 301.367 76.6384 301.339 76.4645L302.848 75.7209C302.976 76.1129 303.001 76.5053 302.923 76.8982C302.845 77.2872 302.669 77.658 302.394 78.0106C302.119 78.3592 301.748 78.6685 301.281 78.9384ZM304.845 76.7332L301.572 71.0647L303.096 70.1847L303.667 71.1738L303.726 71.1397C303.626 70.7282 303.647 70.3623 303.786 70.0421C303.925 69.7194 304.153 69.4664 304.47 69.2832C304.549 69.2378 304.637 69.1937 304.733 69.151C304.83 69.1082 304.918 69.0756 304.997 69.0531L305.802 70.448C305.715 70.4685 305.602 70.5078 305.462 70.5658C305.321 70.6239 305.197 70.6842 305.089 70.7467C304.857 70.8802 304.68 71.05 304.556 71.256C304.433 71.4581 304.37 71.6782 304.367 71.9164C304.366 72.1532 304.432 72.3873 304.565 72.6185L306.417 75.8255L304.845 76.7332ZM309.124 66.7048L309.805 67.8857L306.392 69.8566L305.71 68.6757L309.124 66.7048ZM305.701 66.8701L307.273 65.9625L310.324 71.2472C310.408 71.3923 310.495 71.4927 310.587 71.5484C310.676 71.6015 310.77 71.6214 310.867 71.6079C310.967 71.593 311.069 71.555 311.175 71.4939C311.249 71.4513 311.319 71.4026 311.386 71.3476C311.451 71.2903 311.501 71.2465 311.537 71.2164L312.459 72.2435C312.395 72.3136 312.3 72.4058 312.176 72.5202C312.053 72.637 311.892 72.7581 311.692 72.8833C311.322 73.1168 310.96 73.2582 310.608 73.3073C310.258 73.355 309.935 73.3026 309.636 73.1499C309.338 72.9972 309.083 72.7344 308.871 72.3615L305.701 66.8701ZM314.735 60.9454L319.099 68.5035L317.501 69.426L314.013 63.3848L313.969 63.4103L312.865 65.4946L312.046 64.0775L313.233 61.8126L314.735 60.9454Z" fill="#0B0755"/>
<path d="M466.639 30.7014L461.607 37.8319L460.099 36.7679L465.131 29.6375L466.639 30.7014ZM466.484 36.6425L464.303 39.7342L462.819 38.6875L466.593 33.3397L468.007 34.3372L467.341 35.2808L467.404 35.325C467.742 35.0975 468.114 34.9915 468.52 35.007C468.928 35.0202 469.33 35.1669 469.727 35.447C470.099 35.7091 470.365 36.0188 470.527 36.3762C470.688 36.7336 470.739 37.1173 470.679 37.5271C470.621 37.9346 470.446 38.3462 470.152 38.7616L467.749 42.1667L466.266 41.12L468.483 37.9795C468.716 37.6539 468.812 37.3396 468.772 37.0367C468.734 36.7314 468.566 36.4739 468.269 36.2643C468.07 36.1234 467.863 36.0418 467.649 36.0196C467.438 35.999 467.231 36.0408 467.029 36.145C466.83 36.2485 466.649 36.4143 466.484 36.6425ZM476.066 42.3089L474.649 41.4342C474.708 41.3018 474.732 41.1621 474.72 41.0152C474.711 40.866 474.663 40.7193 474.577 40.5751C474.495 40.4303 474.368 40.2973 474.197 40.1761C473.967 40.0139 473.739 39.9259 473.512 39.912C473.287 39.8957 473.118 39.9677 473.005 40.1279C472.915 40.2555 472.89 40.3995 472.93 40.5598C472.969 40.72 473.095 40.9145 473.305 41.1432L474.136 42.0212C474.58 42.4949 474.847 42.9402 474.935 43.3571C475.023 43.7741 474.931 44.1752 474.659 44.5605C474.412 44.911 474.092 45.1457 473.698 45.2645C473.307 45.3849 472.881 45.3933 472.419 45.2896C471.96 45.1852 471.499 44.9692 471.035 44.6416C470.327 44.142 469.867 43.5966 469.655 43.0053C469.447 42.4134 469.487 41.8367 469.775 41.2752L471.288 42.2282C471.18 42.4751 471.17 42.7153 471.259 42.9486C471.35 43.1796 471.528 43.3885 471.792 43.5752C472.052 43.7587 472.297 43.8562 472.525 43.8678C472.757 43.8786 472.931 43.8048 473.046 43.6463C473.139 43.5101 473.16 43.3597 473.109 43.1952C473.06 43.0283 472.936 42.8398 472.736 42.6296L471.94 41.7915C471.492 41.3185 471.231 40.863 471.157 40.4252C471.086 39.989 471.191 39.5713 471.473 39.1721C471.716 38.8286 472.017 38.5981 472.378 38.4808C472.741 38.3651 473.14 38.3596 473.574 38.4641C474.01 38.5703 474.457 38.7847 474.914 39.1074C475.59 39.5841 476.02 40.1019 476.207 40.661C476.395 41.2217 476.348 41.771 476.066 42.3089ZM476.787 48.7013C476.237 48.3131 475.842 47.8675 475.603 47.3646C475.367 46.861 475.287 46.3284 475.364 45.7668C475.442 45.203 475.68 44.639 476.078 44.075C476.466 43.5249 476.913 43.1175 477.42 42.8527C477.927 42.5879 478.456 42.4762 479.008 42.5177C479.561 42.5607 480.1 42.7674 480.625 43.1376C480.978 43.3866 481.266 43.6752 481.49 44.0035C481.718 44.3312 481.866 44.6878 481.934 45.0735C482.005 45.4608 481.984 45.8701 481.871 46.3014C481.76 46.7304 481.543 47.1723 481.222 47.6273L480.935 48.0346L476.419 44.8478L477.068 43.9287L480.187 46.1302C480.338 45.9167 480.425 45.6947 480.449 45.4644C480.472 45.2341 480.434 45.0143 480.335 44.8052C480.239 44.5954 480.084 44.4143 479.868 44.2619C479.643 44.1031 479.406 44.0144 479.159 43.996C478.915 43.9769 478.683 44.02 478.462 44.1253C478.244 44.2283 478.059 44.3846 477.907 44.5941L477.29 45.468C477.104 45.7326 476.991 45.9957 476.953 46.2571C476.917 46.5202 476.952 46.7679 477.059 47.0001C477.167 47.2323 477.345 47.436 477.593 47.6113C477.758 47.7276 477.925 47.8109 478.095 47.8611C478.264 47.9113 478.431 47.9244 478.594 47.9004C478.757 47.8763 478.911 47.815 479.057 47.7164L480.365 48.775C480.063 49.0555 479.717 49.2425 479.328 49.3363C478.942 49.4293 478.532 49.4247 478.096 49.3225C477.665 49.2196 477.228 49.0125 476.787 48.7013ZM480.283 51.0121L484.058 45.6643L485.495 46.679L484.837 47.6121L484.893 47.6514C485.224 47.3883 485.565 47.2531 485.914 47.2458C486.265 47.2362 486.591 47.3371 486.89 47.5484C486.964 47.6008 487.041 47.662 487.12 47.7319C487.2 47.8018 487.266 47.8678 487.32 47.9299L486.391 49.2459C486.336 49.1759 486.253 49.0894 486.141 48.9863C486.03 48.8832 485.923 48.7957 485.821 48.7236C485.603 48.5696 485.374 48.4796 485.135 48.4536C484.9 48.4268 484.674 48.4618 484.456 48.5585C484.241 48.6568 484.056 48.8151 483.902 49.0333L481.767 52.0588L480.283 51.0121ZM491.182 50.692L490.396 51.8062L487.175 49.5334L487.961 48.4192L491.182 50.692ZM489.597 47.654L491.08 48.7007L487.561 53.6864C487.465 53.8234 487.41 53.9449 487.398 54.051C487.387 54.1547 487.409 54.2479 487.462 54.3305C487.517 54.4147 487.594 54.4921 487.694 54.5625C487.764 54.6116 487.838 54.655 487.915 54.6925C487.995 54.7277 488.056 54.755 488.098 54.7742L487.552 56.0425C487.461 56.0133 487.338 55.9663 487.182 55.9015C487.025 55.839 486.847 55.7432 486.65 55.6142C486.282 55.3759 486.002 55.1072 485.81 54.8081C485.62 54.5106 485.532 54.1945 485.546 53.8599C485.559 53.5253 485.691 53.1836 485.941 52.8347L489.597 47.654ZM491.406 56.9837L492.244 55.7964L498.53 53.2074L499.554 53.9298L498.394 55.5731L497.788 55.1456L493.816 56.7911L493.777 56.8468L498.007 59.8322L497.154 61.0403L491.406 56.9837ZM493.944 60.6524L495.084 59.0369L495.483 58.5308L499.004 53.5416L500.417 54.5391L495.385 61.6696L493.944 60.6524Z" fill="#0B0755"/>
<path d="M325.828 12.8665L327.133 21.4955L325.309 21.7715L324.004 13.1425L325.828 12.8665ZM329.83 17.2605L330.396 21.002L328.601 21.2736L327.622 14.8017L329.332 14.543L329.505 15.6848L329.581 15.6733C329.667 15.2753 329.862 14.9412 330.166 14.6711C330.47 14.3982 330.862 14.2254 331.342 14.1527C331.791 14.0847 332.198 14.1238 332.562 14.2698C332.926 14.4159 333.229 14.6575 333.469 14.9946C333.709 15.3289 333.868 15.7475 333.944 16.2503L334.567 20.371L332.772 20.6425L332.197 16.842C332.14 16.4455 331.992 16.1518 331.754 15.961C331.514 15.7673 331.215 15.6976 330.856 15.752C330.614 15.7886 330.408 15.8728 330.239 16.0048C330.072 16.1363 329.952 16.3097 329.878 16.5249C329.806 16.7368 329.79 16.982 329.83 17.2605ZM340.666 14.716L339.039 15.0657C338.989 14.9295 338.91 14.8123 338.8 14.7139C338.69 14.6128 338.554 14.54 338.392 14.4955C338.233 14.4478 338.049 14.4397 337.841 14.4711C337.563 14.5132 337.337 14.6077 337.164 14.7546C336.991 14.8986 336.918 15.0676 336.948 15.2614C336.971 15.4159 337.053 15.5371 337.192 15.6252C337.332 15.7132 337.557 15.7668 337.867 15.7859L339.075 15.8447C339.723 15.8787 340.224 16.0156 340.576 16.2554C340.928 16.4952 341.14 16.8482 341.21 17.3145C341.275 17.7386 341.206 18.1297 341.004 18.4878C340.806 18.8454 340.504 19.1468 340.098 19.392C339.695 19.634 339.213 19.7975 338.651 19.8824C337.794 20.0121 337.085 19.9369 336.522 19.6571C335.962 19.3741 335.592 18.9301 335.411 18.3253L337.163 17.9656C337.256 18.2187 337.415 18.3986 337.641 18.5052C337.866 18.6091 338.139 18.6367 338.46 18.5883C338.774 18.5407 339.018 18.4421 339.191 18.2924C339.366 18.1395 339.44 17.9659 339.413 17.7716C339.386 17.6091 339.297 17.4861 339.146 17.4026C338.995 17.3163 338.775 17.2662 338.486 17.2526L337.331 17.1988C336.68 17.168 336.177 17.0201 335.82 16.755C335.467 16.4896 335.254 16.1153 335.181 15.6321C335.118 15.2164 335.176 14.8413 335.355 14.5067C335.537 14.1717 335.821 13.8918 336.207 13.6668C336.595 13.4414 337.066 13.2869 337.619 13.2031C338.436 13.0795 339.106 13.1549 339.627 13.4295C340.151 13.7036 340.498 14.1324 340.666 14.716ZM345.613 18.8293C344.947 18.93 344.353 18.8819 343.832 18.6849C343.314 18.4846 342.887 18.1555 342.554 17.6974C342.22 17.2365 342.001 16.6648 341.898 15.9822C341.797 15.3165 341.838 14.7126 342.02 14.1708C342.203 13.6289 342.507 13.182 342.934 12.8301C343.363 12.4778 343.895 12.2537 344.53 12.1576C344.957 12.093 345.365 12.1017 345.754 12.1837C346.145 12.2624 346.499 12.4172 346.815 12.648C347.134 12.8784 347.403 13.1884 347.62 13.578C347.836 13.9647 347.986 14.4333 348.069 14.9839L348.144 15.4769L342.679 16.3036L342.511 15.1912L346.286 14.6201C346.247 14.3617 346.156 14.1413 346.014 13.9588C345.871 13.7764 345.692 13.6441 345.475 13.5619C345.261 13.4765 345.023 13.4535 344.762 13.493C344.49 13.5343 344.258 13.634 344.066 13.7923C343.877 13.9473 343.739 14.1391 343.653 14.3676C343.567 14.5933 343.541 14.8342 343.577 15.0902L343.737 16.1478C343.786 16.468 343.887 16.7358 344.04 16.9511C344.196 17.166 344.393 17.32 344.631 17.4133C344.869 17.5065 345.139 17.5304 345.439 17.485C345.639 17.4548 345.817 17.3991 345.974 17.3178C346.132 17.2366 346.261 17.1308 346.362 17.0006C346.463 16.8704 346.532 16.7192 346.569 16.5469L348.246 16.4053C348.222 16.817 348.102 17.1914 347.885 17.5287C347.672 17.8627 347.372 18.1436 346.987 18.3714C346.604 18.5959 346.146 18.7485 345.613 18.8293ZM349.735 18.0763L348.756 11.6045L350.496 11.3412L350.667 12.4704L350.735 12.4602C350.792 12.0407 350.944 11.7074 351.191 11.4603C351.438 11.2103 351.742 11.058 352.105 11.0031C352.194 10.9895 352.292 10.9805 352.398 10.976C352.503 10.9715 352.597 10.9732 352.679 10.9809L352.92 12.5736C352.832 12.5611 352.712 12.5562 352.56 12.5591C352.408 12.562 352.27 12.5727 352.147 12.5914C351.882 12.6314 351.655 12.7247 351.465 12.8713C351.277 13.0146 351.138 13.1966 351.047 13.4171C350.96 13.6372 350.936 13.8793 350.976 14.1433L351.53 17.8048L349.735 18.0763ZM357.378 10.3002L357.582 11.6485L353.684 12.2381L353.481 10.8898L357.378 10.3002ZM354.131 9.2054L355.926 8.93386L356.838 14.9675C356.864 15.1332 356.908 15.2586 356.973 15.3436C357.037 15.4259 357.117 15.4785 357.212 15.5014C357.311 15.5239 357.42 15.526 357.541 15.5077C357.625 15.495 357.708 15.4752 357.79 15.4484C357.872 15.4188 357.935 15.3964 357.979 15.3812L358.463 16.6741C358.377 16.7158 358.256 16.7672 358.098 16.8284C357.941 16.8923 357.747 16.9462 357.515 16.9899C357.085 17.0722 356.697 17.072 356.351 16.9892C356.008 16.9061 355.726 16.7391 355.504 16.4882C355.282 16.2373 355.141 15.8995 355.079 15.475L354.131 9.2054ZM362.255 16.1822L362.057 14.8677L364.698 11.5589C364.921 11.2666 365.106 11.0059 365.252 10.7769C365.401 10.5475 365.507 10.3288 365.571 10.121C365.634 9.91034 365.648 9.69125 365.614 9.46372C365.575 9.21092 365.485 9.00194 365.342 8.83678C365.199 8.66881 365.02 8.55075 364.806 8.48261C364.591 8.41166 364.357 8.39531 364.104 8.43355C363.84 8.4735 363.618 8.56171 363.438 8.6982C363.257 8.83468 363.129 9.01072 363.052 9.2263C362.976 9.44188 362.958 9.68731 363 9.96259L361.268 10.2246C361.183 9.65997 361.236 9.15047 361.429 8.69608C361.622 8.24169 361.931 7.86588 362.357 7.56867C362.784 7.27145 363.297 7.07737 363.898 6.98644C364.516 6.89295 365.071 6.92112 365.562 7.07095C366.055 7.21755 366.459 7.46393 366.773 7.81009C367.087 8.15624 367.281 8.57791 367.356 9.0751C367.406 9.40094 367.39 9.73233 367.308 10.0693C367.23 10.4058 367.057 10.7926 366.79 11.2295C366.522 11.6636 366.133 12.1952 365.622 12.8241L364.549 14.2493L364.558 14.3082L368.181 13.7601L368.407 15.2516L362.255 16.1822Z" fill="#0B0755"/>
<path d="M389.383 45.428L387.515 53.953L385.713 53.558L387.581 45.033L389.383 45.428ZM391.548 50.9628L390.738 54.6592L388.965 54.2706L390.366 47.8769L392.056 48.2472L391.809 49.3752L391.884 49.3917C392.107 49.0508 392.408 48.8087 392.789 48.6652C393.17 48.5189 393.598 48.4978 394.072 48.6017C394.516 48.699 394.882 48.881 395.17 49.1476C395.457 49.4142 395.653 49.748 395.757 50.1489C395.862 50.547 395.86 50.9944 395.751 51.4911L394.859 55.5622L393.086 55.1736L393.909 51.4189C393.997 51.0283 393.964 50.7011 393.809 50.4375C393.656 50.1711 393.401 49.999 393.046 49.9212C392.807 49.8689 392.585 49.874 392.379 49.9365C392.176 49.9997 392.002 50.1185 391.856 50.2931C391.714 50.4654 391.611 50.6887 391.548 50.9628ZM402.578 52.4635L400.933 52.2077C400.935 52.0629 400.903 51.9249 400.836 51.7939C400.769 51.66 400.668 51.5434 400.533 51.4439C400.401 51.3423 400.232 51.269 400.027 51.224C399.752 51.1638 399.508 51.1713 399.294 51.2466C399.08 51.319 398.952 51.4509 398.91 51.6424C398.877 51.795 398.91 51.9375 399.009 52.0697C399.108 52.2019 399.298 52.3324 399.581 52.4613L400.688 52.948C401.281 53.2119 401.7 53.5188 401.943 53.8687C402.186 54.2186 402.257 54.6239 402.156 55.0846C402.065 55.5036 401.86 55.8443 401.544 56.1065C401.231 56.3694 400.841 56.5428 400.374 56.6267C399.912 56.7085 399.403 56.6886 398.848 56.567C398.001 56.3815 397.365 56.0576 396.94 55.5951C396.519 55.1304 396.332 54.5834 396.379 53.954L398.144 54.2446C398.14 54.5143 398.224 54.7393 398.397 54.9196C398.571 55.0972 398.815 55.2207 399.132 55.29C399.443 55.3581 399.705 55.3532 399.92 55.2752C400.138 55.195 400.27 55.0595 400.315 54.8687C400.347 54.7071 400.308 54.5604 400.197 54.4285C400.087 54.2939 399.9 54.1684 399.634 54.0521L398.575 53.5889C397.978 53.3272 397.561 53.0089 397.323 52.6339C397.088 52.2596 397.023 51.8338 397.128 51.3565C397.218 50.9458 397.406 50.6163 397.693 50.368C397.983 50.1203 398.348 49.9604 398.789 49.8882C399.232 49.8167 399.727 49.8408 400.273 49.9606C401.081 50.1375 401.679 50.4474 402.068 50.8903C402.459 51.3338 402.629 51.8582 402.578 52.4635ZM405.725 58.074C405.068 57.9299 404.531 57.6727 404.114 57.3023C403.702 56.9297 403.421 56.4699 403.274 55.9228C403.127 55.3729 403.127 54.7607 403.275 54.0864C403.419 53.4287 403.673 52.8795 404.037 52.4387C404.401 51.9979 404.846 51.6895 405.37 51.5135C405.897 51.3382 406.474 51.3192 407.101 51.4566C407.523 51.5491 407.901 51.7031 408.234 51.9187C408.572 52.1322 408.847 52.4033 409.06 52.7321C409.275 53.0615 409.415 53.4469 409.478 53.8882C409.542 54.3268 409.514 54.8181 409.395 55.362L409.288 55.849L403.889 54.666L404.13 53.5671L407.86 54.3844C407.916 54.129 407.91 53.8907 407.842 53.6694C407.774 53.448 407.654 53.2602 407.481 53.1061C407.312 52.9497 407.098 52.8433 406.84 52.7867C406.571 52.7277 406.319 52.7379 406.083 52.8172C405.851 52.8943 405.654 53.0241 405.492 53.2067C405.33 53.3865 405.22 53.6024 405.162 53.8543L404.933 54.8991C404.864 55.2155 404.862 55.5016 404.928 55.7575C404.997 56.014 405.126 56.2283 405.315 56.4007C405.504 56.573 405.747 56.6916 406.044 56.7567C406.241 56.7999 406.428 56.8117 406.604 56.792C406.78 56.7724 406.938 56.7199 407.079 56.6344C407.22 56.5489 407.338 56.4324 407.435 56.2848L409.051 56.7524C408.882 57.1283 408.635 57.435 408.313 57.6726C407.994 57.908 407.614 58.0632 407.173 58.1382C406.735 58.2109 406.252 58.1896 405.725 58.074ZM409.844 58.8458L411.245 52.452L412.965 52.8287L412.72 53.9443L412.787 53.9589C412.99 53.5876 413.252 53.3307 413.571 53.1884C413.89 53.0432 414.229 53.0098 414.587 53.0883C414.676 53.1077 414.771 53.1343 414.871 53.1679C414.971 53.2015 415.058 53.2365 415.131 53.2729L414.787 54.8464C414.709 54.8032 414.599 54.7558 414.456 54.7041C414.313 54.6524 414.18 54.6132 414.058 54.5865C413.797 54.5293 413.552 54.5351 413.322 54.6039C413.095 54.6705 412.9 54.7907 412.737 54.9643C412.576 55.1386 412.467 55.3562 412.41 55.617L411.618 59.2343L409.844 58.8458ZM419.763 54.3184L419.471 55.6504L415.621 54.8067L415.913 53.4747L419.763 54.3184ZM417.123 52.1344L418.896 52.523L417.59 58.4838C417.554 58.6475 417.551 58.7807 417.581 58.8832C417.611 58.9829 417.667 59.0606 417.748 59.1161C417.831 59.1723 417.933 59.2134 418.052 59.2395C418.136 59.2578 418.22 59.2691 418.307 59.2735C418.394 59.2751 418.46 59.2765 418.506 59.278L418.496 60.6586C418.401 60.6669 418.269 60.6715 418.1 60.6723C417.931 60.6758 417.73 60.6566 417.498 60.6144C417.067 60.5374 416.705 60.3984 416.411 60.1975C416.121 59.9971 415.917 59.7401 415.8 59.4265C415.682 59.1128 415.671 58.7468 415.765 58.3284L417.123 52.1344ZM425.339 62.3631C424.718 62.2269 424.187 61.9987 423.749 61.6787C423.313 61.3564 422.997 60.9759 422.799 60.537C422.605 60.096 422.558 59.6263 422.658 59.1277L424.473 59.5254C424.439 59.7359 424.467 59.934 424.557 60.1195C424.651 60.3029 424.793 60.4607 424.985 60.593C425.177 60.7252 425.405 60.8202 425.669 60.878C425.944 60.9382 426.197 60.9428 426.429 60.8919C426.662 60.841 426.856 60.7426 427.013 60.5967C427.17 60.4508 427.273 60.2654 427.323 60.0406C427.372 59.8131 427.353 59.5979 427.263 59.3951C427.177 59.1901 427.027 59.0119 426.813 58.8603C426.602 58.7093 426.336 58.5985 426.014 58.528L425.219 58.3538L425.509 57.0301L426.304 57.2043C426.576 57.2639 426.826 57.2693 427.055 57.2205C427.287 57.1724 427.479 57.0779 427.632 56.9369C427.786 56.7931 427.887 56.6089 427.936 56.3841C427.983 56.1704 427.973 55.9719 427.905 55.7884C427.841 55.6028 427.728 55.4441 427.565 55.3124C427.404 55.1813 427.203 55.0893 426.962 55.0364C426.718 54.9829 426.485 54.9783 426.263 55.0228C426.041 55.0644 425.852 55.1523 425.694 55.2865C425.537 55.4207 425.431 55.5951 425.375 55.8098L423.647 55.4312C423.763 54.9419 423.998 54.5397 424.352 54.2246C424.706 53.9096 425.137 53.6971 425.644 53.5871C426.154 53.475 426.7 53.4828 427.283 53.6105C427.872 53.7394 428.363 53.959 428.757 54.2694C429.152 54.5797 429.431 54.9434 429.596 55.3605C429.764 55.7754 429.797 56.2073 429.696 56.6562C429.594 57.1341 429.358 57.4998 428.989 57.7533C428.622 58.0074 428.19 58.1251 427.694 58.1066L427.679 58.1732C428.289 58.3911 428.719 58.7135 428.968 59.1405C429.221 59.5653 429.288 60.0424 429.169 60.5718C429.066 61.058 428.831 61.4589 428.465 61.7742C428.102 62.0902 427.65 62.3023 427.109 62.4106C426.567 62.5188 425.977 62.503 425.339 62.3631Z" fill="#0B0755"/>
<path d="M435 140.51L510 73" stroke="#0B0755" stroke-width="2"/>
<line x1="320.349" y1="141.759" x2="250.349" y2="81.7593" stroke="#0B0755" stroke-width="2"/>
<path d="M188.493 119.533C201.384 135.085 209.586 153.982 212.143 174.019C214.7 194.056 211.506 214.408 202.933 232.698C194.361 250.989 180.763 266.464 163.727 277.318C146.692 288.172 126.92 293.958 106.72 294C86.5207 294.042 66.7255 288.338 49.645 277.554C32.5645 266.771 18.9029 251.352 10.2546 233.097C1.60627 214.842 -1.6722 194.504 0.801775 174.456C3.27575 154.409 11.4001 135.478 24.2269 119.873L36.5678 130.017C25.6651 143.281 18.7594 159.372 16.6565 176.413C14.5536 193.454 17.3403 210.741 24.6914 226.257C32.0425 241.774 43.6548 254.88 58.1733 264.046C72.6917 273.212 89.5176 278.06 106.687 278.025C123.857 277.989 140.663 273.072 155.143 263.845C169.624 254.619 181.182 241.465 188.468 225.918C195.755 210.371 198.47 193.073 196.297 176.041C194.123 159.009 187.151 142.947 176.194 129.728L188.493 119.533Z" fill="#A8D8E8"/>
<path d="M76.4734 188H73.3796V179.273H76.4989C77.3768 179.273 78.1325 179.447 78.766 179.797C79.3995 180.143 79.8867 180.642 80.2276 181.293C80.5714 181.943 80.7433 182.722 80.7433 183.628C80.7433 184.537 80.5714 185.318 80.2276 185.972C79.8867 186.625 79.3967 187.126 78.7575 187.476C78.1211 187.825 77.3597 188 76.4734 188ZM75.2248 186.419H76.3967C76.9421 186.419 77.4009 186.322 77.7731 186.129C78.1481 185.933 78.4293 185.631 78.6168 185.222C78.8072 184.81 78.9023 184.278 78.9023 183.628C78.9023 182.983 78.8072 182.456 78.6168 182.047C78.4293 181.638 78.1495 181.337 77.7773 181.143C77.4052 180.95 76.9464 180.854 76.4009 180.854H75.2248V186.419ZM85.0589 188.128C84.3857 188.128 83.8061 187.991 83.3203 187.719C82.8374 187.443 82.4652 187.054 82.2038 186.551C81.9425 186.045 81.8118 185.447 81.8118 184.757C81.8118 184.084 81.9425 183.493 82.2038 182.984C82.4652 182.476 82.8331 182.08 83.3075 181.795C83.7848 181.511 84.3445 181.369 84.9865 181.369C85.4183 181.369 85.8203 181.439 86.1925 181.578C86.5675 181.714 86.8942 181.92 87.1726 182.196C87.4538 182.472 87.6726 182.818 87.8288 183.236C87.9851 183.651 88.0632 184.136 88.0632 184.693V185.192H82.5362V184.067H86.3544C86.3544 183.805 86.2976 183.574 86.1839 183.372C86.0703 183.17 85.9126 183.013 85.7109 182.899C85.5121 182.783 85.2805 182.724 85.0163 182.724C84.7408 182.724 84.4964 182.788 84.2834 182.916C84.0732 183.041 83.9084 183.21 83.7891 183.423C83.6697 183.634 83.6087 183.868 83.6058 184.126V185.196C83.6058 185.52 83.6655 185.8 83.7848 186.036C83.907 186.271 84.0788 186.453 84.3004 186.581C84.522 186.709 84.7848 186.773 85.0888 186.773C85.2905 186.773 85.4751 186.744 85.6428 186.688C85.8104 186.631 85.9538 186.545 86.0732 186.432C86.1925 186.318 86.2834 186.179 86.3459 186.014L88.0249 186.125C87.9396 186.528 87.7649 186.881 87.5007 187.182C87.2393 187.48 86.9013 187.713 86.4865 187.881C86.0746 188.045 85.5987 188.128 85.0589 188.128ZM94.6939 183.321L93.032 183.423C93.0036 183.281 92.9425 183.153 92.8487 183.04C92.755 182.923 92.6314 182.831 92.478 182.763C92.3274 182.692 92.147 182.656 91.9368 182.656C91.6555 182.656 91.4183 182.716 91.2251 182.835C91.032 182.952 90.9354 183.108 90.9354 183.304C90.9354 183.46 90.9979 183.592 91.1229 183.7C91.2479 183.808 91.4624 183.895 91.7663 183.96L92.951 184.199C93.5874 184.33 94.0618 184.54 94.3743 184.83C94.6868 185.119 94.843 185.5 94.843 185.972C94.843 186.401 94.7166 186.777 94.4638 187.101C94.2138 187.425 93.87 187.678 93.4325 187.859C92.9979 188.038 92.4964 188.128 91.9283 188.128C91.0618 188.128 90.3714 187.947 89.8572 187.587C89.3459 187.223 89.0462 186.729 88.9581 186.104L90.7436 186.01C90.7976 186.274 90.9283 186.476 91.1357 186.615C91.343 186.751 91.6087 186.82 91.9325 186.82C92.2507 186.82 92.5064 186.759 92.6996 186.636C92.8956 186.511 92.995 186.351 92.9979 186.155C92.995 185.99 92.9254 185.855 92.7891 185.75C92.6527 185.642 92.4425 185.56 92.1584 185.503L91.0249 185.277C90.3857 185.149 89.9098 184.928 89.5973 184.612C89.2876 184.297 89.1328 183.895 89.1328 183.406C89.1328 182.986 89.2464 182.624 89.4737 182.32C89.7038 182.016 90.0263 181.781 90.4411 181.616C90.8587 181.452 91.3473 181.369 91.907 181.369C92.7337 181.369 93.3842 181.544 93.8587 181.893C94.3359 182.243 94.6143 182.719 94.6939 183.321ZM99.4677 181.455V182.818H95.5259V181.455H99.4677ZM96.4208 179.886H98.2362V185.989C98.2362 186.156 98.2617 186.287 98.3129 186.381C98.364 186.472 98.435 186.536 98.5259 186.572C98.6197 186.609 98.7276 186.628 98.8498 186.628C98.935 186.628 99.0202 186.621 99.1055 186.607C99.1907 186.589 99.256 186.577 99.3015 186.568L99.587 187.919C99.4961 187.947 99.3683 187.98 99.2035 188.017C99.0387 188.057 98.8384 188.081 98.6026 188.089C98.1651 188.107 97.7816 188.048 97.4521 187.915C97.1254 187.781 96.8711 187.574 96.6893 187.293C96.5075 187.011 96.418 186.656 96.4208 186.227V179.886ZM100.65 188V181.455H102.466V188H100.65ZM101.562 180.611C101.292 180.611 101.061 180.521 100.868 180.342C100.677 180.161 100.582 179.943 100.582 179.69C100.582 179.44 100.677 179.226 100.868 179.047C101.061 178.865 101.292 178.774 101.562 178.774C101.832 178.774 102.062 178.865 102.252 179.047C102.446 179.226 102.542 179.44 102.542 179.69C102.542 179.943 102.446 180.161 102.252 180.342C102.062 180.521 101.832 180.611 101.562 180.611ZM105.735 184.216V188H103.92V181.455H105.65V182.609H105.727C105.871 182.229 106.114 181.928 106.455 181.706C106.796 181.482 107.21 181.369 107.695 181.369C108.15 181.369 108.546 181.469 108.884 181.668C109.222 181.866 109.485 182.151 109.673 182.52C109.86 182.886 109.954 183.324 109.954 183.832V188H108.138V184.156C108.141 183.756 108.039 183.443 107.832 183.219C107.624 182.991 107.339 182.878 106.975 182.878C106.731 182.878 106.515 182.93 106.327 183.036C106.143 183.141 105.998 183.294 105.893 183.496C105.79 183.695 105.738 183.935 105.735 184.216ZM113.251 188.124C112.833 188.124 112.461 188.051 112.135 187.906C111.808 187.759 111.549 187.541 111.359 187.254C111.172 186.964 111.078 186.604 111.078 186.172C111.078 185.808 111.145 185.503 111.278 185.256C111.412 185.009 111.593 184.81 111.824 184.659C112.054 184.509 112.315 184.395 112.608 184.318C112.903 184.241 113.213 184.188 113.537 184.156C113.917 184.116 114.224 184.08 114.457 184.045C114.69 184.009 114.859 183.955 114.964 183.884C115.069 183.812 115.122 183.707 115.122 183.568V183.543C115.122 183.273 115.037 183.064 114.866 182.916C114.699 182.768 114.46 182.695 114.15 182.695C113.824 182.695 113.564 182.767 113.37 182.912C113.177 183.054 113.049 183.233 112.987 183.449L111.308 183.312C111.393 182.915 111.561 182.571 111.811 182.281C112.061 181.989 112.383 181.764 112.778 181.608C113.176 181.449 113.636 181.369 114.159 181.369C114.522 181.369 114.87 181.412 115.203 181.497C115.538 181.582 115.835 181.714 116.093 181.893C116.355 182.072 116.561 182.303 116.711 182.584C116.862 182.862 116.937 183.196 116.937 183.585V188H115.216V187.092H115.164C115.059 187.297 114.919 187.477 114.743 187.634C114.566 187.787 114.355 187.908 114.108 187.996C113.86 188.081 113.575 188.124 113.251 188.124ZM113.771 186.871C114.038 186.871 114.274 186.818 114.478 186.713C114.683 186.605 114.843 186.46 114.96 186.278C115.076 186.097 115.135 185.891 115.135 185.661V184.966C115.078 185.003 115 185.037 114.9 185.068C114.804 185.097 114.694 185.124 114.572 185.149C114.45 185.172 114.328 185.193 114.206 185.213C114.083 185.23 113.973 185.246 113.873 185.26C113.66 185.291 113.474 185.341 113.315 185.409C113.156 185.477 113.032 185.57 112.944 185.686C112.856 185.8 112.812 185.942 112.812 186.112C112.812 186.359 112.902 186.548 113.081 186.679C113.262 186.807 113.493 186.871 113.771 186.871ZM121.827 181.455V182.818H117.885V181.455H121.827ZM118.78 179.886H120.596V185.989C120.596 186.156 120.621 186.287 120.672 186.381C120.723 186.472 120.794 186.536 120.885 186.572C120.979 186.609 121.087 186.628 121.209 186.628C121.294 186.628 121.38 186.621 121.465 186.607C121.55 186.589 121.615 186.577 121.661 186.568L121.946 187.919C121.855 187.947 121.728 187.98 121.563 188.017C121.398 188.057 121.198 188.081 120.962 188.089C120.525 188.107 120.141 188.048 119.811 187.915C119.485 187.781 119.23 187.574 119.049 187.293C118.867 187.011 118.777 186.656 118.78 186.227V179.886ZM123.01 188V181.455H124.825V188H123.01ZM123.922 180.611C123.652 180.611 123.42 180.521 123.227 180.342C123.037 180.161 122.941 179.943 122.941 179.69C122.941 179.44 123.037 179.226 123.227 179.047C123.42 178.865 123.652 178.774 123.922 178.774C124.191 178.774 124.422 178.865 124.612 179.047C124.805 179.226 124.902 179.44 124.902 179.69C124.902 179.943 124.805 180.161 124.612 180.342C124.422 180.521 124.191 180.611 123.922 180.611ZM129.237 188.128C128.575 188.128 128.002 187.987 127.519 187.706C127.039 187.422 126.668 187.027 126.407 186.521C126.146 186.013 126.015 185.423 126.015 184.753C126.015 184.077 126.146 183.486 126.407 182.98C126.668 182.472 127.039 182.077 127.519 181.795C128.002 181.511 128.575 181.369 129.237 181.369C129.898 181.369 130.469 181.511 130.95 181.795C131.433 182.077 131.805 182.472 132.066 182.98C132.327 183.486 132.458 184.077 132.458 184.753C132.458 185.423 132.327 186.013 132.066 186.521C131.805 187.027 131.433 187.422 130.95 187.706C130.469 187.987 129.898 188.128 129.237 188.128ZM129.245 186.722C129.546 186.722 129.798 186.636 129.999 186.466C130.201 186.293 130.353 186.057 130.455 185.759C130.56 185.46 130.613 185.121 130.613 184.74C130.613 184.359 130.56 184.02 130.455 183.722C130.353 183.423 130.201 183.187 129.999 183.014C129.798 182.841 129.546 182.754 129.245 182.754C128.941 182.754 128.685 182.841 128.478 183.014C128.273 183.187 128.119 183.423 128.013 183.722C127.911 184.02 127.86 184.359 127.86 184.74C127.86 185.121 127.911 185.46 128.013 185.759C128.119 186.057 128.273 186.293 128.478 186.466C128.685 186.636 128.941 186.722 129.245 186.722ZM135.454 184.216V188H133.638V181.455H135.369V182.609H135.445C135.59 182.229 135.833 181.928 136.174 181.706C136.515 181.482 136.928 181.369 137.414 181.369C137.869 181.369 138.265 181.469 138.603 181.668C138.941 181.866 139.204 182.151 139.391 182.52C139.579 182.886 139.673 183.324 139.673 183.832V188H137.857V184.156C137.86 183.756 137.758 183.443 137.55 183.219C137.343 182.991 137.058 182.878 136.694 182.878C136.45 182.878 136.234 182.93 136.046 183.036C135.862 183.141 135.717 183.294 135.612 183.496C135.509 183.695 135.457 183.935 135.454 184.216ZM89.177 194.273L91.2864 200.903H91.3674L93.481 194.273H95.5265L92.5179 203H90.1401L87.1273 194.273H89.177ZM98.7875 203.128C98.1142 203.128 97.5346 202.991 97.0488 202.719C96.5659 202.443 96.1937 202.054 95.9324 201.551C95.671 201.045 95.5403 200.447 95.5403 199.757C95.5403 199.084 95.671 198.493 95.9324 197.984C96.1937 197.476 96.5616 197.08 97.036 196.795C97.5133 196.511 98.073 196.369 98.715 196.369C99.1468 196.369 99.5488 196.439 99.921 196.578C100.296 196.714 100.623 196.92 100.901 197.196C101.182 197.472 101.401 197.818 101.557 198.236C101.714 198.651 101.792 199.136 101.792 199.693V200.192H96.2647V199.067H100.083C100.083 198.805 100.026 198.574 99.9125 198.372C99.7988 198.17 99.6412 198.013 99.4395 197.899C99.2406 197.783 99.0091 197.724 98.7449 197.724C98.4693 197.724 98.225 197.788 98.0119 197.916C97.8017 198.041 97.6369 198.21 97.5176 198.423C97.3983 198.634 97.3372 198.868 97.3343 199.126V200.196C97.3343 200.52 97.394 200.8 97.5133 201.036C97.6355 201.271 97.8074 201.453 98.0289 201.581C98.2505 201.709 98.5133 201.773 98.8173 201.773C99.019 201.773 99.2037 201.744 99.3713 201.688C99.5389 201.631 99.6824 201.545 99.8017 201.432C99.921 201.318 100.012 201.179 100.074 201.014L101.753 201.125C101.668 201.528 101.493 201.881 101.229 202.182C100.968 202.48 100.63 202.713 100.215 202.881C99.8031 203.045 99.3272 203.128 98.7875 203.128ZM105.934 203.128C105.263 203.128 104.687 202.986 104.204 202.702C103.724 202.415 103.354 202.017 103.096 201.509C102.84 201 102.712 200.415 102.712 199.753C102.712 199.082 102.841 198.494 103.1 197.989C103.361 197.48 103.732 197.084 104.212 196.8C104.692 196.513 105.263 196.369 105.925 196.369C106.496 196.369 106.996 196.473 107.425 196.68C107.854 196.888 108.194 197.179 108.444 197.554C108.694 197.929 108.831 198.369 108.857 198.875H107.144C107.096 198.548 106.968 198.286 106.76 198.087C106.556 197.885 106.287 197.784 105.955 197.784C105.674 197.784 105.428 197.861 105.218 198.014C105.01 198.165 104.849 198.385 104.732 198.675C104.616 198.964 104.557 199.315 104.557 199.727C104.557 200.145 104.614 200.5 104.728 200.793C104.844 201.085 105.008 201.308 105.218 201.462C105.428 201.615 105.674 201.692 105.955 201.692C106.162 201.692 106.349 201.649 106.513 201.564C106.681 201.479 106.819 201.355 106.927 201.193C107.037 201.028 107.11 200.831 107.144 200.601H108.857C108.829 201.101 108.692 201.541 108.448 201.922C108.206 202.3 107.873 202.595 107.447 202.808C107.02 203.021 106.516 203.128 105.934 203.128ZM113.501 196.455V197.818H109.559V196.455H113.501ZM110.454 194.886H112.269V200.989C112.269 201.156 112.295 201.287 112.346 201.381C112.397 201.472 112.468 201.536 112.559 201.572C112.653 201.609 112.761 201.628 112.883 201.628C112.968 201.628 113.053 201.621 113.139 201.607C113.224 201.589 113.289 201.577 113.335 201.568L113.62 202.919C113.529 202.947 113.401 202.98 113.237 203.017C113.072 203.057 112.872 203.081 112.636 203.089C112.198 203.107 111.815 203.048 111.485 202.915C111.159 202.781 110.904 202.574 110.722 202.293C110.541 202.011 110.451 201.656 110.454 201.227V194.886ZM117.57 203.128C116.909 203.128 116.336 202.987 115.853 202.706C115.373 202.422 115.002 202.027 114.741 201.521C114.48 201.013 114.349 200.423 114.349 199.753C114.349 199.077 114.48 198.486 114.741 197.98C115.002 197.472 115.373 197.077 115.853 196.795C116.336 196.511 116.909 196.369 117.57 196.369C118.232 196.369 118.803 196.511 119.284 196.795C119.767 197.077 120.139 197.472 120.4 197.98C120.661 198.486 120.792 199.077 120.792 199.753C120.792 200.423 120.661 201.013 120.4 201.521C120.139 202.027 119.767 202.422 119.284 202.706C118.803 202.987 118.232 203.128 117.57 203.128ZM117.579 201.722C117.88 201.722 118.132 201.636 118.333 201.466C118.535 201.293 118.687 201.057 118.789 200.759C118.894 200.46 118.947 200.121 118.947 199.74C118.947 199.359 118.894 199.02 118.789 198.722C118.687 198.423 118.535 198.187 118.333 198.014C118.132 197.841 117.88 197.754 117.579 197.754C117.275 197.754 117.019 197.841 116.812 198.014C116.607 198.187 116.453 198.423 116.347 198.722C116.245 199.02 116.194 199.359 116.194 199.74C116.194 200.121 116.245 200.46 116.347 200.759C116.453 201.057 116.607 201.293 116.812 201.466C117.019 201.636 117.275 201.722 117.579 201.722ZM121.972 203V196.455H123.732V197.597H123.801C123.92 197.19 124.12 196.884 124.401 196.676C124.683 196.466 125.007 196.361 125.373 196.361C125.464 196.361 125.562 196.366 125.667 196.378C125.772 196.389 125.865 196.405 125.944 196.425V198.036C125.859 198.01 125.741 197.987 125.59 197.967C125.44 197.947 125.302 197.938 125.177 197.938C124.91 197.938 124.671 197.996 124.461 198.112C124.254 198.226 124.089 198.385 123.967 198.589C123.847 198.794 123.788 199.03 123.788 199.297V203H121.972Z" fill="#0B0755"/>
<path d="M748.836 178.798C751.106 194.025 750.048 209.562 745.734 224.34C741.421 239.119 733.954 252.786 723.85 264.401C713.746 276.015 701.244 285.302 687.205 291.619C673.166 297.937 657.925 301.136 642.53 300.996C627.136 300.855 611.955 297.38 598.034 290.807C584.113 284.235 571.782 274.723 561.89 262.926C551.999 251.129 544.783 237.328 540.74 222.474C536.696 207.62 535.921 192.065 538.467 176.883L554.222 179.525C552.058 192.431 552.716 205.652 556.154 218.278C559.591 230.904 565.724 242.635 574.132 252.662C582.539 262.689 593.021 270.775 604.854 276.361C616.687 281.948 629.591 284.902 642.676 285.021C655.761 285.14 668.716 282.421 680.649 277.051C692.582 271.681 703.209 263.788 711.798 253.916C720.386 244.043 726.732 232.426 730.399 219.864C734.065 207.303 734.965 194.096 733.036 181.153L748.836 178.798Z" fill="#A8D8E8"/>
<path d="M543.669 157.406C549.523 141.651 559.022 127.506 571.39 116.126L582.207 127.882C571.694 137.555 563.619 149.579 558.643 162.97L543.669 157.406Z" fill="#1E79B7"/>
<path d="M587.11 104.154C601.368 95.2549 617.529 89.8567 634.273 88.4005L635.657 104.315C621.425 105.553 607.687 110.142 595.569 117.706L587.11 104.154Z" fill="#1E79B7"/>
<path d="M654.16 88.5348C670.882 90.217 686.969 95.8331 701.105 104.924L692.464 118.36C680.449 110.633 666.775 105.859 652.561 104.43L654.16 88.5348Z" fill="#1E79B7"/>
<path d="M716.919 117.352C730.903 130.659 741.007 147.518 746.15 166.124L730.753 170.38C726.381 154.565 717.792 140.236 705.906 128.924L716.919 117.352Z" fill="#1E79B7"/>
<path d="M538.481 176.799C539.594 170.196 541.328 163.712 543.658 157.434L558.634 162.994C556.653 168.33 555.18 173.842 554.234 179.454L538.481 176.799Z" fill="#61A5FB"/>
<path d="M571.256 116.25C576.177 111.707 581.514 107.639 587.199 104.099L595.644 117.659C590.812 120.668 586.275 124.126 582.093 127.987L571.256 116.25Z" fill="#FEA3AF"/>
<path d="M634.074 88.4179C640.745 87.8253 647.456 87.863 654.119 88.5307L652.526 104.426C646.863 103.859 641.158 103.826 635.488 104.33L634.074 88.4179Z" fill="#34D399"/>
<path d="M746.101 165.947C747.896 172.398 749.079 179.005 749.634 185.678L733.714 187.001C733.242 181.329 732.237 175.714 730.711 170.23L746.101 165.947Z" fill="#A78AFA"/>
<path d="M700.998 104.855C706.635 108.47 711.918 112.609 716.777 117.217L705.786 128.809C701.655 124.893 697.165 121.375 692.373 118.302L700.998 104.855Z" fill="#FBBF24"/>
<path d="M605.61 202V193.273H611.388V194.794H607.455V196.874H611.005V198.395H607.455V202H605.61ZM612.596 202V195.455H614.411V202H612.596ZM613.507 194.611C613.238 194.611 613.006 194.521 612.813 194.342C612.623 194.161 612.527 193.943 612.527 193.69C612.527 193.44 612.623 193.226 612.813 193.047C613.006 192.865 613.238 192.774 613.507 192.774C613.777 192.774 614.007 192.865 614.198 193.047C614.391 193.226 614.488 193.44 614.488 193.69C614.488 193.943 614.391 194.161 614.198 194.342C614.007 194.521 613.777 194.611 613.507 194.611ZM617.68 198.216V202H615.865V195.455H617.595V196.609H617.672C617.817 196.229 618.06 195.928 618.401 195.706C618.741 195.482 619.155 195.369 619.641 195.369C620.095 195.369 620.491 195.469 620.83 195.668C621.168 195.866 621.43 196.151 621.618 196.52C621.805 196.886 621.899 197.324 621.899 197.832V202H620.084V198.156C620.087 197.756 619.984 197.443 619.777 197.219C619.57 196.991 619.284 196.878 618.92 196.878C618.676 196.878 618.46 196.93 618.273 197.036C618.088 197.141 617.943 197.294 617.838 197.496C617.736 197.695 617.683 197.935 617.68 198.216ZM625.196 202.124C624.779 202.124 624.407 202.051 624.08 201.906C623.753 201.759 623.495 201.541 623.304 201.254C623.117 200.964 623.023 200.604 623.023 200.172C623.023 199.808 623.09 199.503 623.223 199.256C623.357 199.009 623.539 198.81 623.769 198.659C623.999 198.509 624.26 198.395 624.553 198.318C624.848 198.241 625.158 198.188 625.482 198.156C625.863 198.116 626.169 198.08 626.402 198.045C626.635 198.009 626.804 197.955 626.909 197.884C627.015 197.812 627.067 197.707 627.067 197.568V197.543C627.067 197.273 626.982 197.064 626.811 196.916C626.644 196.768 626.405 196.695 626.096 196.695C625.769 196.695 625.509 196.767 625.316 196.912C625.123 197.054 624.995 197.233 624.932 197.449L623.253 197.312C623.338 196.915 623.506 196.571 623.756 196.281C624.006 195.989 624.328 195.764 624.723 195.608C625.121 195.449 625.581 195.369 626.104 195.369C626.468 195.369 626.816 195.412 627.148 195.497C627.483 195.582 627.78 195.714 628.039 195.893C628.3 196.072 628.506 196.303 628.657 196.584C628.807 196.862 628.882 197.196 628.882 197.585V202H627.161V201.092H627.11C627.005 201.297 626.864 201.477 626.688 201.634C626.512 201.787 626.3 201.908 626.053 201.996C625.806 202.081 625.52 202.124 625.196 202.124ZM625.716 200.871C625.983 200.871 626.219 200.818 626.424 200.713C626.628 200.605 626.789 200.46 626.905 200.278C627.022 200.097 627.08 199.891 627.08 199.661V198.966C627.023 199.003 626.945 199.037 626.846 199.068C626.749 199.097 626.64 199.124 626.517 199.149C626.395 199.172 626.273 199.193 626.151 199.213C626.029 199.23 625.918 199.246 625.819 199.26C625.605 199.291 625.419 199.341 625.26 199.409C625.101 199.477 624.978 199.57 624.89 199.686C624.801 199.8 624.757 199.942 624.757 200.112C624.757 200.359 624.847 200.548 625.026 200.679C625.208 200.807 625.438 200.871 625.716 200.871ZM632.106 193.273V202H630.291V193.273H632.106ZM636.372 202V193.273H639.815C640.477 193.273 641.041 193.399 641.507 193.652C641.973 193.902 642.328 194.25 642.572 194.696C642.819 195.139 642.943 195.651 642.943 196.23C642.943 196.81 642.818 197.321 642.568 197.764C642.318 198.207 641.956 198.553 641.481 198.8C641.01 199.047 640.439 199.17 639.768 199.17H637.574V197.692H639.47C639.825 197.692 640.118 197.631 640.348 197.509C640.581 197.384 640.754 197.212 640.868 196.993C640.984 196.771 641.042 196.517 641.042 196.23C641.042 195.94 640.984 195.687 640.868 195.472C640.754 195.253 640.581 195.084 640.348 194.964C640.115 194.842 639.819 194.781 639.461 194.781H638.217V202H636.372ZM644.107 202V195.455H645.867V196.597H645.935C646.055 196.19 646.255 195.884 646.536 195.676C646.817 195.466 647.141 195.361 647.508 195.361C647.599 195.361 647.697 195.366 647.802 195.378C647.907 195.389 647.999 195.405 648.079 195.425V197.036C647.994 197.01 647.876 196.987 647.725 196.967C647.575 196.947 647.437 196.938 647.312 196.938C647.045 196.938 646.806 196.996 646.596 197.112C646.388 197.226 646.224 197.385 646.102 197.589C645.982 197.794 645.923 198.03 645.923 198.297V202H644.107ZM651.67 202.128C651.008 202.128 650.436 201.987 649.953 201.706C649.473 201.422 649.102 201.027 648.841 200.521C648.579 200.013 648.449 199.423 648.449 198.753C648.449 198.077 648.579 197.486 648.841 196.98C649.102 196.472 649.473 196.077 649.953 195.795C650.436 195.511 651.008 195.369 651.67 195.369C652.332 195.369 652.903 195.511 653.383 195.795C653.866 196.077 654.238 196.472 654.5 196.98C654.761 197.486 654.892 198.077 654.892 198.753C654.892 199.423 654.761 200.013 654.5 200.521C654.238 201.027 653.866 201.422 653.383 201.706C652.903 201.987 652.332 202.128 651.67 202.128ZM651.679 200.722C651.98 200.722 652.231 200.636 652.433 200.466C652.635 200.293 652.787 200.057 652.889 199.759C652.994 199.46 653.047 199.121 653.047 198.74C653.047 198.359 652.994 198.02 652.889 197.722C652.787 197.423 652.635 197.187 652.433 197.014C652.231 196.841 651.98 196.754 651.679 196.754C651.375 196.754 651.119 196.841 650.912 197.014C650.707 197.187 650.552 197.423 650.447 197.722C650.345 198.02 650.294 198.359 650.294 198.74C650.294 199.121 650.345 199.46 650.447 199.759C650.552 200.057 650.707 200.293 650.912 200.466C651.119 200.636 651.375 200.722 651.679 200.722ZM658.484 202.107C657.987 202.107 657.537 201.979 657.133 201.723C656.733 201.464 656.414 201.085 656.179 200.585C655.946 200.082 655.829 199.466 655.829 198.736C655.829 197.986 655.95 197.362 656.191 196.865C656.433 196.365 656.754 195.991 657.154 195.744C657.558 195.494 658 195.369 658.48 195.369C658.846 195.369 659.152 195.432 659.396 195.557C659.643 195.679 659.842 195.832 659.993 196.017C660.146 196.199 660.262 196.378 660.342 196.554H660.397V193.273H662.208V202H660.419V200.952H660.342C660.257 201.134 660.136 201.314 659.98 201.493C659.826 201.669 659.626 201.815 659.379 201.932C659.135 202.048 658.836 202.107 658.484 202.107ZM659.059 200.662C659.352 200.662 659.599 200.582 659.801 200.423C660.005 200.261 660.162 200.036 660.27 199.746C660.38 199.456 660.436 199.116 660.436 198.727C660.436 198.338 660.382 198 660.274 197.713C660.166 197.426 660.01 197.205 659.805 197.048C659.6 196.892 659.352 196.814 659.059 196.814C658.761 196.814 658.51 196.895 658.305 197.057C658.1 197.219 657.946 197.443 657.841 197.73C657.735 198.017 657.683 198.349 657.683 198.727C657.683 199.108 657.735 199.445 657.841 199.737C657.949 200.027 658.103 200.254 658.305 200.419C658.51 200.581 658.761 200.662 659.059 200.662ZM667.898 199.213V195.455H669.714V202H667.971V200.811H667.903C667.755 201.195 667.509 201.503 667.165 201.736C666.825 201.969 666.408 202.085 665.917 202.085C665.479 202.085 665.094 201.986 664.762 201.787C664.43 201.588 664.17 201.305 663.982 200.939C663.798 200.572 663.704 200.134 663.701 199.622V195.455H665.516V199.298C665.519 199.685 665.623 199.99 665.827 200.214C666.032 200.439 666.306 200.551 666.65 200.551C666.869 200.551 667.073 200.501 667.263 200.402C667.454 200.3 667.607 200.149 667.724 199.95C667.843 199.751 667.901 199.506 667.898 199.213ZM674.123 202.128C673.453 202.128 672.876 201.986 672.393 201.702C671.913 201.415 671.544 201.017 671.285 200.509C671.029 200 670.902 199.415 670.902 198.753C670.902 198.082 671.031 197.494 671.289 196.989C671.551 196.48 671.922 196.084 672.402 195.8C672.882 195.513 673.453 195.369 674.115 195.369C674.686 195.369 675.186 195.473 675.615 195.68C676.044 195.888 676.383 196.179 676.633 196.554C676.883 196.929 677.021 197.369 677.047 197.875H675.333C675.285 197.548 675.157 197.286 674.95 197.087C674.745 196.885 674.477 196.784 674.145 196.784C673.863 196.784 673.618 196.861 673.407 197.014C673.2 197.165 673.038 197.385 672.922 197.675C672.805 197.964 672.747 198.315 672.747 198.727C672.747 199.145 672.804 199.5 672.917 199.793C673.034 200.085 673.197 200.308 673.407 200.462C673.618 200.615 673.863 200.692 674.145 200.692C674.352 200.692 674.538 200.649 674.703 200.564C674.87 200.479 675.008 200.355 675.116 200.193C675.227 200.028 675.299 199.831 675.333 199.601H677.047C677.018 200.101 676.882 200.541 676.637 200.922C676.396 201.3 676.062 201.595 675.636 201.808C675.21 202.021 674.706 202.128 674.123 202.128ZM681.69 195.455V196.818H677.749V195.455H681.69ZM678.643 193.886H680.459V199.989C680.459 200.156 680.484 200.287 680.536 200.381C680.587 200.472 680.658 200.536 680.749 200.572C680.842 200.609 680.95 200.628 681.072 200.628C681.158 200.628 681.243 200.621 681.328 200.607C681.413 200.589 681.479 200.577 681.524 200.568L681.81 201.919C681.719 201.947 681.591 201.98 681.426 202.017C681.261 202.057 681.061 202.081 680.825 202.089C680.388 202.107 680.004 202.048 679.675 201.915C679.348 201.781 679.094 201.574 678.912 201.293C678.73 201.011 678.641 200.656 678.643 200.227V193.886Z" fill="#0B0755"/>
<path d="M545.487 123.273V132H543.641V123.273H545.487ZM550.75 123.273V132H548.905V125.024H548.854L546.855 126.277V124.641L549.016 123.273H550.75Z" fill="#0B0755"/>
<path d="M601.643 81.2727V90H599.798V81.2727H601.643ZM603.11 90V88.6705L606.216 85.794C606.48 85.5384 606.702 85.3082 606.881 85.1037C607.063 84.8991 607.201 84.6989 607.294 84.5028C607.388 84.304 607.435 84.0895 607.435 83.8594C607.435 83.6037 607.377 83.3835 607.26 83.1989C607.144 83.0114 606.985 82.8679 606.783 82.7685C606.581 82.6662 606.353 82.6151 606.097 82.6151C605.83 82.6151 605.597 82.669 605.398 82.777C605.199 82.8849 605.046 83.0398 604.938 83.2415C604.83 83.4432 604.776 83.6832 604.776 83.9616H603.025C603.025 83.3906 603.154 82.8949 603.412 82.4744C603.671 82.054 604.033 81.7287 604.499 81.4986C604.965 81.2685 605.502 81.1534 606.11 81.1534C606.735 81.1534 607.279 81.2642 607.742 81.4858C608.208 81.7045 608.57 82.0085 608.828 82.3977C609.087 82.7869 609.216 83.233 609.216 83.7358C609.216 84.0653 609.151 84.3906 609.02 84.7116C608.892 85.0327 608.664 85.3892 608.334 85.7812C608.005 86.1705 607.54 86.6378 606.941 87.1832L605.667 88.4318V88.4915H609.331V90H603.11Z" fill="#0B0755"/>
<path d="M684.467 81.2727V90H682.622V81.2727H684.467ZM689.16 90.1193C688.523 90.1193 687.957 90.0099 687.46 89.7912C686.965 89.5696 686.575 89.2656 686.288 88.8793C686.004 88.4901 685.857 88.0412 685.849 87.5327H687.707C687.718 87.7457 687.788 87.9332 687.915 88.0952C688.046 88.2543 688.219 88.3778 688.435 88.4659C688.651 88.554 688.894 88.598 689.164 88.598C689.445 88.598 689.694 88.5483 689.91 88.4489C690.126 88.3494 690.295 88.2116 690.417 88.0355C690.539 87.8594 690.6 87.6562 690.6 87.4261C690.6 87.1932 690.535 86.9872 690.404 86.8082C690.276 86.6264 690.092 86.4844 689.85 86.3821C689.612 86.2798 689.327 86.2287 688.998 86.2287H688.184V84.8736H688.998C689.276 84.8736 689.522 84.8253 689.735 84.7287C689.951 84.6321 690.119 84.4986 690.238 84.3281C690.357 84.1548 690.417 83.9531 690.417 83.723C690.417 83.5043 690.364 83.3125 690.259 83.1477C690.157 82.9801 690.012 82.8494 689.825 82.7557C689.64 82.6619 689.424 82.6151 689.177 82.6151C688.927 82.6151 688.698 82.6605 688.491 82.7514C688.283 82.8395 688.117 82.9659 687.992 83.1307C687.867 83.2955 687.8 83.4886 687.792 83.7102H686.023C686.032 83.2074 686.175 82.7642 686.454 82.3807C686.732 81.9972 687.107 81.6974 687.579 81.4815C688.053 81.2628 688.589 81.1534 689.185 81.1534C689.788 81.1534 690.315 81.2628 690.766 81.4815C691.218 81.7003 691.569 81.9957 691.819 82.3679C692.072 82.7372 692.197 83.152 692.194 83.6122C692.197 84.1009 692.045 84.5085 691.738 84.8352C691.434 85.1619 691.038 85.3693 690.549 85.4574V85.5256C691.191 85.608 691.68 85.831 692.015 86.1946C692.353 86.5554 692.521 87.0071 692.518 87.5497C692.521 88.0469 692.377 88.4886 692.087 88.875C691.8 89.2614 691.404 89.5653 690.898 89.7869C690.393 90.0085 689.813 90.1193 689.16 90.1193Z" fill="#0B0755"/>
<path d="M736.356 123.273V132H734.51V123.273H736.356ZM737.691 130.466V129.013L741.334 123.273H742.587V125.284H741.845L739.548 128.919V128.987H744.726V130.466H737.691ZM741.879 132V130.023L741.914 129.379V123.273H743.644V132H741.879Z" fill="#0B0755"/>
</svg>
