<svg width="827" height="367" viewBox="0 0 827 367" fill="none" xmlns="http://www.w3.org/2000/svg">
<rect width="827" height="367" fill="white"/>
<path d="M263.5 212L253.5 206.226V217.774L263.5 212ZM222 212V213H254.5V212V211H222V212Z" fill="#0B0755"/>
<path d="M559.5 212L549.5 206.226V217.774L559.5 212ZM518 212V213H550.5V212V211H518V212Z" fill="#0B0755"/>
<path d="M492.339 155.621C500.629 171.848 504.618 189.93 503.922 208.139C503.227 226.348 497.871 244.074 488.368 259.621C478.864 275.169 465.53 288.018 449.641 296.939C433.752 305.86 415.84 310.555 397.618 310.576C379.396 310.596 361.473 305.94 345.565 297.054C329.656 288.168 316.294 275.348 306.755 259.822C297.217 244.296 291.822 226.582 291.087 208.374C290.351 190.167 294.3 172.076 302.554 155.83L316.796 163.067C309.78 176.876 306.424 192.253 307.049 207.73C307.674 223.206 312.26 238.263 320.367 251.46C328.474 264.658 339.833 275.554 353.355 283.107C366.877 290.66 382.111 294.618 397.6 294.601C413.089 294.584 428.314 290.593 441.82 283.009C455.325 275.426 466.659 264.505 474.737 251.29C482.816 238.074 487.368 223.007 487.959 207.53C488.55 192.052 485.16 176.682 478.113 162.889L492.339 155.621Z" fill="#A8D8E8"/>
<path d="M303.174 154.631C304.727 151.667 306.42 148.778 308.246 145.973L321.634 154.689C320.082 157.072 318.643 159.528 317.323 162.047L303.174 154.631Z" fill="#F38300"/>
<path d="M486.454 145.514C488.294 148.31 490.002 151.19 491.57 154.146L477.46 161.635C476.126 159.123 474.675 156.675 473.111 154.299L486.454 145.514Z" fill="#3A035D"/>
<path d="M367.473 204.576H364.38V195.848H367.499C368.377 195.848 369.132 196.023 369.766 196.373C370.4 196.719 370.887 197.218 371.228 197.868C371.571 198.519 371.743 199.297 371.743 200.204C371.743 201.113 371.571 201.894 371.228 202.547C370.887 203.201 370.397 203.702 369.757 204.052C369.121 204.401 368.36 204.576 367.473 204.576ZM366.225 202.995H367.397C367.942 202.995 368.401 202.898 368.773 202.705C369.148 202.509 369.429 202.206 369.617 201.797C369.807 201.385 369.902 200.854 369.902 200.204C369.902 199.559 369.807 199.032 369.617 198.623C369.429 198.213 369.15 197.912 368.777 197.719C368.405 197.526 367.946 197.429 367.401 197.429H366.225V202.995ZM376.059 204.704C375.386 204.704 374.806 204.567 374.32 204.294C373.837 204.019 373.465 203.63 373.204 203.127C372.942 202.621 372.812 202.023 372.812 201.333C372.812 200.659 372.942 200.069 373.204 199.56C373.465 199.052 373.833 198.655 374.308 198.371C374.785 198.087 375.344 197.945 375.987 197.945C376.418 197.945 376.82 198.015 377.192 198.154C377.567 198.29 377.894 198.496 378.173 198.772C378.454 199.047 378.673 199.394 378.829 199.811C378.985 200.226 379.063 200.712 379.063 201.269V201.767H373.536V200.642H377.354C377.354 200.381 377.298 200.15 377.184 199.948C377.07 199.746 376.913 199.588 376.711 199.475C376.512 199.358 376.281 199.3 376.016 199.3C375.741 199.3 375.496 199.364 375.283 199.492C375.073 199.617 374.908 199.786 374.789 199.999C374.67 200.209 374.609 200.444 374.606 200.702V201.772C374.606 202.096 374.665 202.375 374.785 202.611C374.907 202.847 375.079 203.029 375.3 203.157C375.522 203.284 375.785 203.348 376.089 203.348C376.29 203.348 376.475 203.32 376.643 203.263C376.81 203.206 376.954 203.121 377.073 203.008C377.192 202.894 377.283 202.755 377.346 202.59L379.025 202.701C378.94 203.104 378.765 203.456 378.501 203.758C378.239 204.056 377.901 204.289 377.487 204.456C377.075 204.621 376.599 204.704 376.059 204.704ZM385.694 199.897L384.032 199.999C384.004 199.857 383.942 199.729 383.849 199.615C383.755 199.499 383.631 199.407 383.478 199.338C383.327 199.267 383.147 199.232 382.937 199.232C382.656 199.232 382.418 199.292 382.225 199.411C382.032 199.527 381.935 199.684 381.935 199.88C381.935 200.036 381.998 200.168 382.123 200.276C382.248 200.384 382.462 200.471 382.766 200.536L383.951 200.775C384.587 200.905 385.062 201.115 385.374 201.405C385.687 201.695 385.843 202.076 385.843 202.547C385.843 202.976 385.717 203.353 385.464 203.677C385.214 204 384.87 204.253 384.433 204.435C383.998 204.614 383.496 204.704 382.928 204.704C382.062 204.704 381.371 204.523 380.857 204.162C380.346 203.799 380.046 203.304 379.958 202.679L381.744 202.586C381.798 202.85 381.928 203.052 382.136 203.191C382.343 203.327 382.609 203.395 382.933 203.395C383.251 203.395 383.506 203.334 383.7 203.212C383.896 203.087 383.995 202.927 383.998 202.731C383.995 202.566 383.925 202.431 383.789 202.326C383.653 202.218 383.442 202.135 383.158 202.079L382.025 201.853C381.386 201.725 380.91 201.503 380.597 201.188C380.288 200.873 380.133 200.471 380.133 199.982C380.133 199.561 380.246 199.199 380.474 198.895C380.704 198.591 381.026 198.357 381.441 198.192C381.859 198.027 382.347 197.945 382.907 197.945C383.734 197.945 384.384 198.12 384.859 198.469C385.336 198.819 385.614 199.294 385.694 199.897ZM390.468 198.03V199.394H386.526V198.03H390.468ZM387.421 196.462H389.236V202.564C389.236 202.732 389.262 202.863 389.313 202.956C389.364 203.047 389.435 203.111 389.526 203.148C389.62 203.185 389.728 203.204 389.85 203.204C389.935 203.204 390.02 203.196 390.105 203.182C390.191 203.165 390.256 203.152 390.301 203.144L390.587 204.495C390.496 204.523 390.368 204.556 390.203 204.593C390.039 204.633 389.838 204.657 389.603 204.665C389.165 204.682 388.782 204.624 388.452 204.49C388.125 204.357 387.871 204.15 387.689 203.868C387.507 203.587 387.418 203.232 387.421 202.803V196.462ZM391.65 204.576V198.03H393.466V204.576H391.65ZM392.562 197.186C392.292 197.186 392.061 197.097 391.868 196.918C391.677 196.736 391.582 196.519 391.582 196.266C391.582 196.016 391.677 195.802 391.868 195.623C392.061 195.441 392.292 195.35 392.562 195.35C392.832 195.35 393.062 195.441 393.252 195.623C393.446 195.802 393.542 196.016 393.542 196.266C393.542 196.519 393.446 196.736 393.252 196.918C393.062 197.097 392.832 197.186 392.562 197.186ZM396.735 200.792V204.576H394.92V198.03H396.65V199.185H396.727C396.871 198.804 397.114 198.503 397.455 198.282C397.796 198.057 398.21 197.945 398.695 197.945C399.15 197.945 399.546 198.044 399.884 198.243C400.222 198.442 400.485 198.726 400.673 199.096C400.86 199.462 400.954 199.9 400.954 200.408V204.576H399.138V200.732C399.141 200.331 399.039 200.019 398.832 199.794C398.624 199.567 398.339 199.454 397.975 199.454C397.731 199.454 397.515 199.506 397.327 199.611C397.143 199.716 396.998 199.87 396.893 200.071C396.79 200.27 396.738 200.51 396.735 200.792ZM404.251 204.699C403.833 204.699 403.461 204.627 403.135 204.482C402.808 204.334 402.549 204.117 402.359 203.83C402.172 203.54 402.078 203.179 402.078 202.748C402.078 202.384 402.145 202.079 402.278 201.831C402.412 201.584 402.593 201.385 402.824 201.235C403.054 201.084 403.315 200.971 403.608 200.894C403.903 200.817 404.213 200.763 404.537 200.732C404.917 200.692 405.224 200.655 405.457 200.621C405.69 200.584 405.859 200.53 405.964 200.459C406.069 200.388 406.122 200.283 406.122 200.144V200.118C406.122 199.848 406.037 199.64 405.866 199.492C405.699 199.344 405.46 199.27 405.15 199.27C404.824 199.27 404.564 199.343 404.37 199.488C404.177 199.63 404.049 199.809 403.987 200.025L402.308 199.888C402.393 199.49 402.561 199.147 402.811 198.857C403.061 198.564 403.383 198.34 403.778 198.184C404.176 198.025 404.636 197.945 405.159 197.945C405.522 197.945 405.87 197.988 406.203 198.073C406.538 198.158 406.835 198.29 407.093 198.469C407.355 198.648 407.561 198.878 407.711 199.159C407.862 199.438 407.937 199.772 407.937 200.161V204.576H406.216V203.668H406.164C406.059 203.873 405.919 204.053 405.743 204.209C405.566 204.363 405.355 204.483 405.108 204.571C404.86 204.657 404.575 204.699 404.251 204.699ZM404.771 203.446C405.038 203.446 405.274 203.394 405.478 203.289C405.683 203.181 405.843 203.036 405.96 202.854C406.076 202.672 406.135 202.466 406.135 202.236V201.542C406.078 201.579 406 201.613 405.9 201.644C405.804 201.672 405.694 201.699 405.572 201.725C405.45 201.748 405.328 201.769 405.206 201.789C405.083 201.806 404.973 201.821 404.873 201.836C404.66 201.867 404.474 201.917 404.315 201.985C404.156 202.053 404.032 202.145 403.944 202.262C403.856 202.375 403.812 202.517 403.812 202.688C403.812 202.935 403.902 203.124 404.081 203.255C404.262 203.383 404.493 203.446 404.771 203.446ZM412.827 198.03V199.394H408.885V198.03H412.827ZM409.78 196.462H411.596V202.564C411.596 202.732 411.621 202.863 411.672 202.956C411.723 203.047 411.794 203.111 411.885 203.148C411.979 203.185 412.087 203.204 412.209 203.204C412.294 203.204 412.38 203.196 412.465 203.182C412.55 203.165 412.615 203.152 412.661 203.144L412.946 204.495C412.855 204.523 412.728 204.556 412.563 204.593C412.398 204.633 412.198 204.657 411.962 204.665C411.525 204.682 411.141 204.624 410.811 204.49C410.485 204.357 410.23 204.15 410.049 203.868C409.867 203.587 409.777 203.232 409.78 202.803V196.462ZM414.01 204.576V198.03H415.825V204.576H414.01ZM414.922 197.186C414.652 197.186 414.42 197.097 414.227 196.918C414.037 196.736 413.941 196.519 413.941 196.266C413.941 196.016 414.037 195.802 414.227 195.623C414.42 195.441 414.652 195.35 414.922 195.35C415.191 195.35 415.422 195.441 415.612 195.623C415.805 195.802 415.902 196.016 415.902 196.266C415.902 196.519 415.805 196.736 415.612 196.918C415.422 197.097 415.191 197.186 414.922 197.186ZM420.237 204.704C419.575 204.704 419.002 204.563 418.519 204.282C418.039 203.998 417.668 203.603 417.407 203.097C417.146 202.588 417.015 201.999 417.015 201.329C417.015 200.652 417.146 200.061 417.407 199.556C417.668 199.047 418.039 198.652 418.519 198.371C419.002 198.087 419.575 197.945 420.237 197.945C420.898 197.945 421.469 198.087 421.95 198.371C422.433 198.652 422.805 199.047 423.066 199.556C423.327 200.061 423.458 200.652 423.458 201.329C423.458 201.999 423.327 202.588 423.066 203.097C422.805 203.603 422.433 203.998 421.95 204.282C421.469 204.563 420.898 204.704 420.237 204.704ZM420.245 203.297C420.546 203.297 420.798 203.212 420.999 203.042C421.201 202.868 421.353 202.633 421.455 202.334C421.56 202.036 421.613 201.696 421.613 201.316C421.613 200.935 421.56 200.596 421.455 200.297C421.353 199.999 421.201 199.763 420.999 199.59C420.798 199.417 420.546 199.33 420.245 199.33C419.941 199.33 419.685 199.417 419.478 199.59C419.273 199.763 419.119 199.999 419.013 200.297C418.911 200.596 418.86 200.935 418.86 201.316C418.86 201.696 418.911 202.036 419.013 202.334C419.119 202.633 419.273 202.868 419.478 203.042C419.685 203.212 419.941 203.297 420.245 203.297ZM426.454 200.792V204.576H424.638V198.03H426.369V199.185H426.445C426.59 198.804 426.833 198.503 427.174 198.282C427.515 198.057 427.928 197.945 428.414 197.945C428.869 197.945 429.265 198.044 429.603 198.243C429.941 198.442 430.204 198.726 430.391 199.096C430.579 199.462 430.673 199.9 430.673 200.408V204.576H428.857V200.732C428.86 200.331 428.758 200.019 428.55 199.794C428.343 199.567 428.058 199.454 427.694 199.454C427.45 199.454 427.234 199.506 427.046 199.611C426.862 199.716 426.717 199.87 426.612 200.071C426.509 200.27 426.457 200.51 426.454 200.792ZM380.177 210.848L382.286 217.479H382.367L384.481 210.848H386.526L383.518 219.576H381.14L378.127 210.848H380.177ZM389.787 219.704C389.114 219.704 388.535 219.567 388.049 219.294C387.566 219.019 387.194 218.63 386.932 218.127C386.671 217.621 386.54 217.023 386.54 216.333C386.54 215.659 386.671 215.069 386.932 214.56C387.194 214.052 387.562 213.655 388.036 213.371C388.513 213.087 389.073 212.945 389.715 212.945C390.147 212.945 390.549 213.015 390.921 213.154C391.296 213.29 391.623 213.496 391.901 213.772C392.182 214.047 392.401 214.394 392.557 214.811C392.714 215.226 392.792 215.712 392.792 216.269V216.767H387.265V215.642H391.083C391.083 215.381 391.026 215.15 390.912 214.948C390.799 214.746 390.641 214.588 390.439 214.475C390.241 214.358 390.009 214.3 389.745 214.3C389.469 214.3 389.225 214.364 389.012 214.492C388.802 214.617 388.637 214.786 388.518 214.999C388.398 215.209 388.337 215.444 388.334 215.702V216.772C388.334 217.096 388.394 217.375 388.513 217.611C388.635 217.847 388.807 218.029 389.029 218.157C389.251 218.284 389.513 218.348 389.817 218.348C390.019 218.348 390.204 218.32 390.371 218.263C390.539 218.206 390.682 218.121 390.802 218.008C390.921 217.894 391.012 217.755 391.074 217.59L392.753 217.701C392.668 218.104 392.493 218.456 392.229 218.758C391.968 219.056 391.63 219.289 391.215 219.456C390.803 219.621 390.327 219.704 389.787 219.704ZM396.934 219.704C396.263 219.704 395.687 219.561 395.204 219.277C394.724 218.99 394.354 218.593 394.096 218.084C393.84 217.576 393.712 216.99 393.712 216.329C393.712 215.658 393.841 215.07 394.1 214.564C394.361 214.056 394.732 213.659 395.212 213.375C395.692 213.088 396.263 212.945 396.925 212.945C397.496 212.945 397.996 213.049 398.425 213.256C398.854 213.463 399.194 213.755 399.444 214.13C399.694 214.505 399.831 214.945 399.857 215.451H398.144C398.096 215.124 397.968 214.861 397.76 214.662C397.556 214.461 397.287 214.36 396.955 214.36C396.674 214.36 396.428 214.436 396.218 214.59C396.01 214.74 395.849 214.961 395.732 215.25C395.616 215.54 395.557 215.891 395.557 216.303C395.557 216.721 395.614 217.076 395.728 217.368C395.844 217.661 396.008 217.884 396.218 218.037C396.428 218.191 396.674 218.267 396.955 218.267C397.162 218.267 397.349 218.225 397.513 218.14C397.681 218.054 397.819 217.931 397.927 217.769C398.037 217.604 398.11 217.407 398.144 217.177H399.857C399.829 217.677 399.692 218.117 399.448 218.498C399.206 218.875 398.873 219.171 398.447 219.384C398.02 219.597 397.516 219.704 396.934 219.704ZM404.501 213.03V214.394H400.559V213.03H404.501ZM401.454 211.462H403.269V217.564C403.269 217.732 403.295 217.863 403.346 217.956C403.397 218.047 403.468 218.111 403.559 218.148C403.653 218.185 403.761 218.204 403.883 218.204C403.968 218.204 404.053 218.196 404.139 218.182C404.224 218.165 404.289 218.152 404.335 218.144L404.62 219.495C404.529 219.523 404.401 219.556 404.237 219.593C404.072 219.633 403.872 219.657 403.636 219.665C403.198 219.682 402.815 219.624 402.485 219.49C402.159 219.357 401.904 219.15 401.722 218.868C401.541 218.587 401.451 218.232 401.454 217.803V211.462ZM408.57 219.704C407.909 219.704 407.336 219.563 406.853 219.282C406.373 218.998 406.002 218.603 405.741 218.097C405.48 217.588 405.349 216.999 405.349 216.329C405.349 215.652 405.48 215.061 405.741 214.556C406.002 214.047 406.373 213.652 406.853 213.371C407.336 213.087 407.909 212.945 408.57 212.945C409.232 212.945 409.803 213.087 410.284 213.371C410.767 213.652 411.139 214.047 411.4 214.556C411.661 215.061 411.792 215.652 411.792 216.329C411.792 216.999 411.661 217.588 411.4 218.097C411.139 218.603 410.767 218.998 410.284 219.282C409.803 219.563 409.232 219.704 408.57 219.704ZM408.579 218.297C408.88 218.297 409.132 218.212 409.333 218.042C409.535 217.868 409.687 217.633 409.789 217.334C409.894 217.036 409.947 216.696 409.947 216.316C409.947 215.935 409.894 215.596 409.789 215.297C409.687 214.999 409.535 214.763 409.333 214.59C409.132 214.417 408.88 214.33 408.579 214.33C408.275 214.33 408.019 214.417 407.812 214.59C407.607 214.763 407.453 214.999 407.347 215.297C407.245 215.596 407.194 215.935 407.194 216.316C407.194 216.696 407.245 217.036 407.347 217.334C407.453 217.633 407.607 217.868 407.812 218.042C408.019 218.212 408.275 218.297 408.579 218.297ZM412.972 219.576V213.03H414.732V214.172H414.801C414.92 213.766 415.12 213.459 415.401 213.252C415.683 213.042 416.007 212.936 416.373 212.936C416.464 212.936 416.562 212.942 416.667 212.954C416.772 212.965 416.865 212.981 416.944 213V214.611C416.859 214.586 416.741 214.563 416.59 214.543C416.44 214.523 416.302 214.513 416.177 214.513C415.91 214.513 415.671 214.571 415.461 214.688C415.254 214.802 415.089 214.961 414.967 215.165C414.847 215.37 414.788 215.606 414.788 215.873V219.576H412.972Z" fill="#0B0755"/>
<path d="M523.413 71.7465C534.262 82.3089 543.739 94.1944 551.621 107.123L537.75 115.579C530.578 103.814 521.954 92.9979 512.081 83.3861L523.413 71.7465Z" fill="#1B76B3"/>
<path d="M273.963 126.117C281.829 113.154 291.686 101.509 303.173 91.6106L313.549 103.652C303.325 112.461 294.552 122.825 287.552 134.362L273.963 126.117Z" fill="#1B76B3"/>
<path d="M267.613 137.755C269.602 133.674 271.783 129.689 274.148 125.813L287.717 134.092C285.612 137.541 283.671 141.088 281.9 144.72L267.613 137.755Z" fill="#F38300"/>
<path d="M302.185 92.4697C305.597 89.4747 309.149 86.6423 312.829 83.9817L322.142 96.8621C318.868 99.2299 315.707 101.751 312.669 104.416L302.185 92.4697Z" fill="#E75A46"/>
<path d="M452.448 67.4306C466.472 73.1966 479.501 81.134 491.057 90.9515L480.766 103.065C470.481 94.3276 458.885 87.2633 446.403 82.1316L452.448 67.4306Z" fill="#1B76B3"/>
<path d="M440.208 63.0311C444.545 64.373 448.817 65.9186 453.009 67.6628L446.903 82.3383C443.172 80.7859 439.37 79.4103 435.51 78.216L440.208 63.0311Z" fill="#D76EA5"/>
<path d="M349.025 64.9492C363.309 59.8625 378.306 57.0557 393.463 56.6321L393.907 72.5209C380.417 72.8979 367.07 75.3959 354.357 79.9231L349.025 64.9492Z" fill="#1B76B3"/>
<path d="M338.593 69.1277C342.739 67.2768 346.97 65.6223 351.272 64.1697L356.357 79.2294C352.529 80.5221 348.763 81.9946 345.073 83.642L338.593 69.1277Z" fill="#5EA25F"/>
<path d="M490.583 90.5509C494.056 93.4757 497.389 96.5626 500.572 99.8013L489.234 110.941C486.402 108.059 483.435 105.312 480.344 102.709L490.583 90.5509Z" fill="#7D5738"/>
<path d="M551.398 106.759C553.868 110.789 556.178 114.914 558.324 119.125L543.85 126.501C541.897 122.669 539.795 118.915 537.548 115.248L551.398 106.759Z" fill="#3A035D"/>
<path d="M513.009 62.3748C516.641 65.3993 520.152 68.5651 523.535 71.8652L512.192 83.4941C509.113 80.4911 505.918 77.6101 502.613 74.8579L513.009 62.3748Z" fill="#7D5738"/>
<path d="M289.289 56.609C301.408 47.5315 314.621 40.0151 328.616 34.2367L334.816 49.2522C322.08 54.5105 310.056 61.3505 299.028 69.611L289.289 56.609Z" fill="#1B76B3"/>
<path d="M328.524 34.2748C332.891 32.4688 337.328 30.835 341.823 29.3772L346.834 44.8301C342.743 46.1567 338.706 47.6434 334.732 49.2869L328.524 34.2748Z" fill="#5EA25F"/>
<path d="M278.548 65.3157C282.103 62.2011 285.779 59.2274 289.567 56.4013L299.281 69.422C295.834 71.9937 292.489 74.6998 289.254 77.5341L278.548 65.3157Z" fill="#E75A46"/>
<path d="M406.494 20.7999C421.617 21.5544 436.584 24.2087 451.044 28.7003L446.225 44.2141C433.067 40.1267 419.446 37.7113 405.684 37.0247L406.494 20.7999Z" fill="#1B76B3"/>
<path d="M450.983 28.6815C455.497 30.0818 459.954 31.659 464.345 33.4092L458.329 48.4992C454.334 46.9065 450.278 45.4713 446.17 44.1969L450.983 28.6815Z" fill="#D76EA5"/>
<path d="M392.638 20.6412C397.362 20.5139 402.09 20.5722 406.809 20.8159L405.971 37.0393C401.676 36.8175 397.374 36.7644 393.075 36.8803L392.638 20.6412Z" fill="#E8D917"/>
<path d="M262.841 115.067L269.193 121.052L267.927 122.395L261.575 116.41L262.841 115.067ZM268.701 116.056L271.455 118.651L270.21 119.972L265.446 115.483L266.633 114.224L267.473 115.016L267.526 114.96C267.348 114.594 267.296 114.21 267.368 113.81C267.439 113.408 267.64 113.03 267.973 112.677C268.285 112.346 268.629 112.126 269.006 112.016C269.382 111.906 269.769 111.91 270.167 112.027C270.562 112.142 270.945 112.373 271.315 112.722L274.348 115.58L273.103 116.901L270.306 114.265C270.016 113.989 269.719 113.849 269.413 113.846C269.105 113.841 268.827 113.971 268.578 114.236C268.41 114.413 268.3 114.607 268.248 114.815C268.198 115.022 268.21 115.232 268.285 115.447C268.36 115.658 268.498 115.861 268.701 116.056ZM275.659 107.366L274.593 108.646C274.47 108.569 274.335 108.526 274.188 108.516C274.039 108.505 273.887 108.531 273.733 108.596C273.578 108.657 273.428 108.764 273.284 108.917C273.091 109.122 272.972 109.335 272.926 109.558C272.879 109.778 272.926 109.956 273.069 110.09C273.182 110.197 273.321 110.242 273.486 110.225C273.65 110.209 273.86 110.112 274.116 109.935L275.102 109.237C275.634 108.863 276.112 108.662 276.537 108.633C276.963 108.605 277.347 108.752 277.69 109.075C278.002 109.37 278.189 109.72 278.252 110.126C278.316 110.53 278.264 110.953 278.097 111.397C277.929 111.836 277.65 112.262 277.261 112.675C276.666 113.306 276.062 113.685 275.446 113.812C274.831 113.935 274.266 113.814 273.751 113.449L274.907 112.085C275.136 112.227 275.372 112.27 275.616 112.215C275.857 112.158 276.089 112.011 276.311 111.775C276.529 111.544 276.66 111.316 276.704 111.091C276.747 110.863 276.699 110.68 276.558 110.544C276.436 110.433 276.29 110.391 276.12 110.418C275.948 110.444 275.744 110.54 275.508 110.708L274.566 111.378C274.035 111.756 273.547 111.95 273.103 111.961C272.661 111.97 272.263 111.807 271.907 111.472C271.601 111.184 271.415 110.853 271.35 110.479C271.286 110.103 271.337 109.708 271.501 109.293C271.668 108.876 271.943 108.464 272.327 108.056C272.894 107.455 273.467 107.101 274.047 106.995C274.628 106.887 275.166 107.011 275.659 107.366ZM282.089 107.551C281.627 108.041 281.13 108.369 280.599 108.536C280.067 108.698 279.529 108.702 278.983 108.548C278.436 108.391 277.911 108.076 277.409 107.603C276.919 107.141 276.578 106.641 276.387 106.102C276.196 105.563 276.16 105.023 276.279 104.483C276.399 103.941 276.68 103.436 277.12 102.969C277.416 102.655 277.743 102.41 278.099 102.234C278.455 102.055 278.829 101.958 279.221 101.945C279.614 101.929 280.017 102.008 280.428 102.18C280.837 102.351 281.244 102.627 281.649 103.009L282.012 103.351L278.222 107.374L277.403 106.602L280.021 103.823C279.831 103.644 279.624 103.527 279.399 103.471C279.174 103.415 278.951 103.422 278.73 103.491C278.509 103.556 278.308 103.684 278.127 103.877C277.938 104.077 277.817 104.299 277.764 104.542C277.711 104.78 277.721 105.016 277.794 105.249C277.865 105.48 277.994 105.685 278.18 105.865L278.958 106.598C279.194 106.82 279.439 106.969 279.692 107.043C279.948 107.116 280.198 107.116 280.443 107.042C280.688 106.969 280.915 106.821 281.123 106.6C281.261 106.453 281.367 106.299 281.441 106.138C281.514 105.977 281.551 105.814 281.55 105.65C281.549 105.485 281.51 105.323 281.433 105.165L282.665 104.019C282.9 104.357 283.037 104.726 283.075 105.125C283.113 105.52 283.05 105.926 282.888 106.342C282.725 106.755 282.459 107.158 282.089 107.551ZM284.868 104.414L280.104 99.9259L281.311 98.6449L282.142 99.4281L282.189 99.3784C281.975 99.013 281.889 98.6568 281.931 98.3099C281.971 97.9611 282.117 97.6533 282.368 97.3865C282.43 97.3204 282.502 97.2529 282.582 97.1842C282.662 97.1155 282.737 97.059 282.806 97.0147L283.979 98.1194C283.901 98.1638 283.804 98.2341 283.686 98.33C283.569 98.426 283.467 98.5194 283.381 98.6104C283.198 98.8048 283.077 99.0184 283.017 99.2513C282.958 99.4802 282.961 99.7092 283.026 99.9384C283.093 100.165 283.224 100.371 283.418 100.554L286.113 103.093L284.868 104.414ZM286.084 93.5793L287.076 94.5144L284.373 97.3833L283.381 96.4482L286.084 93.5793ZM282.853 94.7215L284.098 93.4002L288.54 97.5849C288.662 97.6998 288.774 97.7708 288.877 97.7979C288.979 97.823 289.074 97.8152 289.163 97.7743C289.254 97.7314 289.342 97.6655 289.426 97.5766C289.484 97.5146 289.537 97.4477 289.585 97.3759C289.631 97.3022 289.667 97.2459 289.692 97.2069L290.871 97.9255C290.829 98.0111 290.765 98.1266 290.679 98.2718C290.595 98.419 290.475 98.5814 290.32 98.7588C290.032 99.0889 289.727 99.3281 289.404 99.4764C289.083 99.6227 288.757 99.6655 288.428 99.605C288.098 99.5444 287.779 99.366 287.468 99.0698L282.853 94.7215ZM289.803 86.4499L296.156 92.4346L294.89 93.7776L289.813 88.9939L289.778 89.0311L289.319 91.3449L288.128 90.2227L288.614 87.7122L289.803 86.4499Z" fill="#0B0755"/>
<path d="M283.146 44.4706L287.351 52.1176L285.735 53.0068L281.529 45.3598L283.146 44.4706ZM288.419 47.2119L290.242 50.5276L288.652 51.4025L285.497 45.6672L287.013 44.8334L287.57 45.8453L287.637 45.8084C287.581 45.405 287.648 45.0241 287.84 44.6656C288.031 44.3047 288.339 44.0072 288.765 43.773C289.163 43.554 289.558 43.4501 289.95 43.4615C290.342 43.4728 290.709 43.5951 291.052 43.8283C291.393 44.0591 291.686 44.3973 291.931 44.8428L293.939 48.4946L292.348 49.3694L290.496 46.0014C290.305 45.6491 290.065 45.4246 289.775 45.3278C289.484 45.2286 289.179 45.2667 288.861 45.4419C288.647 45.5596 288.483 45.7097 288.369 45.8922C288.258 46.0733 288.205 46.2775 288.21 46.5049C288.216 46.7285 288.286 46.9641 288.419 47.2119ZM297.71 41.0808L296.303 41.9713C296.209 41.8605 296.094 41.778 295.957 41.7236C295.819 41.6667 295.666 41.6453 295.499 41.6595C295.333 41.6699 295.158 41.7257 294.974 41.827C294.727 41.9625 294.548 42.1291 294.436 42.3268C294.323 42.5219 294.314 42.7054 294.408 42.8771C294.484 43.014 294.602 43.0997 294.763 43.134C294.925 43.1684 295.155 43.1409 295.453 43.0517L296.606 42.6899C297.226 42.4977 297.743 42.4533 298.157 42.5566C298.57 42.6599 298.89 42.9182 299.118 43.3314C299.324 43.7073 299.395 44.098 299.33 44.5037C299.267 44.9079 299.087 45.2951 298.792 45.6653C298.497 46.0316 298.101 46.3516 297.603 46.6254C296.844 47.043 296.152 47.2176 295.527 47.1493C294.904 47.0771 294.403 46.7884 294.025 46.2832L295.544 45.3406C295.719 45.5461 295.931 45.6598 296.179 45.6819C296.427 45.7014 296.692 45.6331 296.976 45.4771C297.255 45.3237 297.45 45.147 297.56 44.9469C297.671 44.7429 297.681 44.5543 297.589 44.3812C297.507 44.2382 297.381 44.1535 297.211 44.1271C297.04 44.0982 296.816 44.1273 296.54 44.2144L295.437 44.5628C294.816 44.7588 294.292 44.794 293.866 44.6683C293.443 44.5412 293.114 44.2636 292.878 43.8354C292.675 43.467 292.6 43.0949 292.653 42.719C292.708 42.3417 292.878 41.981 293.162 41.6367C293.448 41.2911 293.837 40.9834 294.327 40.7137C295.052 40.3153 295.706 40.1549 296.29 40.2324C296.877 40.3086 297.35 40.5914 297.71 41.0808ZM303.772 43.2324C303.182 43.5569 302.609 43.7167 302.052 43.7118C301.496 43.7031 300.982 43.5414 300.511 43.2267C300.038 42.9096 299.635 42.4486 299.303 41.8437C298.978 41.2537 298.808 40.673 298.792 40.1015C298.776 39.5299 298.907 39.0054 299.186 38.5278C299.467 38.0489 299.889 37.6547 300.452 37.3453C300.83 37.1372 301.216 37.0045 301.609 36.9471C302.003 36.8859 302.389 36.9089 302.766 37.0162C303.145 37.1221 303.504 37.3204 303.842 37.611C304.179 37.8992 304.481 38.2872 304.749 38.7751L304.99 39.2119L300.147 41.8754L299.605 40.8897L302.95 39.0497C302.824 38.8207 302.663 38.6452 302.466 38.5232C302.269 38.4012 302.055 38.3391 301.824 38.3367C301.593 38.3305 301.362 38.391 301.131 38.5183C300.889 38.6511 300.706 38.8249 300.581 39.0396C300.457 39.2504 300.394 39.4779 300.392 39.7221C300.389 39.9638 300.449 40.1986 300.571 40.4265L301.086 41.3637C301.242 41.6475 301.429 41.864 301.647 42.0131C301.868 42.1608 302.106 42.2373 302.362 42.2425C302.618 42.2477 302.879 42.1771 303.145 42.0306C303.322 41.9334 303.47 41.8195 303.59 41.689C303.709 41.5584 303.794 41.4146 303.844 41.2575C303.893 41.1005 303.906 40.9347 303.881 40.7602L305.406 40.0482C305.526 40.4427 305.542 40.8356 305.456 41.2268C305.371 41.6141 305.187 41.9811 304.904 42.3279C304.622 42.6708 304.245 42.9723 303.772 43.2324ZM307.381 41.1017L304.227 35.3664L305.769 34.5183L306.319 35.519L306.379 35.4861C306.288 35.0727 306.315 34.7073 306.462 34.39C306.607 34.0703 306.84 33.8221 307.161 33.6455C307.241 33.6017 307.329 33.5595 307.427 33.5188C307.525 33.4781 307.613 33.4473 307.692 33.4263L308.469 34.8378C308.382 34.8564 308.267 34.8933 308.126 34.9485C307.984 35.0036 307.859 35.0613 307.749 35.1215C307.515 35.2502 307.334 35.4162 307.206 35.6196C307.079 35.8191 307.012 36.0379 307.003 36.276C306.997 36.5128 307.058 36.7481 307.187 36.9821L308.972 40.2269L307.381 41.1017ZM311.867 31.1643L312.524 32.3591L309.071 34.2587L308.413 33.0638L311.867 31.1643ZM308.442 31.2585L310.032 30.3837L312.973 35.7306C313.054 35.8775 313.139 35.9797 313.229 36.0372C313.318 36.0922 313.411 36.114 313.508 36.1025C313.608 36.0897 313.712 36.0539 313.819 35.995C313.894 35.9539 313.965 35.9066 314.033 35.8531C314.099 35.7971 314.15 35.7544 314.186 35.725L315.087 36.7711C315.021 36.8398 314.925 36.93 314.798 37.0418C314.673 37.1561 314.509 37.2737 314.307 37.3948C313.932 37.6206 313.567 37.7544 313.214 37.7962C312.864 37.8367 312.541 37.7775 312.246 37.6187C311.951 37.4598 311.702 37.1918 311.497 36.8146L308.442 31.2585ZM318.476 34.9995L317.836 33.8345L319.171 29.817C319.28 29.4657 319.363 29.1573 319.421 28.8918C319.482 28.6249 319.506 28.3831 319.494 28.1661C319.48 27.9467 319.418 27.7362 319.307 27.5345C319.184 27.3105 319.027 27.1456 318.836 27.04C318.643 26.9318 318.435 26.8828 318.21 26.8928C317.984 26.9004 317.759 26.9658 317.535 27.0891C317.301 27.2177 317.123 27.3773 317.001 27.5677C316.878 27.7582 316.819 27.9678 316.821 28.1965C316.824 28.4253 316.892 28.6616 317.026 28.9056L315.492 29.7496C315.217 29.2493 315.091 28.7526 315.115 28.2596C315.139 27.7666 315.299 27.307 315.597 26.8809C315.894 26.4547 316.309 26.0951 316.842 25.8022C317.389 25.501 317.919 25.3359 318.432 25.3069C318.946 25.274 319.41 25.3658 319.824 25.5823C320.238 25.7987 320.566 26.1272 320.808 26.5678C320.967 26.8566 321.067 27.1731 321.107 27.5174C321.149 27.8603 321.121 28.2829 321.021 28.7852C320.92 29.2851 320.738 29.9184 320.476 30.6852L319.961 32.3932L319.99 32.4455L323.201 30.6794L323.928 32.0012L318.476 34.9995Z" fill="#0B0755"/>
<path d="M345.604 51.7895L347.324 60.3458L345.515 60.7092L343.795 52.153L345.604 51.7895ZM349.813 55.9859L350.558 59.6959L348.779 60.0535L347.489 53.6362L349.185 53.2954L349.413 54.4276L349.488 54.4125C349.555 54.0108 349.734 53.6677 350.025 53.3833C350.315 53.0961 350.698 52.9047 351.174 52.809C351.62 52.7194 352.028 52.7389 352.398 52.8672C352.769 52.9956 353.083 53.2224 353.339 53.5475C353.595 53.8699 353.773 54.2803 353.873 54.7789L354.694 58.8649L352.915 59.2224L352.157 55.454C352.081 55.0607 351.92 54.7745 351.672 54.5953C351.424 54.4133 351.122 54.3582 350.765 54.4298C350.526 54.4779 350.324 54.572 350.161 54.712C350.001 54.8514 349.889 55.0303 349.826 55.2488C349.765 55.4639 349.76 55.7096 349.813 55.9859ZM360.515 52.923L358.906 53.3506C358.85 53.2169 358.765 53.1036 358.65 53.0107C358.535 52.915 358.396 52.8488 358.232 52.8122C358.071 52.7722 357.887 52.7729 357.681 52.8143C357.405 52.8697 357.184 52.9749 357.018 53.13C356.852 53.2822 356.788 53.4544 356.827 53.6466C356.857 53.7998 356.945 53.917 357.088 53.9982C357.232 54.0794 357.46 54.1221 357.77 54.1263L358.979 54.1269C359.629 54.1297 360.135 54.2423 360.499 54.4649C360.862 54.6874 361.09 55.0299 361.183 55.4922C361.268 55.9128 361.218 56.3067 361.034 56.6741C360.852 57.0408 360.565 57.3564 360.172 57.6209C359.781 57.882 359.307 58.0685 358.75 58.1804C357.901 58.3511 357.188 58.3102 356.613 58.0577C356.04 57.802 355.649 57.3764 355.439 56.781L357.172 56.3373C357.277 56.5857 357.444 56.7577 357.675 56.8534C357.905 56.9462 358.179 56.9607 358.497 56.8969C358.809 56.8343 359.047 56.724 359.213 56.5662C359.38 56.405 359.446 56.2281 359.41 56.0353C359.375 55.8743 359.28 55.7558 359.126 55.6796C358.971 55.6006 358.748 55.5612 358.459 55.5615L357.303 55.5633C356.651 55.5639 356.141 55.4404 355.772 55.1928C355.407 54.9446 355.176 54.581 355.079 54.1019C354.997 53.6897 355.037 53.3122 355.2 52.9694C355.365 52.6261 355.635 52.3328 356.009 52.0895C356.386 51.8457 356.849 51.6687 357.398 51.5585C358.209 51.3956 358.881 51.4388 359.415 51.6879C359.951 51.9365 360.318 52.3482 360.515 52.923ZM365.653 56.7935C364.993 56.9261 364.398 56.9066 363.868 56.7349C363.34 56.5598 362.899 56.2516 362.543 55.8101C362.187 55.3658 361.942 54.8052 361.806 54.1284C361.673 53.4683 361.685 52.8632 361.841 52.3132C361.997 51.7631 362.279 51.3021 362.689 50.9301C363.101 50.5576 363.621 50.3081 364.251 50.1816C364.674 50.0966 365.082 50.0856 365.474 50.1488C365.869 50.2086 366.23 50.3462 366.557 50.5615C366.887 50.7763 367.17 51.073 367.405 51.4517C367.64 51.8275 367.812 52.2884 367.922 52.8343L368.02 53.3231L362.601 54.4118L362.38 53.3089L366.123 52.5568C366.072 52.3005 365.97 52.0847 365.819 51.9094C365.668 51.734 365.482 51.6105 365.262 51.5388C365.044 51.4638 364.806 51.4523 364.547 51.5043C364.277 51.5586 364.05 51.6694 363.866 51.8367C363.685 52.0007 363.556 52.1988 363.481 52.4312C363.406 52.6609 363.392 52.9027 363.44 53.1567L363.651 54.2053C363.715 54.5228 363.828 54.7854 363.992 54.9931C364.158 55.2002 364.362 55.3446 364.605 55.4263C364.847 55.508 365.117 55.5189 365.415 55.459C365.613 55.4193 365.789 55.3551 365.942 55.2663C366.095 55.1776 366.219 55.0658 366.313 54.9309C366.408 54.796 366.47 54.6416 366.498 54.4677L368.166 54.2456C368.162 54.6579 368.06 55.0377 367.861 55.385C367.663 55.7289 367.378 56.0239 367.004 56.27C366.633 56.5126 366.182 56.6871 365.653 56.7935ZM369.735 55.843L368.445 49.4258L370.171 49.0791L370.396 50.1988L370.463 50.1853C370.5 49.7636 370.636 49.4233 370.87 49.1646C371.105 48.9031 371.402 48.7362 371.761 48.664C371.85 48.6461 371.947 48.6324 372.053 48.6228C372.158 48.6133 372.251 48.6104 372.333 48.6142L372.651 50.1934C372.562 50.1852 372.442 50.1861 372.29 50.1963C372.139 50.2064 372.002 50.2238 371.879 50.2485C371.617 50.3011 371.395 50.4052 371.212 50.5608C371.031 50.713 370.901 50.9015 370.821 51.1261C370.745 51.3501 370.732 51.593 370.785 51.8548L371.515 55.4854L369.735 55.843ZM376.994 47.7082L377.263 49.0451L373.398 49.8215L373.13 48.4846L376.994 47.7082ZM373.698 46.7709L375.478 46.4133L376.68 52.396C376.713 52.5603 376.764 52.6834 376.833 52.7653C376.901 52.8443 376.983 52.893 377.079 52.9113C377.178 52.929 377.288 52.9259 377.408 52.9018C377.491 52.885 377.573 52.8613 377.654 52.8305C377.734 52.797 377.796 52.7716 377.839 52.7543L378.385 54.0225C378.301 54.0682 378.182 54.1255 378.028 54.1941C377.874 54.2656 377.683 54.3287 377.453 54.3835C377.028 54.4864 376.64 54.5048 376.291 54.4388C375.944 54.3723 375.654 54.2191 375.42 53.9791C375.187 53.7392 375.029 53.4087 374.947 52.9875L373.698 46.7709ZM385.335 52.8303C384.712 52.9556 384.134 52.96 383.604 52.8435C383.076 52.7236 382.633 52.5025 382.275 52.1803C381.92 51.8546 381.688 51.4434 381.58 50.9465L383.401 50.5805C383.454 50.7872 383.56 50.9573 383.717 51.0909C383.876 51.2211 384.07 51.3081 384.3 51.3519C384.529 51.3958 384.775 51.3911 385.04 51.3379C385.316 51.2825 385.55 51.1848 385.742 51.0448C385.934 50.9048 386.072 50.7364 386.157 50.5396C386.243 50.3429 386.262 50.1317 386.217 49.9061C386.171 49.6777 386.067 49.4887 385.903 49.3389C385.742 49.1859 385.533 49.083 385.276 49.0303C385.022 48.977 384.733 48.9828 384.41 49.0478L383.612 49.2081L383.345 47.8795L384.143 47.7192C384.416 47.6643 384.648 47.5686 384.838 47.4319C385.03 47.2947 385.168 47.1308 385.252 46.9402C385.335 46.7468 385.353 46.5372 385.308 46.3116C385.265 46.0972 385.176 45.9195 385.04 45.7787C384.907 45.6345 384.739 45.5349 384.537 45.4799C384.337 45.4244 384.116 45.421 383.874 45.4697C383.629 45.5189 383.414 45.6085 383.228 45.7385C383.042 45.8657 382.904 46.0224 382.814 46.2085C382.724 46.3947 382.697 46.5973 382.732 46.8162L380.998 47.1645C380.907 46.6699 380.961 46.2071 381.158 45.7763C381.356 45.3454 381.664 44.9777 382.084 44.6731C382.506 44.3652 383.009 44.1525 383.594 44.035C384.185 43.9163 384.723 43.9198 385.209 44.0453C385.695 44.1707 386.097 44.3913 386.416 44.7069C386.736 45.0192 386.94 45.4012 387.028 45.853C387.127 46.3315 387.059 46.7611 386.822 47.1419C386.589 47.522 386.241 47.8034 385.779 47.986L385.793 48.0529C386.438 48.0072 386.961 48.1296 387.362 48.42C387.764 48.7072 388.017 49.117 388.121 49.6495C388.222 50.1364 388.169 50.5978 387.961 51.0336C387.755 51.469 387.427 51.845 386.975 52.1619C386.522 52.4788 385.976 52.7015 385.335 52.8303Z" fill="#0B0755"/>
<path d="M413.191 8.17053L411.409 16.714L409.603 16.3373L411.384 7.79383L413.191 8.17053ZM415.411 13.6832L414.639 17.3876L412.862 17.017L414.198 10.6094L415.892 10.9626L415.656 12.0931L415.731 12.1087C415.951 11.7657 416.25 11.5205 416.629 11.3731C417.008 11.223 417.436 11.1976 417.912 11.2967C418.357 11.3895 418.724 11.5678 419.015 11.8315C419.305 12.0952 419.504 12.4269 419.612 12.8267C419.721 13.2238 419.723 13.6712 419.62 14.169L418.769 18.2489L416.992 17.8782L417.776 14.1154C417.861 13.7239 417.825 13.3971 417.667 13.1351C417.511 12.8702 417.255 12.7007 416.899 12.6265C416.659 12.5766 416.437 12.584 416.232 12.6486C416.03 12.7138 415.857 12.8344 415.713 13.0104C415.572 13.1842 415.472 13.4084 415.411 13.6832ZM426.456 15.0723L424.808 14.8332C424.809 14.6883 424.776 14.5507 424.707 14.4203C424.639 14.2872 424.537 14.1715 424.401 14.0735C424.268 13.9732 424.098 13.9016 423.893 13.8587C423.617 13.8013 423.373 13.8113 423.159 13.8886C422.947 13.9632 422.82 14.0964 422.78 14.2883C422.748 14.4413 422.782 14.5834 422.883 14.7146C422.983 14.8458 423.175 14.9744 423.46 15.1004L424.571 15.5759C425.167 15.8337 425.588 16.1364 425.835 16.4838C426.082 16.8313 426.157 17.2359 426.061 17.6975C425.973 18.1175 425.773 18.4602 425.459 18.7256C425.148 18.9916 424.76 19.1689 424.295 19.2576C423.833 19.3441 423.323 19.3293 422.767 19.2133C421.919 19.0364 421.28 18.7189 420.85 18.2607C420.424 17.8003 420.232 17.2552 420.273 16.6254L422.04 16.8982C422.039 17.1678 422.126 17.392 422.3 17.5706C422.475 17.7464 422.721 17.8674 423.039 17.9335C423.35 17.9985 423.613 17.9909 423.827 17.9107C424.044 17.8284 424.174 17.6915 424.217 17.5002C424.248 17.3383 424.207 17.192 424.095 17.0613C423.984 16.9278 423.795 16.8042 423.528 16.6906L422.465 16.2381C421.865 15.9824 421.445 15.6683 421.203 15.2959C420.964 14.9239 420.895 14.4988 420.995 14.0205C421.08 13.6089 421.266 13.2775 421.55 13.0263C421.838 12.7757 422.201 12.6121 422.641 12.5355C423.083 12.4594 423.578 12.4785 424.126 12.5928C424.935 12.7616 425.537 13.0654 425.93 13.5043C426.326 13.9438 426.501 14.4665 426.456 15.0723ZM429.66 20.6507C429.001 20.5133 428.461 20.2615 428.041 19.8953C427.625 19.5269 427.34 19.07 427.187 18.5243C427.034 17.976 427.028 17.3639 427.169 16.6881C427.307 16.0289 427.555 15.4772 427.915 15.0327C428.275 14.5883 428.716 14.2754 429.238 14.0941C429.763 13.9135 430.34 13.8887 430.969 14.0198C431.391 14.1079 431.771 14.2581 432.107 14.4704C432.446 14.6804 432.724 14.9487 432.94 15.2753C433.159 15.6025 433.302 15.9865 433.37 16.4272C433.438 16.8651 433.416 17.3566 433.302 17.9017L433.2 18.3898L427.79 17.2615L428.019 16.1602L431.757 16.9397C431.81 16.6838 431.802 16.4455 431.732 16.2249C431.662 16.0042 431.54 15.8177 431.366 15.6653C431.195 15.5106 430.98 15.4064 430.721 15.3524C430.451 15.2962 430.199 15.3089 429.965 15.3905C429.733 15.47 429.537 15.6018 429.377 15.786C429.217 15.9675 429.11 16.1844 429.054 16.4369L428.836 17.484C428.77 17.801 428.771 18.0872 428.84 18.3423C428.911 18.5981 429.042 18.8112 429.233 18.9816C429.424 19.152 429.668 19.2682 429.966 19.3302C430.163 19.3714 430.35 19.3813 430.525 19.3599C430.701 19.3385 430.859 19.2844 430.999 19.1975C431.139 19.1106 431.256 18.9929 431.351 18.8443L432.972 19.2956C432.806 19.6731 432.563 19.9823 432.243 20.2231C431.927 20.4618 431.548 20.6208 431.108 20.7002C430.671 20.7774 430.188 20.7609 429.66 20.6507ZM433.787 21.3808L435.123 14.9732L436.846 15.3325L436.613 16.4505L436.679 16.4644C436.879 16.091 437.138 15.8316 437.455 15.686C437.774 15.5376 438.112 15.5008 438.471 15.5756C438.56 15.5942 438.655 15.6198 438.755 15.6523C438.856 15.6849 438.943 15.7191 439.017 15.7548L438.688 17.3317C438.61 17.2892 438.499 17.2429 438.356 17.1927C438.212 17.1425 438.08 17.1046 437.957 17.0791C437.696 17.0246 437.45 17.0329 437.221 17.104C436.994 17.1729 436.801 17.295 436.639 17.4703C436.481 17.6462 436.374 17.8648 436.32 18.1262L435.564 21.7514L433.787 21.3808ZM443.659 16.7534L443.381 18.0883L439.522 17.2835L439.8 15.9486L443.659 16.7534ZM440.997 14.5962L442.774 14.9668L441.528 20.9405C441.494 21.1046 441.492 21.2378 441.523 21.34C441.554 21.4394 441.611 21.5165 441.692 21.5712C441.777 21.6265 441.878 21.6666 441.998 21.6915C442.081 21.7089 442.166 21.7194 442.253 21.7229C442.34 21.7236 442.406 21.7244 442.452 21.7254L442.456 23.1061C442.361 23.1153 442.229 23.1212 442.061 23.1237C441.891 23.129 441.69 23.1117 441.458 23.072C441.026 22.9993 440.662 22.864 440.367 22.666C440.074 22.4686 439.868 22.2137 439.747 21.9012C439.627 21.5888 439.612 21.2229 439.702 20.8035L440.997 14.5962ZM446.366 22.4371L446.663 21.0146L451.402 16.1393L452.628 16.3951L452.218 18.3641L451.492 18.2127L448.501 21.3022L448.487 21.3689L453.556 22.4259L453.254 23.8735L446.366 22.4371ZM450.154 24.7941L450.558 22.8585L450.722 22.2355L451.969 16.2576L453.663 16.6108L451.881 25.1543L450.154 24.7941Z" fill="#0B0755"/>
<path d="M392.439 56.6643C396.977 56.5053 401.519 56.5603 406.052 56.829L405.111 72.6961C401.077 72.457 397.034 72.4081 392.996 72.5496L392.439 56.6643Z" fill="#E8D917"/>
<path d="M462.758 58.4319L458.254 65.9066L456.673 64.9542L461.178 57.4795L462.758 58.4319ZM463.033 64.3687L461.079 67.6097L459.525 66.6727L462.903 61.0666L464.385 61.9597L463.789 62.9487L463.855 62.9883C464.175 62.7371 464.539 62.6045 464.945 62.5907C465.353 62.5745 465.765 62.6917 466.181 62.9425C466.57 63.1771 466.858 63.4668 467.045 63.8117C467.232 64.1565 467.311 64.5354 467.281 64.9485C467.252 65.3592 467.106 65.7823 466.844 66.2179L464.693 69.7873L463.138 68.8503L465.122 65.5582C465.331 65.2166 465.405 64.8961 465.343 64.5969C465.283 64.2952 465.097 64.0505 464.785 63.8628C464.576 63.7366 464.364 63.6702 464.149 63.6635C463.937 63.6582 463.734 63.7148 463.539 63.8333C463.349 63.9508 463.18 64.1293 463.033 64.3687ZM472.998 69.3295L471.522 68.5593C471.571 68.4229 471.584 68.2819 471.563 68.1362C471.542 67.9881 471.484 67.8452 471.388 67.7076C471.296 67.5691 471.16 67.4455 470.979 67.337C470.739 67.1918 470.505 67.1205 470.278 67.123C470.052 67.123 469.889 67.207 469.787 67.3749C469.707 67.5087 469.692 67.6541 469.743 67.8111C469.795 67.9681 469.934 68.153 470.16 68.3659L471.052 69.1817C471.529 69.6221 471.827 70.0471 471.945 70.4566C472.063 70.8661 472.001 71.2728 471.757 71.6767C471.536 72.0441 471.233 72.3012 470.85 72.4481C470.468 72.5964 470.043 72.6356 469.575 72.5655C469.11 72.4944 468.634 72.3122 468.148 72.0189C467.406 71.5717 466.908 71.0608 466.653 70.4864C466.403 69.911 466.402 69.3329 466.649 68.7521L468.226 69.5935C468.136 69.8476 468.144 70.0878 468.25 70.3141C468.357 70.538 468.549 70.7335 468.827 70.9006C469.099 71.0649 469.35 71.1445 469.578 71.1396C469.811 71.1338 469.979 71.0476 470.082 70.8812C470.165 70.7386 470.175 70.5871 470.113 70.4267C470.051 70.2638 469.914 70.0847 469.7 69.8894L468.846 69.1109C468.364 68.6715 468.071 68.236 467.966 67.8047C467.864 67.3747 467.939 66.9505 468.191 66.532C468.408 66.1719 468.692 65.9203 469.044 65.7773C469.398 65.6357 469.795 65.6014 470.235 65.6744C470.678 65.7488 471.139 65.9305 471.618 66.2194C472.326 66.6461 472.793 67.1316 473.019 67.6757C473.248 68.2214 473.24 68.7726 472.998 69.3295ZM474.178 75.6533C473.602 75.3057 473.176 74.8898 472.9 74.4054C472.629 73.9201 472.511 73.3947 472.547 72.8291C472.584 72.2611 472.781 71.6814 473.137 71.0902C473.485 70.5135 473.901 70.0749 474.388 69.7742C474.874 69.4736 475.394 69.3241 475.947 69.3256C476.502 69.3287 477.055 69.4959 477.605 69.8273C477.975 70.0502 478.283 70.3173 478.53 70.6287C478.781 70.939 478.954 71.2841 479.05 71.6638C479.149 72.045 479.157 72.4547 479.076 72.8931C478.995 73.329 478.812 73.7854 478.524 74.2623L478.267 74.6893L473.533 71.8364L474.114 70.8728L477.384 72.8437C477.519 72.6199 477.59 72.3922 477.597 72.1608C477.603 71.9294 477.55 71.713 477.436 71.5115C477.325 71.3091 477.157 71.1397 476.931 71.0033C476.695 70.8611 476.453 70.7897 476.204 70.7892C475.96 70.7878 475.731 70.8475 475.519 70.9684C475.308 71.0869 475.135 71.2561 474.999 71.476L474.447 72.3921C474.28 72.6695 474.186 72.94 474.167 73.2035C474.15 73.4685 474.203 73.713 474.327 73.9369C474.451 74.1607 474.643 74.3511 474.903 74.508C475.076 74.6121 475.249 74.6831 475.422 74.721C475.595 74.7588 475.761 74.7599 475.922 74.7242C476.083 74.6884 476.233 74.6161 476.371 74.5073L477.752 75.4688C477.471 75.7703 477.14 75.9819 476.758 76.1034C476.38 76.224 475.97 76.249 475.528 76.1784C475.091 76.1069 474.64 75.9319 474.178 75.6533ZM477.832 77.706L481.211 72.0999L482.718 73.0084L482.128 73.9865L482.187 74.0217C482.499 73.7354 482.829 73.576 483.177 73.5435C483.526 73.5086 483.858 73.5858 484.171 73.775C484.249 73.8219 484.33 73.8773 484.414 73.9413C484.499 74.0053 484.57 74.0664 484.628 74.1245L483.796 75.5041C483.736 75.4382 483.647 75.3579 483.528 75.2631C483.41 75.1683 483.297 75.0887 483.19 75.0242C482.961 74.8863 482.727 74.813 482.486 74.8043C482.25 74.7946 482.027 74.8458 481.817 74.9579C481.609 75.0715 481.436 75.2427 481.298 75.4714L479.387 78.643L477.832 77.706ZM488.679 76.6009L487.975 77.7689L484.599 75.7342L485.303 74.5663L488.679 76.6009ZM486.879 73.6851L488.434 74.6221L485.284 79.8486C485.197 79.9922 485.152 80.1173 485.147 80.224C485.144 80.3282 485.172 80.4196 485.231 80.4982C485.292 80.5782 485.375 80.6498 485.479 80.7128C485.552 80.7568 485.629 80.7947 485.709 80.8265C485.791 80.8559 485.854 80.8787 485.897 80.8949L485.444 82.1992C485.352 82.1766 485.225 82.1386 485.065 82.0852C484.904 82.0342 484.72 81.9515 484.513 81.8371C484.13 81.6259 483.831 81.378 483.618 81.0936C483.407 80.8106 483.296 80.5017 483.286 80.167C483.275 79.8322 483.382 79.4819 483.606 79.1159L486.879 73.6851ZM491.346 85.9897C490.83 85.6788 490.427 85.3068 490.138 84.8736C489.851 84.4418 489.689 83.9882 489.654 83.5126C489.619 83.037 489.727 82.5809 489.976 82.1444L491.509 83.0682C491.352 83.368 491.332 83.6762 491.45 83.9926C491.567 84.309 491.782 84.5611 492.094 84.7488C492.342 84.8984 492.594 84.9756 492.849 84.9805C493.109 84.9844 493.352 84.9201 493.578 84.7875C493.807 84.654 494 84.4583 494.156 84.2003C494.314 83.9376 494.397 83.6727 494.406 83.4057C494.416 83.1402 494.358 82.8928 494.231 82.6636C494.104 82.4343 493.916 82.243 493.666 82.0895C493.447 81.9575 493.207 81.8742 492.946 81.8396C492.688 81.8065 492.454 81.8333 492.246 81.9201L490.993 80.8214L493.722 77.093L498.292 79.8469L497.513 81.139L494.247 79.1703L492.925 80.926L492.968 80.9524C493.211 80.8467 493.502 80.8129 493.841 80.8511C494.179 80.8893 494.513 81.0074 494.841 81.2053C495.291 81.4766 495.629 81.8244 495.854 82.2487C496.079 82.6731 496.183 83.1317 496.164 83.6248C496.147 84.1153 495.993 84.5996 495.702 85.0774C495.401 85.5826 495.014 85.9599 494.542 86.2094C494.074 86.4579 493.562 86.5673 493.006 86.5374C492.454 86.5066 491.9 86.3241 491.346 85.9897Z" fill="#0B0755"/>
<path d="M537.592 67.5105L530.858 73.062L529.684 71.6383L536.418 66.0868L537.592 67.5105ZM535.876 73.2007L532.956 75.6078L531.802 74.2071L536.852 70.0435L537.953 71.3784L537.062 72.113L537.11 72.1722C537.496 72.0418 537.883 72.0377 538.271 72.1598C538.661 72.2801 539.011 72.5276 539.32 72.9025C539.609 73.2532 539.784 73.6222 539.846 74.0096C539.907 74.3969 539.855 74.7804 539.69 75.16C539.526 75.5378 539.248 75.8884 538.856 76.2119L535.64 78.863L534.485 77.4623L537.451 75.0172C537.762 74.7646 537.938 74.4869 537.979 74.1841C538.023 73.8795 537.929 73.587 537.697 73.3064C537.542 73.1179 537.364 72.9847 537.164 72.9069C536.965 72.8313 536.755 72.8171 536.532 72.8643C536.314 72.9119 536.095 73.024 535.876 73.2007ZM543.625 81.1927L542.489 79.9755C542.58 79.8632 542.64 79.7347 542.668 79.5901C542.698 79.4437 542.691 79.2896 542.646 79.1278C542.605 78.9665 542.518 78.8047 542.384 78.6425C542.205 78.4255 542.008 78.2804 541.793 78.2072C541.58 78.1323 541.398 78.1571 541.247 78.2818C541.126 78.3812 541.064 78.5135 541.061 78.6786C541.057 78.8437 541.126 79.0643 541.269 79.3405L541.839 80.4063C542.143 80.9805 542.282 81.4803 542.257 81.9057C542.233 82.3312 542.038 82.6939 541.674 82.9939C541.343 83.2668 540.973 83.4087 540.562 83.4196C540.153 83.4327 539.739 83.3283 539.321 83.1064C538.906 82.8848 538.518 82.5549 538.157 82.1165C537.605 81.4479 537.305 80.8005 537.257 80.1742C537.212 79.5483 537.403 79.0026 537.829 78.5371L539.037 79.8552C538.868 80.0649 538.795 80.294 538.82 80.5426C538.846 80.7893 538.963 81.0377 539.169 81.2876C539.371 81.5331 539.581 81.6915 539.798 81.7629C540.019 81.8346 540.206 81.8092 540.359 81.6867C540.485 81.5797 540.544 81.4402 540.539 81.2681C540.535 81.0942 540.465 80.8796 540.328 80.6242L539.782 79.6059C539.474 79.0314 539.342 78.5233 539.386 78.0816C539.433 77.642 539.644 77.2669 540.021 76.956C540.346 76.6886 540.698 76.5459 541.077 76.5279C541.458 76.512 541.844 76.6118 542.235 76.827C542.627 77.0444 543.002 77.369 543.358 77.8008C543.884 78.4387 544.163 79.0518 544.195 79.6402C544.229 80.2307 544.039 80.7482 543.625 81.1927ZM542.635 87.5492C542.207 87.0296 541.944 86.4957 541.845 85.9474C541.75 85.3995 541.814 84.8647 542.036 84.3432C542.26 83.8199 542.638 83.3386 543.171 82.8995C543.69 82.4712 544.229 82.1961 544.788 82.0743C545.346 81.9525 545.886 81.9843 546.407 82.1697C546.93 82.3572 547.396 82.6987 547.804 83.1941C548.079 83.5273 548.281 83.8817 548.41 84.2574C548.543 84.6335 548.592 85.0166 548.557 85.4067C548.523 85.799 548.395 86.1883 548.172 86.5745C547.951 86.9589 547.626 87.3282 547.197 87.6824L546.812 87.9996L543.296 83.7349L544.164 83.0193L546.593 85.9654C546.795 85.7992 546.937 85.608 547.02 85.3921C547.104 85.1761 547.125 84.9541 547.084 84.7262C547.048 84.4987 546.946 84.283 546.777 84.0791C546.602 83.8665 546.397 83.7186 546.163 83.6355C545.933 83.5528 545.698 83.5332 545.458 83.5767C545.219 83.6184 545 83.7203 544.798 83.8826L543.973 84.563C543.723 84.769 543.545 84.993 543.439 85.2351C543.335 85.4793 543.304 85.7276 543.346 85.9799C543.389 86.2322 543.507 86.4756 543.7 86.7102C543.828 86.8658 543.968 86.9902 544.118 87.0834C544.269 87.1766 544.426 87.2331 544.589 87.2528C544.753 87.2726 544.918 87.2542 545.085 87.1976L546.067 88.5636C545.702 88.7545 545.319 88.8437 544.918 88.8314C544.522 88.8195 544.127 88.7068 543.734 88.4934C543.345 88.2804 542.979 87.9656 542.635 87.5492ZM545.399 90.7L550.449 86.5363L551.569 87.8943L550.687 88.6208L550.731 88.6734C551.12 88.507 551.484 88.4664 551.823 88.5515C552.164 88.6348 552.451 88.8178 552.685 89.1006C552.742 89.1707 552.8 89.25 552.858 89.3383C552.916 89.4266 552.963 89.5078 552.998 89.5818L551.756 90.6065C551.721 90.5245 551.664 90.419 551.583 90.2902C551.503 90.1614 551.423 90.0487 551.343 89.9523C551.173 89.7462 550.977 89.5992 550.753 89.511C550.533 89.4233 550.306 89.3974 550.07 89.4332C549.837 89.4713 549.617 89.5752 549.411 89.7451L546.553 92.1007L545.399 90.7ZM555.996 93.2645L554.944 94.132L552.436 91.0905L553.488 90.2231L555.996 93.2645ZM555.268 89.916L556.422 91.3167L551.714 95.1985C551.585 95.3051 551.5 95.4079 551.46 95.507C551.423 95.6043 551.418 95.6998 551.448 95.7934C551.479 95.8893 551.533 95.9843 551.611 96.0786C551.665 96.1443 551.725 96.2056 551.79 96.2623C551.858 96.3172 551.909 96.3595 551.944 96.3891L551.084 97.4687C551.004 97.4167 550.897 97.3388 550.764 97.2352C550.629 97.1333 550.483 96.9941 550.326 96.8176C550.035 96.4909 549.836 96.1579 549.729 95.8187C549.624 95.4817 549.622 95.1536 549.724 94.8344C549.825 94.5152 550.042 94.2202 550.375 93.9496L555.268 89.916ZM555.492 103.131C555.209 102.783 554.991 102.4 554.839 101.984C554.69 101.57 554.638 101.13 554.685 100.665C554.732 100.199 554.905 99.7172 555.205 99.2193C555.507 98.7237 555.966 98.222 556.582 97.7142C557.15 97.2501 557.708 96.8982 558.258 96.6585C558.812 96.4192 559.343 96.2907 559.851 96.273C560.361 96.2575 560.836 96.3506 561.274 96.5522C561.715 96.7521 562.107 97.0603 562.451 97.4767C562.821 97.9261 563.061 98.3952 563.169 98.8839C563.279 99.3708 563.272 99.8413 563.145 100.295C563.02 100.751 562.791 101.154 562.457 101.503L561.299 100.099C561.489 99.8513 561.578 99.5844 561.567 99.2988C561.556 99.0132 561.444 98.7411 561.231 98.4824C560.869 98.044 560.404 97.868 559.835 97.9545C559.267 98.0432 558.654 98.3555 557.995 98.8914L558.033 98.9375C558.315 98.8738 558.597 98.8697 558.879 98.925C559.164 98.9807 559.434 99.0875 559.689 99.2452C559.948 99.4034 560.179 99.6052 560.382 99.8507C560.711 100.25 560.909 100.682 560.977 101.149C561.048 101.614 560.993 102.071 560.815 102.52C560.637 102.969 560.337 103.367 559.916 103.714C559.46 104.09 558.967 104.318 558.437 104.398C557.908 104.48 557.386 104.415 556.872 104.202C556.362 103.989 555.902 103.632 555.492 103.131ZM556.605 102.203C556.785 102.422 557 102.575 557.248 102.661C557.496 102.747 557.75 102.766 558.011 102.716C558.272 102.667 558.515 102.55 558.738 102.366C558.962 102.181 559.122 101.967 559.218 101.721C559.316 101.479 559.347 101.228 559.311 100.971C559.276 100.713 559.167 100.474 558.987 100.255C558.851 100.091 558.695 99.9638 558.518 99.8741C558.343 99.7866 558.157 99.7355 557.96 99.7206C557.766 99.7079 557.572 99.7316 557.378 99.7917C557.187 99.85 557.01 99.946 556.848 100.08C556.631 100.259 556.473 100.472 556.375 100.718C556.278 100.967 556.247 101.222 556.28 101.481C556.316 101.743 556.424 101.983 556.605 102.203Z" fill="#0B0755"/>
<path d="M468 167.575L567.001 115.075" stroke="#0B0755" stroke-width="2"/>
<path d="M328.5 169.576L243.499 123.075" stroke="#0B0755" stroke-width="2"/>
<path d="M188.493 136.533C201.384 152.085 209.586 170.982 212.143 191.019C214.7 211.056 211.506 231.408 202.933 249.698C194.361 267.989 180.763 283.464 163.727 294.318C146.692 305.172 126.92 310.958 106.72 311C86.5207 311.042 66.7255 305.338 49.645 294.554C32.5645 283.771 18.9029 268.352 10.2546 250.097C1.60627 231.842 -1.6722 211.504 0.801775 191.456C3.27575 171.409 11.4001 152.478 24.2269 136.873L36.5678 147.017C25.6651 160.281 18.7594 176.372 16.6565 193.413C14.5536 210.454 17.3403 227.741 24.6914 243.257C32.0425 258.774 43.6548 271.88 58.1733 281.046C72.6917 290.212 89.5176 295.06 106.687 295.025C123.857 294.989 140.663 290.072 155.143 280.845C169.624 271.619 181.182 258.465 188.468 242.918C195.755 227.371 198.47 210.073 196.297 193.041C194.123 176.009 187.151 159.947 176.194 146.728L188.493 136.533Z" fill="#A8D8E8"/>
<path d="M76.4734 205H73.3796V196.273H76.4989C77.3768 196.273 78.1325 196.447 78.766 196.797C79.3995 197.143 79.8867 197.642 80.2276 198.293C80.5714 198.943 80.7433 199.722 80.7433 200.628C80.7433 201.537 80.5714 202.318 80.2276 202.972C79.8867 203.625 79.3967 204.126 78.7575 204.476C78.1211 204.825 77.3597 205 76.4734 205ZM75.2248 203.419H76.3967C76.9421 203.419 77.4009 203.322 77.7731 203.129C78.1481 202.933 78.4293 202.631 78.6168 202.222C78.8072 201.81 78.9023 201.278 78.9023 200.628C78.9023 199.983 78.8072 199.456 78.6168 199.047C78.4293 198.638 78.1495 198.337 77.7773 198.143C77.4052 197.95 76.9464 197.854 76.4009 197.854H75.2248V203.419ZM85.0589 205.128C84.3857 205.128 83.8061 204.991 83.3203 204.719C82.8374 204.443 82.4652 204.054 82.2038 203.551C81.9425 203.045 81.8118 202.447 81.8118 201.757C81.8118 201.084 81.9425 200.493 82.2038 199.984C82.4652 199.476 82.8331 199.08 83.3075 198.795C83.7848 198.511 84.3445 198.369 84.9865 198.369C85.4183 198.369 85.8203 198.439 86.1925 198.578C86.5675 198.714 86.8942 198.92 87.1726 199.196C87.4538 199.472 87.6726 199.818 87.8288 200.236C87.9851 200.651 88.0632 201.136 88.0632 201.693V202.192H82.5362V201.067H86.3544C86.3544 200.805 86.2976 200.574 86.1839 200.372C86.0703 200.17 85.9126 200.013 85.7109 199.899C85.5121 199.783 85.2805 199.724 85.0163 199.724C84.7408 199.724 84.4964 199.788 84.2834 199.916C84.0732 200.041 83.9084 200.21 83.7891 200.423C83.6697 200.634 83.6087 200.868 83.6058 201.126V202.196C83.6058 202.52 83.6655 202.8 83.7848 203.036C83.907 203.271 84.0788 203.453 84.3004 203.581C84.522 203.709 84.7848 203.773 85.0888 203.773C85.2905 203.773 85.4751 203.744 85.6428 203.688C85.8104 203.631 85.9538 203.545 86.0732 203.432C86.1925 203.318 86.2834 203.179 86.3459 203.014L88.0249 203.125C87.9396 203.528 87.7649 203.881 87.5007 204.182C87.2393 204.48 86.9013 204.713 86.4865 204.881C86.0746 205.045 85.5987 205.128 85.0589 205.128ZM94.6939 200.321L93.032 200.423C93.0036 200.281 92.9425 200.153 92.8487 200.04C92.755 199.923 92.6314 199.831 92.478 199.763C92.3274 199.692 92.147 199.656 91.9368 199.656C91.6555 199.656 91.4183 199.716 91.2251 199.835C91.032 199.952 90.9354 200.108 90.9354 200.304C90.9354 200.46 90.9979 200.592 91.1229 200.7C91.2479 200.808 91.4624 200.895 91.7663 200.96L92.951 201.199C93.5874 201.33 94.0618 201.54 94.3743 201.83C94.6868 202.119 94.843 202.5 94.843 202.972C94.843 203.401 94.7166 203.777 94.4638 204.101C94.2138 204.425 93.87 204.678 93.4325 204.859C92.9979 205.038 92.4964 205.128 91.9283 205.128C91.0618 205.128 90.3714 204.947 89.8572 204.587C89.3459 204.223 89.0462 203.729 88.9581 203.104L90.7436 203.01C90.7976 203.274 90.9283 203.476 91.1357 203.615C91.343 203.751 91.6087 203.82 91.9325 203.82C92.2507 203.82 92.5064 203.759 92.6996 203.636C92.8956 203.511 92.995 203.351 92.9979 203.155C92.995 202.99 92.9254 202.855 92.7891 202.75C92.6527 202.642 92.4425 202.56 92.1584 202.503L91.0249 202.277C90.3857 202.149 89.9098 201.928 89.5973 201.612C89.2876 201.297 89.1328 200.895 89.1328 200.406C89.1328 199.986 89.2464 199.624 89.4737 199.32C89.7038 199.016 90.0263 198.781 90.4411 198.616C90.8587 198.452 91.3473 198.369 91.907 198.369C92.7337 198.369 93.3842 198.544 93.8587 198.893C94.3359 199.243 94.6143 199.719 94.6939 200.321ZM99.4677 198.455V199.818H95.5259V198.455H99.4677ZM96.4208 196.886H98.2362V202.989C98.2362 203.156 98.2617 203.287 98.3129 203.381C98.364 203.472 98.435 203.536 98.5259 203.572C98.6197 203.609 98.7276 203.628 98.8498 203.628C98.935 203.628 99.0202 203.621 99.1055 203.607C99.1907 203.589 99.256 203.577 99.3015 203.568L99.587 204.919C99.4961 204.947 99.3683 204.98 99.2035 205.017C99.0387 205.057 98.8384 205.081 98.6026 205.089C98.1651 205.107 97.7816 205.048 97.4521 204.915C97.1254 204.781 96.8711 204.574 96.6893 204.293C96.5075 204.011 96.418 203.656 96.4208 203.227V196.886ZM100.65 205V198.455H102.466V205H100.65ZM101.562 197.611C101.292 197.611 101.061 197.521 100.868 197.342C100.677 197.161 100.582 196.943 100.582 196.69C100.582 196.44 100.677 196.226 100.868 196.047C101.061 195.865 101.292 195.774 101.562 195.774C101.832 195.774 102.062 195.865 102.252 196.047C102.446 196.226 102.542 196.44 102.542 196.69C102.542 196.943 102.446 197.161 102.252 197.342C102.062 197.521 101.832 197.611 101.562 197.611ZM105.735 201.216V205H103.92V198.455H105.65V199.609H105.727C105.871 199.229 106.114 198.928 106.455 198.706C106.796 198.482 107.21 198.369 107.695 198.369C108.15 198.369 108.546 198.469 108.884 198.668C109.222 198.866 109.485 199.151 109.673 199.52C109.86 199.886 109.954 200.324 109.954 200.832V205H108.138V201.156C108.141 200.756 108.039 200.443 107.832 200.219C107.624 199.991 107.339 199.878 106.975 199.878C106.731 199.878 106.515 199.93 106.327 200.036C106.143 200.141 105.998 200.294 105.893 200.496C105.79 200.695 105.738 200.935 105.735 201.216ZM113.251 205.124C112.833 205.124 112.461 205.051 112.135 204.906C111.808 204.759 111.549 204.541 111.359 204.254C111.172 203.964 111.078 203.604 111.078 203.172C111.078 202.808 111.145 202.503 111.278 202.256C111.412 202.009 111.593 201.81 111.824 201.659C112.054 201.509 112.315 201.395 112.608 201.318C112.903 201.241 113.213 201.188 113.537 201.156C113.917 201.116 114.224 201.08 114.457 201.045C114.69 201.009 114.859 200.955 114.964 200.884C115.069 200.812 115.122 200.707 115.122 200.568V200.543C115.122 200.273 115.037 200.064 114.866 199.916C114.699 199.768 114.46 199.695 114.15 199.695C113.824 199.695 113.564 199.767 113.37 199.912C113.177 200.054 113.049 200.233 112.987 200.449L111.308 200.312C111.393 199.915 111.561 199.571 111.811 199.281C112.061 198.989 112.383 198.764 112.778 198.608C113.176 198.449 113.636 198.369 114.159 198.369C114.522 198.369 114.87 198.412 115.203 198.497C115.538 198.582 115.835 198.714 116.093 198.893C116.355 199.072 116.561 199.303 116.711 199.584C116.862 199.862 116.937 200.196 116.937 200.585V205H115.216V204.092H115.164C115.059 204.297 114.919 204.477 114.743 204.634C114.566 204.787 114.355 204.908 114.108 204.996C113.86 205.081 113.575 205.124 113.251 205.124ZM113.771 203.871C114.038 203.871 114.274 203.818 114.478 203.713C114.683 203.605 114.843 203.46 114.96 203.278C115.076 203.097 115.135 202.891 115.135 202.661V201.966C115.078 202.003 115 202.037 114.9 202.068C114.804 202.097 114.694 202.124 114.572 202.149C114.45 202.172 114.328 202.193 114.206 202.213C114.083 202.23 113.973 202.246 113.873 202.26C113.66 202.291 113.474 202.341 113.315 202.409C113.156 202.477 113.032 202.57 112.944 202.686C112.856 202.8 112.812 202.942 112.812 203.112C112.812 203.359 112.902 203.548 113.081 203.679C113.262 203.807 113.493 203.871 113.771 203.871ZM121.827 198.455V199.818H117.885V198.455H121.827ZM118.78 196.886H120.596V202.989C120.596 203.156 120.621 203.287 120.672 203.381C120.723 203.472 120.794 203.536 120.885 203.572C120.979 203.609 121.087 203.628 121.209 203.628C121.294 203.628 121.38 203.621 121.465 203.607C121.55 203.589 121.615 203.577 121.661 203.568L121.946 204.919C121.855 204.947 121.728 204.98 121.563 205.017C121.398 205.057 121.198 205.081 120.962 205.089C120.525 205.107 120.141 205.048 119.811 204.915C119.485 204.781 119.23 204.574 119.049 204.293C118.867 204.011 118.777 203.656 118.78 203.227V196.886ZM123.01 205V198.455H124.825V205H123.01ZM123.922 197.611C123.652 197.611 123.42 197.521 123.227 197.342C123.037 197.161 122.941 196.943 122.941 196.69C122.941 196.44 123.037 196.226 123.227 196.047C123.42 195.865 123.652 195.774 123.922 195.774C124.191 195.774 124.422 195.865 124.612 196.047C124.805 196.226 124.902 196.44 124.902 196.69C124.902 196.943 124.805 197.161 124.612 197.342C124.422 197.521 124.191 197.611 123.922 197.611ZM129.237 205.128C128.575 205.128 128.002 204.987 127.519 204.706C127.039 204.422 126.668 204.027 126.407 203.521C126.146 203.013 126.015 202.423 126.015 201.753C126.015 201.077 126.146 200.486 126.407 199.98C126.668 199.472 127.039 199.077 127.519 198.795C128.002 198.511 128.575 198.369 129.237 198.369C129.898 198.369 130.469 198.511 130.95 198.795C131.433 199.077 131.805 199.472 132.066 199.98C132.327 200.486 132.458 201.077 132.458 201.753C132.458 202.423 132.327 203.013 132.066 203.521C131.805 204.027 131.433 204.422 130.95 204.706C130.469 204.987 129.898 205.128 129.237 205.128ZM129.245 203.722C129.546 203.722 129.798 203.636 129.999 203.466C130.201 203.293 130.353 203.057 130.455 202.759C130.56 202.46 130.613 202.121 130.613 201.74C130.613 201.359 130.56 201.02 130.455 200.722C130.353 200.423 130.201 200.187 129.999 200.014C129.798 199.841 129.546 199.754 129.245 199.754C128.941 199.754 128.685 199.841 128.478 200.014C128.273 200.187 128.119 200.423 128.013 200.722C127.911 201.02 127.86 201.359 127.86 201.74C127.86 202.121 127.911 202.46 128.013 202.759C128.119 203.057 128.273 203.293 128.478 203.466C128.685 203.636 128.941 203.722 129.245 203.722ZM135.454 201.216V205H133.638V198.455H135.369V199.609H135.445C135.59 199.229 135.833 198.928 136.174 198.706C136.515 198.482 136.928 198.369 137.414 198.369C137.869 198.369 138.265 198.469 138.603 198.668C138.941 198.866 139.204 199.151 139.391 199.52C139.579 199.886 139.673 200.324 139.673 200.832V205H137.857V201.156C137.86 200.756 137.758 200.443 137.55 200.219C137.343 199.991 137.058 199.878 136.694 199.878C136.45 199.878 136.234 199.93 136.046 200.036C135.862 200.141 135.717 200.294 135.612 200.496C135.509 200.695 135.457 200.935 135.454 201.216ZM89.177 211.273L91.2864 217.903H91.3674L93.481 211.273H95.5265L92.5179 220H90.1401L87.1273 211.273H89.177ZM98.7875 220.128C98.1142 220.128 97.5346 219.991 97.0488 219.719C96.5659 219.443 96.1937 219.054 95.9324 218.551C95.671 218.045 95.5403 217.447 95.5403 216.757C95.5403 216.084 95.671 215.493 95.9324 214.984C96.1937 214.476 96.5616 214.08 97.036 213.795C97.5133 213.511 98.073 213.369 98.715 213.369C99.1468 213.369 99.5488 213.439 99.921 213.578C100.296 213.714 100.623 213.92 100.901 214.196C101.182 214.472 101.401 214.818 101.557 215.236C101.714 215.651 101.792 216.136 101.792 216.693V217.192H96.2647V216.067H100.083C100.083 215.805 100.026 215.574 99.9125 215.372C99.7988 215.17 99.6412 215.013 99.4395 214.899C99.2406 214.783 99.0091 214.724 98.7449 214.724C98.4693 214.724 98.225 214.788 98.0119 214.916C97.8017 215.041 97.6369 215.21 97.5176 215.423C97.3983 215.634 97.3372 215.868 97.3343 216.126V217.196C97.3343 217.52 97.394 217.8 97.5133 218.036C97.6355 218.271 97.8074 218.453 98.0289 218.581C98.2505 218.709 98.5133 218.773 98.8173 218.773C99.019 218.773 99.2037 218.744 99.3713 218.688C99.5389 218.631 99.6824 218.545 99.8017 218.432C99.921 218.318 100.012 218.179 100.074 218.014L101.753 218.125C101.668 218.528 101.493 218.881 101.229 219.182C100.968 219.48 100.63 219.713 100.215 219.881C99.8031 220.045 99.3272 220.128 98.7875 220.128ZM105.934 220.128C105.263 220.128 104.687 219.986 104.204 219.702C103.724 219.415 103.354 219.017 103.096 218.509C102.84 218 102.712 217.415 102.712 216.753C102.712 216.082 102.841 215.494 103.1 214.989C103.361 214.48 103.732 214.084 104.212 213.8C104.692 213.513 105.263 213.369 105.925 213.369C106.496 213.369 106.996 213.473 107.425 213.68C107.854 213.888 108.194 214.179 108.444 214.554C108.694 214.929 108.831 215.369 108.857 215.875H107.144C107.096 215.548 106.968 215.286 106.76 215.087C106.556 214.885 106.287 214.784 105.955 214.784C105.674 214.784 105.428 214.861 105.218 215.014C105.01 215.165 104.849 215.385 104.732 215.675C104.616 215.964 104.557 216.315 104.557 216.727C104.557 217.145 104.614 217.5 104.728 217.793C104.844 218.085 105.008 218.308 105.218 218.462C105.428 218.615 105.674 218.692 105.955 218.692C106.162 218.692 106.349 218.649 106.513 218.564C106.681 218.479 106.819 218.355 106.927 218.193C107.037 218.028 107.11 217.831 107.144 217.601H108.857C108.829 218.101 108.692 218.541 108.448 218.922C108.206 219.3 107.873 219.595 107.447 219.808C107.02 220.021 106.516 220.128 105.934 220.128ZM113.501 213.455V214.818H109.559V213.455H113.501ZM110.454 211.886H112.269V217.989C112.269 218.156 112.295 218.287 112.346 218.381C112.397 218.472 112.468 218.536 112.559 218.572C112.653 218.609 112.761 218.628 112.883 218.628C112.968 218.628 113.053 218.621 113.139 218.607C113.224 218.589 113.289 218.577 113.335 218.568L113.62 219.919C113.529 219.947 113.401 219.98 113.237 220.017C113.072 220.057 112.872 220.081 112.636 220.089C112.198 220.107 111.815 220.048 111.485 219.915C111.159 219.781 110.904 219.574 110.722 219.293C110.541 219.011 110.451 218.656 110.454 218.227V211.886ZM117.57 220.128C116.909 220.128 116.336 219.987 115.853 219.706C115.373 219.422 115.002 219.027 114.741 218.521C114.48 218.013 114.349 217.423 114.349 216.753C114.349 216.077 114.48 215.486 114.741 214.98C115.002 214.472 115.373 214.077 115.853 213.795C116.336 213.511 116.909 213.369 117.57 213.369C118.232 213.369 118.803 213.511 119.284 213.795C119.767 214.077 120.139 214.472 120.4 214.98C120.661 215.486 120.792 216.077 120.792 216.753C120.792 217.423 120.661 218.013 120.4 218.521C120.139 219.027 119.767 219.422 119.284 219.706C118.803 219.987 118.232 220.128 117.57 220.128ZM117.579 218.722C117.88 218.722 118.132 218.636 118.333 218.466C118.535 218.293 118.687 218.057 118.789 217.759C118.894 217.46 118.947 217.121 118.947 216.74C118.947 216.359 118.894 216.02 118.789 215.722C118.687 215.423 118.535 215.187 118.333 215.014C118.132 214.841 117.88 214.754 117.579 214.754C117.275 214.754 117.019 214.841 116.812 215.014C116.607 215.187 116.453 215.423 116.347 215.722C116.245 216.02 116.194 216.359 116.194 216.74C116.194 217.121 116.245 217.46 116.347 217.759C116.453 218.057 116.607 218.293 116.812 218.466C117.019 218.636 117.275 218.722 117.579 218.722ZM121.972 220V213.455H123.732V214.597H123.801C123.92 214.19 124.12 213.884 124.401 213.676C124.683 213.466 125.007 213.361 125.373 213.361C125.464 213.361 125.562 213.366 125.667 213.378C125.772 213.389 125.865 213.405 125.944 213.425V215.036C125.859 215.01 125.741 214.987 125.59 214.967C125.44 214.947 125.302 214.938 125.177 214.938C124.91 214.938 124.671 214.996 124.461 215.112C124.254 215.226 124.089 215.385 123.967 215.589C123.847 215.794 123.788 216.03 123.788 216.297V220H121.972Z" fill="#0B0755"/>
<path d="M789.796 254.002C780.667 271.393 766.906 285.92 750.036 295.977C733.165 306.035 713.842 311.231 694.203 310.992C674.563 310.753 655.372 305.087 638.752 294.622C622.131 284.156 608.729 269.298 600.026 251.69L614.347 244.612C621.744 259.578 633.137 272.208 647.264 281.103C661.391 289.999 677.704 294.815 694.397 295.018C711.091 295.222 727.515 290.805 741.855 282.256C756.195 273.707 767.892 261.359 775.652 246.577L789.796 254.002Z" fill="#A8D8E8"/>
<path d="M593.087 233.719C588.289 216.905 587.706 199.167 591.388 182.074L607.005 185.438C603.875 199.967 604.371 215.044 608.449 229.336L593.087 233.719Z" fill="#1E79B7"/>
<path d="M597.387 163.075C604.188 146.966 614.851 132.78 628.435 121.768L638.495 134.178C626.949 143.538 617.885 155.596 612.104 169.288L597.387 163.075Z" fill="#1E79B7"/>
<path d="M644.378 111.072C659.718 102.678 676.888 98.191 694.373 98.006L694.542 113.98C679.68 114.137 665.085 117.952 652.047 125.086L644.378 111.072Z" fill="#1E79B7"/>
<path d="M703.158 98.2757C720.598 99.5329 737.461 105.065 752.256 114.384L743.743 127.901C731.167 119.98 716.833 115.278 702.009 114.209L703.158 98.2757Z" fill="#1E79B7"/>
<path d="M765.344 124.1C778.544 135.567 788.718 150.109 794.967 166.44L780.047 172.149C774.735 158.267 766.087 145.907 754.867 136.16L765.344 124.1Z" fill="#1E79B7"/>
<path d="M799.92 183.557C803.359 200.701 802.523 218.428 797.487 235.173L782.189 230.572C786.47 216.339 787.18 201.271 784.257 186.698L799.92 183.557Z" fill="#1E79B7"/>
<path d="M600.095 251.83C597.119 245.831 594.715 239.565 592.916 233.115L608.304 228.822C609.833 234.305 611.876 239.631 614.406 244.731L600.095 251.83Z" fill="#61A5FB"/>
<path d="M591.362 182.193C592.765 175.645 594.782 169.244 597.387 163.075L612.104 169.289C609.89 174.533 608.175 179.974 606.983 185.539L591.362 182.193Z" fill="#FEA3AF"/>
<path d="M628.114 122.029C633.3 117.792 638.874 114.054 644.761 110.863L652.372 124.909C647.368 127.621 642.63 130.798 638.222 134.4L628.114 122.029Z" fill="#34D399"/>
<path d="M749.529 112.722C755.299 116.119 760.737 120.053 765.769 124.472L755.229 136.476C750.951 132.72 746.329 129.377 741.424 126.489L749.529 112.722Z" fill="#A78AFA"/>
<path d="M794.924 166.329C797.324 172.58 799.13 179.044 800.316 185.635L784.593 188.465C783.585 182.863 782.051 177.368 780.011 172.054L794.924 166.329Z" fill="#F373B7"/>
<path d="M797.48 235.196C795.55 241.608 793.02 247.824 789.922 253.761L775.759 246.372C778.392 241.326 780.543 236.042 782.183 230.592L797.48 235.196Z" fill="#7D5738"/>
<path d="M685.363 98.4835C692.029 97.8461 698.741 97.8389 705.408 98.4619L703.922 114.368C698.255 113.838 692.55 113.844 686.884 114.386L685.363 98.4835Z" fill="#FBBF24"/>
<path d="M657.61 212V203.273H663.388V204.794H659.455V206.874H663.005V208.395H659.455V212H657.61ZM664.596 212V205.455H666.411V212H664.596ZM665.507 204.611C665.238 204.611 665.006 204.521 664.813 204.342C664.623 204.161 664.527 203.943 664.527 203.69C664.527 203.44 664.623 203.226 664.813 203.047C665.006 202.865 665.238 202.774 665.507 202.774C665.777 202.774 666.007 202.865 666.198 203.047C666.391 203.226 666.488 203.44 666.488 203.69C666.488 203.943 666.391 204.161 666.198 204.342C666.007 204.521 665.777 204.611 665.507 204.611ZM669.68 208.216V212H667.865V205.455H669.595V206.609H669.672C669.817 206.229 670.06 205.928 670.401 205.706C670.741 205.482 671.155 205.369 671.641 205.369C672.095 205.369 672.491 205.469 672.83 205.668C673.168 205.866 673.43 206.151 673.618 206.52C673.805 206.886 673.899 207.324 673.899 207.832V212H672.084V208.156C672.087 207.756 671.984 207.443 671.777 207.219C671.57 206.991 671.284 206.878 670.92 206.878C670.676 206.878 670.46 206.93 670.273 207.036C670.088 207.141 669.943 207.294 669.838 207.496C669.736 207.695 669.683 207.935 669.68 208.216ZM677.196 212.124C676.779 212.124 676.407 212.051 676.08 211.906C675.753 211.759 675.495 211.541 675.304 211.254C675.117 210.964 675.023 210.604 675.023 210.172C675.023 209.808 675.09 209.503 675.223 209.256C675.357 209.009 675.539 208.81 675.769 208.659C675.999 208.509 676.26 208.395 676.553 208.318C676.848 208.241 677.158 208.188 677.482 208.156C677.863 208.116 678.169 208.08 678.402 208.045C678.635 208.009 678.804 207.955 678.909 207.884C679.015 207.812 679.067 207.707 679.067 207.568V207.543C679.067 207.273 678.982 207.064 678.811 206.916C678.644 206.768 678.405 206.695 678.096 206.695C677.769 206.695 677.509 206.767 677.316 206.912C677.123 207.054 676.995 207.233 676.932 207.449L675.253 207.312C675.338 206.915 675.506 206.571 675.756 206.281C676.006 205.989 676.328 205.764 676.723 205.608C677.121 205.449 677.581 205.369 678.104 205.369C678.468 205.369 678.816 205.412 679.148 205.497C679.483 205.582 679.78 205.714 680.039 205.893C680.3 206.072 680.506 206.303 680.657 206.584C680.807 206.862 680.882 207.196 680.882 207.585V212H679.161V211.092H679.11C679.005 211.297 678.864 211.477 678.688 211.634C678.512 211.787 678.3 211.908 678.053 211.996C677.806 212.081 677.52 212.124 677.196 212.124ZM677.716 210.871C677.983 210.871 678.219 210.818 678.424 210.713C678.628 210.605 678.789 210.46 678.905 210.278C679.022 210.097 679.08 209.891 679.08 209.661V208.966C679.023 209.003 678.945 209.037 678.846 209.068C678.749 209.097 678.64 209.124 678.517 209.149C678.395 209.172 678.273 209.193 678.151 209.213C678.029 209.23 677.918 209.246 677.819 209.26C677.605 209.291 677.419 209.341 677.26 209.409C677.101 209.477 676.978 209.57 676.89 209.686C676.801 209.8 676.757 209.942 676.757 210.112C676.757 210.359 676.847 210.548 677.026 210.679C677.208 210.807 677.438 210.871 677.716 210.871ZM684.106 203.273V212H682.291V203.273H684.106ZM688.372 212V203.273H691.815C692.477 203.273 693.041 203.399 693.507 203.652C693.973 203.902 694.328 204.25 694.572 204.696C694.819 205.139 694.943 205.651 694.943 206.23C694.943 206.81 694.818 207.321 694.568 207.764C694.318 208.207 693.956 208.553 693.481 208.8C693.01 209.047 692.439 209.17 691.768 209.17H689.574V207.692H691.47C691.825 207.692 692.118 207.631 692.348 207.509C692.581 207.384 692.754 207.212 692.868 206.993C692.984 206.771 693.042 206.517 693.042 206.23C693.042 205.94 692.984 205.687 692.868 205.472C692.754 205.253 692.581 205.084 692.348 204.964C692.115 204.842 691.819 204.781 691.461 204.781H690.217V212H688.372ZM696.107 212V205.455H697.867V206.597H697.935C698.055 206.19 698.255 205.884 698.536 205.676C698.817 205.466 699.141 205.361 699.508 205.361C699.599 205.361 699.697 205.366 699.802 205.378C699.907 205.389 699.999 205.405 700.079 205.425V207.036C699.994 207.01 699.876 206.987 699.725 206.967C699.575 206.947 699.437 206.938 699.312 206.938C699.045 206.938 698.806 206.996 698.596 207.112C698.388 207.226 698.224 207.385 698.102 207.589C697.982 207.794 697.923 208.03 697.923 208.297V212H696.107ZM703.67 212.128C703.008 212.128 702.436 211.987 701.953 211.706C701.473 211.422 701.102 211.027 700.841 210.521C700.579 210.013 700.449 209.423 700.449 208.753C700.449 208.077 700.579 207.486 700.841 206.98C701.102 206.472 701.473 206.077 701.953 205.795C702.436 205.511 703.008 205.369 703.67 205.369C704.332 205.369 704.903 205.511 705.383 205.795C705.866 206.077 706.238 206.472 706.5 206.98C706.761 207.486 706.892 208.077 706.892 208.753C706.892 209.423 706.761 210.013 706.5 210.521C706.238 211.027 705.866 211.422 705.383 211.706C704.903 211.987 704.332 212.128 703.67 212.128ZM703.679 210.722C703.98 210.722 704.231 210.636 704.433 210.466C704.635 210.293 704.787 210.057 704.889 209.759C704.994 209.46 705.047 209.121 705.047 208.74C705.047 208.359 704.994 208.02 704.889 207.722C704.787 207.423 704.635 207.187 704.433 207.014C704.231 206.841 703.98 206.754 703.679 206.754C703.375 206.754 703.119 206.841 702.912 207.014C702.707 207.187 702.552 207.423 702.447 207.722C702.345 208.02 702.294 208.359 702.294 208.74C702.294 209.121 702.345 209.46 702.447 209.759C702.552 210.057 702.707 210.293 702.912 210.466C703.119 210.636 703.375 210.722 703.679 210.722ZM710.484 212.107C709.987 212.107 709.537 211.979 709.133 211.723C708.733 211.464 708.414 211.085 708.179 210.585C707.946 210.082 707.829 209.466 707.829 208.736C707.829 207.986 707.95 207.362 708.191 206.865C708.433 206.365 708.754 205.991 709.154 205.744C709.558 205.494 710 205.369 710.48 205.369C710.846 205.369 711.152 205.432 711.396 205.557C711.643 205.679 711.842 205.832 711.993 206.017C712.146 206.199 712.262 206.378 712.342 206.554H712.397V203.273H714.208V212H712.419V210.952H712.342C712.257 211.134 712.136 211.314 711.98 211.493C711.826 211.669 711.626 211.815 711.379 211.932C711.135 212.048 710.836 212.107 710.484 212.107ZM711.059 210.662C711.352 210.662 711.599 210.582 711.801 210.423C712.005 210.261 712.162 210.036 712.27 209.746C712.38 209.456 712.436 209.116 712.436 208.727C712.436 208.338 712.382 208 712.274 207.713C712.166 207.426 712.01 207.205 711.805 207.048C711.6 206.892 711.352 206.814 711.059 206.814C710.761 206.814 710.51 206.895 710.305 207.057C710.1 207.219 709.946 207.443 709.841 207.73C709.735 208.017 709.683 208.349 709.683 208.727C709.683 209.108 709.735 209.445 709.841 209.737C709.949 210.027 710.103 210.254 710.305 210.419C710.51 210.581 710.761 210.662 711.059 210.662ZM719.898 209.213V205.455H721.714V212H719.971V210.811H719.903C719.755 211.195 719.509 211.503 719.165 211.736C718.825 211.969 718.408 212.085 717.917 212.085C717.479 212.085 717.094 211.986 716.762 211.787C716.43 211.588 716.17 211.305 715.982 210.939C715.798 210.572 715.704 210.134 715.701 209.622V205.455H717.516V209.298C717.519 209.685 717.623 209.99 717.827 210.214C718.032 210.439 718.306 210.551 718.65 210.551C718.869 210.551 719.073 210.501 719.263 210.402C719.454 210.3 719.607 210.149 719.724 209.95C719.843 209.751 719.901 209.506 719.898 209.213ZM726.123 212.128C725.453 212.128 724.876 211.986 724.393 211.702C723.913 211.415 723.544 211.017 723.285 210.509C723.029 210 722.902 209.415 722.902 208.753C722.902 208.082 723.031 207.494 723.289 206.989C723.551 206.48 723.922 206.084 724.402 205.8C724.882 205.513 725.453 205.369 726.115 205.369C726.686 205.369 727.186 205.473 727.615 205.68C728.044 205.888 728.383 206.179 728.633 206.554C728.883 206.929 729.021 207.369 729.047 207.875H727.333C727.285 207.548 727.157 207.286 726.95 207.087C726.745 206.885 726.477 206.784 726.145 206.784C725.863 206.784 725.618 206.861 725.407 207.014C725.2 207.165 725.038 207.385 724.922 207.675C724.805 207.964 724.747 208.315 724.747 208.727C724.747 209.145 724.804 209.5 724.917 209.793C725.034 210.085 725.197 210.308 725.407 210.462C725.618 210.615 725.863 210.692 726.145 210.692C726.352 210.692 726.538 210.649 726.703 210.564C726.87 210.479 727.008 210.355 727.116 210.193C727.227 210.028 727.299 209.831 727.333 209.601H729.047C729.018 210.101 728.882 210.541 728.637 210.922C728.396 211.3 728.062 211.595 727.636 211.808C727.21 212.021 726.706 212.128 726.123 212.128ZM733.69 205.455V206.818H729.749V205.455H733.69ZM730.643 203.886H732.459V209.989C732.459 210.156 732.484 210.287 732.536 210.381C732.587 210.472 732.658 210.536 732.749 210.572C732.842 210.609 732.95 210.628 733.072 210.628C733.158 210.628 733.243 210.621 733.328 210.607C733.413 210.589 733.479 210.577 733.524 210.568L733.81 211.919C733.719 211.947 733.591 211.98 733.426 212.017C733.261 212.057 733.061 212.081 732.825 212.089C732.388 212.107 732.004 212.048 731.675 211.915C731.348 211.781 731.094 211.574 730.912 211.293C730.73 211.011 730.641 210.656 730.643 210.227V203.886Z" fill="#0B0755"/>
<path d="M580.487 204.273V213H578.641V204.273H580.487ZM585.75 204.273V213H583.905V206.024H583.854L581.855 207.277V205.641L584.016 204.273H585.75Z" fill="#0B0755"/>
<path d="M598.643 132.273V141H596.798V132.273H598.643ZM600.11 141V139.67L603.216 136.794C603.48 136.538 603.702 136.308 603.881 136.104C604.063 135.899 604.201 135.699 604.294 135.503C604.388 135.304 604.435 135.089 604.435 134.859C604.435 134.604 604.377 134.384 604.26 134.199C604.144 134.011 603.985 133.868 603.783 133.768C603.581 133.666 603.353 133.615 603.097 133.615C602.83 133.615 602.597 133.669 602.398 133.777C602.199 133.885 602.046 134.04 601.938 134.241C601.83 134.443 601.776 134.683 601.776 134.962H600.025C600.025 134.391 600.154 133.895 600.412 133.474C600.671 133.054 601.033 132.729 601.499 132.499C601.965 132.268 602.502 132.153 603.11 132.153C603.735 132.153 604.279 132.264 604.742 132.486C605.208 132.705 605.57 133.009 605.828 133.398C606.087 133.787 606.216 134.233 606.216 134.736C606.216 135.065 606.151 135.391 606.02 135.712C605.892 136.033 605.664 136.389 605.334 136.781C605.005 137.17 604.54 137.638 603.941 138.183L602.667 139.432V139.491H606.331V141H600.11Z" fill="#0B0755"/>
<path d="M653.467 93.2727V102H651.622V93.2727H653.467ZM658.16 102.119C657.523 102.119 656.957 102.01 656.46 101.791C655.965 101.57 655.575 101.266 655.288 100.879C655.004 100.49 654.857 100.041 654.849 99.5327H656.707C656.718 99.7457 656.788 99.9332 656.915 100.095C657.046 100.254 657.219 100.378 657.435 100.466C657.651 100.554 657.894 100.598 658.164 100.598C658.445 100.598 658.694 100.548 658.91 100.449C659.126 100.349 659.295 100.212 659.417 100.036C659.539 99.8594 659.6 99.6562 659.6 99.4261C659.6 99.1932 659.535 98.9872 659.404 98.8082C659.276 98.6264 659.092 98.4844 658.85 98.3821C658.612 98.2798 658.327 98.2287 657.998 98.2287H657.184V96.8736H657.998C658.276 96.8736 658.522 96.8253 658.735 96.7287C658.951 96.6321 659.119 96.4986 659.238 96.3281C659.357 96.1548 659.417 95.9531 659.417 95.723C659.417 95.5043 659.364 95.3125 659.259 95.1477C659.157 94.9801 659.012 94.8494 658.825 94.7557C658.64 94.6619 658.424 94.6151 658.177 94.6151C657.927 94.6151 657.698 94.6605 657.491 94.7514C657.283 94.8395 657.117 94.9659 656.992 95.1307C656.867 95.2955 656.8 95.4886 656.792 95.7102H655.023C655.032 95.2074 655.175 94.7642 655.454 94.3807C655.732 93.9972 656.107 93.6974 656.579 93.4815C657.053 93.2628 657.589 93.1534 658.185 93.1534C658.788 93.1534 659.315 93.2628 659.766 93.4815C660.218 93.7003 660.569 93.9957 660.819 94.3679C661.072 94.7372 661.197 95.152 661.194 95.6122C661.197 96.1009 661.045 96.5085 660.738 96.8352C660.434 97.1619 660.038 97.3693 659.549 97.4574V97.5256C660.191 97.608 660.68 97.831 661.015 98.1946C661.353 98.5554 661.521 99.0071 661.518 99.5497C661.521 100.047 661.377 100.489 661.087 100.875C660.8 101.261 660.404 101.565 659.898 101.787C659.393 102.009 658.813 102.119 658.16 102.119Z" fill="#0B0755"/>
<path d="M731.356 93.2727V102H729.51V93.2727H731.356ZM732.691 100.466V99.0128L736.334 93.2727H737.587V95.2841H736.845L734.548 98.919V98.9872H739.726V100.466H732.691ZM736.879 102V100.023L736.914 99.3793V93.2727H738.644V102H736.879Z" fill="#0B0755"/>
<path d="M787.555 132.273V141H785.71V132.273H787.555ZM792.209 141.119C791.607 141.119 791.07 141.009 790.599 140.787C790.13 140.565 789.758 140.26 789.482 139.871C789.206 139.482 789.063 139.036 789.052 138.533H790.841C790.861 138.871 791.003 139.145 791.268 139.355C791.532 139.565 791.846 139.67 792.209 139.67C792.499 139.67 792.755 139.607 792.976 139.479C793.201 139.348 793.376 139.168 793.501 138.938C793.628 138.705 793.692 138.437 793.692 138.136C793.692 137.83 793.627 137.56 793.496 137.327C793.368 137.094 793.191 136.912 792.964 136.781C792.736 136.651 792.476 136.584 792.184 136.581C791.928 136.581 791.68 136.634 791.438 136.739C791.199 136.844 791.013 136.987 790.88 137.169L789.239 136.875L789.653 132.273H794.988V133.781H791.174L790.948 135.967H790.999C791.153 135.751 791.384 135.572 791.694 135.43C792.003 135.288 792.35 135.217 792.733 135.217C793.259 135.217 793.728 135.341 794.14 135.588C794.552 135.835 794.877 136.175 795.116 136.607C795.354 137.036 795.472 137.53 795.469 138.089C795.472 138.678 795.336 139.2 795.06 139.658C794.787 140.112 794.405 140.47 793.914 140.732C793.425 140.99 792.857 141.119 792.209 141.119Z" fill="#0B0755"/>
<path d="M808.461 204.273V213H806.616V204.273H808.461ZM813.278 213.119C812.829 213.116 812.395 213.041 811.978 212.893C811.563 212.746 811.191 212.506 810.861 212.173C810.532 211.841 810.27 211.401 810.077 210.852C809.887 210.304 809.792 209.631 809.792 208.832C809.795 208.099 809.878 207.445 810.043 206.868C810.211 206.288 810.449 205.797 810.759 205.393C811.072 204.99 811.445 204.683 811.88 204.473C812.314 204.26 812.802 204.153 813.341 204.153C813.924 204.153 814.438 204.267 814.884 204.494C815.33 204.719 815.688 205.024 815.958 205.411C816.231 205.797 816.395 206.23 816.452 206.71H814.633C814.562 206.406 814.412 206.168 814.185 205.994C813.958 205.821 813.677 205.734 813.341 205.734C812.773 205.734 812.341 205.982 812.046 206.476C811.753 206.97 811.604 207.642 811.599 208.491H811.658C811.789 208.233 811.965 208.013 812.187 207.831C812.411 207.646 812.665 207.506 812.949 207.409C813.236 207.31 813.539 207.26 813.857 207.26C814.374 207.26 814.834 207.382 815.238 207.626C815.641 207.868 815.959 208.2 816.192 208.624C816.425 209.047 816.542 209.531 816.542 210.077C816.542 210.668 816.404 211.193 816.128 211.653C815.856 212.114 815.474 212.474 814.982 212.736C814.493 212.994 813.925 213.122 813.278 213.119ZM813.269 211.67C813.553 211.67 813.807 211.602 814.032 211.466C814.256 211.33 814.432 211.145 814.56 210.912C814.688 210.679 814.752 210.418 814.752 210.128C814.752 209.838 814.688 209.578 814.56 209.348C814.435 209.118 814.262 208.935 814.04 208.798C813.819 208.662 813.566 208.594 813.282 208.594C813.069 208.594 812.871 208.634 812.689 208.713C812.51 208.793 812.353 208.903 812.216 209.045C812.083 209.187 811.978 209.352 811.901 209.54C811.824 209.724 811.786 209.922 811.786 210.132C811.786 210.413 811.85 210.67 811.978 210.903C812.108 211.136 812.285 211.322 812.506 211.462C812.731 211.601 812.985 211.67 813.269 211.67Z" fill="#0B0755"/>
</svg>
