<svg width="753" height="367" viewBox="0 0 753 367" fill="none" xmlns="http://www.w3.org/2000/svg">
<rect width="753" height="367" fill="white"/>
<path d="M262.5 184L252.5 178.226V189.774L262.5 184ZM221 184V185H253.5V184V183H221V184Z" fill="#0B0755"/>
<path d="M531.5 184L521.5 178.226V189.774L531.5 184ZM490 184V185H522.5V184V183H490V184Z" fill="#0B0755"/>
<path d="M458.493 127.533C471.384 143.085 479.586 161.982 482.143 182.019C484.7 202.056 481.506 222.408 472.933 240.698C464.361 258.989 450.763 274.464 433.727 285.318C416.692 296.172 396.92 301.958 376.72 302C356.521 302.042 336.726 296.338 319.645 285.554C302.564 274.771 288.903 259.352 280.255 241.097C271.606 222.842 268.328 202.504 270.802 182.456C273.276 162.409 281.4 143.478 294.227 127.873L306.568 138.017C295.665 151.281 288.759 167.372 286.657 184.413C284.554 201.454 287.34 218.741 294.691 234.257C302.042 249.774 313.655 262.88 328.173 272.046C342.692 281.212 359.518 286.06 376.687 286.025C393.857 285.989 410.663 281.072 425.143 271.845C439.624 262.619 451.182 249.465 458.468 233.918C465.755 218.371 468.47 201.073 466.297 184.041C464.123 167.009 457.151 150.947 446.194 137.728L458.493 127.533Z" fill="#A8D8E8"/>
<path d="M294.193 127.914C298.443 122.739 303.171 117.976 308.315 113.689L318.543 125.961C314.17 129.605 310.151 133.653 306.539 138.052L294.193 127.914Z" fill="#F38300"/>
<path d="M444.298 113.368C449.462 117.631 454.213 122.371 458.487 127.527L446.189 137.723C442.556 133.341 438.518 129.311 434.128 125.688L444.298 113.368Z" fill="#3A035D"/>
<path d="M346.473 196H343.38V187.273H346.499C347.377 187.273 348.132 187.447 348.766 187.797C349.4 188.143 349.887 188.642 350.228 189.293C350.571 189.943 350.743 190.722 350.743 191.628C350.743 192.537 350.571 193.318 350.228 193.972C349.887 194.625 349.397 195.126 348.757 195.476C348.121 195.825 347.36 196 346.473 196ZM345.225 194.419H346.397C346.942 194.419 347.401 194.322 347.773 194.129C348.148 193.933 348.429 193.631 348.617 193.222C348.807 192.81 348.902 192.278 348.902 191.628C348.902 190.983 348.807 190.456 348.617 190.047C348.429 189.638 348.15 189.337 347.777 189.143C347.405 188.95 346.946 188.854 346.401 188.854H345.225V194.419ZM355.059 196.128C354.386 196.128 353.806 195.991 353.32 195.719C352.837 195.443 352.465 195.054 352.204 194.551C351.942 194.045 351.812 193.447 351.812 192.757C351.812 192.084 351.942 191.493 352.204 190.984C352.465 190.476 352.833 190.08 353.308 189.795C353.785 189.511 354.344 189.369 354.987 189.369C355.418 189.369 355.82 189.439 356.192 189.578C356.567 189.714 356.894 189.92 357.173 190.196C357.454 190.472 357.673 190.818 357.829 191.236C357.985 191.651 358.063 192.136 358.063 192.693V193.192H352.536V192.067H356.354C356.354 191.805 356.298 191.574 356.184 191.372C356.07 191.17 355.913 191.013 355.711 190.899C355.512 190.783 355.281 190.724 355.016 190.724C354.741 190.724 354.496 190.788 354.283 190.916C354.073 191.041 353.908 191.21 353.789 191.423C353.67 191.634 353.609 191.868 353.606 192.126V193.196C353.606 193.52 353.665 193.8 353.785 194.036C353.907 194.271 354.079 194.453 354.3 194.581C354.522 194.709 354.785 194.773 355.089 194.773C355.29 194.773 355.475 194.744 355.643 194.688C355.81 194.631 355.954 194.545 356.073 194.432C356.192 194.318 356.283 194.179 356.346 194.014L358.025 194.125C357.94 194.528 357.765 194.881 357.501 195.182C357.239 195.48 356.901 195.713 356.487 195.881C356.075 196.045 355.599 196.128 355.059 196.128ZM364.694 191.321L363.032 191.423C363.004 191.281 362.942 191.153 362.849 191.04C362.755 190.923 362.631 190.831 362.478 190.763C362.327 190.692 362.147 190.656 361.937 190.656C361.656 190.656 361.418 190.716 361.225 190.835C361.032 190.952 360.935 191.108 360.935 191.304C360.935 191.46 360.998 191.592 361.123 191.7C361.248 191.808 361.462 191.895 361.766 191.96L362.951 192.199C363.587 192.33 364.062 192.54 364.374 192.83C364.687 193.119 364.843 193.5 364.843 193.972C364.843 194.401 364.717 194.777 364.464 195.101C364.214 195.425 363.87 195.678 363.433 195.859C362.998 196.038 362.496 196.128 361.928 196.128C361.062 196.128 360.371 195.947 359.857 195.587C359.346 195.223 359.046 194.729 358.958 194.104L360.744 194.01C360.798 194.274 360.928 194.476 361.136 194.615C361.343 194.751 361.609 194.82 361.933 194.82C362.251 194.82 362.506 194.759 362.7 194.636C362.896 194.511 362.995 194.351 362.998 194.155C362.995 193.99 362.925 193.855 362.789 193.75C362.653 193.642 362.442 193.56 362.158 193.503L361.025 193.277C360.386 193.149 359.91 192.928 359.597 192.612C359.288 192.297 359.133 191.895 359.133 191.406C359.133 190.986 359.246 190.624 359.474 190.32C359.704 190.016 360.026 189.781 360.441 189.616C360.859 189.452 361.347 189.369 361.907 189.369C362.734 189.369 363.384 189.544 363.859 189.893C364.336 190.243 364.614 190.719 364.694 191.321ZM369.468 189.455V190.818H365.526V189.455H369.468ZM366.421 187.886H368.236V193.989C368.236 194.156 368.262 194.287 368.313 194.381C368.364 194.472 368.435 194.536 368.526 194.572C368.62 194.609 368.728 194.628 368.85 194.628C368.935 194.628 369.02 194.621 369.105 194.607C369.191 194.589 369.256 194.577 369.301 194.568L369.587 195.919C369.496 195.947 369.368 195.98 369.203 196.017C369.039 196.057 368.838 196.081 368.603 196.089C368.165 196.107 367.782 196.048 367.452 195.915C367.125 195.781 366.871 195.574 366.689 195.293C366.507 195.011 366.418 194.656 366.421 194.227V187.886ZM370.65 196V189.455H372.466V196H370.65ZM371.562 188.611C371.292 188.611 371.061 188.521 370.868 188.342C370.677 188.161 370.582 187.943 370.582 187.69C370.582 187.44 370.677 187.226 370.868 187.047C371.061 186.865 371.292 186.774 371.562 186.774C371.832 186.774 372.062 186.865 372.252 187.047C372.446 187.226 372.542 187.44 372.542 187.69C372.542 187.943 372.446 188.161 372.252 188.342C372.062 188.521 371.832 188.611 371.562 188.611ZM375.735 192.216V196H373.92V189.455H375.65V190.609H375.727C375.871 190.229 376.114 189.928 376.455 189.706C376.796 189.482 377.21 189.369 377.695 189.369C378.15 189.369 378.546 189.469 378.884 189.668C379.222 189.866 379.485 190.151 379.673 190.52C379.86 190.886 379.954 191.324 379.954 191.832V196H378.138V192.156C378.141 191.756 378.039 191.443 377.832 191.219C377.624 190.991 377.339 190.878 376.975 190.878C376.731 190.878 376.515 190.93 376.327 191.036C376.143 191.141 375.998 191.294 375.893 191.496C375.79 191.695 375.738 191.935 375.735 192.216ZM383.251 196.124C382.833 196.124 382.461 196.051 382.135 195.906C381.808 195.759 381.549 195.541 381.359 195.254C381.172 194.964 381.078 194.604 381.078 194.172C381.078 193.808 381.145 193.503 381.278 193.256C381.412 193.009 381.593 192.81 381.824 192.659C382.054 192.509 382.315 192.395 382.608 192.318C382.903 192.241 383.213 192.188 383.537 192.156C383.917 192.116 384.224 192.08 384.457 192.045C384.69 192.009 384.859 191.955 384.964 191.884C385.069 191.812 385.122 191.707 385.122 191.568V191.543C385.122 191.273 385.037 191.064 384.866 190.916C384.699 190.768 384.46 190.695 384.15 190.695C383.824 190.695 383.564 190.767 383.37 190.912C383.177 191.054 383.049 191.233 382.987 191.449L381.308 191.312C381.393 190.915 381.561 190.571 381.811 190.281C382.061 189.989 382.383 189.764 382.778 189.608C383.176 189.449 383.636 189.369 384.159 189.369C384.522 189.369 384.87 189.412 385.203 189.497C385.538 189.582 385.835 189.714 386.093 189.893C386.355 190.072 386.561 190.303 386.711 190.584C386.862 190.862 386.937 191.196 386.937 191.585V196H385.216V195.092H385.164C385.059 195.297 384.919 195.477 384.743 195.634C384.566 195.787 384.355 195.908 384.108 195.996C383.86 196.081 383.575 196.124 383.251 196.124ZM383.771 194.871C384.038 194.871 384.274 194.818 384.478 194.713C384.683 194.605 384.843 194.46 384.96 194.278C385.076 194.097 385.135 193.891 385.135 193.661V192.966C385.078 193.003 385 193.037 384.9 193.068C384.804 193.097 384.694 193.124 384.572 193.149C384.45 193.172 384.328 193.193 384.206 193.213C384.083 193.23 383.973 193.246 383.873 193.26C383.66 193.291 383.474 193.341 383.315 193.409C383.156 193.477 383.032 193.57 382.944 193.686C382.856 193.8 382.812 193.942 382.812 194.112C382.812 194.359 382.902 194.548 383.081 194.679C383.262 194.807 383.493 194.871 383.771 194.871ZM391.827 189.455V190.818H387.885V189.455H391.827ZM388.78 187.886H390.596V193.989C390.596 194.156 390.621 194.287 390.672 194.381C390.723 194.472 390.794 194.536 390.885 194.572C390.979 194.609 391.087 194.628 391.209 194.628C391.294 194.628 391.38 194.621 391.465 194.607C391.55 194.589 391.615 194.577 391.661 194.568L391.946 195.919C391.855 195.947 391.728 195.98 391.563 196.017C391.398 196.057 391.198 196.081 390.962 196.089C390.525 196.107 390.141 196.048 389.811 195.915C389.485 195.781 389.23 195.574 389.049 195.293C388.867 195.011 388.777 194.656 388.78 194.227V187.886ZM393.01 196V189.455H394.825V196H393.01ZM393.922 188.611C393.652 188.611 393.42 188.521 393.227 188.342C393.037 188.161 392.941 187.943 392.941 187.69C392.941 187.44 393.037 187.226 393.227 187.047C393.42 186.865 393.652 186.774 393.922 186.774C394.191 186.774 394.422 186.865 394.612 187.047C394.805 187.226 394.902 187.44 394.902 187.69C394.902 187.943 394.805 188.161 394.612 188.342C394.422 188.521 394.191 188.611 393.922 188.611ZM399.237 196.128C398.575 196.128 398.002 195.987 397.519 195.706C397.039 195.422 396.668 195.027 396.407 194.521C396.146 194.013 396.015 193.423 396.015 192.753C396.015 192.077 396.146 191.486 396.407 190.98C396.668 190.472 397.039 190.077 397.519 189.795C398.002 189.511 398.575 189.369 399.237 189.369C399.898 189.369 400.469 189.511 400.95 189.795C401.433 190.077 401.805 190.472 402.066 190.98C402.327 191.486 402.458 192.077 402.458 192.753C402.458 193.423 402.327 194.013 402.066 194.521C401.805 195.027 401.433 195.422 400.95 195.706C400.469 195.987 399.898 196.128 399.237 196.128ZM399.245 194.722C399.546 194.722 399.798 194.636 399.999 194.466C400.201 194.293 400.353 194.057 400.455 193.759C400.56 193.46 400.613 193.121 400.613 192.74C400.613 192.359 400.56 192.02 400.455 191.722C400.353 191.423 400.201 191.187 399.999 191.014C399.798 190.841 399.546 190.754 399.245 190.754C398.941 190.754 398.685 190.841 398.478 191.014C398.273 191.187 398.119 191.423 398.013 191.722C397.911 192.02 397.86 192.359 397.86 192.74C397.86 193.121 397.911 193.46 398.013 193.759C398.119 194.057 398.273 194.293 398.478 194.466C398.685 194.636 398.941 194.722 399.245 194.722ZM405.454 192.216V196H403.638V189.455H405.369V190.609H405.445C405.59 190.229 405.833 189.928 406.174 189.706C406.515 189.482 406.928 189.369 407.414 189.369C407.869 189.369 408.265 189.469 408.603 189.668C408.941 189.866 409.204 190.151 409.391 190.52C409.579 190.886 409.673 191.324 409.673 191.832V196H407.857V192.156C407.86 191.756 407.758 191.443 407.55 191.219C407.343 190.991 407.058 190.878 406.694 190.878C406.45 190.878 406.234 190.93 406.046 191.036C405.862 191.141 405.717 191.294 405.612 191.496C405.509 191.695 405.457 191.935 405.454 192.216ZM359.177 202.273L361.286 208.903H361.367L363.481 202.273H365.526L362.518 211H360.14L357.127 202.273H359.177ZM368.787 211.128C368.114 211.128 367.535 210.991 367.049 210.719C366.566 210.443 366.194 210.054 365.932 209.551C365.671 209.045 365.54 208.447 365.54 207.757C365.54 207.084 365.671 206.493 365.932 205.984C366.194 205.476 366.562 205.08 367.036 204.795C367.513 204.511 368.073 204.369 368.715 204.369C369.147 204.369 369.549 204.439 369.921 204.578C370.296 204.714 370.623 204.92 370.901 205.196C371.182 205.472 371.401 205.818 371.557 206.236C371.714 206.651 371.792 207.136 371.792 207.693V208.192H366.265V207.067H370.083C370.083 206.805 370.026 206.574 369.912 206.372C369.799 206.17 369.641 206.013 369.439 205.899C369.241 205.783 369.009 205.724 368.745 205.724C368.469 205.724 368.225 205.788 368.012 205.916C367.802 206.041 367.637 206.21 367.518 206.423C367.398 206.634 367.337 206.868 367.334 207.126V208.196C367.334 208.52 367.394 208.8 367.513 209.036C367.635 209.271 367.807 209.453 368.029 209.581C368.251 209.709 368.513 209.773 368.817 209.773C369.019 209.773 369.204 209.744 369.371 209.688C369.539 209.631 369.682 209.545 369.802 209.432C369.921 209.318 370.012 209.179 370.074 209.014L371.753 209.125C371.668 209.528 371.493 209.881 371.229 210.182C370.968 210.48 370.63 210.713 370.215 210.881C369.803 211.045 369.327 211.128 368.787 211.128ZM375.934 211.128C375.263 211.128 374.687 210.986 374.204 210.702C373.724 210.415 373.354 210.017 373.096 209.509C372.84 209 372.712 208.415 372.712 207.753C372.712 207.082 372.841 206.494 373.1 205.989C373.361 205.48 373.732 205.084 374.212 204.8C374.692 204.513 375.263 204.369 375.925 204.369C376.496 204.369 376.996 204.473 377.425 204.68C377.854 204.888 378.194 205.179 378.444 205.554C378.694 205.929 378.831 206.369 378.857 206.875H377.144C377.096 206.548 376.968 206.286 376.76 206.087C376.556 205.885 376.287 205.784 375.955 205.784C375.674 205.784 375.428 205.861 375.218 206.014C375.01 206.165 374.849 206.385 374.732 206.675C374.616 206.964 374.557 207.315 374.557 207.727C374.557 208.145 374.614 208.5 374.728 208.793C374.844 209.085 375.008 209.308 375.218 209.462C375.428 209.615 375.674 209.692 375.955 209.692C376.162 209.692 376.349 209.649 376.513 209.564C376.681 209.479 376.819 209.355 376.927 209.193C377.037 209.028 377.11 208.831 377.144 208.601H378.857C378.829 209.101 378.692 209.541 378.448 209.922C378.206 210.3 377.873 210.595 377.447 210.808C377.02 211.021 376.516 211.128 375.934 211.128ZM383.501 204.455V205.818H379.559V204.455H383.501ZM380.454 202.886H382.269V208.989C382.269 209.156 382.295 209.287 382.346 209.381C382.397 209.472 382.468 209.536 382.559 209.572C382.653 209.609 382.761 209.628 382.883 209.628C382.968 209.628 383.053 209.621 383.139 209.607C383.224 209.589 383.289 209.577 383.335 209.568L383.62 210.919C383.529 210.947 383.401 210.98 383.237 211.017C383.072 211.057 382.872 211.081 382.636 211.089C382.198 211.107 381.815 211.048 381.485 210.915C381.159 210.781 380.904 210.574 380.722 210.293C380.541 210.011 380.451 209.656 380.454 209.227V202.886ZM387.57 211.128C386.909 211.128 386.336 210.987 385.853 210.706C385.373 210.422 385.002 210.027 384.741 209.521C384.48 209.013 384.349 208.423 384.349 207.753C384.349 207.077 384.48 206.486 384.741 205.98C385.002 205.472 385.373 205.077 385.853 204.795C386.336 204.511 386.909 204.369 387.57 204.369C388.232 204.369 388.803 204.511 389.284 204.795C389.767 205.077 390.139 205.472 390.4 205.98C390.661 206.486 390.792 207.077 390.792 207.753C390.792 208.423 390.661 209.013 390.4 209.521C390.139 210.027 389.767 210.422 389.284 210.706C388.803 210.987 388.232 211.128 387.57 211.128ZM387.579 209.722C387.88 209.722 388.132 209.636 388.333 209.466C388.535 209.293 388.687 209.057 388.789 208.759C388.894 208.46 388.947 208.121 388.947 207.74C388.947 207.359 388.894 207.02 388.789 206.722C388.687 206.423 388.535 206.187 388.333 206.014C388.132 205.841 387.88 205.754 387.579 205.754C387.275 205.754 387.019 205.841 386.812 206.014C386.607 206.187 386.453 206.423 386.347 206.722C386.245 207.02 386.194 207.359 386.194 207.74C386.194 208.121 386.245 208.46 386.347 208.759C386.453 209.057 386.607 209.293 386.812 209.466C387.019 209.636 387.275 209.722 387.579 209.722ZM391.972 211V204.455H393.732V205.597H393.801C393.92 205.19 394.12 204.884 394.401 204.676C394.683 204.466 395.007 204.361 395.373 204.361C395.464 204.361 395.562 204.366 395.667 204.378C395.772 204.389 395.865 204.405 395.944 204.425V206.036C395.859 206.01 395.741 205.987 395.59 205.967C395.44 205.947 395.302 205.938 395.177 205.938C394.91 205.938 394.671 205.996 394.461 206.112C394.254 206.226 394.089 206.385 393.967 206.589C393.847 206.794 393.788 207.03 393.788 207.297V211H391.972Z" fill="#0B0755"/>
<path d="M295.326 96.7865C316.042 79.2174 341.899 68.8438 369.014 67.2235L369.987 83.5094C346.397 84.9191 323.902 93.9442 305.879 109.229L295.326 96.7865Z" fill="#1B76B3"/>
<path d="M396.375 37.2671C426.154 41.0799 454.208 53.3777 477.191 72.6939L466.115 85.8726C445.66 68.6811 420.692 57.7361 394.189 54.3428L396.375 37.2671Z" fill="#1B76B3"/>
<path d="M278.852 113.665C283.809 107.525 289.334 101.866 295.353 96.7634L305.903 109.209C300.665 113.648 295.858 118.571 291.546 123.913L278.852 113.665Z" fill="#F38300"/>
<path d="M368.982 67.2254C376.859 66.7527 384.763 67.0239 392.589 68.0356L390.498 84.216C383.689 83.3358 376.812 83.0998 369.959 83.5111L368.982 67.2254Z" fill="#E75A46"/>
<path d="M477.143 72.653C484.678 78.9812 491.601 86.0061 497.817 93.6344L484.472 104.51C478.94 97.7205 472.779 91.4683 466.072 85.8362L477.143 72.653Z" fill="#3A035D"/>
<path d="M366.985 36.2895C376.807 35.6912 386.664 36.0207 396.424 37.2734L394.232 54.3484C385.546 53.2334 376.773 52.9402 368.031 53.4727L366.985 36.2895Z" fill="#E75A46"/>
<path d="M300.848 70.6856L304.096 78.786L302.384 79.4727L299.136 71.3723L300.848 70.6856ZM305.75 74.0458L307.159 77.5581L305.474 78.2337L303.038 72.1584L304.644 71.5145L305.073 72.5864L305.145 72.5578C305.137 72.1506 305.251 71.7807 305.485 71.4481C305.718 71.1129 306.059 70.8549 306.51 70.6741C306.932 70.505 307.337 70.4498 307.725 70.5085C308.113 70.5673 308.462 70.7332 308.774 71.0062C309.084 71.2766 309.334 71.6477 309.523 72.1197L311.074 75.988L309.389 76.6636L307.959 73.0959C307.812 72.7231 307.601 72.4711 307.325 72.34C307.048 72.2062 306.741 72.207 306.403 72.3423C306.177 72.4333 305.996 72.5624 305.861 72.7297C305.729 72.896 305.651 73.0923 305.629 73.3187C305.608 73.5413 305.648 73.7837 305.75 74.0458ZM315.716 69.0858L314.211 69.7992C314.132 69.678 314.028 69.582 313.899 69.5115C313.768 69.4382 313.619 69.3985 313.451 69.3923C313.285 69.3825 313.104 69.4166 312.909 69.4949C312.648 69.5995 312.45 69.7432 312.315 69.9258C312.179 70.1059 312.148 70.2868 312.221 70.4688C312.279 70.6138 312.386 70.7131 312.542 70.7668C312.699 70.8205 312.93 70.8211 313.236 70.7686L314.425 70.5492C315.064 70.4337 315.583 70.4522 315.981 70.6049C316.378 70.7576 316.665 71.0527 316.841 71.4904C317 71.8886 317.023 72.285 316.909 72.6797C316.797 73.0734 316.572 73.436 316.234 73.7676C315.897 74.0955 315.465 74.3651 314.938 74.5766C314.134 74.8991 313.426 74.9885 312.814 74.845C312.204 74.6978 311.742 74.3506 311.428 73.8032L313.05 73.0517C313.198 73.2769 313.395 73.4154 313.639 73.4675C313.882 73.5168 314.154 73.4813 314.455 73.3607C314.75 73.2423 314.965 73.0905 315.099 72.9052C315.234 72.7162 315.267 72.5302 315.196 72.3472C315.132 72.1954 315.017 72.096 314.852 72.0492C314.685 71.9998 314.459 72.0015 314.174 72.0545L313.038 72.2667C312.397 72.386 311.873 72.3574 311.466 72.181C311.061 72.0036 310.768 71.6881 310.586 71.2345C310.429 70.8443 310.4 70.4658 310.498 70.0991C310.598 69.7313 310.81 69.3938 311.134 69.0865C311.46 68.7781 311.883 68.5198 312.403 68.3115C313.17 68.0038 313.839 67.9239 314.409 68.0716C314.982 68.2183 315.418 68.5564 315.716 69.0858ZM321.473 71.9562C320.848 72.2068 320.259 72.2959 319.707 72.2236C319.156 72.1475 318.666 71.9248 318.236 71.5554C317.805 71.1833 317.461 70.6769 317.204 70.0361C316.954 69.4112 316.855 68.8141 316.909 68.2448C316.962 67.6755 317.156 67.1708 317.491 66.7305C317.828 66.2892 318.294 65.9491 318.89 65.7102C319.291 65.5494 319.69 65.4644 320.087 65.4551C320.486 65.4421 320.866 65.5117 321.227 65.6639C321.591 65.815 321.923 66.0553 322.223 66.3847C322.522 66.7116 322.776 67.1334 322.983 67.6502L323.169 68.113L318.039 70.1699L317.62 69.1257L321.164 67.7047C321.067 67.4622 320.928 67.2684 320.747 67.1235C320.567 66.9785 320.362 66.8909 320.132 66.8605C319.904 66.8264 319.668 66.8585 319.422 66.9568C319.167 67.0594 318.964 67.2096 318.813 67.4076C318.665 67.6018 318.575 67.8201 318.543 68.0622C318.511 68.3018 318.541 68.542 318.635 68.783L319.033 69.7758C319.154 70.0764 319.313 70.3139 319.512 70.4884C319.713 70.6618 319.94 70.7666 320.193 70.8028C320.446 70.839 320.714 70.8005 320.996 70.6873C321.183 70.6123 321.344 70.5172 321.479 70.4021C321.613 70.287 321.715 70.1545 321.783 70.0046C321.851 69.8547 321.884 69.6917 321.881 69.5155L323.48 68.9934C323.551 69.3996 323.52 69.7916 323.387 70.1694C323.256 70.5435 323.028 70.8856 322.706 71.1955C322.385 71.5018 321.974 71.7553 321.473 71.9562ZM325.313 70.2786L322.877 64.2033L324.511 63.5483L324.936 64.6083L324.999 64.583C324.959 64.1615 325.03 63.8022 325.214 63.505C325.397 63.2052 325.659 62.9871 325.999 62.8507C326.083 62.8169 326.176 62.7857 326.278 62.7571C326.38 62.7285 326.471 62.7087 326.552 62.6975L327.152 64.1926C327.063 64.2006 326.945 64.2234 326.798 64.261C326.651 64.2985 326.52 64.3406 326.404 64.3871C326.156 64.4865 325.956 64.6294 325.804 64.8157C325.654 64.9984 325.56 65.2074 325.523 65.4427C325.488 65.6769 325.521 65.918 325.62 66.1659L326.998 69.603L325.313 70.2786ZM330.971 60.9581L331.478 62.2238L327.82 63.6908L327.312 62.4251L330.971 60.9581ZM327.559 60.6365L329.244 59.9609L331.515 65.6248C331.577 65.7804 331.65 65.8922 331.732 65.9601C331.813 66.0255 331.903 66.0584 332.001 66.0588C332.102 66.0582 332.209 66.0352 332.323 65.9897C332.402 65.958 332.478 65.9197 332.552 65.8748C332.625 65.8273 332.681 65.7911 332.72 65.7662L333.487 66.9138C333.414 66.974 333.307 67.0519 333.168 67.1475C333.03 67.2457 332.853 67.3427 332.637 67.4384C332.237 67.617 331.86 67.7057 331.504 67.7044C331.151 67.7021 330.838 67.6042 330.565 67.4108C330.291 67.2174 330.076 66.9211 329.919 66.5219L327.559 60.6365ZM337.342 56.0525L340.59 64.1529L338.878 64.8396L336.282 58.3649L336.234 58.3839L334.845 60.2905L334.236 58.7717L335.733 56.698L337.342 56.0525Z" fill="#0B0755"/>
<path d="M421.084 29.0495L418.265 37.3088L416.518 36.7127L419.338 28.4534L421.084 29.0495ZM422.61 34.7936L421.387 38.3747L419.669 37.7883L421.784 31.5938L423.421 32.1527L423.048 33.2456L423.121 33.2704C423.381 32.957 423.708 32.7504 424.102 32.6509C424.497 32.5486 424.925 32.5759 425.384 32.7329C425.815 32.8797 426.157 33.1019 426.413 33.3993C426.669 33.6967 426.826 34.0505 426.884 34.4605C426.943 34.8679 426.89 35.3123 426.726 35.7935L425.38 39.7377L423.662 39.1512L424.903 35.5136C425.036 35.1354 425.04 34.8066 424.916 34.5272C424.793 34.2451 424.56 34.0453 424.215 33.9279C423.984 33.8489 423.763 33.8289 423.552 33.8678C423.343 33.9076 423.156 34.006 422.991 34.1629C422.83 34.3181 422.703 34.5283 422.61 34.7936ZM433.399 37.5312L431.793 37.0911C431.812 36.9475 431.796 36.8068 431.744 36.6689C431.693 36.5284 431.606 36.4011 431.483 36.287C431.363 36.1712 431.204 36.0793 431.005 36.0114C430.739 35.9205 430.495 35.9003 430.273 35.9508C430.053 35.9987 429.911 36.1153 429.848 36.3008C429.797 36.4487 429.814 36.5939 429.897 36.7365C429.981 36.879 430.156 37.0303 430.422 37.1904L431.466 37.7989C432.026 38.1282 432.407 38.4804 432.609 38.8556C432.812 39.2308 432.836 39.6415 432.684 40.0878C432.546 40.4938 432.304 40.8092 431.96 41.034C431.619 41.2597 431.212 41.388 430.739 41.4187C430.27 41.4477 429.767 41.3704 429.229 41.1868C428.409 40.9069 427.814 40.5131 427.444 40.0056C427.077 39.4962 426.954 38.9316 427.072 38.3116L428.792 38.7998C428.758 39.0672 428.816 39.3003 428.968 39.4991C429.12 39.6951 429.349 39.8455 429.656 39.9501C429.957 40.0529 430.219 40.0777 430.441 40.0245C430.667 39.9695 430.813 39.8497 430.879 39.6651C430.929 39.5083 430.907 39.3581 430.812 39.2146C430.718 39.0683 430.545 38.9225 430.295 38.7769L429.295 38.197C428.731 37.8695 428.353 37.506 428.159 37.1067C427.968 36.7082 427.951 36.2777 428.109 35.8153C428.245 35.4174 428.469 35.1113 428.783 34.897C429.099 34.6837 429.479 34.5661 429.925 34.5441C430.374 34.5231 430.863 34.603 431.392 34.7838C432.175 35.0509 432.734 35.4264 433.07 35.9104C433.409 36.3953 433.519 36.9355 433.399 37.5312ZM435.892 43.4614C435.255 43.2439 434.751 42.9276 434.379 42.5126C434.011 42.0958 433.785 41.6072 433.7 41.0469C433.616 40.4839 433.685 39.8757 433.908 39.2224C434.126 38.5852 434.44 38.0682 434.852 37.6714C435.264 37.2746 435.74 37.0184 436.281 36.9028C436.824 36.7881 437.4 36.8345 438.007 37.0419C438.416 37.1814 438.774 37.3772 439.081 37.6291C439.392 37.8793 439.635 38.1798 439.809 38.5305C439.986 38.8822 440.081 39.2809 440.094 39.7266C440.108 40.1696 440.025 40.6546 439.845 41.1815L439.684 41.6534L434.453 39.8678L434.817 38.8031L438.43 40.0366C438.515 39.7893 438.536 39.5518 438.493 39.3242C438.451 39.0966 438.353 38.8965 438.199 38.7238C438.048 38.5493 437.848 38.4194 437.598 38.334C437.337 38.245 437.085 38.2265 436.842 38.2787C436.603 38.3291 436.392 38.4358 436.21 38.5989C436.03 38.7593 435.896 38.9614 435.81 39.2051L435.464 40.2174C435.36 40.5239 435.326 40.808 435.362 41.0697C435.402 41.3323 435.506 41.5599 435.674 41.7525C435.843 41.945 436.071 42.0904 436.358 42.1886C436.549 42.2538 436.733 42.2866 436.91 42.2869C437.087 42.2873 437.25 42.253 437.4 42.184C437.55 42.115 437.681 42.0126 437.793 41.8769L439.346 42.5242C439.135 42.8784 438.856 43.1553 438.509 43.355C438.165 43.5528 437.77 43.6641 437.323 43.6887C436.88 43.7116 436.403 43.6358 435.892 43.4614ZM439.898 44.6937L442.013 38.4993L443.678 39.0678L443.309 40.1486L443.374 40.1707C443.618 39.8247 443.907 39.5991 444.24 39.4937C444.574 39.3856 444.914 39.3907 445.261 39.5091C445.347 39.5385 445.438 39.5755 445.534 39.6203C445.63 39.665 445.712 39.7096 445.781 39.7541L445.26 41.2785C445.188 41.2268 445.084 41.1672 444.948 41.0997C444.812 41.0323 444.684 40.9783 444.566 40.938C444.313 40.8517 444.069 40.8297 443.832 40.872C443.599 40.9126 443.392 41.0099 443.21 41.164C443.031 41.319 442.899 41.5229 442.812 41.7756L441.616 45.2802L439.898 44.6937ZM450.265 41.3163L449.824 42.6068L446.094 41.3334L446.534 40.0429L450.265 41.3163ZM447.888 38.8479L449.606 39.4344L447.634 45.2094C447.58 45.368 447.562 45.5 447.58 45.6052C447.599 45.7078 447.646 45.7912 447.72 45.8555C447.797 45.9208 447.893 45.9731 448.009 46.0126C448.089 46.0401 448.172 46.0609 448.258 46.075C448.344 46.0864 448.41 46.0954 448.455 46.102L448.289 47.4727C448.194 47.4702 448.063 47.4598 447.895 47.4416C447.726 47.426 447.529 47.3841 447.303 47.316C446.883 47.1908 446.539 47.0118 446.27 46.7789C446.004 46.547 445.83 46.2686 445.749 45.9437C445.668 45.6188 445.698 45.2538 445.839 44.8488L447.888 38.8479ZM451.882 48.7846L452.311 47.5263L456.18 45.8077C456.513 45.6511 456.797 45.5049 457.032 45.3692C457.271 45.2343 457.466 45.0893 457.618 44.9341C457.771 44.7762 457.884 44.5883 457.959 44.3705C458.041 44.1286 458.057 43.9014 458.007 43.689C457.957 43.4739 457.853 43.2868 457.694 43.1275C457.536 42.9655 457.336 42.8433 457.094 42.7607C456.842 42.6744 456.604 42.6502 456.381 42.6881C456.158 42.7261 455.962 42.823 455.795 42.979C455.628 43.1351 455.499 43.3448 455.409 43.6083L453.752 43.0425C453.936 42.5021 454.219 42.0747 454.599 41.7603C454.98 41.4459 455.428 41.2551 455.943 41.1878C456.458 41.1205 457.003 41.1851 457.579 41.3815C458.17 41.5834 458.649 41.8641 459.016 42.2234C459.386 42.5809 459.631 42.9856 459.75 43.4374C459.869 43.8893 459.847 44.3532 459.684 44.829C459.578 45.1409 459.411 45.4277 459.184 45.6892C458.959 45.9518 458.627 46.2153 458.189 46.4798C457.751 46.7417 457.161 47.0339 456.417 47.3565L454.808 48.1265L454.789 48.1829L458.257 49.3669L457.77 50.7945L451.882 48.7846Z" fill="#0B0755"/>
<path d="M445.927 137.598L497.496 93.6364" stroke="#0B0755" stroke-width="2"/>
<line x1="306.334" y1="138.695" x2="278.334" y2="113.695" stroke="#0B0755" stroke-width="2"/>
<path d="M188.493 127.533C201.384 143.085 209.586 161.982 212.143 182.019C214.7 202.056 211.506 222.408 202.933 240.698C194.361 258.989 180.763 274.464 163.727 285.318C146.692 296.172 126.92 301.958 106.72 302C86.5207 302.042 66.7255 296.338 49.645 285.554C32.5645 274.771 18.9029 259.352 10.2546 241.097C1.60627 222.842 -1.6722 202.504 0.801775 182.456C3.27575 162.409 11.4001 143.478 24.2269 127.873L36.5678 138.017C25.6651 151.281 18.7594 167.372 16.6565 184.413C14.5536 201.454 17.3403 218.741 24.6914 234.257C32.0425 249.774 43.6548 262.88 58.1733 272.046C72.6917 281.212 89.5176 286.06 106.687 286.025C123.857 285.989 140.663 281.072 155.143 271.845C169.624 262.619 181.182 249.465 188.468 233.918C195.755 218.371 198.47 201.073 196.297 184.041C194.123 167.009 187.151 150.947 176.194 137.728L188.493 127.533Z" fill="#A8D8E8"/>
<path d="M76.4734 196H73.3796V187.273H76.4989C77.3768 187.273 78.1325 187.447 78.766 187.797C79.3995 188.143 79.8867 188.642 80.2276 189.293C80.5714 189.943 80.7433 190.722 80.7433 191.628C80.7433 192.537 80.5714 193.318 80.2276 193.972C79.8867 194.625 79.3967 195.126 78.7575 195.476C78.1211 195.825 77.3597 196 76.4734 196ZM75.2248 194.419H76.3967C76.9421 194.419 77.4009 194.322 77.7731 194.129C78.1481 193.933 78.4293 193.631 78.6168 193.222C78.8072 192.81 78.9023 192.278 78.9023 191.628C78.9023 190.983 78.8072 190.456 78.6168 190.047C78.4293 189.638 78.1495 189.337 77.7773 189.143C77.4052 188.95 76.9464 188.854 76.4009 188.854H75.2248V194.419ZM85.0589 196.128C84.3857 196.128 83.8061 195.991 83.3203 195.719C82.8374 195.443 82.4652 195.054 82.2038 194.551C81.9425 194.045 81.8118 193.447 81.8118 192.757C81.8118 192.084 81.9425 191.493 82.2038 190.984C82.4652 190.476 82.8331 190.08 83.3075 189.795C83.7848 189.511 84.3445 189.369 84.9865 189.369C85.4183 189.369 85.8203 189.439 86.1925 189.578C86.5675 189.714 86.8942 189.92 87.1726 190.196C87.4538 190.472 87.6726 190.818 87.8288 191.236C87.9851 191.651 88.0632 192.136 88.0632 192.693V193.192H82.5362V192.067H86.3544C86.3544 191.805 86.2976 191.574 86.1839 191.372C86.0703 191.17 85.9126 191.013 85.7109 190.899C85.5121 190.783 85.2805 190.724 85.0163 190.724C84.7408 190.724 84.4964 190.788 84.2834 190.916C84.0732 191.041 83.9084 191.21 83.7891 191.423C83.6697 191.634 83.6087 191.868 83.6058 192.126V193.196C83.6058 193.52 83.6655 193.8 83.7848 194.036C83.907 194.271 84.0788 194.453 84.3004 194.581C84.522 194.709 84.7848 194.773 85.0888 194.773C85.2905 194.773 85.4751 194.744 85.6428 194.688C85.8104 194.631 85.9538 194.545 86.0732 194.432C86.1925 194.318 86.2834 194.179 86.3459 194.014L88.0249 194.125C87.9396 194.528 87.7649 194.881 87.5007 195.182C87.2393 195.48 86.9013 195.713 86.4865 195.881C86.0746 196.045 85.5987 196.128 85.0589 196.128ZM94.6939 191.321L93.032 191.423C93.0036 191.281 92.9425 191.153 92.8487 191.04C92.755 190.923 92.6314 190.831 92.478 190.763C92.3274 190.692 92.147 190.656 91.9368 190.656C91.6555 190.656 91.4183 190.716 91.2251 190.835C91.032 190.952 90.9354 191.108 90.9354 191.304C90.9354 191.46 90.9979 191.592 91.1229 191.7C91.2479 191.808 91.4624 191.895 91.7663 191.96L92.951 192.199C93.5874 192.33 94.0618 192.54 94.3743 192.83C94.6868 193.119 94.843 193.5 94.843 193.972C94.843 194.401 94.7166 194.777 94.4638 195.101C94.2138 195.425 93.87 195.678 93.4325 195.859C92.9979 196.038 92.4964 196.128 91.9283 196.128C91.0618 196.128 90.3714 195.947 89.8572 195.587C89.3459 195.223 89.0462 194.729 88.9581 194.104L90.7436 194.01C90.7976 194.274 90.9283 194.476 91.1357 194.615C91.343 194.751 91.6087 194.82 91.9325 194.82C92.2507 194.82 92.5064 194.759 92.6996 194.636C92.8956 194.511 92.995 194.351 92.9979 194.155C92.995 193.99 92.9254 193.855 92.7891 193.75C92.6527 193.642 92.4425 193.56 92.1584 193.503L91.0249 193.277C90.3857 193.149 89.9098 192.928 89.5973 192.612C89.2876 192.297 89.1328 191.895 89.1328 191.406C89.1328 190.986 89.2464 190.624 89.4737 190.32C89.7038 190.016 90.0263 189.781 90.4411 189.616C90.8587 189.452 91.3473 189.369 91.907 189.369C92.7337 189.369 93.3842 189.544 93.8587 189.893C94.3359 190.243 94.6143 190.719 94.6939 191.321ZM99.4677 189.455V190.818H95.5259V189.455H99.4677ZM96.4208 187.886H98.2362V193.989C98.2362 194.156 98.2617 194.287 98.3129 194.381C98.364 194.472 98.435 194.536 98.5259 194.572C98.6197 194.609 98.7276 194.628 98.8498 194.628C98.935 194.628 99.0202 194.621 99.1055 194.607C99.1907 194.589 99.256 194.577 99.3015 194.568L99.587 195.919C99.4961 195.947 99.3683 195.98 99.2035 196.017C99.0387 196.057 98.8384 196.081 98.6026 196.089C98.1651 196.107 97.7816 196.048 97.4521 195.915C97.1254 195.781 96.8711 195.574 96.6893 195.293C96.5075 195.011 96.418 194.656 96.4208 194.227V187.886ZM100.65 196V189.455H102.466V196H100.65ZM101.562 188.611C101.292 188.611 101.061 188.521 100.868 188.342C100.677 188.161 100.582 187.943 100.582 187.69C100.582 187.44 100.677 187.226 100.868 187.047C101.061 186.865 101.292 186.774 101.562 186.774C101.832 186.774 102.062 186.865 102.252 187.047C102.446 187.226 102.542 187.44 102.542 187.69C102.542 187.943 102.446 188.161 102.252 188.342C102.062 188.521 101.832 188.611 101.562 188.611ZM105.735 192.216V196H103.92V189.455H105.65V190.609H105.727C105.871 190.229 106.114 189.928 106.455 189.706C106.796 189.482 107.21 189.369 107.695 189.369C108.15 189.369 108.546 189.469 108.884 189.668C109.222 189.866 109.485 190.151 109.673 190.52C109.86 190.886 109.954 191.324 109.954 191.832V196H108.138V192.156C108.141 191.756 108.039 191.443 107.832 191.219C107.624 190.991 107.339 190.878 106.975 190.878C106.731 190.878 106.515 190.93 106.327 191.036C106.143 191.141 105.998 191.294 105.893 191.496C105.79 191.695 105.738 191.935 105.735 192.216ZM113.251 196.124C112.833 196.124 112.461 196.051 112.135 195.906C111.808 195.759 111.549 195.541 111.359 195.254C111.172 194.964 111.078 194.604 111.078 194.172C111.078 193.808 111.145 193.503 111.278 193.256C111.412 193.009 111.593 192.81 111.824 192.659C112.054 192.509 112.315 192.395 112.608 192.318C112.903 192.241 113.213 192.188 113.537 192.156C113.917 192.116 114.224 192.08 114.457 192.045C114.69 192.009 114.859 191.955 114.964 191.884C115.069 191.812 115.122 191.707 115.122 191.568V191.543C115.122 191.273 115.037 191.064 114.866 190.916C114.699 190.768 114.46 190.695 114.15 190.695C113.824 190.695 113.564 190.767 113.37 190.912C113.177 191.054 113.049 191.233 112.987 191.449L111.308 191.312C111.393 190.915 111.561 190.571 111.811 190.281C112.061 189.989 112.383 189.764 112.778 189.608C113.176 189.449 113.636 189.369 114.159 189.369C114.522 189.369 114.87 189.412 115.203 189.497C115.538 189.582 115.835 189.714 116.093 189.893C116.355 190.072 116.561 190.303 116.711 190.584C116.862 190.862 116.937 191.196 116.937 191.585V196H115.216V195.092H115.164C115.059 195.297 114.919 195.477 114.743 195.634C114.566 195.787 114.355 195.908 114.108 195.996C113.86 196.081 113.575 196.124 113.251 196.124ZM113.771 194.871C114.038 194.871 114.274 194.818 114.478 194.713C114.683 194.605 114.843 194.46 114.96 194.278C115.076 194.097 115.135 193.891 115.135 193.661V192.966C115.078 193.003 115 193.037 114.9 193.068C114.804 193.097 114.694 193.124 114.572 193.149C114.45 193.172 114.328 193.193 114.206 193.213C114.083 193.23 113.973 193.246 113.873 193.26C113.66 193.291 113.474 193.341 113.315 193.409C113.156 193.477 113.032 193.57 112.944 193.686C112.856 193.8 112.812 193.942 112.812 194.112C112.812 194.359 112.902 194.548 113.081 194.679C113.262 194.807 113.493 194.871 113.771 194.871ZM121.827 189.455V190.818H117.885V189.455H121.827ZM118.78 187.886H120.596V193.989C120.596 194.156 120.621 194.287 120.672 194.381C120.723 194.472 120.794 194.536 120.885 194.572C120.979 194.609 121.087 194.628 121.209 194.628C121.294 194.628 121.38 194.621 121.465 194.607C121.55 194.589 121.615 194.577 121.661 194.568L121.946 195.919C121.855 195.947 121.728 195.98 121.563 196.017C121.398 196.057 121.198 196.081 120.962 196.089C120.525 196.107 120.141 196.048 119.811 195.915C119.485 195.781 119.23 195.574 119.049 195.293C118.867 195.011 118.777 194.656 118.78 194.227V187.886ZM123.01 196V189.455H124.825V196H123.01ZM123.922 188.611C123.652 188.611 123.42 188.521 123.227 188.342C123.037 188.161 122.941 187.943 122.941 187.69C122.941 187.44 123.037 187.226 123.227 187.047C123.42 186.865 123.652 186.774 123.922 186.774C124.191 186.774 124.422 186.865 124.612 187.047C124.805 187.226 124.902 187.44 124.902 187.69C124.902 187.943 124.805 188.161 124.612 188.342C124.422 188.521 124.191 188.611 123.922 188.611ZM129.237 196.128C128.575 196.128 128.002 195.987 127.519 195.706C127.039 195.422 126.668 195.027 126.407 194.521C126.146 194.013 126.015 193.423 126.015 192.753C126.015 192.077 126.146 191.486 126.407 190.98C126.668 190.472 127.039 190.077 127.519 189.795C128.002 189.511 128.575 189.369 129.237 189.369C129.898 189.369 130.469 189.511 130.95 189.795C131.433 190.077 131.805 190.472 132.066 190.98C132.327 191.486 132.458 192.077 132.458 192.753C132.458 193.423 132.327 194.013 132.066 194.521C131.805 195.027 131.433 195.422 130.95 195.706C130.469 195.987 129.898 196.128 129.237 196.128ZM129.245 194.722C129.546 194.722 129.798 194.636 129.999 194.466C130.201 194.293 130.353 194.057 130.455 193.759C130.56 193.46 130.613 193.121 130.613 192.74C130.613 192.359 130.56 192.02 130.455 191.722C130.353 191.423 130.201 191.187 129.999 191.014C129.798 190.841 129.546 190.754 129.245 190.754C128.941 190.754 128.685 190.841 128.478 191.014C128.273 191.187 128.119 191.423 128.013 191.722C127.911 192.02 127.86 192.359 127.86 192.74C127.86 193.121 127.911 193.46 128.013 193.759C128.119 194.057 128.273 194.293 128.478 194.466C128.685 194.636 128.941 194.722 129.245 194.722ZM135.454 192.216V196H133.638V189.455H135.369V190.609H135.445C135.59 190.229 135.833 189.928 136.174 189.706C136.515 189.482 136.928 189.369 137.414 189.369C137.869 189.369 138.265 189.469 138.603 189.668C138.941 189.866 139.204 190.151 139.391 190.52C139.579 190.886 139.673 191.324 139.673 191.832V196H137.857V192.156C137.86 191.756 137.758 191.443 137.55 191.219C137.343 190.991 137.058 190.878 136.694 190.878C136.45 190.878 136.234 190.93 136.046 191.036C135.862 191.141 135.717 191.294 135.612 191.496C135.509 191.695 135.457 191.935 135.454 192.216ZM89.177 202.273L91.2864 208.903H91.3674L93.481 202.273H95.5265L92.5179 211H90.1401L87.1273 202.273H89.177ZM98.7875 211.128C98.1142 211.128 97.5346 210.991 97.0488 210.719C96.5659 210.443 96.1937 210.054 95.9324 209.551C95.671 209.045 95.5403 208.447 95.5403 207.757C95.5403 207.084 95.671 206.493 95.9324 205.984C96.1937 205.476 96.5616 205.08 97.036 204.795C97.5133 204.511 98.073 204.369 98.715 204.369C99.1468 204.369 99.5488 204.439 99.921 204.578C100.296 204.714 100.623 204.92 100.901 205.196C101.182 205.472 101.401 205.818 101.557 206.236C101.714 206.651 101.792 207.136 101.792 207.693V208.192H96.2647V207.067H100.083C100.083 206.805 100.026 206.574 99.9125 206.372C99.7988 206.17 99.6412 206.013 99.4395 205.899C99.2406 205.783 99.0091 205.724 98.7449 205.724C98.4693 205.724 98.225 205.788 98.0119 205.916C97.8017 206.041 97.6369 206.21 97.5176 206.423C97.3983 206.634 97.3372 206.868 97.3343 207.126V208.196C97.3343 208.52 97.394 208.8 97.5133 209.036C97.6355 209.271 97.8074 209.453 98.0289 209.581C98.2505 209.709 98.5133 209.773 98.8173 209.773C99.019 209.773 99.2037 209.744 99.3713 209.688C99.5389 209.631 99.6824 209.545 99.8017 209.432C99.921 209.318 100.012 209.179 100.074 209.014L101.753 209.125C101.668 209.528 101.493 209.881 101.229 210.182C100.968 210.48 100.63 210.713 100.215 210.881C99.8031 211.045 99.3272 211.128 98.7875 211.128ZM105.934 211.128C105.263 211.128 104.687 210.986 104.204 210.702C103.724 210.415 103.354 210.017 103.096 209.509C102.84 209 102.712 208.415 102.712 207.753C102.712 207.082 102.841 206.494 103.1 205.989C103.361 205.48 103.732 205.084 104.212 204.8C104.692 204.513 105.263 204.369 105.925 204.369C106.496 204.369 106.996 204.473 107.425 204.68C107.854 204.888 108.194 205.179 108.444 205.554C108.694 205.929 108.831 206.369 108.857 206.875H107.144C107.096 206.548 106.968 206.286 106.76 206.087C106.556 205.885 106.287 205.784 105.955 205.784C105.674 205.784 105.428 205.861 105.218 206.014C105.01 206.165 104.849 206.385 104.732 206.675C104.616 206.964 104.557 207.315 104.557 207.727C104.557 208.145 104.614 208.5 104.728 208.793C104.844 209.085 105.008 209.308 105.218 209.462C105.428 209.615 105.674 209.692 105.955 209.692C106.162 209.692 106.349 209.649 106.513 209.564C106.681 209.479 106.819 209.355 106.927 209.193C107.037 209.028 107.11 208.831 107.144 208.601H108.857C108.829 209.101 108.692 209.541 108.448 209.922C108.206 210.3 107.873 210.595 107.447 210.808C107.02 211.021 106.516 211.128 105.934 211.128ZM113.501 204.455V205.818H109.559V204.455H113.501ZM110.454 202.886H112.269V208.989C112.269 209.156 112.295 209.287 112.346 209.381C112.397 209.472 112.468 209.536 112.559 209.572C112.653 209.609 112.761 209.628 112.883 209.628C112.968 209.628 113.053 209.621 113.139 209.607C113.224 209.589 113.289 209.577 113.335 209.568L113.62 210.919C113.529 210.947 113.401 210.98 113.237 211.017C113.072 211.057 112.872 211.081 112.636 211.089C112.198 211.107 111.815 211.048 111.485 210.915C111.159 210.781 110.904 210.574 110.722 210.293C110.541 210.011 110.451 209.656 110.454 209.227V202.886ZM117.57 211.128C116.909 211.128 116.336 210.987 115.853 210.706C115.373 210.422 115.002 210.027 114.741 209.521C114.48 209.013 114.349 208.423 114.349 207.753C114.349 207.077 114.48 206.486 114.741 205.98C115.002 205.472 115.373 205.077 115.853 204.795C116.336 204.511 116.909 204.369 117.57 204.369C118.232 204.369 118.803 204.511 119.284 204.795C119.767 205.077 120.139 205.472 120.4 205.98C120.661 206.486 120.792 207.077 120.792 207.753C120.792 208.423 120.661 209.013 120.4 209.521C120.139 210.027 119.767 210.422 119.284 210.706C118.803 210.987 118.232 211.128 117.57 211.128ZM117.579 209.722C117.88 209.722 118.132 209.636 118.333 209.466C118.535 209.293 118.687 209.057 118.789 208.759C118.894 208.46 118.947 208.121 118.947 207.74C118.947 207.359 118.894 207.02 118.789 206.722C118.687 206.423 118.535 206.187 118.333 206.014C118.132 205.841 117.88 205.754 117.579 205.754C117.275 205.754 117.019 205.841 116.812 206.014C116.607 206.187 116.453 206.423 116.347 206.722C116.245 207.02 116.194 207.359 116.194 207.74C116.194 208.121 116.245 208.46 116.347 208.759C116.453 209.057 116.607 209.293 116.812 209.466C117.019 209.636 117.275 209.722 117.579 209.722ZM121.972 211V204.455H123.732V205.597H123.801C123.92 205.19 124.12 204.884 124.401 204.676C124.683 204.466 125.007 204.361 125.373 204.361C125.464 204.361 125.562 204.366 125.667 204.378C125.772 204.389 125.865 204.405 125.944 204.425V206.036C125.859 206.01 125.741 205.987 125.59 205.967C125.44 205.947 125.302 205.938 125.177 205.938C124.91 205.938 124.671 205.996 124.461 206.112C124.254 206.226 124.089 206.385 123.967 206.589C123.847 206.794 123.788 207.03 123.788 207.297V211H121.972Z" fill="#0B0755"/>
<path d="M728.493 127.533C741.384 143.085 749.586 161.982 752.143 182.019C754.7 202.056 751.506 222.408 742.933 240.698C734.361 258.989 720.763 274.464 703.727 285.318C686.692 296.172 666.92 301.958 646.72 302C626.521 302.042 606.726 296.338 589.645 285.554C572.564 274.771 558.903 259.352 550.255 241.097C541.606 222.842 538.328 202.504 540.802 182.456C543.276 162.409 551.4 143.478 564.227 127.873L576.568 138.017C565.665 151.281 558.759 167.372 556.657 184.413C554.554 201.454 557.34 218.741 564.691 234.257C572.042 249.774 583.655 262.88 598.173 272.046C612.692 281.212 629.518 286.06 646.687 286.025C663.857 285.989 680.663 281.072 695.143 271.845C709.624 262.619 721.182 249.465 728.468 233.918C735.755 218.371 738.47 201.073 736.297 184.041C734.123 167.009 727.151 150.947 716.194 137.728L728.493 127.533Z" fill="#A8D8E8"/>
<path d="M564.005 128.144C573.964 115.947 586.503 106.11 600.721 99.3413C614.938 92.5728 630.479 89.0411 646.225 89.0004C661.971 88.9596 677.53 92.411 691.782 99.1059C706.034 105.801 718.624 115.573 728.645 127.718L716.323 137.885C707.805 127.562 697.103 119.256 684.989 113.565C672.875 107.874 659.65 104.941 646.266 104.975C632.882 105.01 619.672 108.012 607.587 113.765C595.503 119.518 584.844 127.88 576.38 138.247L564.005 128.144Z" fill="#1E79B7"/>
<path d="M564.047 128.093C568.285 122.908 573.003 118.135 578.138 113.837L588.393 126.086C584.028 129.74 580.018 133.797 576.415 138.204L564.047 128.093Z" fill="#F38300"/>
<path d="M714.553 113.579C719.705 117.859 724.44 122.614 728.698 127.782L716.369 137.94C712.749 133.547 708.724 129.505 704.345 125.868L714.553 113.579Z" fill="#3A035D"/>
<path d="M637.035 89.4214C643.705 88.8263 650.416 88.8616 657.08 89.5268L655.493 105.423C649.829 104.857 644.124 104.827 638.455 105.333L637.035 89.4214Z" fill="#E75A46"/>
<path d="M608.61 203V194.273H614.388V195.794H610.455V197.874H614.005V199.395H610.455V203H608.61ZM615.596 203V196.455H617.411V203H615.596ZM616.507 195.611C616.238 195.611 616.006 195.521 615.813 195.342C615.623 195.161 615.527 194.943 615.527 194.69C615.527 194.44 615.623 194.226 615.813 194.047C616.006 193.865 616.238 193.774 616.507 193.774C616.777 193.774 617.007 193.865 617.198 194.047C617.391 194.226 617.488 194.44 617.488 194.69C617.488 194.943 617.391 195.161 617.198 195.342C617.007 195.521 616.777 195.611 616.507 195.611ZM620.68 199.216V203H618.865V196.455H620.595V197.609H620.672C620.817 197.229 621.06 196.928 621.401 196.706C621.741 196.482 622.155 196.369 622.641 196.369C623.095 196.369 623.491 196.469 623.83 196.668C624.168 196.866 624.43 197.151 624.618 197.52C624.805 197.886 624.899 198.324 624.899 198.832V203H623.084V199.156C623.087 198.756 622.984 198.443 622.777 198.219C622.57 197.991 622.284 197.878 621.92 197.878C621.676 197.878 621.46 197.93 621.273 198.036C621.088 198.141 620.943 198.294 620.838 198.496C620.736 198.695 620.683 198.935 620.68 199.216ZM628.196 203.124C627.779 203.124 627.407 203.051 627.08 202.906C626.753 202.759 626.495 202.541 626.304 202.254C626.117 201.964 626.023 201.604 626.023 201.172C626.023 200.808 626.09 200.503 626.223 200.256C626.357 200.009 626.539 199.81 626.769 199.659C626.999 199.509 627.26 199.395 627.553 199.318C627.848 199.241 628.158 199.188 628.482 199.156C628.863 199.116 629.169 199.08 629.402 199.045C629.635 199.009 629.804 198.955 629.909 198.884C630.015 198.812 630.067 198.707 630.067 198.568V198.543C630.067 198.273 629.982 198.064 629.811 197.916C629.644 197.768 629.405 197.695 629.096 197.695C628.769 197.695 628.509 197.767 628.316 197.912C628.123 198.054 627.995 198.233 627.932 198.449L626.253 198.312C626.338 197.915 626.506 197.571 626.756 197.281C627.006 196.989 627.328 196.764 627.723 196.608C628.121 196.449 628.581 196.369 629.104 196.369C629.468 196.369 629.816 196.412 630.148 196.497C630.483 196.582 630.78 196.714 631.039 196.893C631.3 197.072 631.506 197.303 631.657 197.584C631.807 197.862 631.882 198.196 631.882 198.585V203H630.161V202.092H630.11C630.005 202.297 629.864 202.477 629.688 202.634C629.512 202.787 629.3 202.908 629.053 202.996C628.806 203.081 628.52 203.124 628.196 203.124ZM628.716 201.871C628.983 201.871 629.219 201.818 629.424 201.713C629.628 201.605 629.789 201.46 629.905 201.278C630.022 201.097 630.08 200.891 630.08 200.661V199.966C630.023 200.003 629.945 200.037 629.846 200.068C629.749 200.097 629.64 200.124 629.517 200.149C629.395 200.172 629.273 200.193 629.151 200.213C629.029 200.23 628.918 200.246 628.819 200.26C628.605 200.291 628.419 200.341 628.26 200.409C628.101 200.477 627.978 200.57 627.89 200.686C627.801 200.8 627.757 200.942 627.757 201.112C627.757 201.359 627.847 201.548 628.026 201.679C628.208 201.807 628.438 201.871 628.716 201.871ZM635.106 194.273V203H633.291V194.273H635.106ZM639.372 203V194.273H642.815C643.477 194.273 644.041 194.399 644.507 194.652C644.973 194.902 645.328 195.25 645.572 195.696C645.819 196.139 645.943 196.651 645.943 197.23C645.943 197.81 645.818 198.321 645.568 198.764C645.318 199.207 644.956 199.553 644.481 199.8C644.01 200.047 643.439 200.17 642.768 200.17H640.574V198.692H642.47C642.825 198.692 643.118 198.631 643.348 198.509C643.581 198.384 643.754 198.212 643.868 197.993C643.984 197.771 644.042 197.517 644.042 197.23C644.042 196.94 643.984 196.687 643.868 196.472C643.754 196.253 643.581 196.084 643.348 195.964C643.115 195.842 642.819 195.781 642.461 195.781H641.217V203H639.372ZM647.107 203V196.455H648.867V197.597H648.935C649.055 197.19 649.255 196.884 649.536 196.676C649.817 196.466 650.141 196.361 650.508 196.361C650.599 196.361 650.697 196.366 650.802 196.378C650.907 196.389 650.999 196.405 651.079 196.425V198.036C650.994 198.01 650.876 197.987 650.725 197.967C650.575 197.947 650.437 197.938 650.312 197.938C650.045 197.938 649.806 197.996 649.596 198.112C649.388 198.226 649.224 198.385 649.102 198.589C648.982 198.794 648.923 199.03 648.923 199.297V203H647.107ZM654.67 203.128C654.008 203.128 653.436 202.987 652.953 202.706C652.473 202.422 652.102 202.027 651.841 201.521C651.579 201.013 651.449 200.423 651.449 199.753C651.449 199.077 651.579 198.486 651.841 197.98C652.102 197.472 652.473 197.077 652.953 196.795C653.436 196.511 654.008 196.369 654.67 196.369C655.332 196.369 655.903 196.511 656.383 196.795C656.866 197.077 657.238 197.472 657.5 197.98C657.761 198.486 657.892 199.077 657.892 199.753C657.892 200.423 657.761 201.013 657.5 201.521C657.238 202.027 656.866 202.422 656.383 202.706C655.903 202.987 655.332 203.128 654.67 203.128ZM654.679 201.722C654.98 201.722 655.231 201.636 655.433 201.466C655.635 201.293 655.787 201.057 655.889 200.759C655.994 200.46 656.047 200.121 656.047 199.74C656.047 199.359 655.994 199.02 655.889 198.722C655.787 198.423 655.635 198.187 655.433 198.014C655.231 197.841 654.98 197.754 654.679 197.754C654.375 197.754 654.119 197.841 653.912 198.014C653.707 198.187 653.552 198.423 653.447 198.722C653.345 199.02 653.294 199.359 653.294 199.74C653.294 200.121 653.345 200.46 653.447 200.759C653.552 201.057 653.707 201.293 653.912 201.466C654.119 201.636 654.375 201.722 654.679 201.722ZM661.484 203.107C660.987 203.107 660.537 202.979 660.133 202.723C659.733 202.464 659.414 202.085 659.179 201.585C658.946 201.082 658.829 200.466 658.829 199.736C658.829 198.986 658.95 198.362 659.191 197.865C659.433 197.365 659.754 196.991 660.154 196.744C660.558 196.494 661 196.369 661.48 196.369C661.846 196.369 662.152 196.432 662.396 196.557C662.643 196.679 662.842 196.832 662.993 197.017C663.146 197.199 663.262 197.378 663.342 197.554H663.397V194.273H665.208V203H663.419V201.952H663.342C663.257 202.134 663.136 202.314 662.98 202.493C662.826 202.669 662.626 202.815 662.379 202.932C662.135 203.048 661.836 203.107 661.484 203.107ZM662.059 201.662C662.352 201.662 662.599 201.582 662.801 201.423C663.005 201.261 663.162 201.036 663.27 200.746C663.38 200.456 663.436 200.116 663.436 199.727C663.436 199.338 663.382 199 663.274 198.713C663.166 198.426 663.01 198.205 662.805 198.048C662.6 197.892 662.352 197.814 662.059 197.814C661.761 197.814 661.51 197.895 661.305 198.057C661.1 198.219 660.946 198.443 660.841 198.73C660.735 199.017 660.683 199.349 660.683 199.727C660.683 200.108 660.735 200.445 660.841 200.737C660.949 201.027 661.103 201.254 661.305 201.419C661.51 201.581 661.761 201.662 662.059 201.662ZM670.898 200.213V196.455H672.714V203H670.971V201.811H670.903C670.755 202.195 670.509 202.503 670.165 202.736C669.825 202.969 669.408 203.085 668.917 203.085C668.479 203.085 668.094 202.986 667.762 202.787C667.43 202.588 667.17 202.305 666.982 201.939C666.798 201.572 666.704 201.134 666.701 200.622V196.455H668.516V200.298C668.519 200.685 668.623 200.99 668.827 201.214C669.032 201.439 669.306 201.551 669.65 201.551C669.869 201.551 670.073 201.501 670.263 201.402C670.454 201.3 670.607 201.149 670.724 200.95C670.843 200.751 670.901 200.506 670.898 200.213ZM677.123 203.128C676.453 203.128 675.876 202.986 675.393 202.702C674.913 202.415 674.544 202.017 674.285 201.509C674.029 201 673.902 200.415 673.902 199.753C673.902 199.082 674.031 198.494 674.289 197.989C674.551 197.48 674.922 197.084 675.402 196.8C675.882 196.513 676.453 196.369 677.115 196.369C677.686 196.369 678.186 196.473 678.615 196.68C679.044 196.888 679.383 197.179 679.633 197.554C679.883 197.929 680.021 198.369 680.047 198.875H678.333C678.285 198.548 678.157 198.286 677.95 198.087C677.745 197.885 677.477 197.784 677.145 197.784C676.863 197.784 676.618 197.861 676.407 198.014C676.2 198.165 676.038 198.385 675.922 198.675C675.805 198.964 675.747 199.315 675.747 199.727C675.747 200.145 675.804 200.5 675.917 200.793C676.034 201.085 676.197 201.308 676.407 201.462C676.618 201.615 676.863 201.692 677.145 201.692C677.352 201.692 677.538 201.649 677.703 201.564C677.87 201.479 678.008 201.355 678.116 201.193C678.227 201.028 678.299 200.831 678.333 200.601H680.047C680.018 201.101 679.882 201.541 679.637 201.922C679.396 202.3 679.062 202.595 678.636 202.808C678.21 203.021 677.706 203.128 677.123 203.128ZM684.69 196.455V197.818H680.749V196.455H684.69ZM681.643 194.886H683.459V200.989C683.459 201.156 683.484 201.287 683.536 201.381C683.587 201.472 683.658 201.536 683.749 201.572C683.842 201.609 683.95 201.628 684.072 201.628C684.158 201.628 684.243 201.621 684.328 201.607C684.413 201.589 684.479 201.577 684.524 201.568L684.81 202.919C684.719 202.947 684.591 202.98 684.426 203.017C684.261 203.057 684.061 203.081 683.825 203.089C683.388 203.107 683.004 203.048 682.675 202.915C682.348 202.781 682.094 202.574 681.912 202.293C681.73 202.011 681.641 201.656 681.643 201.227V194.886Z" fill="#0B0755"/>
<path d="M598.487 84.2727V93H596.641V84.2727H598.487ZM603.75 84.2727V93H601.905V86.0241H601.854L599.855 87.277V85.6406L602.016 84.2727H603.75Z" fill="#0B0755"/>
<path d="M687.643 84.2727V93H685.798V84.2727H687.643ZM689.11 93V91.6705L692.216 88.794C692.48 88.5384 692.702 88.3082 692.881 88.1037C693.063 87.8991 693.201 87.6989 693.294 87.5028C693.388 87.304 693.435 87.0895 693.435 86.8594C693.435 86.6037 693.377 86.3835 693.26 86.1989C693.144 86.0114 692.985 85.8679 692.783 85.7685C692.581 85.6662 692.353 85.6151 692.097 85.6151C691.83 85.6151 691.597 85.669 691.398 85.777C691.199 85.8849 691.046 86.0398 690.938 86.2415C690.83 86.4432 690.776 86.6832 690.776 86.9616H689.025C689.025 86.3906 689.154 85.8949 689.412 85.4744C689.671 85.054 690.033 84.7287 690.499 84.4986C690.965 84.2685 691.502 84.1534 692.11 84.1534C692.735 84.1534 693.279 84.2642 693.742 84.4858C694.208 84.7045 694.57 85.0085 694.828 85.3977C695.087 85.7869 695.216 86.233 695.216 86.7358C695.216 87.0653 695.151 87.3906 695.02 87.7116C694.892 88.0327 694.664 88.3892 694.334 88.7812C694.005 89.1705 693.54 89.6378 692.941 90.1832L691.667 91.4318V91.4915H695.331V93H689.11Z" fill="#0B0755"/>
</svg>
