<?xml version="1.0" encoding="UTF-8"?>
<svg id="Layer_1" xmlns="http://www.w3.org/2000/svg" version="1.1" viewBox="0 0 753 367">
  <!-- Generator: Adobe Illustrator 29.5.1, SVG Export Plug-In . SVG Version: 2.1.0 Build 141)  -->
  <defs>
    <style>
      .st0 {
        font-family: Arial-Mdm, Arial;
        font-size: 12px;
        font-weight: 500;
        stroke: #231f20;
        stroke-miterlimit: 10;
        stroke-width: .25px;
      }

      .st1 {
        fill: #a8d8e8;
      }

      .st2 {
        fill: #fff;
      }

      .st3 {
        fill: none;
        stroke: #61a5fb;
        stroke-dasharray: 2 2;
      }

      .st4 {
        fill: #3c82f5;
      }

      .st5 {
        fill: #1b76b3;
      }

      .st6 {
        fill: #1e79b7;
      }

      .st7 {
        fill: #ec4799;
      }

      .st8 {
        fill: #f49d0d;
      }

      .st9 {
        fill: #0b0755;
      }

      .st10 {
        fill: #0bb980;
      }
    </style>
  </defs>
  <rect class="st2" y="0" width="753" height="367"/>
  <path class="st9" d="M262.5,184l-10-5.77v11.55l10-5.77ZM221,184v1h32.5v-2h-32.5v1Z"/>
  <path class="st9" d="M531.5,184l-10-5.77v11.55l10-5.77ZM490,184v1h32.5v-2h-32.5v1Z"/>
  <path class="st1" d="M459.49,125.53c12.89,15.55,21.09,34.45,23.65,54.49s-.64,40.39-9.21,58.68c-8.57,18.29-22.17,33.77-39.21,44.62-17.04,10.85-36.81,16.64-57.01,16.68-20.2.04-39.99-5.66-57.08-16.45-17.08-10.78-30.74-26.2-39.39-44.46-8.65-18.26-11.93-38.59-9.45-58.64,2.47-20.05,10.6-38.98,23.42-54.58l12.34,10.14c-10.9,13.26-17.81,29.35-19.91,46.4-2.1,17.04.68,34.33,8.03,49.84,7.35,15.52,18.96,28.62,33.48,37.79,14.52,9.17,31.35,14.01,48.51,13.98,17.17-.04,33.98-4.95,48.46-14.18,14.48-9.23,26.04-22.38,33.32-37.93,7.29-15.55,10-32.85,7.83-49.88-2.17-17.03-9.15-33.09-20.1-46.31l12.3-10.19Z"/>
  <path class="st4" d="M295.19,125.91c4.25-5.18,8.98-9.94,14.12-14.22l10.23,12.27c-4.37,3.64-8.39,7.69-12,12.09l-12.35-10.14Z"/>
  <path class="st8" d="M445.3,111.37c5.16,4.26,9.92,9,14.19,14.16l-12.3,10.2c-3.63-4.38-7.67-8.41-12.06-12.04l10.17-12.32Z"/>
  <path class="st9" d="M347.47,194h-3.09v-8.73h3.12c.88,0,1.63.17,2.27.52.63.35,1.12.85,1.46,1.5.34.65.52,1.43.52,2.34s-.17,1.69-.52,2.34c-.34.65-.83,1.15-1.47,1.5-.64.35-1.4.52-2.28.52ZM346.23,192.42h1.17c.54,0,1-.1,1.38-.29.38-.2.66-.5.84-.91.19-.41.29-.94.29-1.59s-.1-1.17-.29-1.58c-.19-.41-.47-.71-.84-.9-.37-.19-.83-.29-1.38-.29h-1.18v5.57ZM356.06,194.13c-.67,0-1.25-.14-1.74-.41-.48-.28-.86-.66-1.12-1.17-.26-.51-.39-1.1-.39-1.79s.13-1.26.39-1.77c.26-.51.63-.9,1.1-1.19.48-.28,1.04-.43,1.68-.43.43,0,.83.07,1.2.21.38.14.7.34.98.62.28.28.5.62.66,1.04.16.42.23.9.23,1.46v.5h-5.53v-1.12h3.82c0-.26-.06-.49-.17-.7-.11-.2-.27-.36-.47-.47-.2-.12-.43-.18-.7-.18s-.52.06-.73.19c-.21.12-.38.29-.49.51-.12.21-.18.44-.18.7v1.07c0,.32.06.6.18.84.12.24.29.42.51.54.22.13.49.19.79.19.2,0,.39-.03.55-.08.17-.06.31-.14.43-.26.12-.11.21-.25.27-.42l1.68.11c-.08.4-.26.76-.52,1.06-.26.3-.6.53-1.01.7-.41.16-.89.25-1.43.25ZM365.69,189.32l-1.66.1c-.03-.14-.09-.27-.18-.38-.09-.12-.22-.21-.37-.28-.15-.07-.33-.11-.54-.11-.28,0-.52.06-.71.18-.19.12-.29.27-.29.47,0,.16.06.29.19.4s.34.2.64.26l1.18.24c.64.13,1.11.34,1.42.63.31.29.47.67.47,1.14,0,.43-.13.8-.38,1.13-.25.32-.59.58-1.03.76-.44.18-.94.27-1.51.27-.87,0-1.56-.18-2.07-.54-.51-.36-.81-.86-.9-1.48l1.79-.09c.05.26.18.47.39.61.21.14.47.21.8.21s.57-.06.77-.18c.2-.12.29-.29.3-.48,0-.16-.07-.3-.21-.4-.14-.11-.35-.19-.63-.25l-1.13-.23c-.64-.13-1.11-.35-1.43-.66-.31-.32-.46-.72-.46-1.21,0-.42.11-.78.34-1.09.23-.3.55-.54.97-.7.42-.16.91-.25,1.47-.25.83,0,1.48.18,1.95.52.48.35.76.83.83,1.43ZM370.47,187.46v1.36h-3.94v-1.36h3.94ZM367.42,185.89h1.82v6.1c0,.17.03.3.08.39.05.09.12.15.21.19.09.04.2.06.32.06.08,0,.17,0,.26-.02.09-.02.15-.03.2-.04l.29,1.35c-.09.03-.22.06-.38.1-.16.04-.36.06-.6.07-.44.02-.82-.04-1.15-.17-.33-.13-.58-.34-.76-.62-.18-.28-.27-.64-.27-1.07v-6.34ZM371.65,194v-6.54h1.82v6.54h-1.82ZM372.56,186.61c-.27,0-.5-.09-.69-.27-.19-.18-.29-.4-.29-.65s.1-.46.29-.64c.19-.18.42-.27.69-.27s.5.09.69.27c.19.18.29.39.29.64s-.1.47-.29.65c-.19.18-.42.27-.69.27ZM376.73,190.22v3.78h-1.81v-6.54h1.73v1.15h.08c.14-.38.39-.68.73-.9.34-.22.76-.34,1.24-.34.45,0,.85.1,1.19.3.34.2.6.48.79.85.19.37.28.8.28,1.31v4.17h-1.82v-3.84c0-.4-.1-.71-.31-.94-.21-.23-.49-.34-.86-.34-.24,0-.46.05-.65.16-.18.11-.33.26-.43.46-.1.2-.15.44-.16.72ZM384.25,194.12c-.42,0-.79-.07-1.12-.22-.33-.15-.59-.37-.78-.65-.19-.29-.28-.65-.28-1.08,0-.36.07-.67.2-.92.13-.25.31-.45.55-.6.23-.15.49-.26.78-.34.3-.08.61-.13.93-.16.38-.04.69-.08.92-.11.23-.04.4-.09.51-.16.11-.07.16-.18.16-.32v-.02c0-.27-.09-.48-.26-.63-.17-.15-.41-.22-.72-.22-.33,0-.59.07-.78.22-.19.14-.32.32-.38.54l-1.68-.14c.08-.4.25-.74.5-1.03.25-.29.57-.52.97-.67.4-.16.86-.24,1.38-.24.36,0,.71.04,1.04.13.33.09.63.22.89.4.26.18.47.41.62.69.15.28.23.61.23,1v4.41h-1.72v-.91h-.05c-.11.21-.24.39-.42.54-.18.15-.39.27-.64.36-.25.08-.53.13-.86.13ZM384.77,192.87c.27,0,.5-.05.71-.16.21-.11.36-.25.48-.43.12-.18.18-.39.18-.62v-.69c-.06.04-.14.07-.24.1-.1.03-.21.06-.33.08-.12.02-.24.04-.37.06-.12.02-.23.03-.33.05-.21.03-.4.08-.56.15-.16.07-.28.16-.37.28-.09.11-.13.26-.13.43,0,.25.09.44.27.57.18.13.41.19.69.19ZM392.83,187.46v1.36h-3.94v-1.36h3.94ZM389.78,185.89h1.82v6.1c0,.17.02.3.08.39.05.09.12.15.21.19.09.04.2.06.32.06.08,0,.17,0,.26-.02.08-.02.15-.03.2-.04l.29,1.35c-.09.03-.22.06-.38.1-.16.04-.36.06-.6.07-.44.02-.82-.04-1.15-.17-.33-.13-.58-.34-.76-.62-.18-.28-.27-.64-.27-1.07v-6.34ZM394.01,194v-6.54h1.82v6.54h-1.82ZM394.92,186.61c-.27,0-.5-.09-.7-.27-.19-.18-.29-.4-.29-.65s.1-.46.29-.64c.19-.18.43-.27.7-.27s.5.09.69.27c.19.18.29.39.29.64s-.1.47-.29.65c-.19.18-.42.27-.69.27ZM400.24,194.13c-.66,0-1.23-.14-1.72-.42-.48-.28-.85-.68-1.11-1.18-.26-.51-.39-1.1-.39-1.77s.13-1.27.39-1.77c.26-.51.63-.9,1.11-1.18.48-.28,1.06-.43,1.72-.43s1.23.14,1.71.43c.48.28.85.68,1.12,1.18.26.51.39,1.1.39,1.77s-.13,1.26-.39,1.77c-.26.51-.63.9-1.12,1.18-.48.28-1.05.42-1.71.42ZM400.24,192.72c.3,0,.55-.09.75-.26.2-.17.35-.41.46-.71.11-.3.16-.64.16-1.02s-.05-.72-.16-1.02c-.1-.3-.25-.54-.46-.71-.2-.17-.45-.26-.75-.26s-.56.09-.77.26c-.2.17-.36.41-.46.71-.1.3-.15.64-.15,1.02s.05.72.15,1.02c.11.3.26.53.46.71.21.17.46.26.77.26ZM406.45,190.22v3.78h-1.82v-6.54h1.73v1.15h.08c.14-.38.39-.68.73-.9.34-.22.75-.34,1.24-.34.45,0,.85.1,1.19.3.34.2.6.48.79.85.19.37.28.8.28,1.31v4.17h-1.82v-3.84c0-.4-.1-.71-.31-.94-.21-.23-.49-.34-.86-.34-.24,0-.46.05-.65.16-.18.11-.33.26-.43.46-.1.2-.15.44-.16.72ZM360.18,200.27l2.11,6.63h.08l2.11-6.63h2.05l-3.01,8.73h-2.38l-3.01-8.73h2.05ZM369.79,209.13c-.67,0-1.25-.14-1.74-.41-.48-.28-.86-.66-1.12-1.17-.26-.51-.39-1.1-.39-1.79s.13-1.26.39-1.77c.26-.51.63-.9,1.1-1.19.48-.28,1.04-.43,1.68-.43.43,0,.83.07,1.21.21.38.14.7.34.98.62.28.28.5.62.66,1.04.16.42.23.9.23,1.46v.5h-5.53v-1.12h3.82c0-.26-.06-.49-.17-.7-.11-.2-.27-.36-.47-.47-.2-.12-.43-.18-.69-.18s-.52.06-.73.19c-.21.12-.38.29-.49.51-.12.21-.18.44-.18.7v1.07c0,.32.06.6.18.84.12.24.29.42.52.54.22.13.48.19.79.19.2,0,.39-.03.55-.08.17-.06.31-.14.43-.26.12-.11.21-.25.27-.42l1.68.11c-.08.4-.26.76-.52,1.06-.26.3-.6.53-1.01.7-.41.16-.89.25-1.43.25ZM376.93,209.13c-.67,0-1.25-.14-1.73-.43-.48-.29-.85-.68-1.11-1.19-.26-.51-.38-1.09-.38-1.76s.13-1.26.39-1.76c.26-.51.63-.9,1.11-1.19.48-.29,1.05-.43,1.71-.43.57,0,1.07.1,1.5.31.43.21.77.5,1.02.87s.39.82.41,1.32h-1.71c-.05-.33-.18-.59-.38-.79-.2-.2-.47-.3-.81-.3-.28,0-.53.08-.74.23-.21.15-.37.37-.49.66-.12.29-.17.64-.17,1.05s.06.77.17,1.07c.12.29.28.51.49.67.21.15.46.23.74.23.21,0,.39-.04.56-.13.17-.08.31-.21.41-.37.11-.16.18-.36.22-.59h1.71c-.03.5-.17.94-.41,1.32-.24.38-.58.67-1,.89-.43.21-.93.32-1.51.32ZM384.5,202.46v1.36h-3.94v-1.36h3.94ZM381.45,200.89h1.82v6.1c0,.17.03.3.08.39.05.09.12.15.21.19.09.04.2.06.32.06.08,0,.17,0,.26-.02.08-.02.15-.03.2-.04l.29,1.35c-.09.03-.22.06-.38.1-.17.04-.36.06-.6.07-.44.02-.82-.04-1.15-.17-.33-.13-.58-.34-.76-.62-.18-.28-.27-.64-.27-1.07v-6.34ZM388.57,209.13c-.66,0-1.23-.14-1.72-.42-.48-.28-.85-.68-1.11-1.18-.26-.51-.39-1.1-.39-1.77s.13-1.27.39-1.77c.26-.51.63-.9,1.11-1.18.48-.28,1.06-.43,1.72-.43s1.23.14,1.71.43c.48.28.86.68,1.12,1.18.26.51.39,1.1.39,1.77s-.13,1.26-.39,1.77c-.26.51-.63.9-1.12,1.18-.48.28-1.05.42-1.71.42ZM388.58,207.72c.3,0,.55-.09.75-.26.2-.17.35-.41.46-.71.11-.3.16-.64.16-1.02s-.05-.72-.16-1.02c-.1-.3-.25-.54-.46-.71-.2-.17-.45-.26-.75-.26s-.56.09-.77.26c-.21.17-.36.41-.47.71-.1.3-.15.64-.15,1.02s.05.72.15,1.02c.11.3.26.53.47.71.21.17.46.26.77.26ZM392.97,209v-6.54h1.76v1.14h.07c.12-.41.32-.71.6-.92.28-.21.61-.32.97-.32.09,0,.19,0,.29.02.11.01.2.03.28.05v1.61c-.08-.03-.2-.05-.35-.07-.15-.02-.29-.03-.41-.03-.27,0-.51.06-.72.17-.21.11-.37.27-.49.48-.12.21-.18.44-.18.71v3.7h-1.82Z"/>
  <path class="st5" d="M289.86,87.16c13.02-11.05,28.02-19.53,44.2-25.01l5.65,16.69c-14.07,4.76-27.12,12.15-38.45,21.76l-11.39-13.43Z"/>
  <path class="st5" d="M354.64,24.57c15.43-2.13,31.09-2.09,46.51.11l-2.6,18.24c-13.73-1.96-27.66-1.99-41.4-.1l-2.51-18.25Z"/>
  <path class="st4" d="M272.07,105.38c5.35-6.63,11.32-12.74,17.82-18.25l11.39,13.44c-5.65,4.79-10.84,10.11-15.5,15.88l-13.71-11.06Z"/>
  <path class="st7" d="M334.06,62.15c8.07-2.73,16.38-4.7,24.82-5.87l2.42,17.45c-7.34,1.02-14.57,2.73-21.59,5.1l-5.65-16.69Z"/>
  <path class="st5" d="M421.45,62.33c16.15,5.54,31.12,14.08,44.1,25.18l-11.45,13.39c-11.29-9.65-24.31-17.09-38.36-21.91l5.71-16.66Z"/>
  <path class="st10" d="M396.68,56.36c8.43,1.21,16.74,3.2,24.79,5.97l-5.72,16.66c-7.01-2.41-14.23-4.14-21.57-5.19l2.49-17.44Z"/>
  <path class="st8" d="M465.46,87.43c6.48,5.53,12.43,11.66,17.76,18.31l-13.74,11.02c-4.64-5.78-9.81-11.11-15.45-15.93l11.43-13.4Z"/>
  <path class="st10" d="M401.13,24.68c10.43,1.49,20.69,3.95,30.65,7.37l-5.97,17.43c-8.87-3.04-18-5.23-27.28-6.56l2.6-18.24Z"/>
  <path class="st7" d="M324.12,31.73c9.98-3.36,20.26-5.76,30.7-7.19l2.49,18.26c-9.29,1.27-18.43,3.41-27.32,6.4l-5.87-17.46Z"/>
  <path class="st9" d="M286.7,68.01l4.36,7.56-1.6.92-4.36-7.56,1.6-.92ZM292.03,70.64l1.89,3.28-1.57.91-3.27-5.67,1.5-.87.58,1,.07-.04c-.06-.4,0-.78.18-1.15.18-.36.49-.67.9-.91.39-.23.79-.34,1.18-.34.39,0,.76.12,1.11.34.35.22.65.56.9,1l2.08,3.61-1.57.91-1.92-3.33c-.2-.35-.44-.57-.74-.66-.29-.09-.6-.05-.91.13-.21.12-.37.28-.48.46-.11.18-.16.39-.15.62.01.22.09.46.22.7ZM301.19,64.32l-1.39.92c-.1-.11-.21-.19-.35-.24-.14-.05-.29-.07-.46-.05-.17.01-.34.07-.52.18-.24.14-.42.31-.53.51-.11.2-.12.38-.02.55.08.14.2.22.36.25.16.03.39,0,.69-.1l1.15-.39c.62-.21,1.13-.26,1.55-.17.42.09.74.35.98.75.21.37.29.76.24,1.17-.05.41-.23.8-.51,1.17-.29.37-.68.7-1.17.98-.75.43-1.44.62-2.06.57-.62-.06-1.13-.34-1.52-.83l1.5-.97c.18.2.39.31.64.33.25.01.51-.06.79-.22.28-.16.47-.34.57-.54.11-.21.11-.39.02-.57-.08-.14-.21-.22-.38-.25-.17-.03-.4,0-.67.1l-1.1.37c-.62.21-1.14.25-1.57.14-.43-.12-.76-.39-1.01-.81-.21-.36-.29-.73-.25-1.11.05-.38.21-.74.49-1.09.28-.35.66-.67,1.15-.95.72-.41,1.37-.59,1.95-.52.59.06,1.07.34,1.44.82ZM307.29,66.35c-.58.34-1.15.51-1.71.51-.56,0-1.07-.15-1.55-.45-.48-.31-.89-.76-1.24-1.36-.34-.58-.52-1.16-.55-1.73-.03-.57.09-1.1.36-1.58.27-.48.69-.89,1.24-1.21.37-.22.76-.36,1.15-.42.39-.07.78-.05,1.16.05.38.1.74.29,1.09.57.34.28.65.66.93,1.14l.25.43-4.79,2.76-.56-.97,3.31-1.91c-.13-.23-.3-.4-.49-.52-.2-.12-.42-.18-.65-.17-.23,0-.46.06-.69.2-.24.14-.42.32-.54.53-.12.21-.18.44-.17.69,0,.24.07.48.19.7l.54.93c.16.28.35.49.58.64.22.14.46.21.72.21.26,0,.51-.08.78-.23.17-.1.32-.22.44-.35.12-.13.2-.28.24-.44.05-.16.05-.32.03-.5l1.51-.74c.13.39.15.78.07,1.18-.08.39-.25.76-.53,1.11-.27.35-.65.66-1.11.93ZM310.86,64.14l-3.27-5.67,1.52-.88.57.99.06-.03c-.1-.41-.08-.78.06-1.1.14-.32.37-.58.68-.76.08-.05.17-.09.26-.13.1-.04.18-.08.26-.1l.8,1.39c-.09.02-.2.06-.34.12-.14.06-.26.12-.37.18-.23.13-.41.3-.53.51-.12.2-.19.42-.19.66,0,.24.07.47.2.7l1.85,3.21-1.57.91ZM315.14,54.11l.68,1.18-3.41,1.97-.68-1.18,3.41-1.97ZM311.71,54.28l1.57-.91,3.05,5.28c.08.15.17.25.26.3.09.05.18.07.28.06.1-.01.2-.05.31-.11.07-.04.14-.09.21-.15.07-.06.12-.1.15-.13l.92,1.03c-.06.07-.16.16-.28.28-.12.12-.29.24-.48.36-.37.23-.73.37-1.08.42-.35.05-.67,0-.97-.16-.3-.15-.55-.42-.76-.79l-3.17-5.49ZM320.75,48.35l4.36,7.56-1.6.92-3.49-6.04-.05.03-1.1,2.08-.82-1.42,1.19-2.26,1.5-.87Z"/>
  <path class="st9" d="M437.2,50.6l-4.36,7.56-1.6-.92,4.36-7.56,1.6.92ZM437.58,56.53l-1.89,3.28-1.57-.91,3.27-5.67,1.5.87-.58,1,.07.04c.32-.26.68-.4,1.08-.42.41-.02.82.09,1.24.33.39.23.69.51.88.85.19.34.28.72.26,1.13-.02.41-.16.84-.41,1.28l-2.08,3.61-1.57-.91,1.92-3.33c.2-.35.27-.67.2-.97-.07-.3-.26-.54-.57-.72-.21-.12-.42-.18-.64-.19-.21,0-.42.06-.61.18-.19.12-.35.3-.5.54ZM447.64,61.31l-1.49-.74c.05-.14.06-.28.03-.42-.02-.15-.08-.29-.18-.43-.09-.14-.23-.26-.42-.36-.24-.14-.48-.21-.71-.2-.23,0-.39.09-.48.26-.08.14-.09.28-.04.44.05.16.2.34.43.55l.91.8c.49.43.79.85.92,1.26.13.41.07.82-.17,1.22-.21.37-.51.63-.89.79-.38.16-.8.2-1.27.14-.47-.06-.94-.24-1.44-.52-.75-.43-1.26-.93-1.52-1.5-.26-.57-.27-1.15-.04-1.73l1.59.81c-.08.26-.07.5.04.72.11.22.31.41.59.58.27.16.53.23.76.22.23-.01.4-.1.5-.27.08-.14.09-.3.02-.46-.06-.16-.2-.34-.42-.53l-.87-.76c-.49-.43-.79-.86-.9-1.29-.11-.43-.04-.85.2-1.28.21-.36.49-.62.84-.77.35-.15.75-.19,1.19-.13.44.07.91.24,1.39.52.72.41,1.19.89,1.43,1.43.24.54.24,1.09,0,1.65ZM448.94,67.61c-.58-.34-1.02-.74-1.3-1.22-.28-.48-.41-1-.38-1.57.03-.57.21-1.15.56-1.75.34-.58.75-1.03,1.23-1.34.48-.31,1-.47,1.55-.48.56,0,1.11.15,1.67.47.37.22.69.48.94.78.26.31.44.65.54,1.03.11.38.12.79.05,1.23-.07.44-.25.9-.53,1.38l-.25.43-4.79-2.76.56-.97,3.31,1.91c.13-.23.2-.46.2-.69,0-.23-.06-.45-.17-.65-.11-.2-.29-.37-.51-.5-.24-.14-.48-.2-.73-.2-.24,0-.47.07-.68.19-.21.12-.38.29-.51.52l-.54.93c-.16.28-.25.55-.27.82-.01.27.05.51.17.73.13.22.32.41.59.56.17.1.35.17.52.2.17.03.34.03.5,0,.16-.04.31-.11.45-.23l1.4.94c-.27.31-.6.52-.98.65-.38.13-.79.16-1.23.1-.44-.06-.89-.23-1.36-.5ZM452.63,69.59l3.27-5.67,1.52.88-.57.99.06.03c.31-.29.63-.46.98-.5.35-.04.68.03,1,.21.08.05.16.1.25.16.08.06.16.12.22.18l-.8,1.4c-.06-.06-.15-.14-.27-.24-.12-.09-.24-.17-.34-.23-.23-.13-.47-.2-.71-.21-.24,0-.46.05-.67.17-.2.12-.38.29-.51.52l-1.85,3.21-1.57-.91ZM463.45,68.28l-.68,1.18-3.41-1.97.68-1.18,3.41,1.97ZM461.6,65.4l1.57.91-3.05,5.28c-.08.15-.13.27-.13.38,0,.1.03.2.09.27.06.08.15.15.25.21.07.04.15.08.23.11.08.03.14.05.19.06l-.43,1.31c-.09-.02-.22-.06-.38-.11-.16-.05-.35-.13-.56-.24-.39-.2-.69-.45-.91-.73-.22-.28-.33-.59-.35-.92-.02-.33.08-.69.3-1.06l3.17-5.49ZM466.33,77.64c-.55-.32-.99-.7-1.31-1.13-.32-.44-.5-.9-.56-1.38-.05-.48.05-.94.29-1.39l1.61.93c-.1.19-.13.39-.1.59.03.2.12.4.27.58.14.18.33.34.57.48.24.14.48.22.72.24.24.02.45-.01.65-.1.19-.09.35-.24.46-.44.12-.2.16-.41.14-.63-.02-.22-.11-.44-.27-.65-.16-.21-.38-.39-.66-.56l-.7-.41.68-1.17.7.41c.24.14.48.22.71.24.24.02.45,0,.64-.1.19-.09.34-.24.46-.43.11-.19.16-.38.15-.58,0-.2-.07-.38-.18-.56-.11-.17-.28-.32-.49-.45-.22-.12-.44-.2-.66-.22-.22-.03-.43,0-.62.08-.19.08-.35.21-.46.4l-1.53-.88c.26-.43.6-.74,1.04-.94.43-.19.91-.26,1.42-.22.52.05,1.04.22,1.55.52.52.3.92.66,1.2,1.07.28.42.44.85.47,1.29.03.45-.07.87-.3,1.27-.24.42-.58.7-1.01.83-.43.13-.87.11-1.34-.06l-.03.06c.52.39.83.83.93,1.31.11.48.03.96-.24,1.42-.25.43-.59.74-1.03.93-.44.19-.94.26-1.49.2-.55-.06-1.11-.25-1.67-.58Z"/>
  <path class="st9" d="M357.61,6.27v8.73h-1.85V6.27h1.85ZM360.92,11.22v3.78h-1.82v-6.55h1.73v1.15h.08c.14-.38.39-.68.73-.9.34-.22.75-.34,1.24-.34.45,0,.85.1,1.19.3.34.2.6.48.79.85.19.37.28.8.28,1.31v4.17h-1.82v-3.84c0-.4-.1-.71-.31-.94-.21-.23-.49-.34-.86-.34-.24,0-.46.05-.65.16-.18.11-.33.26-.43.46-.1.2-.15.44-.16.72ZM372.01,10.32l-1.66.1c-.03-.14-.09-.27-.18-.38-.09-.12-.22-.21-.37-.28-.15-.07-.33-.11-.54-.11-.28,0-.52.06-.71.18-.19.12-.29.27-.29.47,0,.16.06.29.19.4.12.11.34.19.64.26l1.18.24c.64.13,1.11.34,1.42.63.31.29.47.67.47,1.14,0,.43-.13.81-.38,1.13-.25.32-.59.58-1.03.76-.43.18-.94.27-1.5.27-.87,0-1.56-.18-2.07-.54-.51-.36-.81-.86-.9-1.48l1.79-.09c.05.26.18.47.39.61.21.14.47.2.8.2s.57-.06.77-.18c.2-.12.3-.29.3-.48,0-.16-.07-.3-.21-.4-.14-.11-.35-.19-.63-.25l-1.13-.23c-.64-.13-1.11-.35-1.43-.66-.31-.32-.46-.72-.46-1.21,0-.42.11-.78.34-1.09.23-.3.55-.54.97-.7.42-.16.91-.25,1.47-.25.83,0,1.48.17,1.95.52.48.35.76.83.84,1.43ZM376.29,15.13c-.67,0-1.25-.14-1.74-.41-.48-.28-.86-.66-1.12-1.17-.26-.51-.39-1.1-.39-1.79s.13-1.26.39-1.77c.26-.51.63-.9,1.1-1.19.48-.28,1.04-.43,1.68-.43.43,0,.83.07,1.21.21.38.14.7.34.98.62.28.28.5.62.66,1.04.16.41.24.9.24,1.46v.5h-5.53v-1.12h3.82c0-.26-.06-.49-.17-.69-.11-.2-.27-.36-.47-.47-.2-.12-.43-.17-.69-.17s-.52.06-.73.19c-.21.12-.38.29-.49.51-.12.21-.18.44-.18.7v1.07c0,.32.06.6.18.84.12.24.29.42.52.55.22.13.48.19.79.19.2,0,.39-.03.55-.09.17-.06.31-.14.43-.26.12-.11.21-.25.27-.42l1.68.11c-.09.4-.26.76-.52,1.06-.26.3-.6.53-1.01.7-.41.16-.89.25-1.43.25ZM380.47,15v-6.55h1.76v1.14h.07c.12-.41.32-.71.6-.92.28-.21.61-.32.97-.32.09,0,.19,0,.29.02.1.01.2.03.28.05v1.61c-.09-.03-.2-.05-.35-.07-.15-.02-.29-.03-.41-.03-.27,0-.51.06-.72.17-.21.11-.37.27-.49.48-.12.2-.18.44-.18.71v3.7h-1.82ZM389.19,8.45v1.36h-3.94v-1.36h3.94ZM386.15,6.89h1.82v6.1c0,.17.02.3.08.39.05.09.12.15.21.19.09.04.2.06.32.06.09,0,.17,0,.26-.02.08-.02.15-.03.2-.04l.29,1.35c-.09.03-.22.06-.38.1-.16.04-.36.06-.6.07-.44.02-.82-.04-1.15-.17-.33-.13-.58-.34-.76-.62-.18-.28-.27-.64-.27-1.07v-6.34ZM393.14,15v-1.33l3.11-2.88c.26-.26.49-.49.66-.69.18-.2.32-.4.41-.6.09-.2.14-.41.14-.64,0-.26-.06-.48-.17-.66-.12-.19-.28-.33-.48-.43-.2-.1-.43-.15-.69-.15s-.5.05-.7.16c-.2.11-.35.26-.46.46s-.16.44-.16.72h-1.75c0-.57.13-1.07.39-1.49.26-.42.62-.75,1.09-.98s1-.35,1.61-.35,1.17.11,1.63.33c.47.22.83.52,1.09.91.26.39.39.84.39,1.34,0,.33-.07.65-.2.98-.13.32-.36.68-.69,1.07-.33.39-.8.86-1.39,1.4l-1.27,1.25v.06h3.67v1.51h-6.22Z"/>
  <path class="st1" d="M188.49,114.53c12.89,15.55,21.09,34.45,23.65,54.49,2.56,20.04-.64,40.39-9.21,58.68-8.57,18.29-22.17,33.77-39.21,44.62-17.04,10.85-36.81,16.64-57.01,16.68-20.2.04-39.99-5.66-57.08-16.45-17.08-10.78-30.74-26.2-39.39-44.46C1.61,209.84-1.67,189.5.8,169.46c2.47-20.05,10.6-38.98,23.43-54.58l12.34,10.14c-10.9,13.26-17.81,29.35-19.91,46.4s.68,34.33,8.03,49.84c7.35,15.52,18.96,28.62,33.48,37.79,14.52,9.17,31.34,14.01,48.51,13.98,17.17-.04,33.98-4.95,48.46-14.18,14.48-9.23,26.04-22.38,33.32-37.93,7.29-15.55,10-32.85,7.83-49.88-2.17-17.03-9.15-33.09-20.1-46.31l12.3-10.19Z"/>
  <path class="st9" d="M76.47,183h-3.09v-8.73h3.12c.88,0,1.63.17,2.27.52.63.35,1.12.85,1.46,1.5.34.65.52,1.43.52,2.34s-.17,1.69-.52,2.34c-.34.65-.83,1.15-1.47,1.5-.64.35-1.4.52-2.28.52ZM75.22,181.42h1.17c.55,0,1-.1,1.38-.29.38-.2.66-.5.84-.91.19-.41.29-.94.29-1.59s-.1-1.17-.29-1.58c-.19-.41-.47-.71-.84-.9-.37-.19-.83-.29-1.38-.29h-1.18v5.57ZM85.06,183.13c-.67,0-1.25-.14-1.74-.41-.48-.28-.86-.66-1.12-1.17-.26-.51-.39-1.1-.39-1.79s.13-1.26.39-1.77c.26-.51.63-.9,1.1-1.19.48-.28,1.04-.43,1.68-.43.43,0,.83.07,1.21.21.38.14.7.34.98.62.28.28.5.62.66,1.04.16.42.23.9.23,1.46v.5h-5.53v-1.12h3.82c0-.26-.06-.49-.17-.7-.11-.2-.27-.36-.47-.47-.2-.12-.43-.18-.69-.18s-.52.06-.73.19c-.21.12-.38.29-.49.51-.12.21-.18.44-.18.7v1.07c0,.32.06.6.18.84.12.24.29.42.52.54.22.13.48.19.79.19.2,0,.39-.03.55-.08.17-.06.31-.14.43-.26.12-.11.21-.25.27-.42l1.68.11c-.09.4-.26.76-.52,1.06-.26.3-.6.53-1.01.7-.41.16-.89.25-1.43.25ZM94.69,178.32l-1.66.1c-.03-.14-.09-.27-.18-.38-.09-.12-.22-.21-.37-.28-.15-.07-.33-.11-.54-.11-.28,0-.52.06-.71.18-.19.12-.29.27-.29.47,0,.16.06.29.19.4s.34.2.64.26l1.18.24c.64.13,1.11.34,1.42.63.31.29.47.67.47,1.14,0,.43-.13.8-.38,1.13-.25.32-.59.58-1.03.76-.43.18-.94.27-1.5.27-.87,0-1.56-.18-2.07-.54-.51-.36-.81-.86-.9-1.48l1.79-.09c.05.26.18.47.39.61.21.14.47.21.8.21s.57-.06.77-.18c.2-.12.3-.29.3-.48,0-.16-.07-.3-.21-.4-.14-.11-.35-.19-.63-.25l-1.13-.23c-.64-.13-1.12-.35-1.43-.66-.31-.32-.46-.72-.46-1.21,0-.42.11-.78.34-1.09.23-.3.55-.54.97-.7.42-.16.91-.25,1.47-.25.83,0,1.48.18,1.95.52.48.35.76.83.84,1.43ZM99.47,176.46v1.36h-3.94v-1.36h3.94ZM96.42,174.89h1.82v6.1c0,.17.03.3.08.39.05.09.12.15.21.19.09.04.2.06.32.06.09,0,.17,0,.26-.02.09-.02.15-.03.2-.04l.29,1.35c-.09.03-.22.06-.38.1-.16.04-.37.06-.6.07-.44.02-.82-.04-1.15-.17-.33-.13-.58-.34-.76-.62-.18-.28-.27-.64-.27-1.07v-6.34ZM100.65,183v-6.54h1.82v6.54h-1.82ZM101.56,175.61c-.27,0-.5-.09-.69-.27-.19-.18-.29-.4-.29-.65s.1-.46.29-.64c.19-.18.42-.27.69-.27s.5.09.69.27c.19.18.29.39.29.64s-.1.47-.29.65c-.19.18-.42.27-.69.27ZM105.74,179.22v3.78h-1.82v-6.54h1.73v1.15h.08c.14-.38.39-.68.73-.9.34-.22.75-.34,1.24-.34.46,0,.85.1,1.19.3.34.2.6.48.79.85.19.37.28.8.28,1.31v4.17h-1.82v-3.84c0-.4-.1-.71-.31-.94-.21-.23-.49-.34-.86-.34-.24,0-.46.05-.65.16-.18.11-.33.26-.43.46-.1.2-.15.44-.16.72ZM113.25,183.12c-.42,0-.79-.07-1.12-.22-.33-.15-.59-.37-.78-.65-.19-.29-.28-.65-.28-1.08,0-.36.07-.67.2-.92.13-.25.32-.45.55-.6.23-.15.49-.26.78-.34.29-.08.6-.13.93-.16.38-.04.69-.08.92-.11.23-.04.4-.09.51-.16.11-.07.16-.18.16-.32v-.02c0-.27-.08-.48-.26-.63-.17-.15-.41-.22-.72-.22-.33,0-.59.07-.78.22-.19.14-.32.32-.38.54l-1.68-.14c.08-.4.25-.74.5-1.03.25-.29.57-.52.97-.67.4-.16.86-.24,1.38-.24.36,0,.71.04,1.04.13.33.09.63.22.89.4.26.18.47.41.62.69.15.28.23.61.23,1v4.41h-1.72v-.91h-.05c-.11.21-.25.39-.42.54-.18.15-.39.27-.63.36-.25.08-.53.13-.86.13ZM113.77,181.87c.27,0,.5-.05.71-.16.21-.11.37-.25.48-.43.12-.18.18-.39.18-.62v-.69c-.06.04-.14.07-.24.1-.1.03-.21.06-.33.08-.12.02-.24.04-.37.06-.12.02-.23.03-.33.05-.21.03-.4.08-.56.15-.16.07-.28.16-.37.28-.09.11-.13.26-.13.43,0,.25.09.44.27.57.18.13.41.19.69.19ZM121.83,176.46v1.36h-3.94v-1.36h3.94ZM118.78,174.89h1.82v6.1c0,.17.03.3.08.39.05.09.12.15.21.19.09.04.2.06.32.06.08,0,.17,0,.26-.02.09-.02.15-.03.2-.04l.28,1.35c-.09.03-.22.06-.38.1-.17.04-.37.06-.6.07-.44.02-.82-.04-1.15-.17-.33-.13-.58-.34-.76-.62-.18-.28-.27-.64-.27-1.07v-6.34ZM123.01,183v-6.54h1.81v6.54h-1.81ZM123.92,175.61c-.27,0-.5-.09-.69-.27-.19-.18-.29-.4-.29-.65s.1-.46.29-.64c.19-.18.43-.27.69-.27s.5.09.69.27c.19.18.29.39.29.64s-.1.47-.29.65c-.19.18-.42.27-.69.27ZM129.24,183.13c-.66,0-1.24-.14-1.72-.42-.48-.28-.85-.68-1.11-1.18-.26-.51-.39-1.1-.39-1.77s.13-1.27.39-1.77c.26-.51.63-.9,1.11-1.18.48-.28,1.06-.43,1.72-.43s1.23.14,1.71.43c.48.28.85.68,1.12,1.18.26.51.39,1.1.39,1.77s-.13,1.26-.39,1.77c-.26.51-.63.9-1.12,1.18-.48.28-1.05.42-1.71.42ZM129.24,181.72c.3,0,.55-.09.75-.26.2-.17.35-.41.46-.71.1-.3.16-.64.16-1.02s-.05-.72-.16-1.02c-.1-.3-.25-.54-.46-.71-.2-.17-.45-.26-.75-.26s-.56.09-.77.26c-.21.17-.36.41-.46.71-.1.3-.15.64-.15,1.02s.05.72.15,1.02c.11.3.26.53.46.71.21.17.46.26.77.26ZM135.45,179.22v3.78h-1.82v-6.54h1.73v1.15h.08c.14-.38.39-.68.73-.9.34-.22.75-.34,1.24-.34.46,0,.85.1,1.19.3.34.2.6.48.79.85.19.37.28.8.28,1.31v4.17h-1.82v-3.84c0-.4-.1-.71-.31-.94-.21-.23-.49-.34-.86-.34-.24,0-.46.05-.65.16-.18.11-.33.26-.43.46-.1.2-.15.44-.16.72ZM89.18,189.27l2.11,6.63h.08l2.11-6.63h2.05l-3.01,8.73h-2.38l-3.01-8.73h2.05ZM98.79,198.13c-.67,0-1.25-.14-1.74-.41-.48-.28-.86-.66-1.12-1.17-.26-.51-.39-1.1-.39-1.79s.13-1.26.39-1.77c.26-.51.63-.9,1.1-1.19.48-.28,1.04-.43,1.68-.43.43,0,.83.07,1.21.21.38.14.7.34.98.62.28.28.5.62.66,1.04.16.42.24.9.24,1.46v.5h-5.53v-1.12h3.82c0-.26-.06-.49-.17-.7-.11-.2-.27-.36-.47-.47-.2-.12-.43-.18-.69-.18s-.52.06-.73.19c-.21.12-.38.29-.49.51-.12.21-.18.44-.18.7v1.07c0,.32.06.6.18.84.12.24.29.42.52.54.22.13.48.19.79.19.2,0,.39-.03.55-.08.17-.06.31-.14.43-.26.12-.11.21-.25.27-.42l1.68.11c-.08.4-.26.76-.52,1.06-.26.3-.6.53-1.01.7-.41.16-.89.25-1.43.25ZM105.93,198.13c-.67,0-1.25-.14-1.73-.43-.48-.29-.85-.68-1.11-1.19-.26-.51-.38-1.09-.38-1.76s.13-1.26.39-1.76c.26-.51.63-.9,1.11-1.19.48-.29,1.05-.43,1.71-.43.57,0,1.07.1,1.5.31.43.21.77.5,1.02.87s.39.82.41,1.32h-1.71c-.05-.33-.18-.59-.38-.79-.2-.2-.47-.3-.81-.3-.28,0-.53.08-.74.23-.21.15-.37.37-.49.66-.12.29-.18.64-.18,1.05s.06.77.17,1.07c.12.29.28.51.49.67.21.15.46.23.74.23.21,0,.39-.04.56-.13.17-.08.31-.21.41-.37.11-.16.18-.36.22-.59h1.71c-.03.5-.17.94-.41,1.32-.24.38-.57.67-1,.89-.43.21-.93.32-1.51.32ZM113.5,191.46v1.36h-3.94v-1.36h3.94ZM110.45,189.89h1.81v6.1c0,.17.03.3.08.39.05.09.12.15.21.19.09.04.2.06.32.06.08,0,.17,0,.26-.02.08-.02.15-.03.2-.04l.29,1.35c-.09.03-.22.06-.38.1-.17.04-.36.06-.6.07-.44.02-.82-.04-1.15-.17-.33-.13-.58-.34-.76-.62-.18-.28-.27-.64-.27-1.07v-6.34ZM117.57,198.13c-.66,0-1.23-.14-1.72-.42-.48-.28-.85-.68-1.11-1.18-.26-.51-.39-1.1-.39-1.77s.13-1.27.39-1.77c.26-.51.63-.9,1.11-1.18.48-.28,1.06-.43,1.72-.43s1.23.14,1.71.43c.48.28.86.68,1.12,1.18.26.51.39,1.1.39,1.77s-.13,1.26-.39,1.77c-.26.51-.63.9-1.12,1.18-.48.28-1.05.42-1.71.42ZM117.58,196.72c.3,0,.55-.09.75-.26.2-.17.35-.41.46-.71.1-.3.16-.64.16-1.02s-.05-.72-.16-1.02c-.1-.3-.25-.54-.46-.71-.2-.17-.45-.26-.75-.26s-.56.09-.77.26c-.2.17-.36.41-.46.71-.1.3-.15.64-.15,1.02s.05.72.15,1.02c.11.3.26.53.46.71.21.17.46.26.77.26ZM121.97,198v-6.54h1.76v1.14h.07c.12-.41.32-.71.6-.92.28-.21.61-.32.97-.32.09,0,.19,0,.29.02.11.01.2.03.28.05v1.61c-.08-.03-.2-.05-.35-.07-.15-.02-.29-.03-.41-.03-.27,0-.51.06-.72.17-.21.11-.37.27-.49.48-.12.21-.18.44-.18.71v3.7h-1.82Z"/>
  <path class="st1" d="M740.3,132.07c8.63,16.05,12.99,34.04,12.68,52.26-.31,18.22-5.3,36.05-14.47,51.8-9.18,15.74-22.24,28.87-37.94,38.12-15.7,9.25-33.51,14.32-51.73,14.72-18.22.4-36.23-3.88-52.33-12.43-16.09-8.55-29.72-21.09-39.58-36.41-9.86-15.32-15.62-32.92-16.74-51.11-1.12-18.19,2.45-36.36,10.36-52.77l14.39,6.94c-6.73,13.95-9.76,29.4-8.81,44.86.95,15.46,5.85,30.42,14.23,43.44,8.38,13.02,19.97,23.68,33.64,30.95,13.68,7.27,28.99,10.91,44.48,10.57s30.62-4.65,43.97-12.51c13.34-7.86,24.45-19.02,32.25-32.4,7.8-13.38,12.04-28.54,12.3-44.03.27-15.49-3.45-30.78-10.78-44.43l14.07-7.56Z"/>
  <path class="st6" d="M560.9,119.14c11.04-14.92,25.79-26.69,42.78-34.15l6.42,14.63c-14.44,6.34-26.98,16.35-36.36,29.03l-12.84-9.5Z"/>
  <path class="st6" d="M622.33,78.78c17.11-3.99,34.95-3.68,51.91.9l-4.16,15.42c-14.42-3.89-29.58-4.15-44.13-.76l-3.62-15.56Z"/>
  <path class="st6" d="M692.42,86.41c14.59,6.97,27.4,17.17,37.46,29.83l-12.51,9.94c-8.55-10.76-19.44-19.43-31.84-25.35l6.89-14.41Z"/>
  <path class="st4" d="M550.58,136.23c2.91-6.03,6.38-11.78,10.37-17.15l12.83,9.51c-3.39,4.57-6.34,9.46-8.81,14.58l-14.39-6.94Z"/>
  <path class="st7" d="M603.45,85.09c6.12-2.71,12.49-4.83,19.02-6.34l3.6,15.56c-5.54,1.28-10.96,3.09-16.16,5.39l-6.46-14.61Z"/>
  <path class="st10" d="M674.14,79.65c6.47,1.74,12.76,4.08,18.78,7l-6.96,14.38c-5.12-2.48-10.47-4.47-15.97-5.95l4.15-15.43Z"/>
  <path class="st8" d="M729.79,116.13c4.17,5.24,7.84,10.86,10.96,16.78l-14.14,7.44c-2.65-5.04-5.77-9.81-9.32-14.26l12.49-9.95Z"/>
  <path class="st9" d="M608.61,190v-8.73h5.78v1.52h-3.93v2.08h3.55v1.52h-3.55v3.6h-1.85ZM615.6,190v-6.54h1.82v6.54h-1.82ZM616.51,182.61c-.27,0-.5-.09-.69-.27-.19-.18-.29-.4-.29-.65s.1-.46.29-.64c.19-.18.42-.27.69-.27s.5.09.69.27c.19.18.29.39.29.64s-.1.47-.29.65c-.19.18-.42.27-.69.27ZM620.68,186.22v3.78h-1.82v-6.54h1.73v1.15h.08c.15-.38.39-.68.73-.9.34-.22.75-.34,1.24-.34.45,0,.85.1,1.19.3.34.2.6.48.79.85.19.37.28.8.28,1.31v4.17h-1.82v-3.84c0-.4-.1-.71-.31-.94-.21-.23-.49-.34-.86-.34-.24,0-.46.05-.65.16-.18.11-.33.26-.43.46-.1.2-.16.44-.16.72ZM628.2,190.12c-.42,0-.79-.07-1.12-.22-.33-.15-.59-.37-.78-.65-.19-.29-.28-.65-.28-1.08,0-.36.07-.67.2-.92.13-.25.32-.45.55-.6.23-.15.49-.26.78-.34.3-.08.61-.13.93-.16.38-.04.69-.08.92-.11.23-.04.4-.09.51-.16.11-.07.16-.18.16-.32v-.02c0-.27-.09-.48-.26-.63-.17-.15-.41-.22-.71-.22-.33,0-.59.07-.78.22-.19.14-.32.32-.38.54l-1.68-.14c.09-.4.25-.74.5-1.03.25-.29.57-.52.97-.67.4-.16.86-.24,1.38-.24.36,0,.71.04,1.04.13.33.09.63.22.89.4.26.18.47.41.62.69.15.28.23.61.23,1v4.41h-1.72v-.91h-.05c-.1.21-.25.39-.42.54-.18.15-.39.27-.64.36-.25.08-.53.13-.86.13ZM628.72,188.87c.27,0,.5-.05.71-.16.2-.11.36-.25.48-.43.12-.18.17-.39.17-.62v-.69c-.06.04-.14.07-.23.1-.1.03-.21.06-.33.08-.12.02-.24.04-.37.06-.12.02-.23.03-.33.05-.21.03-.4.08-.56.15-.16.07-.28.16-.37.28-.09.11-.13.26-.13.43,0,.25.09.44.27.57.18.13.41.19.69.19ZM635.11,181.27v8.73h-1.82v-8.73h1.82ZM639.37,190v-8.73h3.44c.66,0,1.23.13,1.69.38.47.25.82.6,1.07,1.04.25.44.37.96.37,1.53s-.12,1.09-.38,1.53c-.25.44-.61.79-1.09,1.04-.47.25-1.04.37-1.71.37h-2.19v-1.48h1.9c.36,0,.65-.06.88-.18.23-.12.41-.3.52-.52.12-.22.17-.48.17-.76s-.06-.54-.17-.76c-.11-.22-.29-.39-.52-.51-.23-.12-.53-.18-.89-.18h-1.24v7.22h-1.84ZM647.11,190v-6.54h1.76v1.14h.07c.12-.41.32-.71.6-.92.28-.21.6-.32.97-.32.09,0,.19,0,.29.02.1.01.2.03.28.05v1.61c-.08-.03-.2-.05-.35-.07-.15-.02-.29-.03-.41-.03-.27,0-.51.06-.72.17-.21.11-.37.27-.49.48-.12.21-.18.44-.18.71v3.7h-1.82ZM654.67,190.13c-.66,0-1.23-.14-1.72-.42-.48-.28-.85-.68-1.11-1.18-.26-.51-.39-1.1-.39-1.77s.13-1.27.39-1.77c.26-.51.63-.9,1.11-1.18.48-.28,1.05-.43,1.72-.43s1.23.14,1.71.43c.48.28.85.68,1.12,1.18.26.51.39,1.1.39,1.77s-.13,1.26-.39,1.77c-.26.51-.63.9-1.12,1.18-.48.28-1.05.42-1.71.42ZM654.68,188.72c.3,0,.55-.09.75-.26.2-.17.35-.41.46-.71.11-.3.16-.64.16-1.02s-.05-.72-.16-1.02c-.1-.3-.25-.54-.46-.71-.2-.17-.45-.26-.75-.26s-.56.09-.77.26c-.21.17-.36.41-.46.71-.1.3-.15.64-.15,1.02s.05.72.15,1.02c.1.3.26.53.46.71.21.17.46.26.77.26ZM661.48,190.11c-.5,0-.95-.13-1.35-.38-.4-.26-.72-.64-.95-1.14-.23-.5-.35-1.12-.35-1.85s.12-1.37.36-1.87c.24-.5.56-.87.96-1.12.4-.25.85-.38,1.33-.38.37,0,.67.06.92.19.25.12.45.27.6.46.15.18.27.36.35.54h.05v-3.28h1.81v8.73h-1.79v-1.05h-.08c-.08.18-.21.36-.36.54-.15.18-.35.32-.6.44-.24.12-.54.17-.9.17ZM662.06,188.66c.29,0,.54-.08.74-.24.2-.16.36-.39.47-.68.11-.29.17-.63.17-1.02s-.05-.73-.16-1.01c-.11-.29-.26-.51-.47-.66-.21-.16-.45-.23-.75-.23s-.55.08-.75.24c-.21.16-.36.39-.46.67-.11.29-.16.62-.16,1s.05.72.16,1.01c.11.29.26.52.46.68.21.16.46.24.75.24ZM670.9,187.21v-3.76h1.82v6.54h-1.74v-1.19h-.07c-.15.38-.39.69-.74.92-.34.23-.76.35-1.25.35-.44,0-.82-.1-1.15-.3-.33-.2-.59-.48-.78-.85-.18-.37-.28-.8-.28-1.32v-4.17h1.82v3.84c0,.39.11.69.31.92.2.22.48.34.82.34.22,0,.42-.05.61-.15.19-.1.34-.25.46-.45.12-.2.18-.44.17-.74ZM677.12,190.13c-.67,0-1.25-.14-1.73-.43-.48-.29-.85-.68-1.11-1.19-.26-.51-.38-1.09-.38-1.76s.13-1.26.39-1.76c.26-.51.63-.9,1.11-1.19.48-.29,1.05-.43,1.71-.43.57,0,1.07.1,1.5.31.43.21.77.5,1.02.87s.39.82.41,1.32h-1.71c-.05-.33-.18-.59-.38-.79-.21-.2-.47-.3-.8-.3-.28,0-.53.08-.74.23-.21.15-.37.37-.48.66-.12.29-.17.64-.17,1.05s.06.77.17,1.07c.12.29.28.51.49.67.21.15.46.23.74.23.21,0,.39-.04.56-.13.17-.08.3-.21.41-.37.11-.16.18-.36.22-.59h1.71c-.03.5-.16.94-.41,1.32-.24.38-.58.67-1,.89-.43.21-.93.32-1.51.32ZM684.69,183.46v1.36h-3.94v-1.36h3.94ZM681.64,181.89h1.82v6.1c0,.17.03.3.08.39.05.09.12.15.21.19.09.04.2.06.32.06.09,0,.17,0,.26-.02.09-.02.15-.03.2-.04l.29,1.35c-.09.03-.22.06-.38.1-.17.04-.37.06-.6.07-.44.02-.82-.04-1.15-.17-.33-.13-.58-.34-.76-.62-.18-.28-.27-.64-.27-1.07v-6.34Z"/>
  <path class="st9" d="M584.49,78.27v8.73h-1.85v-8.73h1.85ZM589.75,78.27v8.73h-1.84v-6.98h-.05l-2,1.25v-1.64l2.16-1.37h1.73Z"/>
  <path class="st9" d="M643.64,64.27v8.73h-1.85v-8.73h1.85ZM645.11,73v-1.33l3.11-2.88c.26-.26.49-.49.66-.69.18-.2.32-.4.41-.6.09-.2.14-.41.14-.64,0-.26-.06-.48-.17-.66-.12-.19-.28-.33-.48-.43-.2-.1-.43-.15-.69-.15s-.5.05-.7.16c-.2.11-.35.26-.46.46-.11.2-.16.44-.16.72h-1.75c0-.57.13-1.07.39-1.49.26-.42.62-.75,1.09-.98.47-.23,1-.35,1.61-.35s1.17.11,1.63.33c.47.22.83.52,1.09.91.26.39.39.84.39,1.34,0,.33-.07.65-.2.98-.13.32-.36.68-.69,1.07-.33.39-.79.86-1.39,1.4l-1.27,1.25v.06h3.66v1.51h-6.22Z"/>
  <path class="st9" d="M703.47,79.27v8.73h-1.84v-8.73h1.84ZM708.16,88.12c-.64,0-1.2-.11-1.7-.33-.49-.22-.89-.53-1.17-.91-.28-.39-.43-.84-.44-1.35h1.86c.01.21.08.4.21.56.13.16.3.28.52.37.22.09.46.13.73.13s.53-.05.75-.15c.22-.1.39-.24.51-.41s.18-.38.18-.61-.07-.44-.2-.62c-.13-.18-.31-.32-.55-.43-.24-.1-.52-.15-.85-.15h-.81v-1.36h.81c.28,0,.52-.05.74-.14.22-.1.38-.23.5-.4.12-.17.18-.38.18-.61s-.05-.41-.16-.58c-.1-.17-.25-.3-.43-.39-.18-.09-.4-.14-.65-.14s-.48.05-.69.14c-.21.09-.37.21-.5.38s-.19.36-.2.58h-1.77c0-.5.15-.95.43-1.33.28-.38.65-.68,1.12-.9.47-.22,1.01-.33,1.61-.33s1.13.11,1.58.33c.45.22.8.51,1.05.89.25.37.38.78.38,1.24,0,.49-.15.9-.46,1.22-.3.33-.7.53-1.19.62v.07c.64.08,1.13.31,1.47.67.34.36.51.81.5,1.36,0,.5-.14.94-.43,1.33-.29.39-.68.69-1.19.91-.51.22-1.09.33-1.74.33Z"/>
  <line class="st3" x1="272.07" y1="105.38" x2="295.23" y2="125.87"/>
  <line class="st3" x1="483.21" y1="105.73" x2="459.49" y2="125.53"/>
  <text class="st0" transform="translate(48.49 315.2)"><tspan x="0" y="0">Linearized Destination </tspan><tspan x="41.76" y="14.4">Vector</tspan></text>
  <text class="st0" transform="translate(336.89 315.2)"><tspan x="0" y="0">Overlap Directed</tspan><tspan x="17.68" y="14.4">Assembly</tspan></text>
  <text class="st0" transform="translate(600.43 322.4)"><tspan x="0" y="0">Assembled Plasmid</tspan></text>
</svg>