<svg width="753" height="367" viewBox="0 0 753 367" fill="none" xmlns="http://www.w3.org/2000/svg">
<rect width="753" height="367" fill="white"/>
<path d="M262.5 184L252.5 178.226V189.774L262.5 184ZM221 184V185H253.5V184V183H221V184Z" fill="#0B0755"/>
<path d="M531.5 184L521.5 178.226V189.774L531.5 184ZM490 184V185H522.5V184V183H490V184Z" fill="#0B0755"/>
<path d="M458.493 120.533C471.384 136.085 479.586 154.982 482.143 175.019C484.7 195.056 481.506 215.408 472.933 233.698C464.361 251.989 450.763 267.464 433.727 278.318C416.692 289.172 396.92 294.958 376.72 295C356.521 295.042 336.726 289.338 319.645 278.554C302.564 267.771 288.903 252.352 280.255 234.097C271.606 215.842 268.328 195.504 270.802 175.456C273.276 155.409 281.4 136.478 294.227 120.873L306.568 131.017C295.665 144.281 288.759 160.372 286.657 177.413C284.554 194.454 287.34 211.741 294.691 227.257C302.042 242.774 313.655 255.88 328.173 265.046C342.692 274.212 359.518 279.06 376.687 279.025C393.857 278.989 410.663 274.072 425.143 264.845C439.624 255.619 451.182 242.465 458.468 226.918C465.755 211.371 468.47 194.073 466.297 177.041C464.123 160.009 457.151 143.947 446.194 130.728L458.493 120.533Z" fill="#A8D8E8"/>
<path d="M294.193 120.914C300.598 113.115 308.079 106.265 316.411 100.57L325.425 113.76C318.342 118.6 311.983 124.422 306.539 131.052L294.193 120.914Z" fill="#61A5FB"/>
<path d="M436.2 100.306C444.557 105.963 452.069 112.78 458.508 120.552L446.207 130.744C440.733 124.138 434.349 118.344 427.245 113.535L436.2 100.306Z" fill="#FEA3AF"/>
<path d="M346.473 189H343.38V180.273H346.499C347.377 180.273 348.132 180.447 348.766 180.797C349.4 181.143 349.887 181.642 350.228 182.293C350.571 182.943 350.743 183.722 350.743 184.628C350.743 185.537 350.571 186.318 350.228 186.972C349.887 187.625 349.397 188.126 348.757 188.476C348.121 188.825 347.36 189 346.473 189ZM345.225 187.419H346.397C346.942 187.419 347.401 187.322 347.773 187.129C348.148 186.933 348.429 186.631 348.617 186.222C348.807 185.81 348.902 185.278 348.902 184.628C348.902 183.983 348.807 183.456 348.617 183.047C348.429 182.638 348.15 182.337 347.777 182.143C347.405 181.95 346.946 181.854 346.401 181.854H345.225V187.419ZM355.059 189.128C354.386 189.128 353.806 188.991 353.32 188.719C352.837 188.443 352.465 188.054 352.204 187.551C351.942 187.045 351.812 186.447 351.812 185.757C351.812 185.084 351.942 184.493 352.204 183.984C352.465 183.476 352.833 183.08 353.308 182.795C353.785 182.511 354.344 182.369 354.987 182.369C355.418 182.369 355.82 182.439 356.192 182.578C356.567 182.714 356.894 182.92 357.173 183.196C357.454 183.472 357.673 183.818 357.829 184.236C357.985 184.651 358.063 185.136 358.063 185.693V186.192H352.536V185.067H356.354C356.354 184.805 356.298 184.574 356.184 184.372C356.07 184.17 355.913 184.013 355.711 183.899C355.512 183.783 355.281 183.724 355.016 183.724C354.741 183.724 354.496 183.788 354.283 183.916C354.073 184.041 353.908 184.21 353.789 184.423C353.67 184.634 353.609 184.868 353.606 185.126V186.196C353.606 186.52 353.665 186.8 353.785 187.036C353.907 187.271 354.079 187.453 354.3 187.581C354.522 187.709 354.785 187.773 355.089 187.773C355.29 187.773 355.475 187.744 355.643 187.688C355.81 187.631 355.954 187.545 356.073 187.432C356.192 187.318 356.283 187.179 356.346 187.014L358.025 187.125C357.94 187.528 357.765 187.881 357.501 188.182C357.239 188.48 356.901 188.713 356.487 188.881C356.075 189.045 355.599 189.128 355.059 189.128ZM364.694 184.321L363.032 184.423C363.004 184.281 362.942 184.153 362.849 184.04C362.755 183.923 362.631 183.831 362.478 183.763C362.327 183.692 362.147 183.656 361.937 183.656C361.656 183.656 361.418 183.716 361.225 183.835C361.032 183.952 360.935 184.108 360.935 184.304C360.935 184.46 360.998 184.592 361.123 184.7C361.248 184.808 361.462 184.895 361.766 184.96L362.951 185.199C363.587 185.33 364.062 185.54 364.374 185.83C364.687 186.119 364.843 186.5 364.843 186.972C364.843 187.401 364.717 187.777 364.464 188.101C364.214 188.425 363.87 188.678 363.433 188.859C362.998 189.038 362.496 189.128 361.928 189.128C361.062 189.128 360.371 188.947 359.857 188.587C359.346 188.223 359.046 187.729 358.958 187.104L360.744 187.01C360.798 187.274 360.928 187.476 361.136 187.615C361.343 187.751 361.609 187.82 361.933 187.82C362.251 187.82 362.506 187.759 362.7 187.636C362.896 187.511 362.995 187.351 362.998 187.155C362.995 186.99 362.925 186.855 362.789 186.75C362.653 186.642 362.442 186.56 362.158 186.503L361.025 186.277C360.386 186.149 359.91 185.928 359.597 185.612C359.288 185.297 359.133 184.895 359.133 184.406C359.133 183.986 359.246 183.624 359.474 183.32C359.704 183.016 360.026 182.781 360.441 182.616C360.859 182.452 361.347 182.369 361.907 182.369C362.734 182.369 363.384 182.544 363.859 182.893C364.336 183.243 364.614 183.719 364.694 184.321ZM369.468 182.455V183.818H365.526V182.455H369.468ZM366.421 180.886H368.236V186.989C368.236 187.156 368.262 187.287 368.313 187.381C368.364 187.472 368.435 187.536 368.526 187.572C368.62 187.609 368.728 187.628 368.85 187.628C368.935 187.628 369.02 187.621 369.105 187.607C369.191 187.589 369.256 187.577 369.301 187.568L369.587 188.919C369.496 188.947 369.368 188.98 369.203 189.017C369.039 189.057 368.838 189.081 368.603 189.089C368.165 189.107 367.782 189.048 367.452 188.915C367.125 188.781 366.871 188.574 366.689 188.293C366.507 188.011 366.418 187.656 366.421 187.227V180.886ZM370.65 189V182.455H372.466V189H370.65ZM371.562 181.611C371.292 181.611 371.061 181.521 370.868 181.342C370.677 181.161 370.582 180.943 370.582 180.69C370.582 180.44 370.677 180.226 370.868 180.047C371.061 179.865 371.292 179.774 371.562 179.774C371.832 179.774 372.062 179.865 372.252 180.047C372.446 180.226 372.542 180.44 372.542 180.69C372.542 180.943 372.446 181.161 372.252 181.342C372.062 181.521 371.832 181.611 371.562 181.611ZM375.735 185.216V189H373.92V182.455H375.65V183.609H375.727C375.871 183.229 376.114 182.928 376.455 182.706C376.796 182.482 377.21 182.369 377.695 182.369C378.15 182.369 378.546 182.469 378.884 182.668C379.222 182.866 379.485 183.151 379.673 183.52C379.86 183.886 379.954 184.324 379.954 184.832V189H378.138V185.156C378.141 184.756 378.039 184.443 377.832 184.219C377.624 183.991 377.339 183.878 376.975 183.878C376.731 183.878 376.515 183.93 376.327 184.036C376.143 184.141 375.998 184.294 375.893 184.496C375.79 184.695 375.738 184.935 375.735 185.216ZM383.251 189.124C382.833 189.124 382.461 189.051 382.135 188.906C381.808 188.759 381.549 188.541 381.359 188.254C381.172 187.964 381.078 187.604 381.078 187.172C381.078 186.808 381.145 186.503 381.278 186.256C381.412 186.009 381.593 185.81 381.824 185.659C382.054 185.509 382.315 185.395 382.608 185.318C382.903 185.241 383.213 185.188 383.537 185.156C383.917 185.116 384.224 185.08 384.457 185.045C384.69 185.009 384.859 184.955 384.964 184.884C385.069 184.812 385.122 184.707 385.122 184.568V184.543C385.122 184.273 385.037 184.064 384.866 183.916C384.699 183.768 384.46 183.695 384.15 183.695C383.824 183.695 383.564 183.767 383.37 183.912C383.177 184.054 383.049 184.233 382.987 184.449L381.308 184.312C381.393 183.915 381.561 183.571 381.811 183.281C382.061 182.989 382.383 182.764 382.778 182.608C383.176 182.449 383.636 182.369 384.159 182.369C384.522 182.369 384.87 182.412 385.203 182.497C385.538 182.582 385.835 182.714 386.093 182.893C386.355 183.072 386.561 183.303 386.711 183.584C386.862 183.862 386.937 184.196 386.937 184.585V189H385.216V188.092H385.164C385.059 188.297 384.919 188.477 384.743 188.634C384.566 188.787 384.355 188.908 384.108 188.996C383.86 189.081 383.575 189.124 383.251 189.124ZM383.771 187.871C384.038 187.871 384.274 187.818 384.478 187.713C384.683 187.605 384.843 187.46 384.96 187.278C385.076 187.097 385.135 186.891 385.135 186.661V185.966C385.078 186.003 385 186.037 384.9 186.068C384.804 186.097 384.694 186.124 384.572 186.149C384.45 186.172 384.328 186.193 384.206 186.213C384.083 186.23 383.973 186.246 383.873 186.26C383.66 186.291 383.474 186.341 383.315 186.409C383.156 186.477 383.032 186.57 382.944 186.686C382.856 186.8 382.812 186.942 382.812 187.112C382.812 187.359 382.902 187.548 383.081 187.679C383.262 187.807 383.493 187.871 383.771 187.871ZM391.827 182.455V183.818H387.885V182.455H391.827ZM388.78 180.886H390.596V186.989C390.596 187.156 390.621 187.287 390.672 187.381C390.723 187.472 390.794 187.536 390.885 187.572C390.979 187.609 391.087 187.628 391.209 187.628C391.294 187.628 391.38 187.621 391.465 187.607C391.55 187.589 391.615 187.577 391.661 187.568L391.946 188.919C391.855 188.947 391.728 188.98 391.563 189.017C391.398 189.057 391.198 189.081 390.962 189.089C390.525 189.107 390.141 189.048 389.811 188.915C389.485 188.781 389.23 188.574 389.049 188.293C388.867 188.011 388.777 187.656 388.78 187.227V180.886ZM393.01 189V182.455H394.825V189H393.01ZM393.922 181.611C393.652 181.611 393.42 181.521 393.227 181.342C393.037 181.161 392.941 180.943 392.941 180.69C392.941 180.44 393.037 180.226 393.227 180.047C393.42 179.865 393.652 179.774 393.922 179.774C394.191 179.774 394.422 179.865 394.612 180.047C394.805 180.226 394.902 180.44 394.902 180.69C394.902 180.943 394.805 181.161 394.612 181.342C394.422 181.521 394.191 181.611 393.922 181.611ZM399.237 189.128C398.575 189.128 398.002 188.987 397.519 188.706C397.039 188.422 396.668 188.027 396.407 187.521C396.146 187.013 396.015 186.423 396.015 185.753C396.015 185.077 396.146 184.486 396.407 183.98C396.668 183.472 397.039 183.077 397.519 182.795C398.002 182.511 398.575 182.369 399.237 182.369C399.898 182.369 400.469 182.511 400.95 182.795C401.433 183.077 401.805 183.472 402.066 183.98C402.327 184.486 402.458 185.077 402.458 185.753C402.458 186.423 402.327 187.013 402.066 187.521C401.805 188.027 401.433 188.422 400.95 188.706C400.469 188.987 399.898 189.128 399.237 189.128ZM399.245 187.722C399.546 187.722 399.798 187.636 399.999 187.466C400.201 187.293 400.353 187.057 400.455 186.759C400.56 186.46 400.613 186.121 400.613 185.74C400.613 185.359 400.56 185.02 400.455 184.722C400.353 184.423 400.201 184.187 399.999 184.014C399.798 183.841 399.546 183.754 399.245 183.754C398.941 183.754 398.685 183.841 398.478 184.014C398.273 184.187 398.119 184.423 398.013 184.722C397.911 185.02 397.86 185.359 397.86 185.74C397.86 186.121 397.911 186.46 398.013 186.759C398.119 187.057 398.273 187.293 398.478 187.466C398.685 187.636 398.941 187.722 399.245 187.722ZM405.454 185.216V189H403.638V182.455H405.369V183.609H405.445C405.59 183.229 405.833 182.928 406.174 182.706C406.515 182.482 406.928 182.369 407.414 182.369C407.869 182.369 408.265 182.469 408.603 182.668C408.941 182.866 409.204 183.151 409.391 183.52C409.579 183.886 409.673 184.324 409.673 184.832V189H407.857V185.156C407.86 184.756 407.758 184.443 407.55 184.219C407.343 183.991 407.058 183.878 406.694 183.878C406.45 183.878 406.234 183.93 406.046 184.036C405.862 184.141 405.717 184.294 405.612 184.496C405.509 184.695 405.457 184.935 405.454 185.216ZM359.177 195.273L361.286 201.903H361.367L363.481 195.273H365.526L362.518 204H360.14L357.127 195.273H359.177ZM368.787 204.128C368.114 204.128 367.535 203.991 367.049 203.719C366.566 203.443 366.194 203.054 365.932 202.551C365.671 202.045 365.54 201.447 365.54 200.757C365.54 200.084 365.671 199.493 365.932 198.984C366.194 198.476 366.562 198.08 367.036 197.795C367.513 197.511 368.073 197.369 368.715 197.369C369.147 197.369 369.549 197.439 369.921 197.578C370.296 197.714 370.623 197.92 370.901 198.196C371.182 198.472 371.401 198.818 371.557 199.236C371.714 199.651 371.792 200.136 371.792 200.693V201.192H366.265V200.067H370.083C370.083 199.805 370.026 199.574 369.912 199.372C369.799 199.17 369.641 199.013 369.439 198.899C369.241 198.783 369.009 198.724 368.745 198.724C368.469 198.724 368.225 198.788 368.012 198.916C367.802 199.041 367.637 199.21 367.518 199.423C367.398 199.634 367.337 199.868 367.334 200.126V201.196C367.334 201.52 367.394 201.8 367.513 202.036C367.635 202.271 367.807 202.453 368.029 202.581C368.251 202.709 368.513 202.773 368.817 202.773C369.019 202.773 369.204 202.744 369.371 202.688C369.539 202.631 369.682 202.545 369.802 202.432C369.921 202.318 370.012 202.179 370.074 202.014L371.753 202.125C371.668 202.528 371.493 202.881 371.229 203.182C370.968 203.48 370.63 203.713 370.215 203.881C369.803 204.045 369.327 204.128 368.787 204.128ZM375.934 204.128C375.263 204.128 374.687 203.986 374.204 203.702C373.724 203.415 373.354 203.017 373.096 202.509C372.84 202 372.712 201.415 372.712 200.753C372.712 200.082 372.841 199.494 373.1 198.989C373.361 198.48 373.732 198.084 374.212 197.8C374.692 197.513 375.263 197.369 375.925 197.369C376.496 197.369 376.996 197.473 377.425 197.68C377.854 197.888 378.194 198.179 378.444 198.554C378.694 198.929 378.831 199.369 378.857 199.875H377.144C377.096 199.548 376.968 199.286 376.76 199.087C376.556 198.885 376.287 198.784 375.955 198.784C375.674 198.784 375.428 198.861 375.218 199.014C375.01 199.165 374.849 199.385 374.732 199.675C374.616 199.964 374.557 200.315 374.557 200.727C374.557 201.145 374.614 201.5 374.728 201.793C374.844 202.085 375.008 202.308 375.218 202.462C375.428 202.615 375.674 202.692 375.955 202.692C376.162 202.692 376.349 202.649 376.513 202.564C376.681 202.479 376.819 202.355 376.927 202.193C377.037 202.028 377.11 201.831 377.144 201.601H378.857C378.829 202.101 378.692 202.541 378.448 202.922C378.206 203.3 377.873 203.595 377.447 203.808C377.02 204.021 376.516 204.128 375.934 204.128ZM383.501 197.455V198.818H379.559V197.455H383.501ZM380.454 195.886H382.269V201.989C382.269 202.156 382.295 202.287 382.346 202.381C382.397 202.472 382.468 202.536 382.559 202.572C382.653 202.609 382.761 202.628 382.883 202.628C382.968 202.628 383.053 202.621 383.139 202.607C383.224 202.589 383.289 202.577 383.335 202.568L383.62 203.919C383.529 203.947 383.401 203.98 383.237 204.017C383.072 204.057 382.872 204.081 382.636 204.089C382.198 204.107 381.815 204.048 381.485 203.915C381.159 203.781 380.904 203.574 380.722 203.293C380.541 203.011 380.451 202.656 380.454 202.227V195.886ZM387.57 204.128C386.909 204.128 386.336 203.987 385.853 203.706C385.373 203.422 385.002 203.027 384.741 202.521C384.48 202.013 384.349 201.423 384.349 200.753C384.349 200.077 384.48 199.486 384.741 198.98C385.002 198.472 385.373 198.077 385.853 197.795C386.336 197.511 386.909 197.369 387.57 197.369C388.232 197.369 388.803 197.511 389.284 197.795C389.767 198.077 390.139 198.472 390.4 198.98C390.661 199.486 390.792 200.077 390.792 200.753C390.792 201.423 390.661 202.013 390.4 202.521C390.139 203.027 389.767 203.422 389.284 203.706C388.803 203.987 388.232 204.128 387.57 204.128ZM387.579 202.722C387.88 202.722 388.132 202.636 388.333 202.466C388.535 202.293 388.687 202.057 388.789 201.759C388.894 201.46 388.947 201.121 388.947 200.74C388.947 200.359 388.894 200.02 388.789 199.722C388.687 199.423 388.535 199.187 388.333 199.014C388.132 198.841 387.88 198.754 387.579 198.754C387.275 198.754 387.019 198.841 386.812 199.014C386.607 199.187 386.453 199.423 386.347 199.722C386.245 200.02 386.194 200.359 386.194 200.74C386.194 201.121 386.245 201.46 386.347 201.759C386.453 202.057 386.607 202.293 386.812 202.466C387.019 202.636 387.275 202.722 387.579 202.722ZM391.972 204V197.455H393.732V198.597H393.801C393.92 198.19 394.12 197.884 394.401 197.676C394.683 197.466 395.007 197.361 395.373 197.361C395.464 197.361 395.562 197.366 395.667 197.378C395.772 197.389 395.865 197.405 395.944 197.425V199.036C395.859 199.01 395.741 198.987 395.59 198.967C395.44 198.947 395.302 198.938 395.177 198.938C394.91 198.938 394.671 198.996 394.461 199.112C394.254 199.226 394.089 199.385 393.967 199.589C393.847 199.794 393.788 200.03 393.788 200.297V204H391.972Z" fill="#0B0755"/>
<path d="M295.115 68.5265C318.919 51.9649 347.209 43.0598 376.208 43.0003C405.206 42.9408 433.532 51.7298 457.404 68.1935L446.886 83.4434C426.118 69.1199 401.474 61.4735 376.246 61.5253C351.017 61.577 326.405 69.3245 305.695 83.7331L295.115 68.5265Z" fill="#1B76B3"/>
<path d="M265.624 95.9856C274.107 85.4785 284.04 76.2304 295.126 68.519L305.705 83.7266C296.06 90.4355 287.418 98.4813 280.038 107.622L265.624 95.9856Z" fill="#61A5FB"/>
<path d="M457.454 68.2283C468.568 75.9 478.534 85.1124 487.055 95.5892L472.682 107.278C465.27 98.1628 456.599 90.148 446.93 83.4736L457.454 68.2283Z" fill="#FEA3AF"/>
<path d="M361.783 29.2727V38H359.938V29.2727H361.783ZM365.083 34.2159V38H363.267V31.4545H364.998V32.6094H365.074C365.219 32.2287 365.462 31.9276 365.803 31.706C366.144 31.4815 366.557 31.3693 367.043 31.3693C367.498 31.3693 367.894 31.4688 368.232 31.6676C368.57 31.8665 368.833 32.1506 369.02 32.5199C369.208 32.8864 369.301 33.3239 369.301 33.8324V38H367.486V34.1562C367.489 33.7557 367.387 33.4432 367.179 33.2188C366.972 32.9915 366.686 32.8778 366.323 32.8778C366.078 32.8778 365.863 32.9304 365.675 33.0355C365.49 33.1406 365.346 33.294 365.24 33.4957C365.138 33.6946 365.086 33.9347 365.083 34.2159ZM376.178 33.321L374.516 33.4233C374.488 33.2812 374.427 33.1534 374.333 33.0398C374.239 32.9233 374.116 32.831 373.962 32.7628C373.812 32.6918 373.631 32.6562 373.421 32.6562C373.14 32.6562 372.903 32.7159 372.71 32.8352C372.516 32.9517 372.42 33.108 372.42 33.304C372.42 33.4602 372.482 33.5923 372.607 33.7003C372.732 33.8082 372.947 33.8949 373.251 33.9602L374.435 34.1989C375.072 34.3295 375.546 34.5398 375.859 34.8295C376.171 35.1193 376.327 35.5 376.327 35.9716C376.327 36.4006 376.201 36.777 375.948 37.1009C375.698 37.4247 375.354 37.6776 374.917 37.8594C374.482 38.0384 373.981 38.1278 373.413 38.1278C372.546 38.1278 371.856 37.9474 371.342 37.5866C370.83 37.223 370.531 36.7287 370.442 36.1037L372.228 36.0099C372.282 36.2741 372.413 36.4759 372.62 36.6151C372.827 36.7514 373.093 36.8196 373.417 36.8196C373.735 36.8196 373.991 36.7585 374.184 36.6364C374.38 36.5114 374.479 36.3509 374.482 36.1548C374.479 35.9901 374.41 35.8551 374.273 35.75C374.137 35.642 373.927 35.5597 373.643 35.5028L372.509 35.277C371.87 35.1491 371.394 34.9276 371.082 34.6122C370.772 34.2969 370.617 33.8949 370.617 33.4062C370.617 32.9858 370.731 32.6236 370.958 32.3196C371.188 32.0156 371.511 31.7812 371.925 31.6165C372.343 31.4517 372.832 31.3693 373.391 31.3693C374.218 31.3693 374.869 31.544 375.343 31.8935C375.82 32.2429 376.099 32.7187 376.178 33.321ZM380.453 38.1278C379.78 38.1278 379.201 37.9915 378.715 37.7188C378.232 37.4432 377.86 37.054 377.598 36.5511C377.337 36.0455 377.206 35.4474 377.206 34.7571C377.206 34.0838 377.337 33.4929 377.598 32.9844C377.86 32.4759 378.228 32.0795 378.702 31.7955C379.179 31.5114 379.739 31.3693 380.381 31.3693C380.813 31.3693 381.215 31.4389 381.587 31.5781C381.962 31.7145 382.289 31.9205 382.567 32.196C382.848 32.4716 383.067 32.8182 383.223 33.2358C383.38 33.6506 383.458 34.1364 383.458 34.6932V35.1918H377.931V34.0668H381.749C381.749 33.8054 381.692 33.5739 381.578 33.3722C381.465 33.1705 381.307 33.0128 381.105 32.8991C380.907 32.7827 380.675 32.7244 380.411 32.7244C380.135 32.7244 379.891 32.7884 379.678 32.9162C379.468 33.0412 379.303 33.2102 379.184 33.4233C379.064 33.6335 379.003 33.8679 379 34.1264V35.196C379 35.5199 379.06 35.7997 379.179 36.0355C379.301 36.2713 379.473 36.4531 379.695 36.581C379.917 36.7088 380.179 36.7727 380.483 36.7727C380.685 36.7727 380.87 36.7443 381.037 36.6875C381.205 36.6307 381.348 36.5455 381.468 36.4318C381.587 36.3182 381.678 36.179 381.74 36.0142L383.419 36.125C383.334 36.5284 383.159 36.8807 382.895 37.1818C382.634 37.4801 382.296 37.7131 381.881 37.8807C381.469 38.0455 380.993 38.1278 380.453 38.1278ZM384.642 38V31.4545H386.402V32.5966H386.471C386.59 32.1903 386.79 31.8835 387.071 31.6761C387.353 31.4659 387.676 31.3608 388.043 31.3608C388.134 31.3608 388.232 31.3665 388.337 31.3778C388.442 31.3892 388.534 31.4048 388.614 31.4247V33.0355C388.529 33.0099 388.411 32.9872 388.26 32.9673C388.11 32.9474 387.972 32.9375 387.847 32.9375C387.58 32.9375 387.341 32.9957 387.131 33.1122C386.924 33.2259 386.759 33.3849 386.637 33.5895C386.517 33.794 386.458 34.0298 386.458 34.2969V38H384.642ZM393.362 31.4545V32.8182H389.42V31.4545H393.362ZM390.315 29.8864H392.131V35.9886C392.131 36.1562 392.156 36.2869 392.207 36.3807C392.259 36.4716 392.33 36.5355 392.42 36.5724C392.514 36.6094 392.622 36.6278 392.744 36.6278C392.83 36.6278 392.915 36.6207 393 36.6065C393.085 36.5895 393.151 36.5767 393.196 36.5682L393.482 37.919C393.391 37.9474 393.263 37.9801 393.098 38.017C392.933 38.0568 392.733 38.081 392.497 38.0895C392.06 38.1065 391.676 38.0483 391.347 37.9148C391.02 37.7812 390.766 37.5739 390.584 37.2926C390.402 37.0114 390.313 36.6562 390.315 36.2273V29.8864Z" fill="#0B0755"/>
<line x1="418.583" y1="126.724" x2="463.583" y2="58.7241" stroke="#3A035D" stroke-dasharray="2 2"/>
<line x1="436.673" y1="138.622" x2="496.673" y2="86.6222" stroke="#3A035D" stroke-dasharray="2 2"/>
<line x1="319.251" y1="141.912" x2="257.672" y2="88.4614" stroke="#61A5FB" stroke-dasharray="2 2"/>
<line x1="333.398" y1="125.521" x2="289.632" y2="59.2755" stroke="#61A5FB" stroke-dasharray="2 2"/>
<path d="M727.493 120.533C740.384 136.085 748.586 154.982 751.143 175.019C753.7 195.056 750.506 215.408 741.933 233.698C733.361 251.989 719.763 267.464 702.727 278.318C685.692 289.172 665.92 294.958 645.72 295C625.521 295.042 605.726 289.338 588.645 278.554C571.564 267.771 557.903 252.352 549.255 234.097C540.606 215.842 537.328 195.504 539.802 175.456C542.276 155.409 550.4 136.478 563.227 120.873L575.568 131.017C564.665 144.281 557.759 160.372 555.657 177.413C553.554 194.454 556.34 211.741 563.691 227.257C571.042 242.774 582.655 255.88 597.173 265.046C611.692 274.212 628.518 279.06 645.687 279.025C662.857 278.989 679.663 274.072 694.143 264.845C708.624 255.619 720.182 242.465 727.468 226.918C734.755 211.371 737.47 194.073 735.297 177.041C733.123 160.009 726.151 143.947 715.194 130.728L727.493 120.533Z" fill="#A8D8E8"/>
<path d="M563.005 121.144C572.964 108.947 585.503 99.1098 599.721 92.3413C613.938 85.5728 629.479 82.0411 645.225 82.0004C660.971 81.9596 676.53 85.411 690.782 92.1059C705.034 98.8008 717.624 108.573 727.645 120.718L715.323 130.885C706.805 120.562 696.103 112.256 683.989 106.565C671.875 100.874 658.65 97.9407 645.266 97.9753C631.882 98.0099 618.672 101.012 606.587 106.765C594.503 112.518 583.844 120.88 575.38 131.247L563.005 121.144Z" fill="#1B76B3"/>
<path d="M563.193 120.914C569.598 113.115 577.079 106.265 585.411 100.57L594.425 113.76C587.342 118.6 580.983 124.422 575.539 131.052L563.193 120.914Z" fill="#61A5FB"/>
<path d="M705.2 100.306C713.557 105.963 721.069 112.78 727.508 120.552L715.207 130.744C709.733 124.138 703.349 118.344 696.245 113.535L705.2 100.306Z" fill="#FEA3AF"/>
<path d="M607.61 196V187.273H613.388V188.794H609.455V190.874H613.005V192.395H609.455V196H607.61ZM614.596 196V189.455H616.411V196H614.596ZM615.507 188.611C615.238 188.611 615.006 188.521 614.813 188.342C614.623 188.161 614.527 187.943 614.527 187.69C614.527 187.44 614.623 187.226 614.813 187.047C615.006 186.865 615.238 186.774 615.507 186.774C615.777 186.774 616.007 186.865 616.198 187.047C616.391 187.226 616.488 187.44 616.488 187.69C616.488 187.943 616.391 188.161 616.198 188.342C616.007 188.521 615.777 188.611 615.507 188.611ZM619.68 192.216V196H617.865V189.455H619.595V190.609H619.672C619.817 190.229 620.06 189.928 620.401 189.706C620.741 189.482 621.155 189.369 621.641 189.369C622.095 189.369 622.491 189.469 622.83 189.668C623.168 189.866 623.43 190.151 623.618 190.52C623.805 190.886 623.899 191.324 623.899 191.832V196H622.084V192.156C622.087 191.756 621.984 191.443 621.777 191.219C621.57 190.991 621.284 190.878 620.92 190.878C620.676 190.878 620.46 190.93 620.273 191.036C620.088 191.141 619.943 191.294 619.838 191.496C619.736 191.695 619.683 191.935 619.68 192.216ZM627.196 196.124C626.779 196.124 626.407 196.051 626.08 195.906C625.753 195.759 625.495 195.541 625.304 195.254C625.117 194.964 625.023 194.604 625.023 194.172C625.023 193.808 625.09 193.503 625.223 193.256C625.357 193.009 625.539 192.81 625.769 192.659C625.999 192.509 626.26 192.395 626.553 192.318C626.848 192.241 627.158 192.188 627.482 192.156C627.863 192.116 628.169 192.08 628.402 192.045C628.635 192.009 628.804 191.955 628.909 191.884C629.015 191.812 629.067 191.707 629.067 191.568V191.543C629.067 191.273 628.982 191.064 628.811 190.916C628.644 190.768 628.405 190.695 628.096 190.695C627.769 190.695 627.509 190.767 627.316 190.912C627.123 191.054 626.995 191.233 626.932 191.449L625.253 191.312C625.338 190.915 625.506 190.571 625.756 190.281C626.006 189.989 626.328 189.764 626.723 189.608C627.121 189.449 627.581 189.369 628.104 189.369C628.468 189.369 628.816 189.412 629.148 189.497C629.483 189.582 629.78 189.714 630.039 189.893C630.3 190.072 630.506 190.303 630.657 190.584C630.807 190.862 630.882 191.196 630.882 191.585V196H629.161V195.092H629.11C629.005 195.297 628.864 195.477 628.688 195.634C628.512 195.787 628.3 195.908 628.053 195.996C627.806 196.081 627.52 196.124 627.196 196.124ZM627.716 194.871C627.983 194.871 628.219 194.818 628.424 194.713C628.628 194.605 628.789 194.46 628.905 194.278C629.022 194.097 629.08 193.891 629.08 193.661V192.966C629.023 193.003 628.945 193.037 628.846 193.068C628.749 193.097 628.64 193.124 628.517 193.149C628.395 193.172 628.273 193.193 628.151 193.213C628.029 193.23 627.918 193.246 627.819 193.26C627.605 193.291 627.419 193.341 627.26 193.409C627.101 193.477 626.978 193.57 626.89 193.686C626.801 193.8 626.757 193.942 626.757 194.112C626.757 194.359 626.847 194.548 627.026 194.679C627.208 194.807 627.438 194.871 627.716 194.871ZM634.106 187.273V196H632.291V187.273H634.106ZM638.372 196V187.273H641.815C642.477 187.273 643.041 187.399 643.507 187.652C643.973 187.902 644.328 188.25 644.572 188.696C644.819 189.139 644.943 189.651 644.943 190.23C644.943 190.81 644.818 191.321 644.568 191.764C644.318 192.207 643.956 192.553 643.481 192.8C643.01 193.047 642.439 193.17 641.768 193.17H639.574V191.692H641.47C641.825 191.692 642.118 191.631 642.348 191.509C642.581 191.384 642.754 191.212 642.868 190.993C642.984 190.771 643.042 190.517 643.042 190.23C643.042 189.94 642.984 189.687 642.868 189.472C642.754 189.253 642.581 189.084 642.348 188.964C642.115 188.842 641.819 188.781 641.461 188.781H640.217V196H638.372ZM646.107 196V189.455H647.867V190.597H647.935C648.055 190.19 648.255 189.884 648.536 189.676C648.817 189.466 649.141 189.361 649.508 189.361C649.599 189.361 649.697 189.366 649.802 189.378C649.907 189.389 649.999 189.405 650.079 189.425V191.036C649.994 191.01 649.876 190.987 649.725 190.967C649.575 190.947 649.437 190.938 649.312 190.938C649.045 190.938 648.806 190.996 648.596 191.112C648.388 191.226 648.224 191.385 648.102 191.589C647.982 191.794 647.923 192.03 647.923 192.297V196H646.107ZM653.67 196.128C653.008 196.128 652.436 195.987 651.953 195.706C651.473 195.422 651.102 195.027 650.841 194.521C650.579 194.013 650.449 193.423 650.449 192.753C650.449 192.077 650.579 191.486 650.841 190.98C651.102 190.472 651.473 190.077 651.953 189.795C652.436 189.511 653.008 189.369 653.67 189.369C654.332 189.369 654.903 189.511 655.383 189.795C655.866 190.077 656.238 190.472 656.5 190.98C656.761 191.486 656.892 192.077 656.892 192.753C656.892 193.423 656.761 194.013 656.5 194.521C656.238 195.027 655.866 195.422 655.383 195.706C654.903 195.987 654.332 196.128 653.67 196.128ZM653.679 194.722C653.98 194.722 654.231 194.636 654.433 194.466C654.635 194.293 654.787 194.057 654.889 193.759C654.994 193.46 655.047 193.121 655.047 192.74C655.047 192.359 654.994 192.02 654.889 191.722C654.787 191.423 654.635 191.187 654.433 191.014C654.231 190.841 653.98 190.754 653.679 190.754C653.375 190.754 653.119 190.841 652.912 191.014C652.707 191.187 652.552 191.423 652.447 191.722C652.345 192.02 652.294 192.359 652.294 192.74C652.294 193.121 652.345 193.46 652.447 193.759C652.552 194.057 652.707 194.293 652.912 194.466C653.119 194.636 653.375 194.722 653.679 194.722ZM660.484 196.107C659.987 196.107 659.537 195.979 659.133 195.723C658.733 195.464 658.414 195.085 658.179 194.585C657.946 194.082 657.829 193.466 657.829 192.736C657.829 191.986 657.95 191.362 658.191 190.865C658.433 190.365 658.754 189.991 659.154 189.744C659.558 189.494 660 189.369 660.48 189.369C660.846 189.369 661.152 189.432 661.396 189.557C661.643 189.679 661.842 189.832 661.993 190.017C662.146 190.199 662.262 190.378 662.342 190.554H662.397V187.273H664.208V196H662.419V194.952H662.342C662.257 195.134 662.136 195.314 661.98 195.493C661.826 195.669 661.626 195.815 661.379 195.932C661.135 196.048 660.836 196.107 660.484 196.107ZM661.059 194.662C661.352 194.662 661.599 194.582 661.801 194.423C662.005 194.261 662.162 194.036 662.27 193.746C662.38 193.456 662.436 193.116 662.436 192.727C662.436 192.338 662.382 192 662.274 191.713C662.166 191.426 662.01 191.205 661.805 191.048C661.6 190.892 661.352 190.814 661.059 190.814C660.761 190.814 660.51 190.895 660.305 191.057C660.1 191.219 659.946 191.443 659.841 191.73C659.735 192.017 659.683 192.349 659.683 192.727C659.683 193.108 659.735 193.445 659.841 193.737C659.949 194.027 660.103 194.254 660.305 194.419C660.51 194.581 660.761 194.662 661.059 194.662ZM669.898 193.213V189.455H671.714V196H669.971V194.811H669.903C669.755 195.195 669.509 195.503 669.165 195.736C668.825 195.969 668.408 196.085 667.917 196.085C667.479 196.085 667.094 195.986 666.762 195.787C666.43 195.588 666.17 195.305 665.982 194.939C665.798 194.572 665.704 194.134 665.701 193.622V189.455H667.516V193.298C667.519 193.685 667.623 193.99 667.827 194.214C668.032 194.439 668.306 194.551 668.65 194.551C668.869 194.551 669.073 194.501 669.263 194.402C669.454 194.3 669.607 194.149 669.724 193.95C669.843 193.751 669.901 193.506 669.898 193.213ZM676.123 196.128C675.453 196.128 674.876 195.986 674.393 195.702C673.913 195.415 673.544 195.017 673.285 194.509C673.029 194 672.902 193.415 672.902 192.753C672.902 192.082 673.031 191.494 673.289 190.989C673.551 190.48 673.922 190.084 674.402 189.8C674.882 189.513 675.453 189.369 676.115 189.369C676.686 189.369 677.186 189.473 677.615 189.68C678.044 189.888 678.383 190.179 678.633 190.554C678.883 190.929 679.021 191.369 679.047 191.875H677.333C677.285 191.548 677.157 191.286 676.95 191.087C676.745 190.885 676.477 190.784 676.145 190.784C675.863 190.784 675.618 190.861 675.407 191.014C675.2 191.165 675.038 191.385 674.922 191.675C674.805 191.964 674.747 192.315 674.747 192.727C674.747 193.145 674.804 193.5 674.917 193.793C675.034 194.085 675.197 194.308 675.407 194.462C675.618 194.615 675.863 194.692 676.145 194.692C676.352 194.692 676.538 194.649 676.703 194.564C676.87 194.479 677.008 194.355 677.116 194.193C677.227 194.028 677.299 193.831 677.333 193.601H679.047C679.018 194.101 678.882 194.541 678.637 194.922C678.396 195.3 678.062 195.595 677.636 195.808C677.21 196.021 676.706 196.128 676.123 196.128ZM683.69 189.455V190.818H679.749V189.455H683.69ZM680.643 187.886H682.459V193.989C682.459 194.156 682.484 194.287 682.536 194.381C682.587 194.472 682.658 194.536 682.749 194.572C682.842 194.609 682.95 194.628 683.072 194.628C683.158 194.628 683.243 194.621 683.328 194.607C683.413 194.589 683.479 194.577 683.524 194.568L683.81 195.919C683.719 195.947 683.591 195.98 683.426 196.017C683.261 196.057 683.061 196.081 682.825 196.089C682.388 196.107 682.004 196.048 681.675 195.915C681.348 195.781 681.094 195.574 680.912 195.293C680.73 195.011 680.641 194.656 680.643 194.227V187.886Z" fill="#0B0755"/>
<path d="M643.487 67.2727V76H641.641V67.2727H643.487ZM648.75 67.2727V76H646.905V69.0241H646.854L644.855 70.277V68.6406L647.016 67.2727H648.75Z" fill="#0B0755"/>
<path d="M189.493 120.533C202.384 136.085 210.586 154.982 213.143 175.019C215.7 195.056 212.506 215.408 203.933 233.698C195.361 251.989 181.763 267.464 164.727 278.318C147.692 289.172 127.92 294.958 107.72 295C87.5207 295.042 67.7255 289.338 50.645 278.554C33.5645 267.771 19.9029 252.352 11.2546 234.097C2.60627 215.842 -0.672197 195.504 1.80178 175.456C4.27575 155.409 12.4001 136.478 25.2269 120.873L37.5678 131.017C26.6651 144.281 19.7594 160.372 17.6565 177.413C15.5536 194.454 18.3403 211.741 25.6914 227.257C33.0425 242.774 44.6548 255.88 59.1733 265.046C73.6917 274.212 90.5176 279.06 107.687 279.025C124.857 278.989 141.663 274.072 156.143 264.845C170.624 255.619 182.182 242.465 189.468 226.918C196.755 211.371 199.47 194.073 197.297 177.041C195.123 160.009 188.151 143.947 177.194 130.728L189.493 120.533Z" fill="#A8D8E8"/>
<path d="M77.4734 189H74.3796V180.273H77.4989C78.3768 180.273 79.1325 180.447 79.766 180.797C80.3995 181.143 80.8867 181.642 81.2276 182.293C81.5714 182.943 81.7433 183.722 81.7433 184.628C81.7433 185.537 81.5714 186.318 81.2276 186.972C80.8867 187.625 80.3967 188.126 79.7575 188.476C79.1211 188.825 78.3597 189 77.4734 189ZM76.2248 187.419H77.3967C77.9421 187.419 78.4009 187.322 78.7731 187.129C79.1481 186.933 79.4293 186.631 79.6168 186.222C79.8072 185.81 79.9023 185.278 79.9023 184.628C79.9023 183.983 79.8072 183.456 79.6168 183.047C79.4293 182.638 79.1495 182.337 78.7773 182.143C78.4052 181.95 77.9464 181.854 77.4009 181.854H76.2248V187.419ZM86.0589 189.128C85.3857 189.128 84.8061 188.991 84.3203 188.719C83.8374 188.443 83.4652 188.054 83.2038 187.551C82.9425 187.045 82.8118 186.447 82.8118 185.757C82.8118 185.084 82.9425 184.493 83.2038 183.984C83.4652 183.476 83.8331 183.08 84.3075 182.795C84.7848 182.511 85.3445 182.369 85.9865 182.369C86.4183 182.369 86.8203 182.439 87.1925 182.578C87.5675 182.714 87.8942 182.92 88.1726 183.196C88.4538 183.472 88.6726 183.818 88.8288 184.236C88.9851 184.651 89.0632 185.136 89.0632 185.693V186.192H83.5362V185.067H87.3544C87.3544 184.805 87.2976 184.574 87.1839 184.372C87.0703 184.17 86.9126 184.013 86.7109 183.899C86.5121 183.783 86.2805 183.724 86.0163 183.724C85.7408 183.724 85.4964 183.788 85.2834 183.916C85.0732 184.041 84.9084 184.21 84.7891 184.423C84.6697 184.634 84.6087 184.868 84.6058 185.126V186.196C84.6058 186.52 84.6655 186.8 84.7848 187.036C84.907 187.271 85.0788 187.453 85.3004 187.581C85.522 187.709 85.7848 187.773 86.0888 187.773C86.2905 187.773 86.4751 187.744 86.6428 187.688C86.8104 187.631 86.9538 187.545 87.0732 187.432C87.1925 187.318 87.2834 187.179 87.3459 187.014L89.0249 187.125C88.9396 187.528 88.7649 187.881 88.5007 188.182C88.2393 188.48 87.9013 188.713 87.4865 188.881C87.0746 189.045 86.5987 189.128 86.0589 189.128ZM95.6939 184.321L94.032 184.423C94.0036 184.281 93.9425 184.153 93.8487 184.04C93.755 183.923 93.6314 183.831 93.478 183.763C93.3274 183.692 93.147 183.656 92.9368 183.656C92.6555 183.656 92.4183 183.716 92.2251 183.835C92.032 183.952 91.9354 184.108 91.9354 184.304C91.9354 184.46 91.9979 184.592 92.1229 184.7C92.2479 184.808 92.4624 184.895 92.7663 184.96L93.951 185.199C94.5874 185.33 95.0618 185.54 95.3743 185.83C95.6868 186.119 95.843 186.5 95.843 186.972C95.843 187.401 95.7166 187.777 95.4638 188.101C95.2138 188.425 94.87 188.678 94.4325 188.859C93.9979 189.038 93.4964 189.128 92.9283 189.128C92.0618 189.128 91.3714 188.947 90.8572 188.587C90.3459 188.223 90.0462 187.729 89.9581 187.104L91.7436 187.01C91.7976 187.274 91.9283 187.476 92.1357 187.615C92.343 187.751 92.6087 187.82 92.9325 187.82C93.2507 187.82 93.5064 187.759 93.6996 187.636C93.8956 187.511 93.995 187.351 93.9979 187.155C93.995 186.99 93.9254 186.855 93.7891 186.75C93.6527 186.642 93.4425 186.56 93.1584 186.503L92.0249 186.277C91.3857 186.149 90.9098 185.928 90.5973 185.612C90.2876 185.297 90.1328 184.895 90.1328 184.406C90.1328 183.986 90.2464 183.624 90.4737 183.32C90.7038 183.016 91.0263 182.781 91.4411 182.616C91.8587 182.452 92.3473 182.369 92.907 182.369C93.7337 182.369 94.3842 182.544 94.8587 182.893C95.3359 183.243 95.6143 183.719 95.6939 184.321ZM100.468 182.455V183.818H96.5259V182.455H100.468ZM97.4208 180.886H99.2362V186.989C99.2362 187.156 99.2617 187.287 99.3129 187.381C99.364 187.472 99.435 187.536 99.5259 187.572C99.6197 187.609 99.7276 187.628 99.8498 187.628C99.935 187.628 100.02 187.621 100.105 187.607C100.191 187.589 100.256 187.577 100.301 187.568L100.587 188.919C100.496 188.947 100.368 188.98 100.203 189.017C100.039 189.057 99.8384 189.081 99.6026 189.089C99.1651 189.107 98.7816 189.048 98.4521 188.915C98.1254 188.781 97.8711 188.574 97.6893 188.293C97.5075 188.011 97.418 187.656 97.4208 187.227V180.886ZM101.65 189V182.455H103.466V189H101.65ZM102.562 181.611C102.292 181.611 102.061 181.521 101.868 181.342C101.677 181.161 101.582 180.943 101.582 180.69C101.582 180.44 101.677 180.226 101.868 180.047C102.061 179.865 102.292 179.774 102.562 179.774C102.832 179.774 103.062 179.865 103.252 180.047C103.446 180.226 103.542 180.44 103.542 180.69C103.542 180.943 103.446 181.161 103.252 181.342C103.062 181.521 102.832 181.611 102.562 181.611ZM106.735 185.216V189H104.92V182.455H106.65V183.609H106.727C106.871 183.229 107.114 182.928 107.455 182.706C107.796 182.482 108.21 182.369 108.695 182.369C109.15 182.369 109.546 182.469 109.884 182.668C110.222 182.866 110.485 183.151 110.673 183.52C110.86 183.886 110.954 184.324 110.954 184.832V189H109.138V185.156C109.141 184.756 109.039 184.443 108.832 184.219C108.624 183.991 108.339 183.878 107.975 183.878C107.731 183.878 107.515 183.93 107.327 184.036C107.143 184.141 106.998 184.294 106.893 184.496C106.79 184.695 106.738 184.935 106.735 185.216ZM114.251 189.124C113.833 189.124 113.461 189.051 113.135 188.906C112.808 188.759 112.549 188.541 112.359 188.254C112.172 187.964 112.078 187.604 112.078 187.172C112.078 186.808 112.145 186.503 112.278 186.256C112.412 186.009 112.593 185.81 112.824 185.659C113.054 185.509 113.315 185.395 113.608 185.318C113.903 185.241 114.213 185.188 114.537 185.156C114.917 185.116 115.224 185.08 115.457 185.045C115.69 185.009 115.859 184.955 115.964 184.884C116.069 184.812 116.122 184.707 116.122 184.568V184.543C116.122 184.273 116.037 184.064 115.866 183.916C115.699 183.768 115.46 183.695 115.15 183.695C114.824 183.695 114.564 183.767 114.37 183.912C114.177 184.054 114.049 184.233 113.987 184.449L112.308 184.312C112.393 183.915 112.561 183.571 112.811 183.281C113.061 182.989 113.383 182.764 113.778 182.608C114.176 182.449 114.636 182.369 115.159 182.369C115.522 182.369 115.87 182.412 116.203 182.497C116.538 182.582 116.835 182.714 117.093 182.893C117.355 183.072 117.561 183.303 117.711 183.584C117.862 183.862 117.937 184.196 117.937 184.585V189H116.216V188.092H116.164C116.059 188.297 115.919 188.477 115.743 188.634C115.566 188.787 115.355 188.908 115.108 188.996C114.86 189.081 114.575 189.124 114.251 189.124ZM114.771 187.871C115.038 187.871 115.274 187.818 115.478 187.713C115.683 187.605 115.843 187.46 115.96 187.278C116.076 187.097 116.135 186.891 116.135 186.661V185.966C116.078 186.003 116 186.037 115.9 186.068C115.804 186.097 115.694 186.124 115.572 186.149C115.45 186.172 115.328 186.193 115.206 186.213C115.083 186.23 114.973 186.246 114.873 186.26C114.66 186.291 114.474 186.341 114.315 186.409C114.156 186.477 114.032 186.57 113.944 186.686C113.856 186.8 113.812 186.942 113.812 187.112C113.812 187.359 113.902 187.548 114.081 187.679C114.262 187.807 114.493 187.871 114.771 187.871ZM122.827 182.455V183.818H118.885V182.455H122.827ZM119.78 180.886H121.596V186.989C121.596 187.156 121.621 187.287 121.672 187.381C121.723 187.472 121.794 187.536 121.885 187.572C121.979 187.609 122.087 187.628 122.209 187.628C122.294 187.628 122.38 187.621 122.465 187.607C122.55 187.589 122.615 187.577 122.661 187.568L122.946 188.919C122.855 188.947 122.728 188.98 122.563 189.017C122.398 189.057 122.198 189.081 121.962 189.089C121.525 189.107 121.141 189.048 120.811 188.915C120.485 188.781 120.23 188.574 120.049 188.293C119.867 188.011 119.777 187.656 119.78 187.227V180.886ZM124.01 189V182.455H125.825V189H124.01ZM124.922 181.611C124.652 181.611 124.42 181.521 124.227 181.342C124.037 181.161 123.941 180.943 123.941 180.69C123.941 180.44 124.037 180.226 124.227 180.047C124.42 179.865 124.652 179.774 124.922 179.774C125.191 179.774 125.422 179.865 125.612 180.047C125.805 180.226 125.902 180.44 125.902 180.69C125.902 180.943 125.805 181.161 125.612 181.342C125.422 181.521 125.191 181.611 124.922 181.611ZM130.237 189.128C129.575 189.128 129.002 188.987 128.519 188.706C128.039 188.422 127.668 188.027 127.407 187.521C127.146 187.013 127.015 186.423 127.015 185.753C127.015 185.077 127.146 184.486 127.407 183.98C127.668 183.472 128.039 183.077 128.519 182.795C129.002 182.511 129.575 182.369 130.237 182.369C130.898 182.369 131.469 182.511 131.95 182.795C132.433 183.077 132.805 183.472 133.066 183.98C133.327 184.486 133.458 185.077 133.458 185.753C133.458 186.423 133.327 187.013 133.066 187.521C132.805 188.027 132.433 188.422 131.95 188.706C131.469 188.987 130.898 189.128 130.237 189.128ZM130.245 187.722C130.546 187.722 130.798 187.636 130.999 187.466C131.201 187.293 131.353 187.057 131.455 186.759C131.56 186.46 131.613 186.121 131.613 185.74C131.613 185.359 131.56 185.02 131.455 184.722C131.353 184.423 131.201 184.187 130.999 184.014C130.798 183.841 130.546 183.754 130.245 183.754C129.941 183.754 129.685 183.841 129.478 184.014C129.273 184.187 129.119 184.423 129.013 184.722C128.911 185.02 128.86 185.359 128.86 185.74C128.86 186.121 128.911 186.46 129.013 186.759C129.119 187.057 129.273 187.293 129.478 187.466C129.685 187.636 129.941 187.722 130.245 187.722ZM136.454 185.216V189H134.638V182.455H136.369V183.609H136.445C136.59 183.229 136.833 182.928 137.174 182.706C137.515 182.482 137.928 182.369 138.414 182.369C138.869 182.369 139.265 182.469 139.603 182.668C139.941 182.866 140.204 183.151 140.391 183.52C140.579 183.886 140.673 184.324 140.673 184.832V189H138.857V185.156C138.86 184.756 138.758 184.443 138.55 184.219C138.343 183.991 138.058 183.878 137.694 183.878C137.45 183.878 137.234 183.93 137.046 184.036C136.862 184.141 136.717 184.294 136.612 184.496C136.509 184.695 136.457 184.935 136.454 185.216ZM90.177 195.273L92.2864 201.903H92.3674L94.481 195.273H96.5265L93.5179 204H91.1401L88.1273 195.273H90.177ZM99.7875 204.128C99.1142 204.128 98.5346 203.991 98.0488 203.719C97.5659 203.443 97.1937 203.054 96.9324 202.551C96.671 202.045 96.5403 201.447 96.5403 200.757C96.5403 200.084 96.671 199.493 96.9324 198.984C97.1937 198.476 97.5616 198.08 98.036 197.795C98.5133 197.511 99.073 197.369 99.715 197.369C100.147 197.369 100.549 197.439 100.921 197.578C101.296 197.714 101.623 197.92 101.901 198.196C102.182 198.472 102.401 198.818 102.557 199.236C102.714 199.651 102.792 200.136 102.792 200.693V201.192H97.2647V200.067H101.083C101.083 199.805 101.026 199.574 100.912 199.372C100.799 199.17 100.641 199.013 100.439 198.899C100.241 198.783 100.009 198.724 99.7449 198.724C99.4693 198.724 99.225 198.788 99.0119 198.916C98.8017 199.041 98.6369 199.21 98.5176 199.423C98.3983 199.634 98.3372 199.868 98.3343 200.126V201.196C98.3343 201.52 98.394 201.8 98.5133 202.036C98.6355 202.271 98.8074 202.453 99.0289 202.581C99.2505 202.709 99.5133 202.773 99.8173 202.773C100.019 202.773 100.204 202.744 100.371 202.688C100.539 202.631 100.682 202.545 100.802 202.432C100.921 202.318 101.012 202.179 101.074 202.014L102.753 202.125C102.668 202.528 102.493 202.881 102.229 203.182C101.968 203.48 101.63 203.713 101.215 203.881C100.803 204.045 100.327 204.128 99.7875 204.128ZM106.934 204.128C106.263 204.128 105.687 203.986 105.204 203.702C104.724 203.415 104.354 203.017 104.096 202.509C103.84 202 103.712 201.415 103.712 200.753C103.712 200.082 103.841 199.494 104.1 198.989C104.361 198.48 104.732 198.084 105.212 197.8C105.692 197.513 106.263 197.369 106.925 197.369C107.496 197.369 107.996 197.473 108.425 197.68C108.854 197.888 109.194 198.179 109.444 198.554C109.694 198.929 109.831 199.369 109.857 199.875H108.144C108.096 199.548 107.968 199.286 107.76 199.087C107.556 198.885 107.287 198.784 106.955 198.784C106.674 198.784 106.428 198.861 106.218 199.014C106.01 199.165 105.849 199.385 105.732 199.675C105.616 199.964 105.557 200.315 105.557 200.727C105.557 201.145 105.614 201.5 105.728 201.793C105.844 202.085 106.008 202.308 106.218 202.462C106.428 202.615 106.674 202.692 106.955 202.692C107.162 202.692 107.349 202.649 107.513 202.564C107.681 202.479 107.819 202.355 107.927 202.193C108.037 202.028 108.11 201.831 108.144 201.601H109.857C109.829 202.101 109.692 202.541 109.448 202.922C109.206 203.3 108.873 203.595 108.447 203.808C108.02 204.021 107.516 204.128 106.934 204.128ZM114.501 197.455V198.818H110.559V197.455H114.501ZM111.454 195.886H113.269V201.989C113.269 202.156 113.295 202.287 113.346 202.381C113.397 202.472 113.468 202.536 113.559 202.572C113.653 202.609 113.761 202.628 113.883 202.628C113.968 202.628 114.053 202.621 114.139 202.607C114.224 202.589 114.289 202.577 114.335 202.568L114.62 203.919C114.529 203.947 114.401 203.98 114.237 204.017C114.072 204.057 113.872 204.081 113.636 204.089C113.198 204.107 112.815 204.048 112.485 203.915C112.159 203.781 111.904 203.574 111.722 203.293C111.541 203.011 111.451 202.656 111.454 202.227V195.886ZM118.57 204.128C117.909 204.128 117.336 203.987 116.853 203.706C116.373 203.422 116.002 203.027 115.741 202.521C115.48 202.013 115.349 201.423 115.349 200.753C115.349 200.077 115.48 199.486 115.741 198.98C116.002 198.472 116.373 198.077 116.853 197.795C117.336 197.511 117.909 197.369 118.57 197.369C119.232 197.369 119.803 197.511 120.284 197.795C120.767 198.077 121.139 198.472 121.4 198.98C121.661 199.486 121.792 200.077 121.792 200.753C121.792 201.423 121.661 202.013 121.4 202.521C121.139 203.027 120.767 203.422 120.284 203.706C119.803 203.987 119.232 204.128 118.57 204.128ZM118.579 202.722C118.88 202.722 119.132 202.636 119.333 202.466C119.535 202.293 119.687 202.057 119.789 201.759C119.894 201.46 119.947 201.121 119.947 200.74C119.947 200.359 119.894 200.02 119.789 199.722C119.687 199.423 119.535 199.187 119.333 199.014C119.132 198.841 118.88 198.754 118.579 198.754C118.275 198.754 118.019 198.841 117.812 199.014C117.607 199.187 117.453 199.423 117.347 199.722C117.245 200.02 117.194 200.359 117.194 200.74C117.194 201.121 117.245 201.46 117.347 201.759C117.453 202.057 117.607 202.293 117.812 202.466C118.019 202.636 118.275 202.722 118.579 202.722ZM122.972 204V197.455H124.732V198.597H124.801C124.92 198.19 125.12 197.884 125.401 197.676C125.683 197.466 126.007 197.361 126.373 197.361C126.464 197.361 126.562 197.366 126.667 197.378C126.772 197.389 126.865 197.405 126.944 197.425V199.036C126.859 199.01 126.741 198.987 126.59 198.967C126.44 198.947 126.302 198.938 126.177 198.938C125.91 198.938 125.671 198.996 125.461 199.112C125.254 199.226 125.089 199.385 124.967 199.589C124.847 199.794 124.788 200.03 124.788 200.297V204H122.972Z" fill="#0B0755"/>
</svg>
